<svg width="190" height="180" viewBox="0 0 19 18" fill="none" xmlns="http://www.w3.org/2000/svg">
<path d="M15.991 0.816689L13.0051 5.56528L12.6829 4.28833L11.5025 7.76372L13.9499 6.61626L13.9585 7.76618L18.9206 5.77642L16.1545 5.69946L18.021 3.01642L15.1511 4.54962L15.9909 0.81665L15.991 0.816689ZM8.05523 2.07403L6.80523 2.63677L7.46437 4.81083L0.518555 7.937L1.00934 9.02591L7.95508 5.89849L9.14281 7.83091L11.0691 6.96411L10.2354 4.21634L8.05523 2.07403ZM7.56199 8.50708V9.30181L4.0891 9.30181C4.71387 10.8177 6.09008 11.8577 7.56199 12.2034V13.4913H9.84957C9.37621 14.6838 8.54078 15.6664 7.56558 16.5223H6.57086L6.57086 17.2522L17.6779 17.2522V16.5223H16.6073C15.4849 15.667 14.6521 14.6857 14.2001 13.4913H16.6868V12.3511C17.4582 12.0779 18.2297 11.589 19.0012 10.918C18.2273 10.2335 17.4688 9.85356 16.6868 9.67044V8.50716L7.56203 8.50716L7.56199 8.50708Z" fill="white"/>
</svg>
