<svg width="20" height="20" viewBox="0 0 20 20" fill="none" xmlns="http://www.w3.org/2000/svg">
<g clip-path="url(#clip0_538_2112)">
<path d="M18.75 0H1.25C0.559644 0 0 0.559644 0 1.25V18.75C0 19.4404 0.559644 20 1.25 20H18.75C19.4404 20 20 19.4404 20 18.75V1.25C20 0.559644 19.4404 0 18.75 0Z" fill="#580D0E"/>
<path d="M12.4143 1.00007C11.7802 2.22181 10.9489 3.12522 10.0107 3.12522C9.07655 3.12522 8.21892 2.23234 7.58574 1.01999C7.59968 2.41039 7.21583 4.23064 6.40715 4.73372C5.59847 5.23678 4.51611 4.30973 3.40358 3.59882C4.06853 4.80134 5.00719 5.98337 4.53805 6.85877C4.07291 7.72696 2.28388 8.12912 1 8.11733C2.11764 8.79878 4.0035 9.7354 4.00357 10.7382C4.00365 11.7409 2.11771 12.6356 1 13.317C2.28388 13.3052 4.07287 13.7272 4.53813 14.5954C5.00392 15.4648 4.19413 16.5846 3.25241 17.618C4.96007 17.0736 5.73401 17.4154 6.50475 18H7.71427C6.08608 16.749 4.96906 14.1908 4.96906 11.2327C4.96898 7.04223 7.21363 3.64075 9.97499 3.64075C12.7364 3.64075 14.9809 7.04237 14.9809 11.2327C14.9809 14.191 13.8641 16.7491 12.2357 18H13.2762C14.0323 17.4836 14.7922 17.0939 16.6928 17.6722C15.6935 16.6031 15.0852 15.4648 15.5511 14.5954C16.0181 13.7241 17.7095 13.302 19 13.317C17.88 12.6353 16.1298 11.742 16.1298 10.7382C16.1298 9.73434 17.88 8.79906 18.9999 8.11736C17.7095 8.13234 16.0181 7.73011 15.5512 6.85884C15.082 5.98345 15.9314 4.80141 16.5964 3.59889C15.4839 4.30966 14.4028 5.23752 13.5928 4.73372C12.7828 4.22986 12.3973 2.39756 12.4142 1.00003L12.4143 1.00007ZM9.78688 4.31196C9.04174 4.40179 8.36429 5.21505 8.36429 6.26931C8.36429 6.85033 8.58029 7.36395 8.89762 7.71884L9.28452 8.15046L8.6905 8.25422C8.2785 8.32611 7.97648 8.52754 7.71793 8.857C7.45926 9.18642 7.2614 9.64634 7.12265 10.1762C6.8718 11.1346 6.81492 12.3043 6.80608 13.3369H8.18105L8.20604 13.6427L8.55362 17.9724H11.456L11.7644 13.6449L11.7858 13.3369H13.0953C13.0943 12.2915 13.0786 11.1054 12.8513 10.1398C12.7257 9.60653 12.5356 9.14724 12.2739 8.82164C12.0122 8.49606 11.6974 8.29537 11.2346 8.22885L10.6274 8.1416L11.0108 7.69672C11.3144 7.3436 11.5203 6.83616 11.5203 6.26931C11.5202 5.14532 10.7628 4.31528 9.94166 4.31528C9.8449 4.31528 9.7908 4.31164 9.78813 4.31196H9.78699H9.78688Z" fill="white"/>
</g>
<defs>
<clipPath id="clip0_538_2112">
<rect width="20" height="20" fill="white"/>
</clipPath>
</defs>
</svg>
