<svg width="35" height="35" viewBox="0 0 35 35" fill="none" xmlns="http://www.w3.org/2000/svg">
<path d="M21.5184 1.33105C20.2305 3.58691 19.8926 6.3135 21.9201 6.08613C23.5655 5.90184 23.0377 3.33098 21.5184 1.33105ZM13.1637 1.60449C11.9951 3.91504 11.8 6.65311 13.8131 6.33619C15.4469 6.07889 14.7857 3.53476 13.1637 1.60449ZM28.3481 6.75489C26.847 8.83063 26.2491 11.4925 28.2925 11.5187C29.951 11.54 29.6708 8.92517 28.3481 6.75489ZM6.60547 6.97706C5.46215 9.2267 5.40063 11.843 7.05835 11.7046C9.10092 11.5338 8.27979 8.9331 6.60547 6.97706ZM21.4801 7.5495C17.6786 7.70413 18.0401 15.6656 21.6572 15.5198C25.2132 15.3771 25.2201 7.39795 21.4801 7.5495ZM14.1591 7.67556C14.1025 7.67665 14.0465 7.6813 13.9882 7.68629C10.1997 8.01339 10.9855 15.9473 14.5907 15.6374C18.0792 15.338 17.7264 7.61062 14.1591 7.67556ZM8.49382 13.3795C8.381 13.378 8.2682 13.3844 8.15627 13.3986C4.38652 13.8764 5.54323 21.773 9.13039 21.3197C12.5466 20.8884 11.9089 13.4188 8.49382 13.3795ZM27.5405 13.4713C23.7361 13.4011 23.5423 21.3669 27.1624 21.4351C30.7208 21.5025 31.2834 13.5409 27.5405 13.4713ZM17 17.5C13.1021 17.586 15.8901 21.1584 9 23.5C3.65956 25.3148 7.7444 31.8046 12.3155 31.8236C14.8244 31.8341 15.7198 29.8537 17.7736 29.8626C20.1058 29.8725 20.2922 31.6491 23.7058 31.6635C28.0644 31.6815 31.4865 25.3684 26.5 23.5C20.1511 21.1212 22.0888 17.5403 18 17.5C17.9346 17.4995 17.0619 17.4986 17 17.5Z" fill="#1E1E1E"/>
</svg>
