<svg width="150" height="150" viewBox="0 0 15 15" fill="none" xmlns="http://www.w3.org/2000/svg">
<g clip-path="url(#clip0_274_6)">
<path d="M5.05257 0.417696L4.67572 2.75562L6.54434 4.39817L5.79845 2.40793L5.05257 0.417696ZM1.77753 2.98624L0.51213 3.8908L5.06478 5.30729L1.77753 2.98624ZM9.94629 0.886841L8.80882 2.63589L7.84638 4.86651L10.3735 3.4897L9.44629 7.38696L11.4463 6.38696L13.9463 2.98612C13.9463 2.98612 14.2697 1.90683 12.7498 0.694552C11.2298 -0.517721 9.94629 0.886841 9.94629 0.886841ZM2.75813 7.16481L2.30348 8.98827L5.22334 7.37124L2.75813 7.16481ZM7.58967 7.82837L7.04389 10.3232L5.81676 9.00691L5.63678 14.5542L9.94629 14.887L9.94629 9.88696L8.40266 11.7077L7.58967 7.82837Z" fill="#1E1E1E"/>
</g>
<defs>
<clipPath id="clip0_274_6">
<rect width="15" height="15" fill="white"/>
</clipPath>
</defs>
</svg>
