<svg width="41" height="35" viewBox="0 0 41 35" fill="none" xmlns="http://www.w3.org/2000/svg">
<path d="M26.3583 5.83341C33.2624 5.83341 40.25 17.5001 40.25 17.5001C40.25 17.5001 33.2624 29.1667 26.3583 29.1667C22.4443 29.1667 21.0004 25.4922 21.0004 23.56C21.0004 19.5202 23.8145 17.5001 23.8145 17.5001C23.8145 17.5001 21 15.4799 21 11.4402C21.0004 9.50796 22.4438 5.83341 26.3583 5.83341Z" fill="#1E1E1E"/>
<path d="M13.8917 5.83341C6.98758 5.83341 5.12097e-07 17.5001 5.12097e-07 17.5001C5.12097e-07 17.5001 6.98758 29.1667 13.8917 29.1667C17.8057 29.1667 19.2496 25.4922 19.2496 23.56C19.2496 19.5202 16.4355 17.5001 16.4355 17.5001C16.4355 17.5001 19.25 15.4799 19.25 11.4402C19.2496 9.50796 17.8062 5.83341 13.8917 5.83341Z" fill="#1E1E1E"/>
<mask id="path-3-inside-1_428_26" fill="white">
<path d="M5.25 17.5438L5.33869 18.1806L5.94135 22.5171L7.36578 22.2697C7.62926 23.1628 7.96608 24.0268 8.37195 24.8506L7.2592 25.8515L7.62086 26.3536L10.0827 29.7722L11.1686 28.7952C11.8002 29.4312 12.4845 29.9988 13.2121 30.4902L12.7155 31.9236L13.2534 32.1563L16.9148 33.7411L17.399 32.3436C18.2406 32.5456 19.0977 32.6566 19.9584 32.6751L20.16 34.125L24.6098 33.3524L24.412 31.9292C25.2344 31.6293 26.0295 31.2426 26.7865 30.7745L27.5895 31.8895L31.0975 28.7338L30.3098 27.6399C30.8937 26.9122 31.4126 26.1225 31.8591 25.282L33.0177 25.7835L34.6438 21.0901L33.486 20.5889C33.6622 19.6339 33.7549 18.6619 33.7626 17.6868L35 17.4719L34.3088 12.4986L33.0506 12.7171C32.7729 11.7977 32.4174 10.91 31.9888 10.0661L32.991 9.1642L30.1677 5.2435L29.1467 6.16194C28.4991 5.52736 27.7983 4.96389 27.0541 4.4793L27.5347 3.09216L23.3356 1.27459L22.8426 2.6976C22.0081 2.51305 21.1598 2.41759 20.3091 2.41252L20.0955 0.875002L19.5256 0.973917L15.6457 1.64748L15.8648 3.22363C15.0655 3.52799 14.2932 3.91468 13.5579 4.37873L12.6587 3.13003L12.2094 3.53423L9.1507 6.28576L10.0589 7.54668C9.50577 8.24869 9.0126 9.00695 8.5858 9.81156L7.22112 9.22097L7.01282 9.82198L5.595 13.9142L6.96018 14.5049C6.79276 15.412 6.70082 16.3345 6.68554 17.2605C6.68529 17.272 6.68541 17.2833 6.68523 17.2946L5.25019 17.5436L5.25 17.5438ZM6.56686 18.6197L7.80169 18.4053L8.13885 20.8308L6.90414 21.0454L6.56686 18.6197ZM7.08713 13.1775L7.88019 10.8886L9.04553 11.3929L8.25228 13.6819L7.08707 13.1777L7.08713 13.1775ZM7.84088 17.094C7.86186 16.3905 7.93086 15.683 8.05109 14.9773L8.91142 15.3498L10.5377 10.6564L9.67659 10.2838C10.0084 9.67976 10.3814 9.1053 10.7924 8.56555L11.3806 9.38238L14.8886 6.22665L14.2878 5.39215C14.8518 5.04787 15.4388 4.75298 16.0436 4.51013L16.1916 5.57536L20.6414 4.80281L20.4882 3.70054C21.136 3.71655 21.7818 3.78975 22.4193 3.91948L22.0512 4.98139L22.589 5.21405L26.2505 6.79896L26.6324 5.69703C27.1965 6.07689 27.7325 6.50669 28.2352 6.9823L27.3974 7.73595L27.7591 8.23797L30.2209 11.6565L31.0828 10.8812C31.4035 11.5343 31.6767 12.215 31.8999 12.917L30.7947 13.1088L30.8831 13.7458L31.4858 18.0821L32.6092 17.8871C32.5923 18.6357 32.5206 19.3814 32.395 20.117L31.3273 19.6548L31.119 20.2558L29.7012 24.3481L30.7682 24.8099C30.4165 25.4499 30.0184 26.0566 29.578 26.624L28.8675 25.6375L28.4182 26.0417L25.3595 28.7931L26.056 29.7602C25.4706 30.1089 24.8611 30.4048 24.2335 30.6449L24.0637 29.4248L23.494 29.5238L19.614 30.1974L19.7788 31.3826C19.1211 31.3558 18.4664 31.2701 17.8209 31.1263L18.1992 30.0347L13.9999 28.2171L13.6352 29.2696C13.0863 28.8855 12.5655 28.4536 12.0774 27.9779L12.8532 27.28L10.0297 23.3593L9.28 24.0338C8.98038 23.4022 8.7248 22.7458 8.51551 22.0703L9.4557 21.9071L8.76435 16.9338L7.84106 17.0941L7.84088 17.094ZM8.88106 26.0474L9.85446 25.1717L11.2315 27.084L10.2582 27.9596L8.88093 26.0474H8.88106ZM10.7726 6.48159L12.4835 4.94249L13.267 6.03054L11.5562 7.56958L10.7726 6.48159ZM14.2078 31.1872L14.6589 29.8849L16.7071 30.7712L16.2559 32.0735L14.2078 31.1872ZM16.9626 2.72347L19.1328 2.34664L19.3247 3.72689L17.1545 4.10365L16.9626 2.7234V2.72347ZM20.931 31.2734L23.1013 30.8964L23.2931 32.2764L21.1229 32.6534L20.931 31.2734ZM23.5435 4.24471L23.9947 2.94241L26.0428 3.82877L25.5916 5.13107L23.5434 4.24471H23.5435ZM26.9812 28.9888L28.6921 27.4497L29.4756 28.5379L27.7647 30.0769L26.9812 28.9888ZM29.0191 7.93171L29.9923 7.05604L31.3696 8.96831L30.3961 9.84398L29.0191 7.93171ZM31.1934 23.6114L31.9865 21.3223L33.1518 21.8265L32.3587 24.1156L31.1934 23.6114ZM32.1113 14.1848L33.3462 13.9702L33.6834 16.3958L32.4486 16.6103L32.1113 14.1848Z"/>
</mask>
<path d="M5.25 17.5438L5.33869 18.1806L5.94135 22.5171L7.36578 22.2697C7.62926 23.1628 7.96608 24.0268 8.37195 24.8506L7.2592 25.8515L7.62086 26.3536L10.0827 29.7722L11.1686 28.7952C11.8002 29.4312 12.4845 29.9988 13.2121 30.4902L12.7155 31.9236L13.2534 32.1563L16.9148 33.7411L17.399 32.3436C18.2406 32.5456 19.0977 32.6566 19.9584 32.6751L20.16 34.125L24.6098 33.3524L24.412 31.9292C25.2344 31.6293 26.0295 31.2426 26.7865 30.7745L27.5895 31.8895L31.0975 28.7338L30.3098 27.6399C30.8937 26.9122 31.4126 26.1225 31.8591 25.282L33.0177 25.7835L34.6438 21.0901L33.486 20.5889C33.6622 19.6339 33.7549 18.6619 33.7626 17.6868L35 17.4719L34.3088 12.4986L33.0506 12.7171C32.7729 11.7977 32.4174 10.91 31.9888 10.0661L32.991 9.1642L30.1677 5.2435L29.1467 6.16194C28.4991 5.52736 27.7983 4.96389 27.0541 4.4793L27.5347 3.09216L23.3356 1.27459L22.8426 2.6976C22.0081 2.51305 21.1598 2.41759 20.3091 2.41252L20.0955 0.875002L19.5256 0.973917L15.6457 1.64748L15.8648 3.22363C15.0655 3.52799 14.2932 3.91468 13.5579 4.37873L12.6587 3.13003L12.2094 3.53423L9.1507 6.28576L10.0589 7.54668C9.50577 8.24869 9.0126 9.00695 8.5858 9.81156L7.22112 9.22097L7.01282 9.82198L5.595 13.9142L6.96018 14.5049C6.79276 15.412 6.70082 16.3345 6.68554 17.2605C6.68529 17.272 6.68541 17.2833 6.68523 17.2946L5.25019 17.5436L5.25 17.5438ZM6.56686 18.6197L7.80169 18.4053L8.13885 20.8308L6.90414 21.0454L6.56686 18.6197ZM7.08713 13.1775L7.88019 10.8886L9.04553 11.3929L8.25228 13.6819L7.08707 13.1777L7.08713 13.1775ZM7.84088 17.094C7.86186 16.3905 7.93086 15.683 8.05109 14.9773L8.91142 15.3498L10.5377 10.6564L9.67659 10.2838C10.0084 9.67976 10.3814 9.1053 10.7924 8.56555L11.3806 9.38238L14.8886 6.22665L14.2878 5.39215C14.8518 5.04787 15.4388 4.75298 16.0436 4.51013L16.1916 5.57536L20.6414 4.80281L20.4882 3.70054C21.136 3.71655 21.7818 3.78975 22.4193 3.91948L22.0512 4.98139L22.589 5.21405L26.2505 6.79896L26.6324 5.69703C27.1965 6.07689 27.7325 6.50669 28.2352 6.9823L27.3974 7.73595L27.7591 8.23797L30.2209 11.6565L31.0828 10.8812C31.4035 11.5343 31.6767 12.215 31.8999 12.917L30.7947 13.1088L30.8831 13.7458L31.4858 18.0821L32.6092 17.8871C32.5923 18.6357 32.5206 19.3814 32.395 20.117L31.3273 19.6548L31.119 20.2558L29.7012 24.3481L30.7682 24.8099C30.4165 25.4499 30.0184 26.0566 29.578 26.624L28.8675 25.6375L28.4182 26.0417L25.3595 28.7931L26.056 29.7602C25.4706 30.1089 24.8611 30.4048 24.2335 30.6449L24.0637 29.4248L23.494 29.5238L19.614 30.1974L19.7788 31.3826C19.1211 31.3558 18.4664 31.2701 17.8209 31.1263L18.1992 30.0347L13.9999 28.2171L13.6352 29.2696C13.0863 28.8855 12.5655 28.4536 12.0774 27.9779L12.8532 27.28L10.0297 23.3593L9.28 24.0338C8.98038 23.4022 8.7248 22.7458 8.51551 22.0703L9.4557 21.9071L8.76435 16.9338L7.84106 17.0941L7.84088 17.094ZM8.88106 26.0474L9.85446 25.1717L11.2315 27.084L10.2582 27.9596L8.88093 26.0474H8.88106ZM10.7726 6.48159L12.4835 4.94249L13.267 6.03054L11.5562 7.56958L10.7726 6.48159ZM14.2078 31.1872L14.6589 29.8849L16.7071 30.7712L16.2559 32.0735L14.2078 31.1872ZM16.9626 2.72347L19.1328 2.34664L19.3247 3.72689L17.1545 4.10365L16.9626 2.7234V2.72347ZM20.931 31.2734L23.1013 30.8964L23.2931 32.2764L21.1229 32.6534L20.931 31.2734ZM23.5435 4.24471L23.9947 2.94241L26.0428 3.82877L25.5916 5.13107L23.5434 4.24471H23.5435ZM26.9812 28.9888L28.6921 27.4497L29.4756 28.5379L27.7647 30.0769L26.9812 28.9888ZM29.0191 7.93171L29.9923 7.05604L31.3696 8.96831L30.3961 9.84398L29.0191 7.93171ZM31.1934 23.6114L31.9865 21.3223L33.1518 21.8265L32.3587 24.1156L31.1934 23.6114ZM32.1113 14.1848L33.3462 13.9702L33.6834 16.3958L32.4486 16.6103L32.1113 14.1848Z" fill="white" stroke="#1E1E1E" stroke-width="0.4" mask="url(#path-3-inside-1_428_26)"/>
</svg>
