<svg width="170" height="170" viewBox="0 0 17 17" fill="none" xmlns="http://www.w3.org/2000/svg">
<path d="M16.2031 11.5806H13.8709L13.3696 14.4838L11.7499 11.5806H5.61133V9.92041H11.9199V4.70752H16.2031V11.5806ZM11.3887 2.51611V9.38916H5.25041L3.63043 12.2934L3.12873 9.38916H0.796875V2.51611H11.3887ZM4.53966 7.14941C4.53966 6.81276 4.13269 6.64426 3.89469 6.88226C3.65669 7.12026 3.8252 7.52726 4.16185 7.52726C4.37053 7.52726 4.5397 7.35809 4.5397 7.14941H4.53966ZM6.56323 7.14941C6.56097 6.81339 6.15417 6.64731 5.91736 6.88568C5.68059 7.12408 5.84939 7.52978 6.18541 7.52978C6.39505 7.52978 6.56462 7.35909 6.56323 7.14941ZM8.58679 7.14941C8.58679 6.81276 8.17982 6.64426 7.94182 6.88226C7.70379 7.12026 7.87233 7.52726 8.20897 7.52726C8.41762 7.52726 8.58679 7.35809 8.58679 7.14941Z" fill="#1E1E1E"/>
</svg>
