<svg width="170" height="170" viewBox="0 0 17 17" fill="none" xmlns="http://www.w3.org/2000/svg">
<path d="M7.67064 2.14021C6.83668 2.28362 6.0295 2.53386 5.2952 2.87662C4.5609 3.21939 3.91387 3.64797 3.39107 4.13789C2.86827 4.62781 2.47994 5.16947 2.24826 5.73192C2.01658 6.29437 1.9461 6.8666 2.04084 7.41592C2.2079 8.38378 2.87945 9.23387 3.94098 9.82125C5.00251 10.4086 6.38829 10.6969 7.86205 10.637C8.51283 12.1573 7.39447 13.6257 5.57611 15.0421C7.93314 14.2683 10.3941 12.4608 10.4898 10.1558C11.8575 9.70541 13.0229 8.97282 13.795 8.07807C14.567 7.18332 14.8999 6.1795 14.739 5.23115C14.6447 4.68185 14.387 4.16616 13.9807 3.71353C13.5744 3.2609 13.0274 2.88021 12.3711 2.59318C11.7147 2.30615 10.9618 2.11842 10.1553 2.0407C9.34875 1.96298 8.50448 1.99679 7.67064 2.14021Z" fill="#1E1E1E"/>
</svg>
