<svg width="13" height="13" viewBox="0 0 13 13" fill="none" xmlns="http://www.w3.org/2000/svg">
<g clip-path="url(#clip0_2037_50)">
<path d="M6.3716 0C2.85578 0.0510965 0.100586 2.39059 0.100586 5.12747C0.100586 6.41552 0.703404 7.59857 1.7162 8.51239L1.86362 8.64415L1.86994 8.84176L1.98915 11.9286C2.21703 12.0581 2.7307 12.3243 3.48239 12.5623V10.5185H4.4205V12.8086C4.93031 12.9153 5.50859 12.9946 6.14739 13.0188V10.9028H7.0854V13.0124C7.75477 12.9791 8.34725 12.8855 8.85782 12.7646V10.5185H9.79583V12.4886C10.3896 12.2756 10.7909 12.0539 10.9832 11.9381L11.0725 8.87945L11.0788 8.67717L11.2294 8.54215C12.2669 7.62277 12.8747 6.4354 12.8747 5.13224C12.8747 2.36469 10.0614 0 6.48765 0H6.37171H6.3716ZM2.48947 4.46718C3.66233 4.45237 5.41949 5.39726 5.41949 5.39726C5.41949 6.49006 4.53283 7.37677 3.43998 7.37677C2.34627 7.37677 1.46207 6.49006 1.46207 5.39726C1.48305 4.71062 1.91672 4.47431 2.48952 4.46718H2.48947ZM10.489 4.46718C11.0618 4.47431 11.4955 4.71062 11.5164 5.39726C11.5164 6.49006 10.6313 7.37677 9.53843 7.37677C8.44563 7.37677 7.55897 6.49006 7.55897 5.39726C7.55897 5.39726 9.31613 4.45237 10.489 4.46718ZM6.4861 6.889L7.50722 9.16801H5.46487L6.48604 6.88895L6.4861 6.889Z" fill="#1E1E1E"/>
</g>
<defs>
<clipPath id="clip0_2037_50">
<rect width="13" height="13" fill="white"/>
</clipPath>
</defs>
</svg>
