<svg width="160" height="160" viewBox="0 0 16 16" fill="none" xmlns="http://www.w3.org/2000/svg">
<path d="M8 1C6.0947 1 5.21476 1.40404 4.80991 1.91233C4.45742 2.35485 4.40615 2.9555 4.39809 3.63768H5.32042C5.36994 3.1655 5.54191 2.74357 5.90945 2.47041C6.35464 2.13961 7.00767 2.01449 8 2.01449C8.99252 2.01449 9.64579 2.14093 10.0908 2.47237C10.4579 2.74574 10.6298 3.16716 10.6795 3.63768H11.6019C11.5938 2.9555 11.5426 2.35485 11.1901 1.91233C10.7852 1.40404 9.9053 1 8 1ZM3.90909 4.17874V4.71981H5.78788V4.17874H3.90909ZM10.2121 4.17874V4.71981H12.0909V4.17874H10.2121ZM2.71121 5.3285C2.29103 5.3285 1.8557 5.55971 1.5303 5.91731C1.20491 6.27496 1 6.74879 1 7.18841V13.6812C1 14.1715 1.10561 14.4844 1.28394 14.6832C1.46221 14.882 1.74333 15 2.18373 15H13.8318C14.2637 15 14.5404 14.8829 14.7172 14.6841C14.8942 14.4853 15 14.1715 15 13.6812V7.18841C15 6.74879 14.7946 6.27367 14.4738 5.91566C14.153 5.55768 13.7273 5.3285 13.3333 5.3285H2.71121ZM7.0303 7.18841H8.9697V9.35266H10.9091V11.5169H8.9697V13.6812H7.0303V11.5169H5.09091V9.35266H7.0303V7.18841Z" fill="#1E1E1E"/>
</svg>
