<svg width="150" height="170" viewBox="0 0 15 17" fill="none" xmlns="http://www.w3.org/2000/svg">
<path d="M14.5 7.68378C14.5 10.0138 13.7513 12.3489 12.4458 14.0898C11.1032 15.8807 9.34584 16.8667 7.49998 16.8667C5.65412 16.8667 3.89495 15.8803 2.55412 14.0899C1.24866 12.3493 0.5 10.0139 0.5 7.68382C0.5 5.90455 1.07896 4.27768 2.12984 3.10415C3.3577 1.72795 5.21534 1 7.49776 1C9.78018 1 11.6391 1.72716 12.8706 3.10339C13.921 4.27731 14.5 5.90413 14.5 7.68378ZM9.9829 12.846C9.9829 12.846 9.14165 12.0789 7.49772 12.0789C5.85378 12.0789 5.01253 12.846 5.01253 12.846C5.01253 12.846 5.856 12.7845 7.49998 12.7845C9.14391 12.7845 9.9829 12.846 9.9829 12.846Z" fill="#1E1E1E"/>
<path d="M4.30869 5.1817C3.83903 5.1817 3.08335 5.46962 3.16025 5.94733C4.79725 6.39091 6.10958 7.105 7.37119 7.86139C6.34343 6.63213 4.76357 5.1817 4.30869 5.1817ZM11.1993 5.1817C10.7444 5.1817 9.16457 6.63213 8.13681 7.86139C9.39842 7.105 10.7107 6.39091 12.3478 5.94733C12.4246 5.46962 11.669 5.1817 11.1993 5.1817ZM3.92652 7.50753C3.77572 7.50954 3.64731 7.54478 3.50919 7.62165C3.32663 7.72317 3.12034 7.91984 2.87305 8.22992C3.16987 8.5388 3.55768 8.953 4.12664 9.12402C4.72837 9.30481 5.5485 9.22858 6.7206 8.33598C6.29472 8.21047 5.93024 8.08888 5.60908 7.97819C5.65074 8.06067 5.67246 8.15178 5.67248 8.24418C5.67248 8.57196 5.40212 8.84232 5.07434 8.84232C4.74656 8.84232 4.47619 8.57196 4.47619 8.24418C4.47619 8.00784 4.61673 7.80141 4.81802 7.70458C4.57003 7.62165 4.36238 7.55997 4.18662 7.53064C4.11685 7.51896 4.05283 7.5115 3.99268 7.5087C3.97066 7.50766 3.94861 7.50726 3.92657 7.5075L3.92652 7.50753ZM11.5815 7.50753C11.5599 7.50729 11.5379 7.50767 11.5154 7.50872C11.4552 7.51152 11.3912 7.51901 11.3214 7.53064C11.1456 7.55997 10.938 7.62165 10.69 7.70458C10.8913 7.80141 11.0318 8.00784 11.0318 8.24418C11.0318 8.57196 10.7614 8.84232 10.4337 8.84232C10.1059 8.84232 9.83552 8.57196 9.83552 8.24418C9.83552 8.14891 9.85849 8.05851 9.89892 7.97819C9.57777 8.08888 9.21326 8.21047 8.7874 8.33596C9.95953 9.22856 10.7797 9.30476 11.3813 9.12395C11.9503 8.95296 12.3381 8.53878 12.6349 8.22985C12.3876 7.91977 12.1813 7.7231 11.9988 7.62158C11.8606 7.54473 11.7322 7.50949 11.5814 7.5075L11.5815 7.50753Z" fill="white"/>
</svg>
