<svg width="190" height="100" viewBox="0 0 19 10" fill="none" xmlns="http://www.w3.org/2000/svg">
<path d="M2.50887 0C1.48769 0 -0.155364 0.652432 0.0118334 1.7349C3.57116 2.74006 5.00997 4.35819 7.75308 6.07216C10.8323 7.14753 3.49791 0 2.50887 0ZM16.4911 0C15.5021 0 8.16765 7.14759 11.2469 6.07216C13.99 4.35819 15.4288 2.74006 18.9882 1.7349C19.1554 0.652431 17.5123 0 16.4911 0Z" fill="#1E1E1E"/>
<path d="M2.15835 5.0002C1.84938 5.00613 1.5863 5.11004 1.30331 5.3367C0.9293 5.63602 0.506659 6.2159 0 7.13016C0.608128 8.0409 1.40268 9.26217 2.56834 9.76642C3.80117 10.2995 5.48144 10.0747 7.88282 7.44289C7.01029 7.07281 6.26354 6.7143 5.60555 6.38796C5.69091 6.63114 5.7354 6.89976 5.73545 7.17221C5.73545 8.13867 5.18154 8.93583 4.50998 8.93583C3.83842 8.93583 3.28451 8.13867 3.28451 7.17221C3.28451 6.47537 3.57245 5.86671 3.98484 5.58121C3.47676 5.3367 3.05133 5.15484 2.69124 5.06835C2.5483 5.03392 2.41712 5.01191 2.29389 5.00366C2.24877 5.00061 2.20351 4.9995 2.15835 5.0002ZM16.8417 5.0002C16.7976 4.9995 16.7525 5.00063 16.7063 5.00373C16.583 5.01198 16.4519 5.03407 16.3089 5.06835C15.9488 5.15484 15.5233 5.3367 15.0153 5.58121C15.4277 5.86671 15.7156 6.47537 15.7156 7.17221C15.7156 8.13867 15.1617 8.93583 14.4901 8.93583C13.8186 8.93583 13.2646 8.13867 13.2646 7.17221C13.2646 6.8913 13.3117 6.62478 13.3945 6.38796C12.7366 6.7143 11.9898 7.07281 11.1173 7.44282C13.5187 10.0746 15.199 10.2993 16.4317 9.76621C17.5974 9.26203 18.3919 8.04083 19 7.12995C18.4933 6.21569 18.0706 5.63581 17.6967 5.33649C17.4137 5.1099 17.1507 5.00606 16.8417 5.0002Z" fill="#1E1E1E"/>
<path d="M8 5.5L8.49964 4.51627C8.49964 4.51627 8.87582 3.89245 8.99964 4.01626C9.12345 4.14007 8.63345 5.86637 8.49982 6C8.36619 6.13363 8 5.5 8 5.5Z" fill="#1E1E1E"/>
<path d="M11.0195 5.5L10.5199 4.51627C10.5199 4.51627 10.1437 3.89245 10.0199 4.01626C9.89608 4.14007 10.3861 5.86637 10.5197 6C10.6533 6.13363 11.0195 5.5 11.0195 5.5Z" fill="#1E1E1E"/>
</svg>
