<svg width="400" height="400" viewBox="0 0 80 80" fill="none" xmlns="http://www.w3.org/2000/svg">
<path d="M49.9188 9.12395C45.3641 9.4578 43.0596 11.8109 38.4963 11.6268C34.1957 11.4534 32.1756 9.13815 27.9096 8.5678C18.1407 7.26173 6.04753 7.88677 3.24061 13.8887C1.83737 16.8894 1.72437 17.8177 2.40455 20.1378C2.97286 22.0767 15.7522 23.3512 18.3786 24.3981L21.4769 25.2844C23.2628 25.6841 25.1918 26.0011 27.2039 26.2485C26.5137 24.6269 26.4965 23.1932 26.5203 21.9744L28.5539 22.0151C28.5242 23.5354 28.4911 24.7306 29.6389 26.5135C31.6149 26.6951 33.6453 26.8111 35.6821 26.8698C35.6388 25.3253 35.7474 23.8299 35.8862 22.3615L37.9097 22.5516C37.771 24.0208 37.6725 25.4628 37.7193 26.9106C39.9387 26.9327 42.1434 26.8843 44.2693 26.7781C44.5455 25.1866 44.7258 23.738 44.9087 22.2665L46.9289 22.5177C46.7635 23.8463 46.5959 25.1923 46.354 26.656C48.4253 26.5102 50.3918 26.3071 52.1933 26.0517C52.8006 24.4889 53.262 22.9415 53.5196 21.4144L55.5229 21.7505C55.2999 23.0709 54.943 24.3796 54.4921 25.6782C55.5205 25.4902 56.4754 25.2843 57.3318 25.0603L60.6312 24.3551C63.6958 22.5516 74.4354 23.826 76.3856 21.4144C77.7786 19.6919 76.6642 16.6327 74.4354 14.686C72.2067 12.7393 60.6061 8.34061 49.9188 9.12395ZM33.6078 28.8592C33.4257 29.7093 34.8592 31.8399 34.7216 32.6982C34.7216 37.426 34.443 37.7041 33.6078 40.207C33.8614 42.739 27.7679 72.0669 28.7454 72.8095C30.4842 74.1305 37.4027 68.1503 39.6107 68.0818C41.8186 68.0133 48.6845 73.8138 49.9188 72.8095C51.6592 70.0285 43.0018 42.0814 43.0801 38.8165C43.1505 35.8831 41.1294 31.5858 44.4726 29.0829C40.0878 29.3056 38.1074 29.2235 33.6078 28.8592Z" fill="#1E1E1E"/>
</svg>
