<svg width="25" height="22" viewBox="0 0 25 22" fill="none" xmlns="http://www.w3.org/2000/svg">
<path d="M24.0801 0.399347L20.0899 4.69283L23.9068 12.0178L24.0801 11.7722V0.399347ZM1.08008 0.461986V12.9067C1.29655 12.9388 1.55665 12.9565 1.81912 12.9596C2.39267 12.9665 2.86543 12.9238 3.13099 12.8966L5.67525 5.55649L1.08008 0.461986ZM19.8837 6.23885L19.5436 6.48985C19.5363 6.49519 19.2845 6.67363 19.2105 6.72619L18.6981 7.07988L18.7053 7.08483C18.4679 7.25325 18.4019 7.30063 18.1324 7.49141C17.9957 7.5882 17.9923 7.59046 17.8626 7.6823C16.8822 7.08142 15.8184 6.61959 14.577 6.25643C13.0157 6.79423 11.3617 7.57245 9.71015 8.30263C10.3958 9.24397 11.1578 9.5505 11.9254 9.56146C12.8154 9.57413 13.7252 9.13285 14.3519 8.63846L14.7094 8.35639L15.0682 8.94752L20.6468 13.5383L22.8266 11.8863L19.8837 6.23885ZM6.32161 6.3898L4.12951 12.7136L4.93403 13.4189L6.42202 11.4959L6.54123 11.342L6.72097 11.3292C6.79345 11.324 6.86497 11.3216 6.93551 11.322C7.42895 11.3256 7.8701 11.4716 8.20099 11.8046C8.44607 12.051 8.609 12.379 8.70352 12.7588L8.81368 12.751C9.39327 12.7096 9.91546 12.846 10.2937 13.2264C10.6719 13.6069 10.8557 14.1807 10.8919 14.8417L10.8953 14.9012C11.2065 14.9682 11.485 15.1079 11.7115 15.3357C12.0898 15.7162 12.2735 16.2899 12.3097 16.9508L12.3193 17.1227C12.3501 17.1339 12.3807 17.146 12.4111 17.159L12.5093 17.0018L12.7736 16.5788L12.9095 16.3612L13.2637 16.6489L16.1352 18.9813C16.4476 18.8935 16.6337 18.7568 16.7373 18.5909C16.841 18.425 16.8935 18.1794 16.8641 17.8137L13.4209 15.0024L13.0673 14.7138L13.3181 14.3146L13.6404 13.7986L13.9946 14.0864L17.8763 17.239C18.1886 17.1513 18.375 17.0146 18.4785 16.8487C18.5821 16.6829 18.6346 16.4379 18.6054 16.0729L14.1407 12.4617L13.7861 12.1747L14.2893 11.3659L14.6441 11.6528L19.1095 15.2649C19.4221 15.1771 19.6085 15.0404 19.7122 14.8744C19.8159 14.7083 19.8684 14.4625 19.8388 14.0962L14.5024 9.70492C13.7942 10.1835 12.8884 10.567 11.9145 10.5531C10.7748 10.5369 9.55572 9.91592 8.65892 8.3467C8.62345 8.28464 8.60062 8.21432 8.59212 8.14088C8.58361 8.06745 8.58965 7.99278 8.60978 7.92235C8.6299 7.85193 8.66362 7.78754 8.70843 7.73392C8.75325 7.6803 8.80804 7.63881 8.86877 7.6125C9.4976 7.34007 10.1329 7.05222 10.7698 6.76663L6.32171 6.39013L6.32161 6.3898ZM6.94503 12.3187L4.64677 15.2887C4.69156 15.6603 4.79366 15.8915 4.93123 16.0299C5.06879 16.1683 5.28275 16.2549 5.61175 16.2593L7.90997 13.2894C7.86517 12.9177 7.76308 12.6865 7.62551 12.5481C7.48795 12.4097 7.27404 12.3231 6.94498 12.3188L6.94503 12.3187ZM9.03764 13.7406L6.44227 17.0946C6.48701 17.4663 6.58916 17.6976 6.72667 17.8359C6.86438 17.9742 7.0782 18.0609 7.40725 18.0651L10.0026 14.7113C9.95789 14.3395 9.85574 14.1084 9.71817 13.9699C9.58066 13.8315 9.36675 13.7449 9.03769 13.7405L9.03764 13.7406ZM10.4553 15.8498L8.15726 18.8198C8.20206 19.1915 8.30416 19.4227 8.44172 19.5611C8.57933 19.6995 8.79324 19.7861 9.12225 19.7904L11.4204 16.8208C11.3756 16.4489 11.2735 16.2177 11.136 16.0792C10.9984 15.9409 10.7845 15.8543 10.4554 15.85L10.4553 15.8498ZM11.6489 18.006L9.77442 20.4454C9.81911 20.8178 9.92121 21.0493 10.0589 21.1878C10.1964 21.3261 10.4101 21.4127 10.7386 21.4171L12.6132 18.9777C12.5685 18.6054 12.4663 18.3739 12.3286 18.2353C12.1912 18.097 11.9775 18.0105 11.649 18.006L11.6489 18.006ZM13.3566 18.2698C13.4385 18.5244 13.4858 18.8064 13.5023 19.1068L13.5135 19.3108L13.1135 19.8313L14.4048 20.8801C14.7171 20.7923 14.9033 20.6556 15.0069 20.4897C15.1105 20.3239 15.1631 20.0785 15.1339 19.7133L13.3567 18.27L13.3566 18.2698Z" fill="#1E1E1E"/>
</svg>
