<svg width="15" height="15" viewBox="0 0 15 15" fill="none" xmlns="http://www.w3.org/2000/svg">
<g clip-path="url(#clip0_41_38)">
<path d="M0.527344 3.63287C0.527344 3.63287 1.71346 6.13248 2.03443 7.41182C2.45426 9.0852 1.97355 10.3502 2.58366 11.9728C3.63829 13.8762 3.70969 14.1837 7.55856 14.1797C8.96868 14.1784 13.0084 13.1027 13.0084 13.1027C13.5653 12.9595 14.5898 13.0439 14.5898 12.4218C14.5898 11.7998 13.8609 11.3456 13.2138 11.3441L10.6641 11.568C10.0447 11.5291 9.39592 11.1663 9.37617 10.3563C9.38651 9.15724 9.50508 8.23644 10.1137 7.26252L12.4771 3.5751C12.6183 3.28154 12.6518 2.78101 12.2432 2.55756C11.8346 2.33408 11.3704 2.66625 11.2118 2.95547L8.57189 6.54639C8.29011 6.80874 7.78855 6.85928 7.83132 6.30088L8.99698 0.95666C9.06958 0.576973 8.87686 0.117188 8.43741 0.117188C7.86064 0.117188 7.50592 0.337353 7.51711 0.685928L6.23537 5.9589C6.13518 6.21554 5.77995 6.18126 5.68439 5.94454L5.31929 0.816943C5.30054 0.653379 5.0872 0.368291 4.67769 0.427705C4.26823 0.48709 4.03213 0.925752 4.07549 1.09547L4.19396 6.16195C4.11082 6.61099 3.75779 6.67655 3.48305 6.42586L1.68949 3.21823C1.58051 2.9492 1.15371 2.89315 0.906826 2.99982C0.677138 3.14944 0.527314 3.35021 0.527314 3.63272L0.527344 3.63287Z" fill="white"/>
</g>
<defs>
<clipPath id="clip0_41_38">
<rect width="15" height="15" fill="white" transform="matrix(-1 0 0 1 15 0)"/>
</clipPath>
</defs>
</svg>
