<svg width="250" height="220" viewBox="0 0 25 22" fill="none" xmlns="http://www.w3.org/2000/svg">
<path d="M7.98904 4.00001C7.61018 3.99933 7.23269 4.04141 6.86513 4.12532C4.19618 4.4654 4.0707 8.1886 4.0707 8.1886C4.0707 8.1886 3.67356 9.58479 4.76179 11.6453C5.42395 12.5232 5.78623 13.2394 6.73747 13.9707C9.42894 15.5102 10.7379 16.8524 11.7158 19.066L12.0506 19.8236L12.3698 19.0604C13.2967 16.8448 15.4491 15.4651 17.3282 13.9707C19.2073 12.4763 20.8391 10.8322 20.9199 8.50848C21.0055 6.05051 19.327 4.49874 17.3282 4.14013C15.4857 3.80952 13.3625 5.17685 12.0506 6.84747C11.0148 5.39957 9.48595 4.00286 7.98904 4.00001ZM8.07056 4.61762C9.5128 4.63143 9.63961 5.62822 10.9916 6.7924C11.1066 6.9611 12.037 8.654 12.037 8.654L12.5597 7.2578C14.1279 5.3962 14.0384 5.26055 15.1733 4.9308C16.6866 4.47629 18.4194 4.77124 19.4192 5.97052C20.3448 7.07095 19.9052 8.3523 19.3884 9.6172C18.733 11.1191 17.9212 12.2746 16.6158 13.308C14.8591 14.6609 13.0693 16.3004 12.0326 18.2134C11.8422 17.8826 11.6313 17.5613 11.3971 17.2548C9.87652 15.2062 8.13121 14.1416 6.28711 12.3772C5.24169 10.0502 4.9663 9.28404 5.24169 7.7232C5.46053 5.92586 5.93983 4.61418 7.9306 4.61886C7.97734 4.61762 8.02404 4.61714 8.07056 4.61762Z" fill="#1E1E1E"/>
<path d="M8.07056 4.61762C9.5128 4.63143 9.63961 5.62822 10.9916 6.7924C11.1066 6.9611 12.037 8.654 12.037 8.654L12.5597 7.2578C14.1279 5.3962 14.0384 5.26055 15.1733 4.9308C16.6866 4.47629 18.4194 4.77124 19.4192 5.97052C20.3448 7.07095 19.9052 8.3523 19.3884 9.6172C18.733 11.1191 17.9212 12.2746 16.6158 13.308C14.8591 14.6609 13.0693 16.3004 12.0326 18.2134C11.8422 17.8826 11.6313 17.5613 11.3971 17.2548C9.87652 15.2062 8.13121 14.1416 6.28711 12.3772C5.24169 10.0502 4.9663 9.28404 5.24169 7.7232C5.46053 5.92586 5.93983 4.61418 7.9306 4.61886C7.97734 4.61762 8.02404 4.61714 8.07056 4.61762Z" fill="#1E1E1E"/>
</svg>
