<svg width="220" height="210" viewBox="0 0 22 21" fill="none" xmlns="http://www.w3.org/2000/svg">
<path d="M6.52761 3.5882C6.14876 3.58752 5.77126 3.62961 5.4037 3.71351C2.73475 4.0536 2.60927 7.77679 2.60927 7.77679C2.60927 7.77679 2.21213 9.17299 3.30037 11.2335C3.96253 12.1114 4.3248 12.8276 5.27604 13.5589C7.96751 15.0984 9.27647 16.4406 10.2544 18.6542L10.5892 19.4118L10.9084 18.6486C11.8353 16.433 13.9876 15.0533 15.8667 13.5589C17.7458 12.0645 19.3777 10.4204 19.4585 8.09667C19.5441 5.63871 17.8656 4.08693 15.8667 3.72832C14.0243 3.39772 11.9011 4.76504 10.5892 6.43567C9.55337 4.98776 8.02453 3.59106 6.52761 3.5882Z" fill="#1E1E1E"/>
</svg>
