<svg width="450" height="300" viewBox="0 0 45 30" fill="none" xmlns="http://www.w3.org/2000/svg">
<g clip-path="url(#clip0_428_16)">
<path fill-rule="evenodd" clip-rule="evenodd" d="M2.86821 16.095C2.22295 15.593 1.66268 15.1572 1.72956 14.5228C3.61107 14.2257 2.83195 13.8009 2.21336 13.4636C1.94362 13.3165 1.7044 13.1861 1.72963 13.0901C1.86223 12.586 2.90416 12.9868 2.9097 12.6506C2.92023 12.0111 2.75918 11.985 3.62174 11.545C5.35806 11.0874 4.33079 13.7652 5.9866 13.7262C6.30544 14.2408 6.67832 14.0512 6.77489 14.5386C6.88082 15.0733 8.58061 12.1497 8.11678 12.9329L8.11669 12.9332L8.13164 14.0833C8.24871 14.2944 8.40991 14.4777 8.60425 14.6208C8.86195 14.8094 9.14741 14.9215 9.43738 15.0014C9.53323 15.1245 9.57996 15.1543 9.54277 15.0291C9.92745 15.1254 10.3264 15.1769 10.6996 15.2251C10.9588 15.2586 11.2055 15.2905 11.4267 15.3346L11.4282 15.3349C11.5695 15.4197 11.713 15.5103 11.8595 15.6028C12.3033 15.8832 12.7747 16.1809 13.2978 16.3873C13.7658 16.5719 14.3031 16.6555 14.8537 16.5588C14.8893 16.919 16.6295 14.2338 17.5397 12.6506C18.2037 11.0823 18.7758 9.71741 18.7758 9.71741C18.7758 9.71741 20.5595 5.11591 20.9639 4.52121C21.3684 3.9265 21.7522 3.81981 21.7522 3.81981L22.5405 3.97746C22.5405 3.97746 23.2191 4.797 22.8558 5.55404C22.4925 6.31108 21.2829 11.1282 21.2829 11.1282C21.2829 11.1282 20.7993 12.3956 20.2247 13.9481C20.1272 14.2611 19.9851 14.6376 19.8228 15.0411C19.2962 16.4837 18.3242 17.3072 18.0667 18.1666C17.8878 19.2324 16.7642 18.9609 16.1917 20.0585C14.1638 21.0045 15.6037 20.5315 14.1638 21.9504C14.0485 21.9741 13.8895 25.0636 13.8105 25.1509C13.7314 25.2382 13.6822 25.3484 13.67 25.4655L11.4868 32.0405L5.80976 30.5739L6.39386 24.0936C6.39796 24.0481 5.5712 24.3213 4.7221 24.6019C3.83756 24.8942 2.92876 25.1945 2.9097 25.1509C2.89041 25.1068 3.78186 24.7115 4.63894 24.3315C5.44249 23.9752 6.21582 23.6323 6.18007 23.6048L4.54561 18.1666C4.29872 17.2078 3.53772 16.6158 2.86821 16.095ZM9.0422 13.1849C9.02636 13.2186 9.02837 13.2955 9.10564 13.4567C9.09638 13.4728 9.087 13.4889 9.07749 13.505C9.11414 13.6002 9.1671 13.6589 9.25895 13.7262C9.54265 14.1716 9.5242 14.344 9.50339 14.5386C9.48982 14.6655 9.47525 14.8017 9.54277 15.0291C9.5076 15.0203 9.47246 15.0111 9.43738 15.0014C9.18351 14.6756 8.58505 13.6958 8.28886 13.2109C8.18991 13.0489 8.1247 12.9422 8.11735 12.9335C8.71197 13.1535 8.95424 13.1899 9.0422 13.1849ZM9.08353 13.1642C9.07564 13.1585 9.05399 13.1598 9.0422 13.1849C9.08552 13.1824 9.09141 13.1698 9.08353 13.1642Z" fill="#1E1E1E"/>
<path d="M1.48024 12.8666C1.95185 10.6422 4.21759 11.1225 4.21759 11.1225C4.21759 11.1225 3.38057 9.48688 3.55631 8.65796C3.73207 7.82897 3.79212 7.5457 5.16078 6.67374C6.52948 5.80159 6.52948 5.80159 7.66235 6.04177L16.7253 7.96321C17.8582 8.20339 19.0264 9.68244 19.6523 10.9082C20.1434 11.8706 20.3136 13.3728 20.1608 14.0938C19.3704 17.8218 14.8597 24.2024 14.8597 24.2024L12.4819 37.2458L0.188129 34.675L4.36111 21.6129L2.56696 18.9082C1.6699 17.5557 0.772837 16.2033 1.00862 15.0912L1.48024 12.8666Z" fill="#1E1E1E"/>
<path fill-rule="evenodd" clip-rule="evenodd" d="M38.3339 16.095C38.9792 15.593 39.5395 15.1572 39.4726 14.5228C37.5911 14.2257 38.3702 13.8009 38.9888 13.4636C39.2585 13.3165 39.4978 13.1861 39.4725 13.0901C39.3399 12.586 38.298 12.9868 38.2925 12.6506C38.2819 12.0111 38.443 11.985 37.5804 11.545C35.8441 11.0874 36.8714 13.7652 35.2155 13.7262C34.8967 14.2408 34.5238 14.0512 34.4273 14.5386C34.3213 15.0733 32.6216 12.15 33.0855 12.9332L33.0705 14.0833C32.9534 14.2944 32.7922 14.4777 32.5979 14.6208C32.3402 14.8094 32.0547 14.9215 31.7648 15.0014C31.6689 15.1245 31.6222 15.1543 31.6594 15.0291C31.2747 15.1254 30.8758 15.1769 30.5025 15.2251C30.2434 15.2586 29.9966 15.2905 29.7755 15.3346L29.774 15.3349C29.6326 15.4197 29.4891 15.5103 29.3427 15.6028C28.8988 15.8832 28.4275 16.1809 27.9043 16.3873C27.4364 16.5719 26.8991 16.6555 26.3485 16.5588C26.3129 16.919 24.5727 14.2338 23.6625 12.6506C22.9985 11.0823 21.8853 9.87494 21.8853 9.87494C21.8853 9.87494 20.3375 5.22261 20.2382 4.52121C20.1389 3.81981 19.4499 3.81981 19.4499 3.81981L18.6616 3.97747C18.6616 3.97747 18.3463 4.52121 18.3463 5.55404C18.3463 6.58687 19.7024 11.1874 19.7024 11.1874C19.7024 11.1874 20.4029 12.3956 20.9774 13.9481C21.075 14.2611 21.2171 14.6376 21.3793 15.0411C21.906 16.4837 22.8779 17.3072 23.1355 18.1666C23.3144 19.2324 24.438 18.9609 25.0105 20.0585C27.0383 21.0045 25.5984 20.5315 27.0383 21.9504C27.1537 21.9741 27.3126 25.0636 27.3917 25.1509C27.4707 25.2382 27.5199 25.3484 27.5321 25.4655L29.7154 32.0405L35.3924 30.5739L34.8083 24.0936C34.8042 24.0481 35.6309 24.3213 36.4801 24.6019C36.461 24.6455 37.3646 24.8942 36.4801 24.6019C36.4993 24.5578 37.4203 24.7115 36.5632 24.3315C35.7597 23.9752 34.9863 23.6323 35.0221 23.6048L36.6565 18.1666C36.9034 17.2078 37.6644 16.6158 38.3339 16.095ZM32.1599 13.1849C32.1758 13.2186 32.1738 13.2955 32.0965 13.4567C32.1058 13.4728 32.1151 13.4889 32.1247 13.505C32.088 13.6002 32.0351 13.6589 31.9432 13.7262C31.6595 14.1716 31.6779 14.344 31.6988 14.5386C31.7123 14.6655 31.7269 14.8017 31.6594 15.0291C31.6945 15.0203 31.7297 15.0111 31.7648 15.0014C32.0186 14.6756 32.6171 13.6958 32.9133 13.2109C33.0122 13.0489 33.0781 12.9419 33.0855 12.9332C32.4908 13.1532 32.2479 13.1899 32.1599 13.1849ZM32.1186 13.1642C32.1265 13.1585 32.1482 13.1598 32.1599 13.1849C32.1166 13.1824 32.1107 13.1698 32.1186 13.1642Z" fill="#1E1E1E"/>
<path d="M42.5632 7.51817C40.1983 6.82343 36.9852 11.1227 36.9852 11.1227C36.9852 11.1227 37.0174 9.60836 36.8416 8.77943C36.6659 7.95045 36.8373 7.44418 35.4687 6.57222C33.5403 6.04191 33.5404 6.0419 33.5404 6.0419L31.6848 7.0452L29.4776 7.0452L28.0587 7.99114L25.0632 8.30646L23.4866 9.25241C22.5407 9.88304 22.1763 9.68257 21.5504 10.9083C21.0593 11.8707 20.8891 13.3729 21.042 14.0939C22.5407 17.7659 26.343 24.2026 26.343 24.2026L28.7209 37.2459L41.0146 34.6752L36.8416 21.6131L38.4641 19.3425L40.356 14.6128C40.1983 12.7209 44.0605 9.4186 43.8247 8.30646L42.5632 7.51817Z" fill="#1E1E1E"/>
</g>
<defs>
<clipPath id="clip0_428_16">
<rect width="45" height="30" fill="white"/>
</clipPath>
</defs>
</svg>
