<svg width="10" height="16" viewBox="0 0 10 16" fill="none" xmlns="http://www.w3.org/2000/svg">
<path d="M4.99024 2.19519e-06C3.06543 -0.00182437 0.696891 1.13604 0 4.07821L2.36092 4.63441C3.40886 1.67142 5.8924 1.88198 6.76449 3.52196C7.80504 5.47856 3.27898 7.6913 3.49518 10.9217H6.51436C6.76658 7.10758 11.138 6.12256 8.82912 2.00152C8.13184 0.75682 6.69535 0.064748 5.17488 0.00482123V0.00365538C5.11374 0.00124588 5.05234 7.99212e-05 4.99028 2.19519e-06H4.99024Z" fill="white"/>
<path d="M5.04378 11.7002C3.99642 11.7002 3.15527 12.5414 3.15527 13.5887C3.15527 14.636 3.99646 15.4772 5.04378 15.4772C6.09114 15.4772 6.93229 14.636 6.93229 13.5887C6.93229 12.5414 6.0911 11.7002 5.04378 11.7002V11.7002Z" fill="white"/>
</svg>
