<svg width="150" height="150" viewBox="0 0 15 15" fill="none" xmlns="http://www.w3.org/2000/svg">
<path d="M13.4516 7.90283C13.6905 8.35646 13.8378 8.85273 13.8848 9.36328C13.9319 9.87383 13.8779 10.3887 13.7259 10.8783C13.5739 11.368 13.3269 11.8229 12.9991 12.2171C12.6712 12.6113 12.2688 12.9369 11.815 13.1755L10.5616 13.8359L10.2534 13.998C9.97027 14.147 9.65666 14.229 9.33681 14.2375C9.01696 14.2461 8.69943 14.181 8.40871 14.0474L3.51388 11.9562L3.97481 10.5887L6.88583 11.151L5.37827 8.28639L2.95123 3.67474L4.13357 3.05271L6.56064 7.6657L7.14464 7.35853L6.07469 5.324L7.25638 4.70232L8.3263 6.73685L8.91033 6.42967L8.08416 4.85941L9.26652 4.23738L10.0927 5.80764L10.677 5.49779L10.11 4.41715L11.292 3.79682L11.859 4.87743L13.4513 7.90383L13.4516 7.90283ZM2.14645 4.29709C1.90083 4.05126 1.73354 3.73817 1.66571 3.39734C1.59788 3.05652 1.63254 2.70324 1.76531 2.3821C1.89809 2.06095 2.12302 1.78634 2.41173 1.59293C2.70044 1.39952 3.03998 1.29597 3.38749 1.29536C3.6691 1.29568 3.94653 1.36354 4.19648 1.49325C4.44644 1.62295 4.66164 1.81073 4.82402 2.04081C4.9864 2.27088 5.09123 2.53656 5.1297 2.81553C5.16817 3.0945 5.13916 3.37862 5.04511 3.64406L5.3553 4.23038C5.56279 3.88254 5.67448 3.48596 5.679 3.08096C5.68351 2.67596 5.58071 2.27699 5.38103 1.9246C5.18136 1.57222 4.89193 1.27899 4.54218 1.07474C4.19243 0.870481 3.79483 0.762482 3.38981 0.761719C2.79629 0.761802 2.22595 0.992116 1.79881 1.40419C1.37166 1.81627 1.12102 2.37797 1.09963 2.9711C1.07825 3.56423 1.28777 4.14253 1.68413 4.5843C2.08048 5.02608 2.63275 5.29687 3.22472 5.33971L2.91285 4.74668C2.62294 4.6653 2.35894 4.51044 2.14645 4.29709Z" fill="white"/>
</svg>
