<svg width="45" height="45" viewBox="0 0 45 45" fill="none" xmlns="http://www.w3.org/2000/svg">
<path d="M39.8685 3C38.3438 5.06094 36.9414 6.92734 35.032 8.54125C33.8055 9.49781 32.5895 10.501 31.2459 11.2944C29.594 12.0147 25.9424 12.3012 24.5286 13.942C24.2048 14.4559 24.1636 15.6037 24.4953 17.0277C24.6664 17.7623 24.9212 18.5611 25.2247 19.3774C27.7144 18.7163 30.195 18.152 32.3702 17.148C35.5649 15.222 38.6912 13.1246 41.1874 10.5504V3H39.8685ZM30.4859 4.05664C27.857 4.03883 25.318 4.82477 23.2607 5.99773C19.399 8.19961 17.3548 11.4938 17.2045 14.7304C17.5298 19.7777 20.5726 25.0989 22.4236 29.7385C22.6227 30.5221 22.6162 31.0485 22.5322 31.3732C22.4484 31.6979 22.341 31.9449 21.7572 32.3876C20.4619 33.3696 18.9183 33.8063 17.446 33.8345C15.7546 35.3964 14.0513 36.8014 12.8749 38.7438C16.723 40.178 21.4007 39.7162 25.1552 36.8702C26.5649 35.8014 27.5774 34.3319 27.9784 32.7805C28.3791 31.2289 28.2225 29.7198 27.8752 28.3534C26.8573 26.1763 25.7252 24.0696 24.9002 22.2648C24.1666 20.6477 23.4927 18.9229 23.1256 17.3469C22.8475 16.1534 22.7102 15.025 22.9647 14.0633L22.9483 14.0672C23.1979 13.0377 23.9178 12.098 26.0467 10.8842C27.2878 10.1766 29.4248 9.7157 31.1427 9.80023C31.1473 9.80047 31.1517 9.80102 31.1564 9.80117C32.9632 8.40063 34.7009 7.13398 36.1819 5.56914C35.6827 5.25977 35.1633 5.00273 34.6352 4.80617C33.2649 4.29578 31.863 4.06594 30.4859 4.05656L30.4859 4.05664ZM40.4199 13.1859C38.4043 15.012 36.0809 16.5578 33.8861 17.8839C33.6066 18.2634 33.2377 18.6195 32.755 18.9906C30.5817 20.4377 28.5381 21.1703 26.2664 21.8681C27.2638 24.0409 28.3582 25.9862 28.9145 26.9408C31.4475 26.0587 34.3095 24.8645 36.1835 23.45C37.9706 22.076 39.5062 20.0897 40.0321 17.5785C40.363 15.9983 40.491 14.5342 40.4199 13.1859V13.1859ZM15.9879 16.4297C13.4858 17.6184 11.1062 19.2614 9.24336 21.6595C6.94687 24.6162 5.89336 27.6639 6.13945 30.4931C6.21695 31.3859 6.42773 32.2341 6.74469 33.025C8.46078 30.937 10.712 28.5307 12.4478 27.027C12.7434 26.443 13.1463 25.8048 13.6859 25.1102C14.6535 23.8643 16.0177 22.8783 17.6007 22.0633C16.9891 20.382 16.4148 18.4914 15.988 16.4297H15.9879ZM18.5765 24.5324C18.08 24.7746 17.596 25.0361 17.1302 25.3238C13.3964 27.6354 9.95523 31.2648 7.24 34.6522C6.01703 36.2998 4.945 37.9727 4 39.5977V40.1875H10.2723C11.4371 38.42 12.6344 36.5279 13.9934 35.132C15.8301 33.2745 18.054 31.3733 20.0855 30.1098C20.3244 29.9623 20.6098 29.8165 20.9288 29.6712C20.0814 27.7045 19.2405 26.1097 18.5763 24.5325L18.5765 24.5324Z" fill="#1E1E1E"/>
</svg>
