<svg width="25" height="22" viewBox="0 0 25 22" fill="none" xmlns="http://www.w3.org/2000/svg">
<path d="M8.65217 4C6.75792 5.92589 4.24166 7.74762 2 8.29746C3.76289 9.01578 6.01466 9.23248 8.07442 8.75488C10.4761 10.3199 13.8503 10.3626 16.4105 8.75488C18.4391 9.51901 20.7548 9.41325 23.16 8.28981C20.4742 7.80996 17.5235 5.71284 16.1597 4.00005C13.6571 5.97919 11.1547 5.60584 8.65221 4.00005L8.65217 4ZM2.6227 9.69614C3.40411 11.1733 4.80809 13.6548 6.66955 16.2432C7.89781 17.951 10.1237 17.7964 12.5299 17.7964C14.7528 17.7964 17.1422 17.8316 18.2846 16.2432C19.9856 13.878 21.3773 11.6404 22.2623 10.149C16.6317 14.3715 7.97892 14.8036 2.6227 9.69624V9.69614Z" fill="#1E1E1E"/>
</svg>
