<svg width="18" height="16" viewBox="0 0 18 16" fill="none" xmlns="http://www.w3.org/2000/svg">
<path d="M6.96531 0.000217597C6.8822 0.00243087 6.78629 0.0198646 6.66934 0.0561623C4.94657 0.591025 2.32397 1.99853 0 2.62897C0.412268 2.85803 0.86148 3.06015 1.32668 3.22043C1.8467 3.00639 2.35461 2.79354 2.78522 2.58001C3.3125 2.31857 3.71972 2.04637 3.88929 1.82412L4.39063 2.13177C4.11232 2.49652 3.63941 2.77903 3.07918 3.05678C2.8006 3.19492 2.49916 3.32952 2.18812 3.46212C2.47346 3.52371 2.76009 3.56733 3.04368 3.58834C3.17194 3.59788 3.29928 3.60298 3.42553 3.60387C4.02715 3.26929 4.59642 2.83739 4.77989 2.52682L5.3167 2.78179C5.18517 3.00448 4.98716 3.21852 4.7497 3.41836C5.34316 3.23115 5.8808 2.89276 6.32694 2.35929L6.60165 2.03081L6.83235 2.38548C7.01095 2.66006 7.25164 2.8898 7.52471 3.08753C7.72716 3.05974 7.90569 3.04074 8.08874 3.03138V1.97596C7.72044 1.72681 7.48124 1.33138 7.48124 0.888353C7.48114 0.70943 7.52074 0.532277 7.59773 0.367212C7.50132 0.246231 7.40181 0.151061 7.30183 0.0923579C7.21936 0.0439042 7.13762 0.0111477 7.03829 0.00236276C7.01404 0.000310594 6.98967 -0.000405798 6.96531 0.000217597ZM10.9998 0.000217597C10.9868 0.0005581 10.9741 0.0012391 10.9617 0.00236276C10.8624 0.0111477 10.7806 0.0439042 10.6982 0.0923579C10.5982 0.151061 10.4987 0.246265 10.4023 0.367212C10.4793 0.532277 10.5189 0.70943 10.5188 0.888353C10.5188 1.33138 10.2796 1.72681 9.91126 1.97596V3.03138C10.1012 3.04122 10.3082 3.06311 10.4753 3.08753C10.7484 2.8898 10.989 2.66006 11.1677 2.38548L11.3984 2.03081L11.673 2.35929C12.1192 2.89276 12.6568 3.23115 13.2503 3.41836C13.0128 3.21852 12.8148 3.00448 12.6833 2.78179L13.2201 2.52682C13.4036 2.83743 13.9728 3.26929 14.5745 3.60383C14.7019 3.60297 14.8293 3.59781 14.9563 3.58838C15.24 3.5673 15.5265 3.52368 15.8119 3.46212C15.5008 3.32952 15.1994 3.19492 14.9208 3.05678C14.3606 2.77903 13.8877 2.49652 13.6094 2.13177L14.1107 1.82412C14.2803 2.04637 14.6875 2.31857 15.2148 2.58004C15.6453 2.79354 16.1533 3.00635 16.6733 3.22046C17.1385 3.06015 17.5877 2.85803 18 2.62897C15.676 1.99853 13.0534 0.591059 11.3307 0.0561623C11.197 0.0146549 11.0908 -0.00209778 10.9998 0.000251694V0.000217597ZM9 0.100326C8.49311 0.100326 8.08874 0.462962 8.08874 0.917534C8.08874 1.37211 8.49311 1.73474 9 1.73474C9.50689 1.73474 9.91126 1.37211 9.91126 0.917534C9.91126 0.462962 9.50689 0.100326 9 0.100326ZM8.69625 2.22275V3.06175C8.80229 3.08239 8.91491 3.11657 9 3.16016C9.1018 3.10966 9.20048 3.083 9.30375 3.06175V2.22275C9.20553 2.2408 9.10392 2.25033 9 2.25033C8.89608 2.25033 8.79447 2.2408 8.69625 2.22275ZM8.21985 3.57298C8.16063 3.57362 8.10145 3.57589 8.04238 3.57979C7.55402 3.61187 6.9488 3.75277 6.70006 3.8585C6.13406 4.0991 5.89709 4.32808 5.78064 4.53909C5.66419 4.75014 5.65872 4.97501 5.65872 5.2468C5.65872 5.56459 5.82195 5.79903 6.11989 6.02355C6.41787 6.24808 6.84727 6.43696 7.28934 6.5939C8.10541 6.97809 8.96613 7.37508 9.64525 7.81916C9.83186 7.93749 10.0699 8.01182 10.2527 8.09763C10.4318 7.92877 10.5188 7.77313 10.5188 7.63032C10.5188 7.5452 10.4934 7.45115 10.4469 7.35172C9.98313 6.56577 9.11129 6.18669 8.19487 5.73365L8.1927 5.73579C7.79892 5.59881 7.43279 5.5192 7.17748 5.5192L7.04163 5.0031C7.6428 4.73356 8.08331 4.50756 8.34541 4.29223C8.60193 4.08153 8.69723 3.90906 8.69507 3.63465C8.54293 3.57486 8.37017 3.57159 8.21985 3.57298ZM9.78015 3.57298C9.62167 3.57779 9.42708 3.57516 9.30493 3.63462C9.30277 3.90906 9.39807 4.08153 9.65462 4.29223C9.91669 4.50756 10.3572 4.73356 10.9584 5.0031L10.8225 5.5192C10.5202 5.5192 10.0627 5.63051 9.58757 5.81694C9.96916 6.03595 10.3317 6.29112 10.6316 6.6209C10.658 6.61177 10.6843 6.60326 10.7107 6.5939C11.1527 6.43696 11.5821 6.24808 11.8801 6.02355C12.178 5.79903 12.3413 5.56456 12.3413 5.2468C12.3413 4.97501 12.3358 4.75014 12.2194 4.53909C12.1029 4.32808 11.8659 4.0991 11.2999 3.8585C11.0512 3.75277 10.446 3.61187 9.95762 3.57979C9.89855 3.57589 9.83937 3.57362 9.78015 3.57298ZM9 4.45094C8.9276 4.5389 8.84578 4.62031 8.75571 4.69399C8.73642 4.70986 8.71641 4.72552 8.69625 4.74108V5.32505C8.79896 5.367 8.90035 5.41151 9.0003 5.45852C9.10009 5.41157 9.20127 5.36706 9.30375 5.32505V4.74108C9.28366 4.72566 9.26384 4.70996 9.24429 4.69399C9.15422 4.62031 9.0724 4.5389 9 4.45094ZM7.57475 7.30763C7.51423 7.4234 7.48124 7.5327 7.48124 7.63032C7.48124 7.79489 7.59628 7.97644 7.83519 8.17564C8.07409 8.37483 8.41869 8.57287 8.77249 8.75654C9.12629 8.94024 9.48752 9.10998 9.77761 9.27884C9.92265 9.36328 10.0506 9.44636 10.1571 9.54477C10.2636 9.64317 10.3669 9.76981 10.3669 9.94575C10.3669 10.0905 10.2852 10.228 10.1887 10.3136C10.0921 10.3993 9.9853 10.452 9.87454 10.4998C9.78748 10.5374 9.69571 10.5714 9.60268 10.6053C9.85168 10.7694 10.0809 10.9476 10.2659 11.1239C10.3692 11.0815 10.4735 11.0389 10.5765 10.9943C10.8416 10.8795 11.0915 10.7516 11.2573 10.6115C11.4231 10.4714 11.506 10.3401 11.506 10.15C11.506 9.81142 11.3693 9.55601 11.142 9.32273C10.9146 9.08941 10.5917 8.88988 10.2549 8.71847C9.91813 8.54702 9.57166 8.40476 9.28906 8.2609C9.14778 8.18899 9.02157 8.11809 8.91286 8.02663C8.90732 8.02194 8.90185 8.01673 8.89634 8.01186C8.49831 7.77214 7.98516 7.49218 7.57475 7.30763ZM7.66611 8.75977C7.35829 8.92182 7.06749 9.10777 6.85801 9.32273C6.63065 9.55597 6.49404 9.81142 6.49404 10.15C6.49404 10.3401 6.57689 10.4714 6.7427 10.6115C6.90847 10.7516 7.15839 10.8795 7.42349 10.9943C7.52372 11.0377 7.62472 11.0792 7.72496 11.1206C8.44831 11.4538 9.11843 11.7712 9.77472 11.9314C9.92789 11.8847 9.95879 11.7566 9.92417 11.6001C9.3601 11.0913 8.79238 10.7896 8.12546 10.4998C8.0147 10.452 7.90786 10.3993 7.8113 10.3136C7.71478 10.228 7.63311 10.0905 7.63311 9.94575C7.63311 9.76981 7.73639 9.64321 7.84289 9.54477C7.94943 9.44636 8.07731 9.36328 8.22239 9.27884C8.27717 9.24715 8.33253 9.21626 8.38843 9.18618C8.14049 9.05577 7.89134 8.91603 7.66611 8.75977ZM9 9.49815C8.89179 9.55314 8.78889 9.60609 8.69625 9.65615V10.1193C8.72472 10.1311 8.75335 10.1436 8.78198 10.1561C8.85203 10.182 8.92437 10.2092 8.99992 10.2399C9.10662 10.1966 9.20955 10.1586 9.30375 10.1246V9.65618C9.20331 9.60226 9.10205 9.54958 9 9.49815ZM8.32434 12.0116C8.34667 12.1562 8.42169 12.2881 8.54547 12.4252C8.6948 12.5906 8.91263 12.7518 9.14246 12.9039C9.37229 13.0561 9.61195 13.1982 9.81235 13.3522C10.0127 13.5063 10.215 13.6856 10.215 13.9637C10.215 14.3008 9.99403 14.5743 9.72259 14.883C9.45119 15.1917 9.1018 15.5142 8.754 15.8117C8.67628 15.8782 8.60265 15.9366 8.52599 16C8.83848 15.8532 9.16274 15.6754 9.46824 15.4761C10.3186 14.9214 10.9744 14.1939 10.9744 13.6913C10.9744 13.5392 10.911 13.4174 10.7852 13.2841C10.6595 13.1508 10.4712 13.0195 10.2692 12.8932C10.0671 12.7669 9.85351 12.6469 9.67069 12.5062C9.64922 12.4896 9.62813 12.4726 9.60743 12.4553C9.11432 12.3377 8.70023 12.1808 8.32434 12.0116ZM8.02541 12.7124C7.92768 12.7733 7.82797 12.8325 7.73085 12.8932C7.52881 13.0195 7.34052 13.1508 7.21477 13.2841C7.08905 13.4174 7.02561 13.5392 7.02561 13.6913C7.02561 13.9403 7.17612 14.2477 7.45527 14.5633C7.69774 14.8374 8.02993 15.1132 8.39792 15.3628C8.46275 15.3069 8.52699 15.2504 8.59066 15.1934C8.48449 15.0903 8.3835 14.9873 8.2918 14.8858C8.01292 14.5772 7.78499 14.3048 7.78499 13.9637C7.78499 13.6856 7.98729 13.5063 8.18765 13.3522C8.282 13.2797 8.38547 13.2099 8.49209 13.1403C8.34332 13.0294 8.19904 12.9072 8.0734 12.768C8.057 12.7498 8.041 12.7313 8.02541 12.7124ZM8.99977 13.4842C8.88981 13.5551 8.78487 13.6228 8.69625 13.6842V14.4646C8.71813 14.4911 8.74063 14.5172 8.76372 14.5428C8.83776 14.6248 8.92064 14.71 9.00926 14.7968C9.09431 14.711 9.17439 14.6267 9.24562 14.5456C9.26597 14.5225 9.28511 14.4996 9.30375 14.4768V13.6842C9.21468 13.6225 9.11049 13.5555 8.99977 13.4842Z" fill="#1E1E1E"/>
</svg>
