<svg width="15" height="15" viewBox="0 0 15 15" fill="none" xmlns="http://www.w3.org/2000/svg">
<path fill-rule="evenodd" clip-rule="evenodd" d="M6.49922 1.37695C6.49336 1.67754 6.48164 1.97021 6.46113 2.25586H11.5969C11.6057 1.96787 11.6086 1.6752 11.6027 1.37695H6.49922ZM6.41719 2.7832C6.03926 6.45996 4.44785 8.90332 2.8418 10.9336L6.2209 14.3145C9.20918 10.6377 11.2893 7.33887 11.5734 2.7832H10.718C10.6535 4.21875 10.0734 6 9.29414 7.72559C8.50605 9.46875 7.50996 11.1533 6.59297 12.3428L6.21797 11.9678C7.08809 10.8223 8.05488 9.1875 8.81367 7.50879C9.57246 5.82715 10.1232 4.09277 10.1906 2.7832H9.31172C9.24727 4.21875 8.66719 6 7.88789 7.72559C7.2668 9.09961 6.5168 10.4385 5.77559 11.5254L5.39766 11.1445C6.09785 10.1016 6.81562 8.81836 7.40742 7.50879C8.16621 5.82715 8.71699 4.09277 8.78437 2.7832H7.90547C7.84102 4.21875 7.26094 6 6.48164 7.72559C6.01582 8.75977 5.47676 9.77051 4.92305 10.6699L4.53926 10.2861C5.05488 9.43066 5.56465 8.47852 6.00117 7.50879C6.75996 5.82715 7.31074 4.09277 7.37812 2.7832H6.41719Z" fill="#1E1E1E"/>
<rect width="1.22197" height="14.2256" transform="matrix(0.55257 -0.833466 0.849145 0.528161 1.43164 3.72986)" fill="#1E1E1E"/>
<rect width="1.27631" height="13.5966" transform="matrix(0.353642 0.935381 -0.945246 0.326359 13.8687 4.14636)" fill="#1E1E1E"/>
</svg>
