<svg width="150" height="100" viewBox="0 0 15 10" fill="none" xmlns="http://www.w3.org/2000/svg">
<path d="M4.14542 4.70433e-05C4.10637 0.000193174 4.0674 0.00101161 4.02768 0.0018884C2.95428 0.0254447 1.63861 0.314726 0 0.987338L0 8.10024C1.92347 7.25794 3.37781 7.01691 4.56481 7.13308C5.62521 7.23684 6.45394 7.61999 7.20969 8.04456L7.20969 0.943469C6.47483 0.424879 5.62093 0.0655137 4.48859 0.00823035C4.37718 0.00261891 4.26254 -0.000420576 4.14539 4.70433e-05L4.14542 4.70433e-05ZM10.8546 4.70433e-05C10.7375 -0.000420576 10.6228 0.00261891 10.5113 0.00823035C9.37907 0.0655137 8.5252 0.424879 7.79031 0.943469L7.79031 8.04456C8.54603 7.61999 9.37479 7.23684 10.4352 7.13305C11.6222 7.01691 13.0765 7.25791 15 8.10027L15 0.987367C13.3614 0.314755 12.0457 0.0254737 10.9723 0.00185896C10.9326 0.00104063 10.8936 0.000222368 10.8546 0.000105464V4.70433e-05ZM11.0356 7.65088C11.0028 7.65083 10.97 7.65138 10.9377 7.65185C10.7855 7.65404 10.6392 7.66266 10.4975 7.67649C9.42354 7.78161 8.61101 8.20186 7.79037 8.68304V8.69122C7.58293 8.63306 7.37827 8.62195 7.17608 8.66287C6.36687 8.19008 5.56174 7.78018 4.50252 7.67649C4.32543 7.65918 4.14042 7.65068 3.94659 7.65188C2.93247 7.6581 1.67295 7.93765 3.16343e-05 8.70218L3.16343e-05 9.94517C1.92351 9.10278 3.37771 8.86184 4.56478 8.97802C5.15176 9.03545 5.66743 9.17807 6.13945 9.36614C5.99126 9.54337 5.84484 9.75392 5.70028 10H9.40847C9.22078 9.75976 9.03505 9.54951 8.85058 9.36988C9.32523 9.17982 9.84413 9.03583 10.4351 8.97802C11.6222 8.86187 13.0764 9.10281 14.9999 9.94523L14.9999 8.70224C13.3173 7.9333 12.0527 7.6541 11.0356 7.65097L11.0356 7.65088Z" fill="#1E1E1E"/>
</svg>
