<svg width="15" height="15" viewBox="0 0 15 15" fill="none" xmlns="http://www.w3.org/2000/svg">
<path d="M2.96065 0.875977L0.761719 3.075L2.01349 3.76641L1.22306 4.55602L4.37555 6.45674C3.19069 8.51186 3.47555 11.1756 5.23102 12.9301C7.32882 15.0279 10.7311 15.0274 12.8293 12.9301C14.9276 10.8328 14.9282 7.43244 12.8304 5.33578C11.0751 3.58154 8.40964 3.2976 6.35335 4.48099L4.45172 1.33052L4.20445 1.57755L3.65988 2.12159L2.96065 0.875977ZM4.34417 2.21186L6.17045 5.23749L6.4077 5.08374C7.70291 4.244 9.3085 4.08636 10.7192 4.61271C10.6852 4.61194 10.651 4.61153 10.6166 4.61153C9.47435 4.61153 8.54839 5.04533 8.54839 5.58047C8.54839 6.11572 9.47435 6.54946 10.6166 6.54946C11.5403 6.54946 12.3224 6.26575 12.5879 5.87417C13.0549 6.38218 13.3933 6.96472 13.603 7.5808C13.3757 7.48157 13.0675 7.38434 12.6977 7.30064C11.7783 7.09263 10.4844 6.96035 9.05593 6.96035C7.6275 6.96035 6.33366 7.0926 5.41421 7.30064C5.01255 7.39151 4.68187 7.49839 4.45055 7.60644C4.5777 7.22566 4.75356 6.85737 4.97842 6.51123L5.13261 6.27381L2.10536 4.44861L2.51241 4.04197L3.88752 4.80144L4.70531 3.98361L3.93832 2.61735L4.34423 2.21183L4.34417 2.21186ZM4.31232 8.10894C4.32645 8.11714 4.34109 8.12534 4.35645 8.13354C4.5876 8.25718 4.95439 8.38219 5.41415 8.48619C6.33357 8.6942 7.62744 8.82648 9.05587 8.82648C10.4843 8.82648 11.7782 8.69423 12.6976 8.48619C13.1572 8.38219 13.5239 8.2573 13.7551 8.13366C13.7913 8.30467 13.8181 8.47723 13.8355 8.65055C13.5592 8.77585 13.2143 8.88179 12.8079 8.97375C11.8351 9.19386 10.5149 9.3264 9.0559 9.3264C7.59686 9.3264 6.27662 9.19386 5.30385 8.97375C4.87406 8.87648 4.51283 8.76369 4.22895 8.62875C4.24726 8.45438 4.27494 8.28082 4.31229 8.10888L4.31232 8.10894Z" fill="white"/>
</svg>
