<svg width="110" height="120" viewBox="0 0 11 12" fill="none" xmlns="http://www.w3.org/2000/svg">
<path d="M5.13546 0.423356C3.91662 0.423356 2.91626 1.49445 2.91626 2.84107C2.91626 4.18768 3.91662 5.25877 5.13549 5.25877C6.3544 5.25877 7.35549 4.18768 7.35549 2.84105C7.35549 1.4944 6.35438 0.423356 5.13546 0.423356ZM3.75781 3.74192C4.06896 3.82793 4.37642 3.88362 4.68066 3.91114V4.35059C4.33674 4.32223 3.9901 4.26036 3.64062 4.16379L3.75781 3.74192ZM6.50878 3.74192L6.62377 4.1645C6.28505 4.25679 5.94221 4.31879 5.59547 4.34836V3.90966C5.90215 3.881 6.20609 3.82437 6.50878 3.74192ZM2.75515 4.10963C0.990119 5.30018 0.162869 7.04419 0.029791 9.26588H0.0349003C0.0262987 9.30584 0.0217285 9.34711 0.0217285 9.38963C0.0217285 9.71325 0.283994 9.97557 0.607666 9.97557C0.612822 9.97557 0.617885 9.97498 0.623041 9.97486V9.98002L4.82862 9.97997L4.82862 7.08764C4.22909 7.20061 3.76878 7.75538 3.76878 8.55469L3.76878 8.77369L1.41631 8.77369V8.33569H1.71438C1.80026 7.51121 2.33599 6.50761 2.77711 5.96044L3.11766 6.23513C2.75161 6.68918 2.25978 7.68038 2.15895 8.33569H3.34184C3.43653 7.34944 4.16609 6.62768 5.05793 6.62768C5.87778 6.62768 6.66699 7.30639 6.79008 8.33572H8.09672C7.96988 7.67232 7.47492 6.68759 7.11014 6.23513L7.45149 5.96051C7.8941 6.50951 8.4275 7.51875 8.54278 8.33574H8.79035V8.77374H6.37327L6.36741 8.5606C6.3435 7.72491 5.81499 7.19574 5.26655 7.08697L5.26655 9.98004H9.5007V9.97489C9.50585 9.97503 9.51092 9.97564 9.51612 9.97564C9.83979 9.97564 10.1021 9.7133 10.1021 9.3897C10.1021 9.34067 10.0958 9.29314 10.0845 9.2476C9.95403 7.07717 9.1699 5.36489 7.48217 4.17999C7.03624 5.07893 6.15579 5.69686 5.13549 5.69686C4.08872 5.69686 3.18905 5.04666 2.75515 4.10963ZM2 9.50001L2.50535 11.5313L7.67478 11.5313L8 9.50001L5.26655 9.98004L4.82862 9.97997L2 9.50001Z" fill="#580D0E"/>
</svg>
