<svg width="140" height="150" viewBox="0 0 14 15" fill="none" xmlns="http://www.w3.org/2000/svg">
<path d="M2.23541 0.757108C2.20266 0.757254 2.16997 0.758045 2.13733 0.759451C2.06271 0.762674 1.98841 0.769236 1.91456 0.779315C1.32373 0.859793 0.767348 1.17972 0.381626 1.76574C-0.339458 2.86144 0.445903 4.63757 2.04056 4.63757C2.05626 4.63757 2.07156 4.63721 2.08694 4.63692V4.65755L3.8613 4.65755C3.54613 5.59487 2.97367 6.6086 2.32474 7.62913C2.2614 7.72874 2.20011 7.83063 2.14046 7.93399L3.16228 8.98086L1.51395 9.25692C0.555122 11.7755 0.71063 14.5911 2.92832 14.5911V14.5911L3.20107 14.593C3.89921 14.5763 4.57017 14.4671 4.9977 14.2154C5.11999 14.1434 5.22124 14.062 5.30435 13.9688H4.35378C3.75818 14.1431 3.15847 13.7654 2.96523 13.2093C2.70285 12.4544 3.18554 11.6754 3.89883 11.4383C4.06884 11.3817 4.24228 11.3553 4.41343 11.3553V11.3434H9.63795C9.62125 10.0425 10.1169 8.70298 11.0789 7.65195C11.7807 6.88508 12.3102 5.87586 12.5818 4.87326L11.374 4.14283L12.4953 3.94051L11.2247 3.18444H11.2245L11.2246 3.18438L11.2247 3.18444L12.7518 2.92516C12.5985 1.77866 11.9069 0.929666 10.4851 0.929666C9.19952 1.17945 5.71231 1.26822 3.58038 1.06918C3.1442 0.871043 2.68544 0.755028 2.23541 0.757108ZM2.24901 1.30505C2.63388 1.30631 3.05195 1.41649 3.45742 1.61647L3.45838 1.61442C3.59511 1.75314 3.70864 1.89969 3.80057 2.05344L1.63448 2.05344L1.94426 2.48644C2.25504 2.92092 2.52443 3.42365 2.56213 3.71762C2.58097 3.8646 2.55891 3.92759 2.50899 3.97648C2.45904 4.02541 2.32653 4.09001 2.04053 4.09001C0.85146 4.09001 0.374184 2.77305 0.839009 2.06677C1.14575 1.60074 1.53668 1.38336 1.98844 1.32183C2.07311 1.31026 2.16021 1.30475 2.24901 1.30505ZM2.67686 2.60094H4.03272C4.15796 3.06189 4.13983 3.56978 4.01678 4.11002H3.05831C3.11397 3.96274 3.12475 3.80023 3.10518 3.64801C3.06044 3.29899 2.88824 2.94298 2.67686 2.60094ZM5.65205 11.8908C5.84072 12.0912 5.97994 12.3394 6.04375 12.6207C6.15499 13.111 6.13433 13.535 5.99198 13.8865C5.85938 14.2139 5.62354 14.4663 5.33895 14.6482L12.2879 14.6482C12.7112 14.6482 13.017 14.4818 13.2312 14.2287C13.4455 13.9756 13.5594 13.6277 13.5449 13.2809C13.5394 13.1499 13.5162 13.0198 13.4743 12.8948L11.4262 12.6544L12.6572 12.053C12.4134 11.9521 12.1111 11.8908 11.738 11.8908L5.65205 11.8908V11.8908ZM4.40201 11.9057C4.36826 11.9056 4.33445 11.9071 4.30073 11.9101C4.22359 11.9172 4.14674 11.9328 4.07151 11.9579C3.62883 12.105 3.32918 12.5889 3.48235 13.0297C3.58996 13.3393 3.93197 13.5485 4.23393 13.438L4.27949 13.4213H5.54962C5.57734 13.235 5.57171 13.0146 5.50984 12.7418C5.40115 12.2626 4.90799 11.9074 4.40198 11.9057L4.40201 11.9057Z" fill="white"/>
</svg>
