<svg width="35" height="35" viewBox="0 0 35 35" fill="none" xmlns="http://www.w3.org/2000/svg">
<path d="M21.3211 3.27783C20.118 3.27783 18.9559 3.32568 17.8553 3.44395L16.8709 3.65449H16.3855C16.2146 3.68594 16.0437 3.71875 15.8728 3.75498C15.2508 3.8876 14.8406 4.24854 14.4852 4.77148C14.1297 5.29443 13.8768 5.96777 13.658 6.58984C13.0564 8.30566 12.5779 10.1172 12.1951 11.9629C12.6053 12.3115 13.0154 12.667 13.4187 13.0156L15.5174 11.8125L17.8279 13.5967L21.3758 12.25L25.5457 13.9248L25.0809 15.0664L21.3621 13.5762L17.6228 14.9912L15.4217 13.2891L14.4031 13.8701C15.743 15.0527 17.0418 16.2217 18.2654 17.3701L19.2225 16.9326L21.5398 18.0332L23.6727 17.1377L25.3269 18.7305L24.4793 19.6191L23.3992 18.5869L21.5125 19.3867L19.2566 18.3066C19.7283 18.7646 20.1863 19.209 20.6307 19.6533L20.7469 19.7764L22.0799 24.9922L21.5467 24.6025L17.9236 24.6299L15.3191 23.4131L12.4207 24.4111L12.0242 23.249L15.3875 22.0869L18.1971 23.3994L19.8855 23.3857L15.0525 19.8516C13.7059 20.166 12.3592 20.043 11.0809 19.5986C10.7937 22.6338 10.6775 25.457 10.6023 27.7129C10.575 28.4443 10.7869 29.2852 11.115 29.9346C11.45 30.584 11.9148 30.9873 12.1404 31.0352C12.4959 31.1172 13.4393 31.2539 14.7176 31.3838L15.3875 31.3975L16.8709 31.5684C18.0125 31.6504 19.2635 31.7051 20.5281 31.7188C22.4559 31.7393 24.4314 31.6572 26.1336 31.3975C27.2137 31.2402 28.157 30.9873 28.9158 30.6865C28.1092 30.3379 27.4393 29.9619 26.9266 29.5518C26.1678 28.9434 25.6824 28.2324 25.7439 27.4395V27.4531C26.1131 20.8633 26.4822 14.5469 27.8152 7.90234L27.8221 7.875L27.8289 7.84766C28.1912 6.62402 29.0525 5.12285 30.2967 4.03115C29.3465 3.89033 28.3416 3.75771 27.3094 3.64424L26.1336 3.75498L25.6346 3.48018C24.3357 3.36807 23.0096 3.29492 21.7107 3.28057H21.3211V3.27783ZM31.4725 4.6751C31.1512 4.92734 30.8436 5.22402 30.5633 5.54531C31.3904 6.10449 32.0262 7.14355 32.0535 8.07324C32.074 8.60644 31.9236 9.0918 31.5271 9.53613C31.1307 9.97363 30.4607 10.3838 29.367 10.6162L29.6268 11.8193C30.8982 11.5459 31.8348 11.0332 32.4432 10.3564C33.0584 9.67969 33.3113 8.83887 33.284 8.03223C33.243 6.71289 32.5252 5.4626 31.4725 4.6751ZM1.73887 4.91572C1.72246 5.02578 1.71289 5.1502 1.71289 5.2999C1.71973 5.82559 1.85166 6.54199 2.11143 7.3623C2.34453 8.09375 2.67676 8.90039 3.09238 9.74121C3.81904 9.37891 4.4999 8.98926 5.03447 8.50391C4.73232 9.3584 4.34062 10.1924 3.76299 10.999C4.046 11.4912 4.35293 11.9834 4.68242 12.4688C5.40977 12.1064 6.09883 11.5801 6.70039 10.6846C6.4748 11.7783 6.12139 12.7764 5.45146 13.542C5.89785 14.123 6.37432 14.6904 6.86992 15.2168C7.46465 14.5811 7.93633 13.7812 8.28496 12.8311C8.54473 14.0957 8.46269 15.2441 7.89531 16.208C8.44219 16.7002 9.00957 17.1445 9.59062 17.5137C10.0076 16.5566 10.199 15.4219 10.1717 14.1162C10.8006 15.7363 10.9441 17.0488 10.8279 18.1836C12.2088 18.8125 13.617 19.0039 15.0184 18.6006L15.3055 18.5117L20.0428 21.9707L19.6395 20.4121C14.6492 15.4355 7.64922 9.7002 1.73887 4.91572ZM21.3826 8.46973L23.6521 9.41309L25.7918 8.73633L26.1609 9.91211L23.5975 10.7256L21.3006 9.76855L19.3318 10.3223L19.0037 9.13281L21.3826 8.46973ZM28.7176 24.6162C28.6697 24.6162 28.6287 24.623 28.5809 24.623C28.3416 24.6299 28.0887 24.6572 27.8221 24.7119L28.0545 25.915C28.8885 25.7578 29.4217 25.8877 29.7293 26.0859C30.0301 26.2842 30.16 26.5508 30.1668 26.9404C30.1736 27.5762 29.6883 28.5127 28.574 29.1621C28.9432 29.3604 29.3875 29.5654 29.8934 29.7568C30.8777 28.9639 31.4041 27.9248 31.3973 26.9268C31.3904 26.1953 31.0418 25.4775 30.3992 25.0537C29.9412 24.7598 29.3738 24.6094 28.7176 24.6162Z" fill="#1E1E1E"/>
</svg>
