<svg width="190" height="230" viewBox="0 0 19 23" fill="none" xmlns="http://www.w3.org/2000/svg">
<path d="M8.03824 0.182593L7.5606 1.77556C8.19497 1.64607 8.85079 1.57869 9.523 1.57869C10.0345 1.57869 10.537 1.61873 11.0274 1.6947L10.5682 0.182495H8.03824V0.182593ZM9.5229 2.5675C4.6583 2.5675 0.724564 6.49963 0.724564 11.3642C0.724564 16.2286 4.6583 20.1608 9.5229 20.1608C14.3874 20.1608 18.3195 16.2287 18.3195 11.3641C18.3195 6.49954 14.3874 2.56741 9.52285 2.56741L9.5229 2.5675ZM9.5229 4.603C13.2574 4.603 16.284 7.62961 16.284 11.3642C16.284 15.0987 13.2574 18.1269 9.52285 18.1269C5.78824 18.1269 2.76016 15.0987 2.76016 11.3642C2.76016 7.62961 5.78824 4.603 9.52285 4.603H9.5229ZM9.52129 6.50427C6.8377 6.50427 4.66143 8.67908 4.66143 11.3627C4.66143 14.0463 6.8377 16.2211 9.52129 16.2211C12.2049 16.2211 14.3797 14.0463 14.3797 11.3627C14.3797 8.67908 12.2049 6.50427 9.52129 6.50427ZM9.52285 8.44211C11.1367 8.44211 12.4448 9.75022 12.4448 11.3642C12.4448 12.9781 11.1367 14.2862 9.52281 14.2862C7.90879 14.2862 6.60069 12.9781 6.60069 11.3641C6.60069 9.75012 7.90879 8.44202 9.52276 8.44202L9.52285 8.44211ZM9.52285 9.9512C8.74195 9.9512 8.1083 10.5834 8.1083 11.3643C8.1083 12.145 8.74195 12.7787 9.52285 12.7787C10.3036 12.7787 10.9357 12.1451 10.9357 11.3642C10.9357 10.5834 10.3037 9.95125 9.52281 9.95125L9.52285 9.9512ZM2.6106 18.2871L1.25103 22.822H3.5399L4.53013 19.7794C3.82945 19.3624 3.18443 18.8598 2.6106 18.2871ZM16.1452 18.5648C15.5601 19.1032 14.9086 19.5704 14.2057 19.9549L15.1457 22.822H17.436L16.1452 18.5648H16.1452ZM8.08706 21.0443V22.822H10.6306V21.0871C10.2668 21.1282 9.89746 21.1496 9.52285 21.1496C9.03506 21.1496 8.55557 21.1135 8.08692 21.0444L8.08706 21.0443Z" fill="black"/>
</svg>
