<svg width="25" height="22" viewBox="0 0 25 22" fill="none" xmlns="http://www.w3.org/2000/svg">
<path d="M13.0527 2C8.05586 2.00063 4 6.05684 4 11.0539C4 13.231 4.76992 15.2248 6.05203 16.7852L5.23906 18.1975H10.4112L7.82086 13.7163L6.94684 15.2397C6.13043 14.0491 5.65527 12.6052 5.65527 11.0539C5.65527 6.97102 8.96988 3.65645 13.0527 3.65645C17.1357 3.65645 20.4515 6.97102 20.4515 11.0539C20.4515 12.5816 19.9952 14.0095 19.2015 15.1896L18.347 13.7162L15.7566 18.1975H20.9288L20.0852 16.7339C21.344 15.18 22.1067 13.2084 22.1067 11.054C22.1067 6.05684 18.051 2.00063 13.054 2H13.0528H13.0527ZM13.0271 4.94797C11.0925 4.94613 8.71176 6.08984 8.01129 9.04711L10.3843 9.60617C11.4377 6.62797 13.9339 6.83961 14.8105 8.48801C15.8564 10.4546 11.3071 12.6787 11.5244 15.9258H14.5591C14.8126 12.092 19.2065 11.102 16.8857 6.95977C16.1849 5.70867 14.741 5.01305 13.2127 4.95281V4.95164C13.1509 4.94924 13.0891 4.94801 13.0272 4.94797H13.0271ZM13.0809 16.7083C12.8314 16.7075 12.5842 16.7561 12.3536 16.8513C12.123 16.9464 11.9134 17.0862 11.737 17.2626C11.5606 17.439 11.4208 17.6485 11.3257 17.8791C11.2305 18.1098 11.1819 18.3569 11.1827 18.6064C11.1819 18.8559 11.2305 19.1031 11.3257 19.3337C11.4208 19.5643 11.5606 19.7739 11.737 19.9503C11.9134 20.1267 12.123 20.2665 12.3536 20.3616C12.5842 20.4567 12.8314 20.5053 13.0809 20.5046C13.3303 20.5053 13.5775 20.4567 13.8081 20.3616C14.0388 20.2665 14.2483 20.1267 14.4247 19.9503C14.6011 19.7739 14.7409 19.5643 14.8361 19.3337C14.9312 19.1031 14.9798 18.8559 14.9791 18.6064C14.9798 18.3569 14.9312 18.1098 14.8361 17.8791C14.7409 17.6485 14.6011 17.439 14.4247 17.2626C14.2483 17.0862 14.0388 16.9464 13.8081 16.8512C13.5775 16.7561 13.3303 16.7075 13.0809 16.7082V16.7083Z" fill="#1E1E1E"/>
</svg>
