<svg width="250" height="220" viewBox="0 0 25 22" fill="none" xmlns="http://www.w3.org/2000/svg">
<path d="M22.3076 8.21709C22.3076 10.0619 21.5935 11.9068 20.1654 13.316C19.3396 14.1317 18.3676 14.7082 17.3333 15.0541C17.4371 14.3324 17.4501 13.6491 17.3809 12.9744C17.6189 12.8079 17.8439 12.6199 18.056 12.4107C19.0626 11.4157 19.5664 10.1132 19.5664 8.80642C19.5664 7.49965 19.0626 6.19288 18.056 5.19786C16.0393 3.20782 12.7588 3.20782 10.7464 5.19786C8.72963 7.18364 8.72963 10.4249 10.7464 12.4107C11.7071 13.3587 12.9579 13.8584 14.2173 13.9011C14.1394 14.3922 13.9749 14.8748 13.7239 15.3189C12.2957 15.0712 10.9325 14.405 9.82888 13.316C6.97254 10.4975 6.96822 5.93239 9.82888 3.11387C12.6852 0.295359 17.3073 0.295359 20.1654 3.11387C21.5935 4.52313 22.3076 6.37224 22.3076 8.21709ZM16.3855 15.652C16.0522 16.8434 15.2862 18.169 14.4813 18.9296C12.4299 20.9581 9.46102 21.526 6.89465 20.642C5.85165 20.2615 4.85626 19.6359 4.14218 18.9296C1.28584 16.1089 1.28584 11.5438 4.14218 8.72528C4.96878 7.90962 7.15432 6.98614 8.18866 6.64023C8.08047 7.33205 8.04995 7.88908 8.12353 8.58089C7.88983 8.74317 6.59799 9.44912 6.38593 9.65838C4.14218 12.0252 4.49705 15.5153 6.44456 17.0313C7.56978 17.9098 8.98929 18.4 10.1578 18.336C11.9582 18.2258 13.6157 17.1894 14.4207 15.8698C14.676 15.4342 15.0742 14.2641 15.0742 13.2392C15.0092 11.8 14.5938 10.6513 13.5638 9.63062C12.6073 8.6783 11.3523 8.1872 10.0885 8.14449C10.1664 7.64912 10.3309 7.16655 10.5819 6.72242C12.3823 7.12385 13.7499 7.87118 14.7669 9.02421C15.5762 9.93809 16.1258 10.9075 16.3941 12.0392C16.6971 13.252 16.6754 14.5417 16.3855 15.652Z" fill="#1E1E1E"/>
</svg>
