<svg width="200" height="200" viewBox="0 0 20 20" fill="none" xmlns="http://www.w3.org/2000/svg">
<g clip-path="url(#clip0_538_2108)">
<path d="M18.75 0H1.25C0.559644 0 0 0.559644 0 1.25V18.75C0 19.4404 0.559644 20 1.25 20H18.75C19.4404 20 20 19.4404 20 18.75V1.25C20 0.559644 19.4404 0 18.75 0Z" fill="#580D0E"/>
<path d="M12.9216 18H10.1815C9.58598 17.3348 8.55889 17.14 11.0499 14.0518C11.4674 13.5341 9.43329 12.4562 9.08166 12.8599C8.09081 14.3955 7.33421 16.3668 4.91372 15.2437C4.67239 16.1219 5.06779 17.0573 5.26103 18.0001H2C2.55341 16.4053 2.79857 14.634 4.45061 13.7352L5.85921 14.4057C5.81285 13.8655 5.78435 13.3255 5.91711 12.7854C1.75777 11.7534 2.30738 10.4344 2.01931 10.0943L2.82973 10.3457C2.29809 8.80249 3.02208 7.76248 3.46653 7.25412C3.61939 7.58053 3.89475 8.73041 4.16116 9.45175C4.31768 9.2662 4.30867 9.03528 4.75934 8.97683C4.64641 10.4511 4.91659 11.659 6.36091 11.668C6.87145 10.8884 7.48054 10.3468 8.13617 9.91732C7.98838 9.23333 8.08248 7.90911 7.44147 7.88734C6.56369 7.85753 6.15547 7.98096 5.55048 7.79422C4.99179 7.04954 5.03276 6.2075 5.11038 5.53211C3.22154 4.61332 3.43876 2.79906 4.63463 2.57167C4.49569 3.32318 4.31568 3.92663 5.18389 4.21846C5.21547 2.81196 5.28649 1.23868 7.45847 2.40896C6.76249 2.65442 6.02686 2.94659 6.21219 3.72541C7.82222 2.96243 8.14235 3.87545 8.39149 4.45419C7.79904 4.43885 7.06973 3.79386 6.59246 4.66544C6.30688 5.18699 6.70691 6.10495 7.07488 6.63957C8.12947 5.78487 8.99651 4.64576 10.6446 5.03792C9.84503 4.20606 9.81328 3.37419 9.75701 2.54233C10.3069 2.69507 10.9065 3.01171 11.7445 3.79013H16.9544L16.1055 5.44762L15.5671 4.77173L14.7354 5.59659L13.9829 4.72132L12.9795 5.83872L13.4426 6.37885L13.9636 5.74559L14.6582 6.47193L15.5266 5.76423L15.9704 6.17396L15.5652 7.12376C14.4465 7.20004 13.3551 6.75083 12.1691 8.12946C12.494 8.849 13.0759 9.28961 13.9829 9.37723C16.1155 6.80131 17.0173 8.02144 17.3444 8.74348C16.698 8.49688 15.923 8.57077 15.652 9.44241C18.9028 8.99947 17.9033 10.9981 17.681 11.5505C17.3681 10.8539 17.4074 9.86364 16.2405 10.2712C16.9967 11.9376 16.2698 12.1289 15.8353 12.4315C15.7329 11.5148 15.6997 10.0846 14.7548 10.3457C13.0768 10.8092 11.9425 11.4891 11.32 9.17238C10.897 9.60445 10.5999 10.1233 10.6833 10.9044C12.916 11.5423 13.9379 12.5839 14.1406 14.3688C14.1884 14.7897 12.4505 15.0625 11.6288 14.8712C11.3348 16.4264 12.0687 17.275 12.9216 18H12.9216Z" fill="white"/>
</g>
<defs>
<clipPath id="clip0_538_2108">
<rect width="20" height="20" fill="white"/>
</clipPath>
</defs>
</svg>
