<svg width="222" height="222" viewBox="0 0 222 222" fill="none" xmlns="http://www.w3.org/2000/svg">
<path d="M186.249 13.3704C186.116 13.3691 185.989 13.3726 185.87 13.3808C184.911 13.4445 184.421 13.6639 183.886 14.2003L171.927 26.1588L195.842 50.0732L207.8 38.1147C208.337 37.5788 208.556 37.0901 208.619 36.131C208.685 35.1728 208.459 33.7753 207.837 32.158C206.592 28.9234 203.814 24.9313 200.442 21.5588C197.069 18.1863 193.077 15.4083 189.843 14.1639C188.427 13.6197 187.181 13.3791 186.25 13.3704H186.249ZM166.409 31.6767L162.116 35.9693L166.409 40.2619L171.927 45.7802L176.22 50.0728L181.738 55.5916L186.031 59.8841L190.323 55.5916L166.408 31.6767H166.409ZM156.598 41.4872L31.5069 166.581L35.7986 170.872L160.89 45.7802L156.598 41.4872ZM166.409 51.2994L41.3169 176.389L45.6095 180.683L170.701 55.5911L166.409 51.2986V51.2994ZM176.221 61.1099L51.1283 186.202L55.4196 190.494L180.513 65.4025L176.22 61.1099H176.221ZM27.4129 173.523L22.1577 186.664L35.3359 199.843L48.476 194.587L45.6099 191.72L40.0898 186.203L35.7973 181.91L30.2776 176.391L27.4116 173.524L27.4129 173.523ZM19.0033 194.548L13.3696 208.63L27.4519 202.997L19.0029 194.548L19.0033 194.548Z" fill="white"/>
</svg>
