<svg width="10" height="10" viewBox="0 0 10 10" fill="none" xmlns="http://www.w3.org/2000/svg">
<path d="M1.20492 1.7501L0.939758 2.01526L1.20492 2.28043L3.66717 4.74268L1.20492 7.20492L0.939758 7.47009L1.20492 7.73525L2.11406 8.64439L2.37922 8.90955L2.64439 8.64439L5.10664 6.18214L7.56888 8.64439L7.83405 8.90955L8.09921 8.64439L9.00835 7.73525L9.27352 7.47009L9.00835 7.20492L6.5461 4.74268L9.00835 2.28043L9.27352 2.01526L9.00835 1.7501L8.09921 0.840962L7.83405 0.575797L7.56888 0.840962L5.10664 3.30321L2.64439 0.840962L2.37922 0.575797L2.11406 0.840962L1.20492 1.7501Z" fill="#0A071E" stroke="black" stroke-width="0.75"/>
</svg>
