<svg width="7" height="7" viewBox="0 0 7 7" fill="none" xmlns="http://www.w3.org/2000/svg">
<path d="M3.50764 0.35H3.51526H3.51528H3.65679L3.66503 0.491272C3.67818 0.716977 3.73463 0.913109 3.8169 1.05403L3.50764 0.35ZM3.50764 0.35L3.50005 0.350772M3.50764 0.35L3.50005 0.350772M3.50005 0.350772C3.16842 0.384554 2.84308 0.473085 2.54398 0.620286L2.41743 0.682566M3.50005 0.350772L2.41743 0.682566M2.41743 0.682566L2.47181 0.812705M2.41743 0.682566L2.47181 0.812705M2.47181 0.812705C2.55764 1.01809 2.59473 1.22147 2.58447 1.3918M2.47181 0.812705L2.58447 1.3918M1.56963 3.39349C1.60215 3.13822 1.39837 2.84374 1.0217 2.68958L0.889871 2.63563L0.936946 2.50118C1.05714 2.15792 1.22242 1.84711 1.42806 1.57068L1.53071 1.43271L1.65346 1.55314C1.80221 1.69908 1.96073 1.78828 2.10047 1.82031C2.23803 1.85183 2.35014 1.82758 2.4324 1.75837L1.56963 3.39349ZM1.56963 3.39349C1.53768 3.64396 1.2754 3.85911 0.877913 3.88834L0.727246 3.89943L0.739402 4.05001C0.768844 4.41469 0.851584 4.76784 0.97791 5.09452L1.03814 5.25029L1.18657 5.17373C1.37934 5.07431 1.56441 5.04405 1.71179 5.06726C1.83791 5.08762 1.92812 5.1399 1.98727 5.22847C2.05488 5.3297 2.07819 5.47203 2.04552 5.64161C2.01298 5.81055 1.92639 5.99521 1.79187 6.16402L1.70576 6.27209L1.80642 6.36676C2.05544 6.60097 2.34431 6.78783 2.65355 6.92435L2.80551 6.99143L2.8568 6.83345C2.92563 6.62145 3.02816 6.45277 3.14037 6.34535C3.25245 6.23806 3.36213 6.20149 3.45789 6.21687C3.55517 6.23249 3.65444 6.30427 3.73719 6.44599C3.81947 6.58691 3.87591 6.78303 3.88909 7.00874L3.89821 7.16509L4.05402 7.14923C4.38565 7.11548 4.711 7.02699 5.01012 6.87973L5.13748 6.81703L5.08189 6.68642C4.99414 6.48024 4.95691 6.27429 4.96781 6.10126C4.9788 5.92702 5.03686 5.80074 5.12317 5.72811L5.1232 5.72809C5.19601 5.66678 5.30316 5.64352 5.43262 5.66469L5.43306 5.66476C5.57637 5.68776 5.7438 5.77752 5.90264 5.93298L6.02564 6.05336L6.12809 5.91507C6.33154 5.64043 6.49952 5.32627 6.61901 4.98528L6.66614 4.85081L6.53427 4.79685C6.15759 4.6427 5.95383 4.34836 5.98637 4.09294C6.01832 3.84218 6.2804 3.62687 6.67769 3.59767L6.82841 3.58658L6.8162 3.43595C6.78652 3.06961 6.70578 2.71993 6.57797 2.39124L6.51734 2.23531L6.36893 2.31254C6.00179 2.5036 5.69324 2.44497 5.56833 2.25797C5.50161 2.158 5.47923 2.01881 5.51198 1.85216C5.54465 1.68592 5.63068 1.50354 5.76326 1.3348L5.84805 1.22688L5.74808 1.13286C5.49897 0.898585 5.20975 0.711722 4.90057 0.575239L4.74862 0.508167L4.69733 0.666138C4.62848 0.878148 4.52593 1.04694 4.41369 1.15447C4.30158 1.26188 4.1919 1.29848 4.0962 1.28313L1.56963 3.39349ZM5.45682 5.51666C5.29937 5.49091 5.14311 5.51523 5.02659 5.61334C4.77151 5.82799 4.7533 6.29739 4.94387 6.74516C4.70664 6.86195 4.45097 6.93994 4.18794 6.98084C4.18816 6.98431 4.18837 6.98779 4.18858 6.99126L4.03883 7L4.02364 6.85077C4.02373 6.85076 4.02381 6.85075 4.02389 6.85075C3.96419 6.43407 3.76147 6.1137 3.48168 6.06876C3.20242 6.02393 2.92818 6.26648 2.76668 6.64635C2.76936 6.64754 2.77203 6.64872 2.77471 6.6499L2.71413 6.78713L2.57146 6.74081C2.57343 6.73473 2.57544 6.72867 2.57746 6.72263C2.3346 6.6004 2.1082 6.44467 1.90919 6.25749C2.20391 5.88762 2.3032 5.43145 2.11201 5.14517C2.02463 5.01432 1.89294 4.94451 1.73542 4.91913C1.58976 4.89613 1.42401 4.91572 1.25501 4.9793C1.25591 4.98164 1.25681 4.98398 1.25772 4.98632L1.11781 5.04042L1.04906 4.90711C1.05481 4.90414 1.06057 4.90121 1.06634 4.89833C0.989529 4.67131 0.934346 4.43255 0.904131 4.18722C0.902727 4.18733 0.901323 4.18743 0.899919 4.18754L0.888916 4.03794L0.907545 4.03644L5.45682 5.51666ZM5.45682 5.51666C5.6008 5.53976 5.75204 5.61286 5.89472 5.72606L5.45682 5.51666ZM2.58447 1.3918C2.57415 1.5631 2.51762 1.68662 2.43241 1.75836L2.58447 1.3918ZM2.59026 3.75084C2.59026 2.99084 3.13334 2.40429 3.76989 2.39969H3.77742C4.4172 2.39969 4.96458 2.98787 4.96458 3.75085C4.96458 4.51385 4.41721 5.10203 3.77742 5.10203C3.13763 5.10203 2.59026 4.51386 2.59026 3.75084Z" fill="#0A071E" stroke="#0A071E" stroke-width="0.3"/>
</svg>
