<svg width="11" height="10" viewBox="0 0 11 10" fill="none" xmlns="http://www.w3.org/2000/svg">
<path d="M4.71214 0.5375V0.536944L4.69926 0.538054C4.17313 0.583402 3.65754 0.702186 3.18378 0.899474L3.03613 0.96096L3.10695 1.10437C3.24887 1.39173 3.31032 1.6763 3.29329 1.91548C3.27639 2.15295 3.18368 2.33853 3.02245 2.45336C2.85996 2.56906 2.63943 2.60561 2.38721 2.5567C2.13509 2.50781 1.86158 2.37471 1.61183 2.16738L1.49964 2.07425L1.40337 2.18375C1.07362 2.55881 0.807641 2.98161 0.613838 3.44993L0.552996 3.59696L0.703353 3.64903C1.01697 3.75764 1.2716 3.92101 1.43713 4.10543C1.60237 4.28951 1.67177 4.48502 1.64396 4.66978C1.61603 4.85509 1.49089 5.02555 1.27642 5.15911C1.06195 5.29267 0.768391 5.38171 0.435018 5.40246L0.28029 5.41209L0.295014 5.56641C0.342588 6.06504 0.476254 6.54739 0.679867 6.99293L0.741154 7.12703L0.876292 7.06806C1.20537 6.92445 1.53093 6.87655 1.79996 6.91247C2.03141 6.94408 2.20382 7.02778 2.31412 7.16753C2.43471 7.32032 2.47087 7.52591 2.41691 7.76293C2.36268 8.00117 2.21832 8.26203 1.99307 8.50122L1.88131 8.6199L2.00887 8.72142C2.40585 9.03736 2.86588 9.28906 3.35782 9.47282L3.49709 9.52484L3.55035 9.38604C3.78215 8.78194 4.2321 8.43813 4.63738 8.49318C5.0402 8.54793 5.3691 8.99441 5.4133 9.63532L5.4238 9.78754L5.57582 9.77445C6.10194 9.72914 6.61754 9.61041 7.09132 9.41306L7.24003 9.35111L7.16764 9.20719C7.02243 8.91848 6.96077 8.63028 6.97886 8.38741C6.99685 8.1459 7.09211 7.95656 7.25505 7.84054L7.25509 7.84051C7.40237 7.73558 7.61298 7.70166 7.84663 7.73399L7.847 7.73404C8.11008 7.76976 8.40053 7.90576 8.66646 8.12598L8.77886 8.21906L8.87499 8.10925C9.2013 7.73652 9.47167 7.30907 9.6643 6.84395L9.7252 6.69689L9.57479 6.64481C9.26117 6.53621 9.00654 6.37289 8.84102 6.1885C8.6758 6.00446 8.60639 5.80895 8.63423 5.62406C8.66217 5.43856 8.78724 5.26795 9.00153 5.13431C9.21583 5.00066 9.5092 4.91154 9.84254 4.89081L9.99732 4.88118L9.98254 4.7268C9.93457 4.2258 9.80412 3.74826 9.59817 3.30007L9.53653 3.16593L9.40143 3.22542C9.09972 3.35828 8.7972 3.41324 8.54044 3.39299C8.28337 3.37271 8.08381 3.27883 7.96343 3.12633C7.84424 2.97523 7.80963 2.77392 7.86375 2.54089C7.91823 2.30631 8.06169 2.04876 8.2834 1.80999L8.39356 1.69136L8.26688 1.59055C7.86978 1.27455 7.40919 1.02284 6.91732 0.839121L6.77806 0.787104L6.72479 0.925896C6.49293 1.53009 6.04293 1.8743 5.63774 1.81931C5.23491 1.76464 4.90597 1.3181 4.86182 0.677192L4.8522 0.5375H4.71218H4.71214ZM5.13754 2.61246H5.1522C6.63389 2.61999 7.82333 3.76521 7.82333 5.15627C7.82333 6.55198 6.62602 7.70013 5.13752 7.70013C3.64904 7.70013 2.45174 6.55198 2.45174 5.15629C2.45174 3.76062 3.64904 2.61246 5.13754 2.61246ZM5.19766 2.66178L5.19696 2.66112H5.1375C3.69643 2.66112 2.51879 3.76902 2.51879 5.15627C2.51879 6.54354 3.69642 7.65148 5.13752 7.65148C6.57864 7.65148 7.75632 6.54354 7.75632 5.15627C7.75632 3.78842 6.61126 2.69209 5.19766 2.66178ZM3.11526 5.15741C3.11526 4.11146 4.0068 3.24987 5.12534 3.24333H5.13815C6.26267 3.24333 7.16104 4.1075 7.16104 5.15743C7.16104 6.20737 6.26269 7.07154 5.13815 7.07154C4.01362 7.07154 3.11526 6.20737 3.11526 5.15741Z" fill="#580D0E" stroke="#580D0E" stroke-width="0.3"/>
</svg>
