<svg width="90" height="90" viewBox="0 0 9 9" fill="none" xmlns="http://www.w3.org/2000/svg">
<g clip-path="url(#clip0_353_2)">
<path d="M3.94896 0.75C3.56489 0.784849 3.1899 0.876027 2.84659 1.02652C3.07288 1.50888 3.05598 2.00862 2.74766 2.23978C2.44091 2.46971 1.95182 2.35705 1.55329 2.00878C1.3141 2.29517 1.12138 2.61771 0.980941 2.97498C1.47901 3.15655 1.81476 3.52951 1.76036 3.90987C1.70592 4.29023 1.27897 4.55384 0.75 4.5885C0.784422 4.96829 0.88118 5.33609 1.0288 5.67614C1.29102 5.55568 1.55578 5.51287 1.78106 5.54455C1.97293 5.57208 2.13333 5.64783 2.23977 5.78979C2.47264 6.10039 2.3517 6.59531 1.99272 6.99661C2.28005 7.23733 2.61425 7.43011 2.97316 7.57124C3.1547 7.0732 3.52755 6.73743 3.90806 6.79185C4.28855 6.84628 4.55203 7.27322 4.58669 7.8022C4.97076 7.76738 5.34575 7.67624 5.68906 7.5257C5.45694 7.0399 5.47911 6.53062 5.7898 6.29774C5.93173 6.19129 6.12207 6.16491 6.31384 6.19284C6.53633 6.22464 6.77305 6.34375 6.98466 6.52822C7.22152 6.24341 7.41751 5.91708 7.557 5.5625C7.05893 5.38094 6.72318 5.00814 6.77761 4.6276C6.83204 4.24708 7.25853 3.98316 7.7875 3.94852C7.75276 3.56655 7.65833 3.20262 7.50916 2.86089C7.02902 3.08345 6.52774 3.05442 6.29774 2.74771C6.06665 2.43936 6.19097 1.95475 6.54343 1.55517C6.25604 1.31443 5.92142 1.12163 5.56253 0.980514C5.38097 1.47856 5.00811 1.81471 4.62763 1.76035C4.24711 1.70598 3.9836 1.27897 3.94899 0.75H3.94896ZM4.26779 2.15052C5.44011 2.15052 6.39341 3.10384 6.39341 4.27611C6.39341 5.44843 5.44011 6.40172 4.26781 6.40172C3.09553 6.40172 2.14223 5.44843 2.14223 4.27613C2.14223 3.10384 3.09553 2.15055 4.26782 2.15055L4.26779 2.15052ZM4.26779 2.42565C3.24421 2.42565 2.41735 3.25251 2.41735 4.27611C2.41735 5.29973 3.24421 6.12662 4.26781 6.12662C5.29142 6.12662 6.11831 5.29973 6.11831 4.27611C6.11831 3.25256 5.29142 2.42567 4.26781 2.42567L4.26779 2.42565ZM4.26828 2.64834C5.16775 2.64834 5.89698 3.37755 5.89698 4.27703C5.89698 5.17651 5.16777 5.90573 4.26828 5.90573C3.36879 5.90573 2.63958 5.17651 2.63958 4.27701C2.63958 3.37752 3.36879 2.64831 4.26828 2.64831V2.64834Z" fill="#1E1E1E" stroke="#1E1E1E" stroke-width="0.5"/>
</g>
<defs>
<clipPath id="clip0_353_2">
<rect width="8.51" height="8.51" fill="white"/>
</clipPath>
</defs>
</svg>
