<svg width="90" height="90" viewBox="0 0 9 9" fill="none" xmlns="http://www.w3.org/2000/svg">
<path d="M0.734863 4.7179L0.734891 4.98861L1.00561 4.98865L3.51946 4.98891L3.51972 7.50275L3.51975 7.77347L3.79047 7.7735L4.71866 7.7736L4.98937 7.77363L4.98935 7.50291L4.98909 4.98906L7.50293 4.98933L7.77365 4.98936L7.77362 4.71864L7.77352 3.79045L7.7735 3.51973L7.50277 3.5197L4.98893 3.51944L4.98866 1.0056L4.98864 0.734869L4.71791 0.734846L3.78972 0.734748L3.51901 0.734717L3.51903 1.00544L3.5193 3.51928L1.00546 3.51901L0.734735 3.51899L0.734766 3.78971L0.734863 4.7179Z" fill="#1E1E1E" stroke="#1E1E1E" stroke-width="0.75"/>
</svg>
