<svg width="11" height="11" viewBox="0 0 11 11" fill="none" xmlns="http://www.w3.org/2000/svg">
<path d="M5.5 1.375C4.87868 1.375 4.375 1.87868 4.375 2.5V3.5C4.375 3.98325 3.98325 4.375 3.5 4.375H2.5C1.87868 4.375 1.375 4.87868 1.375 5.5C1.375 6.12132 1.87868 6.625 2.5 6.625H3.5C3.98325 6.625 4.375 7.01675 4.375 7.5V8.5C4.375 9.12132 4.87868 9.625 5.5 9.625C6.12132 9.625 6.625 9.12132 6.625 8.5V7.5C6.625 7.01675 7.01675 6.625 7.5 6.625H8.5C9.12132 6.625 9.625 6.12132 9.625 5.5C9.625 4.87868 9.12132 4.375 8.5 4.375H7.5C7.01675 4.375 6.625 3.98325 6.625 3.5V2.5C6.625 1.87868 6.12132 1.375 5.5 1.375Z" fill="#580D0E" stroke="#580D0E" stroke-width="1.25"/>
</svg>
