<svg width="480" height="470" viewBox="0 0 48 47" fill="none" xmlns="http://www.w3.org/2000/svg">
<path d="M8.76074 0H39.28V5.96466L37.6348 6.49215L36.1129 7.50654L34.8379 9.04843L34.1798 10.6309V18.7461V23.25H13.9433V18.7461V10.9961L13.2852 9.04843L11.6811 7.34424L10.2003 6.49215L8.76074 5.96466V0Z" fill="black"/>
<path d="M39.3213 46.5L8.80201 46.5V40.5353L10.4473 40.0079L11.9691 38.9935L13.2442 37.4516L13.9023 35.8691L13.9023 27.7539V23.25L34.1388 23.25V27.7539V35.5039L34.7969 37.4516L36.401 39.1558L37.8817 40.0079L39.3213 40.5353V46.5Z" fill="black"/>
<path d="M48 8.15576V38.2631H41.9537L41.419 36.6401L40.3907 35.1387L38.8278 33.8809L37.2236 33.2317H28.9974H24.4319V13.2683L28.9974 13.2683H36.8535L38.8278 12.6191L40.5553 11.0367L41.419 9.57592L41.9537 8.15576H48Z" fill="black"/>
<path d="M0 38.2632L0 8.15585H6.04627L6.58098 9.77889L7.60925 11.2802L9.17224 12.5381L10.7764 13.1873H19.0026H23.5681L23.5681 33.1506H19.0026H11.1465L9.17224 33.7998L7.44473 35.3823L6.58098 36.843L6.04627 38.2632H0Z" fill="black"/>
</svg>
