<svg width="500" height="550" viewBox="0 0 50 55" fill="none" xmlns="http://www.w3.org/2000/svg">
<g clip-path="url(#clip0_34_1927)">
<path d="M43.512 10.1995L43.7166 10.0559C39.8414 4.53199 33.9382 0.714844 25.0003 0.714844C16.1283 0.714844 10.2263 4.35611 6.33759 9.78238C2.60188 14.995 0.876013 21.901 0.750045 28.5599L0.746937 28.7242L0.896515 28.7922C6.0518 31.1365 9.07228 33.5663 10.3735 36.0952C11.5064 38.2969 11.0808 40.5807 9.65723 42.361L9.50468 42.5518L9.69187 42.7087C12.9964 45.4791 18.5872 47.1757 24.3166 47.2607C30.0818 47.3463 35.9118 45.8365 39.658 42.6808L39.8568 42.5133L39.6817 42.3212C38.957 41.5264 38.4306 40.6893 38.1776 39.7825L38.1776 39.7825C37.8245 38.5184 38.0576 37.1387 38.8404 35.8745C40.3468 33.4414 43.6387 31.2271 49.1019 28.7875L49.2534 28.7199L49.2499 28.554C49.1198 22.2456 47.4308 15.3505 43.7166 10.0559L43.512 10.1995ZM11.6049 46.4914L11.4103 46.3938L11.2869 46.5731L9.08975 49.7636L8.95281 49.9624L9.14676 50.1062C10.1413 50.8434 11.2944 51.4885 12.5661 52.0368L12.8 52.1376L12.8965 51.902L14.5032 47.9775L14.6031 47.7334L14.354 47.6467C13.3933 47.3119 12.4731 46.9269 11.6049 46.4914ZM37.8827 46.6453L37.7591 46.4659L37.5644 46.5638C36.7235 46.9867 35.8439 47.358 34.9341 47.6799L34.6873 47.7672L34.7859 48.0097L36.3638 51.8908L36.4587 52.1242L36.6914 52.0275C37.8835 51.5319 39.018 50.9506 40.0713 50.2799L40.2899 50.1407L40.1429 49.9272L37.8827 46.6453ZM16.9619 48.4075L16.7533 48.3573L16.672 48.5559L14.9995 52.6412L14.8951 52.8961L15.1589 52.9753C16.5762 53.4008 18.0886 53.7263 19.6562 53.9462L19.9066 53.9813L19.9389 53.7306L20.5095 49.2995L20.5414 49.0518L20.2937 49.0196C19.159 48.8722 18.044 48.6681 16.9619 48.4075ZM32.6208 48.5955L32.5398 48.3962L32.3306 48.4467C31.2393 48.7101 30.1214 48.9107 28.9895 49.0522L28.7405 49.0833L28.7726 49.3322L29.3362 53.7105L29.3686 53.9623L29.6199 53.926C31.1458 53.7057 32.6483 53.3812 34.095 52.9491L34.3587 52.8704L34.2551 52.6154L32.6208 48.5955ZM23.0174 49.2639L22.7864 49.2522L22.7569 49.4816L22.183 53.9398L22.1488 54.2054L22.416 54.2213C23.8814 54.3087 25.3733 54.3068 26.8619 54.2117L27.128 54.1947L27.0939 53.9303L26.5229 49.4962L26.4936 49.2687L26.2644 49.2783C25.6023 49.3062 24.94 49.3172 24.2799 49.3074C23.8594 49.3011 23.4383 49.285 23.0174 49.2639ZM14.1789 24.9695C15.9565 26.0509 18.3415 26.5866 21.3907 26.5041L21.2418 30.6614C15.6638 33.222 10.9377 30.8912 6.4242 28.0749C6.08817 26.0522 6.10223 24.2904 6.72422 22.9429C7.32698 21.6371 8.52275 20.6759 10.6601 20.2647C11.2611 22.2853 12.4073 23.8917 14.1789 24.9695ZM35.0212 24.9693C36.7928 23.8916 37.9389 22.2853 38.5399 20.2647C40.6772 20.6759 41.8729 21.6371 42.4757 22.9429C43.0977 24.2903 43.1118 26.0521 42.7758 28.0748C38.2622 30.8913 33.536 33.2219 27.9579 30.6611L27.8093 26.5038C30.8586 26.5864 33.2436 26.0507 35.0212 24.9693ZM20.8668 41.4088C21.763 38.6281 22.8335 35.8572 24.4693 33.0892C26.1117 35.8739 27.4101 38.6464 28.0885 41.4098C27.1887 41.9796 25.9628 42.3129 24.6652 42.335C23.3637 42.3573 22.0105 42.0661 20.8668 41.4088Z" fill="black" stroke="black" stroke-width="0.5"/>
</g>
<defs>
<clipPath id="clip0_34_1927">
<rect width="50" height="55" fill="white"/>
</clipPath>
</defs>
</svg>
