<svg width="6" height="7" viewBox="0 0 6 7" fill="none" xmlns="http://www.w3.org/2000/svg">
<path d="M2.93872 0.636353L0.536982 2.01683L2.93872 1.97012L2.93872 0.636353ZM3.15747 0.636353L3.15747 1.97012L5.55962 2.01683L3.15747 0.636353ZM3.8602 1.3604C3.9436 1.40342 3.97231 1.44891 4.06665 1.41203C4.21294 1.42186 4.37153 1.48333 4.44399 1.60503C4.50825 1.66034 4.4645 1.75991 4.3729 1.75991C4.24028 1.76114 4.10356 1.68493 4.17329 1.65788C4.23755 1.6333 4.37427 1.66895 4.31001 1.59027C4.26079 1.53496 4.15962 1.49439 4.08716 1.51775C4.06528 1.60134 3.95864 1.56692 3.9231 1.50914C3.89165 1.43784 3.79868 1.40834 3.71802 1.41203C3.63462 1.44522 3.73989 1.5202 3.79048 1.53373C3.89849 1.56077 3.79321 1.62592 3.73442 1.59642C3.677 1.56692 3.52935 1.47841 3.54985 1.37146C3.62915 1.28062 3.76587 1.31467 3.8602 1.3604ZM2.37681 1.31737C2.452 1.32352 2.54497 1.35425 2.51626 1.43907C2.45747 1.52512 2.38228 1.60011 2.2688 1.62101C2.17993 1.6628 2.06509 1.67509 1.97349 1.64436C1.9229 1.61609 1.78892 1.53004 1.76978 1.60257C1.74106 1.7845 1.77935 1.7636 1.61802 1.82138V1.52143C1.75337 1.47349 1.90649 1.46612 2.03228 1.53741C2.14165 1.58904 2.29751 1.55585 2.36313 1.46735C2.38228 1.38744 2.25239 1.4108 2.19634 1.42555C2.15942 1.32475 2.30435 1.33335 2.37681 1.31737ZM2.85532 2.16804L0.305381 2.21844L1.27895 4.58972L2.85532 2.16804ZM3.24087 2.16804L4.81724 4.58972L5.79067 2.21844L3.24087 2.16804ZM3.0481 2.26023L1.44712 4.72125L4.64907 4.72125L3.0481 2.26023ZM4.87056 2.51961C5.0606 2.62164 5.1645 2.84168 5.1727 3.0482C5.15493 3.21538 5.16313 3.2916 4.96489 3.31127C4.76665 3.33093 4.63813 3.07524 4.55884 2.91052C4.51235 2.78882 4.47954 2.61549 4.58208 2.52576C4.66548 2.46675 4.78716 2.47536 4.87056 2.51961ZM1.81216 2.71752C1.84087 2.76669 1.80532 2.85766 1.74653 2.86627C1.67954 2.87487 1.69458 2.75194 1.61802 2.72367C1.52368 2.6954 1.43208 2.79251 1.41294 2.86627C1.55513 2.8171 1.69048 2.95355 1.69048 3.07524C1.68501 3.21907 1.58247 3.38011 1.42114 3.42067H1.34458C1.17095 3.41207 1.09438 3.22645 1.15044 3.09368C1.2106 2.89946 1.2981 2.67696 1.52231 2.5946C1.63853 2.54665 1.78208 2.63393 1.81216 2.71752ZM4.73657 2.61426C4.6395 2.61303 4.67642 2.73719 4.69145 2.79251C4.73931 2.93388 4.79126 3.1195 4.94985 3.16129C5.04282 3.14654 5.01001 3.00395 5.00044 2.95846C4.93618 2.82447 4.90337 2.67204 4.73657 2.61426ZM0.259033 2.67327L0.259033 4.80238L1.10532 4.73231L0.259033 2.67327ZM5.83716 2.67327L4.99087 4.73231L5.83716 4.80238V2.67327ZM4.22524 2.68187L4.61489 3.46247L4.47817 3.51656L4.20474 2.98428C4.12134 3.02116 4.027 3.09368 4.00513 2.96707C3.98735 2.91913 4.12134 2.90437 4.11587 2.82078C4.11177 2.73596 4.14595 2.67081 4.22524 2.68187ZM1.32681 3.0187C1.29399 3.08139 1.27075 3.14531 1.28989 3.21415C1.31313 3.32233 1.47446 3.29283 1.50317 3.20432C1.54009 3.14285 1.55649 3.06049 1.49634 3.01132C1.44028 2.96953 1.37466 2.9769 1.32681 3.0187ZM5.81665 3.53008C5.81528 3.75872 5.83169 4.01196 5.68403 4.20987C5.67173 4.22462 5.65395 4.23323 5.63345 4.2406C5.55415 4.1902 5.59243 4.10169 5.64985 4.05006C5.66352 4.1398 5.72505 4.01441 5.74009 3.98122C5.75786 3.94189 5.78931 3.76364 5.72642 3.85584C5.73599 3.90501 5.63345 4.01687 5.59927 3.95541C5.53091 3.77839 5.59927 3.58048 5.69497 3.42067C5.7729 3.34446 5.83032 3.47476 5.81665 3.53008ZM0.367451 3.40469C0.375518 3.40592 0.385771 3.41698 0.401357 3.44894L0.401357 4.20004C0.301553 4.11399 0.340244 3.97876 0.340518 3.8755C0.340518 3.77225 0.363076 3.67513 0.323018 3.59031C0.259854 3.56941 0.243857 3.38133 0.279678 3.43419C0.339971 3.4932 0.343389 3.401 0.367451 3.40469ZM2.81157 3.49812C2.92231 3.55343 3.00024 3.67513 2.95923 3.78823C2.93052 3.97508 2.59009 4.0476 2.5436 4.15332C2.5272 4.1902 2.89087 4.17299 2.95649 4.17299C2.96333 4.22216 2.977 4.30452 2.90454 4.31682C2.7063 4.30207 2.49575 4.30944 2.28794 4.30944C2.29341 4.17176 2.38911 4.0476 2.52036 3.97999C2.6147 3.91976 2.73091 3.86567 2.76782 3.75995C2.79243 3.70463 2.75962 3.64563 2.70493 3.61859C2.64751 3.58294 2.55454 3.59031 2.52446 3.65178C2.49712 3.69849 2.46431 3.76364 2.40552 3.76979C2.36587 3.7747 2.28247 3.77593 2.30708 3.70955C2.32622 3.64071 2.35356 3.56819 2.41919 3.5227C2.5395 3.44526 2.69126 3.44034 2.81157 3.49812ZM3.54028 3.48091C3.63325 3.50795 3.70435 3.57802 3.73579 3.66038C3.81919 3.84108 3.81099 4.06727 3.67563 4.22462C3.61411 4.28363 3.53618 4.33648 3.44321 4.33648C3.27231 4.33526 3.13696 4.20004 3.10415 4.05621C3.06177 3.89149 3.07954 3.70341 3.19849 3.56696C3.29145 3.47353 3.41724 3.44034 3.54028 3.48091ZM5.67446 3.58048C5.65259 3.65301 5.62935 3.7452 5.66489 3.81773C5.73462 3.79314 5.73872 3.69972 5.75513 3.63948C5.76743 3.5645 5.70728 3.48459 5.67446 3.58048ZM3.26548 3.83986C3.27368 3.96893 3.28872 4.12013 3.3981 4.18651C3.46509 4.20864 3.53071 4.15947 3.54985 4.10415C3.57583 4.02671 3.5813 3.94557 3.58267 3.86567C3.57993 3.77839 3.56216 3.68128 3.49106 3.61859C3.32427 3.5645 3.28188 3.75258 3.26548 3.83986ZM5.48169 3.66653V4.41885L5.42153 4.50121V3.98122C5.35864 4.07342 5.29712 4.09309 5.33813 3.97016C5.42153 3.88288 5.40376 3.75626 5.48169 3.66653ZM0.694482 3.8165C0.70542 3.86075 0.764482 4.03531 0.722373 3.99843C0.695439 3.98245 0.672881 3.9382 0.675752 3.92345C0.654561 3.88657 0.635283 3.84846 0.618193 3.81035C0.577861 3.85952 0.564053 3.91238 0.575264 3.97508C0.577998 3.95541 0.591396 3.9468 0.621611 3.96647C0.728799 4.12136 0.787998 4.32419 0.721279 4.50121L0.690928 4.51473C0.549287 4.44343 0.535068 4.27625 0.507314 4.14595C0.486123 3.99475 0.496514 3.84231 0.53876 3.6948C0.609853 3.64809 0.663994 3.76118 0.694482 3.8165ZM0.598096 4.06481C0.542588 4.12259 0.567197 4.22216 0.5929 4.291C0.608076 4.35861 0.68751 4.41639 0.675752 4.31067C0.685186 4.17422 0.643896 4.15455 0.598096 4.06481ZM1.50591 4.91793L3.0481 6.43118L4.59028 4.91793L1.50591 4.91793ZM1.21333 4.92162L0.477236 4.98186L1.35552 5.48709C1.31997 5.4539 1.28853 5.41702 1.25845 5.37891C1.18735 5.29409 1.11489 5.21173 1.00005 5.17485C0.88042 5.09495 0.942627 5.1097 1.0397 5.14289C1.02603 5.12077 1.03013 5.11093 1.04106 5.11093C1.07114 5.10847 1.15591 5.16256 1.17505 5.18838L1.51274 5.57683L2.40278 6.08944L1.21333 4.92162ZM4.88286 4.92162L4.30317 5.49078C4.39067 5.45267 4.45767 5.38629 4.5356 5.33835C4.56841 5.32114 4.58618 5.31499 4.59438 5.31499C4.6231 5.31499 4.52056 5.40227 4.48911 5.44161C4.3606 5.56208 4.27036 5.72434 4.0981 5.79933L4.35649 5.49815C4.32505 5.51413 4.27446 5.53749 4.24438 5.54855L3.69341 6.08944L4.71196 5.5043C4.78579 5.42194 4.73794 5.43546 4.63403 5.49324L4.47817 5.56699C4.63403 5.39858 4.89927 5.21911 5.02505 5.12937C5.15083 5.03963 5.24243 5.0089 5.13716 5.11093L4.96489 5.30762C5.10161 5.21419 4.9772 5.35556 4.90337 5.37523C4.8938 5.38752 4.88423 5.39981 4.87329 5.41088L5.61841 4.98186L4.88286 4.92162ZM2.77466 5.12937L2.77466 5.66288H2.59145V5.29409C2.5231 5.27688 2.44927 5.31499 2.38228 5.29041C2.33032 5.25476 2.39595 5.20682 2.4438 5.21788C2.48892 5.21665 2.5477 5.22034 2.57095 5.17854C2.6311 5.12322 2.7022 5.12445 2.77466 5.12937ZM3.17114 5.13552C3.33657 5.15027 3.502 5.14289 3.67153 5.14289C3.69204 5.17977 3.68247 5.23878 3.62642 5.24001C3.52114 5.24369 3.33931 5.22034 3.27231 5.24738C3.1602 5.37646 3.35024 5.29409 3.42817 5.3113C3.52388 5.32483 3.63325 5.34695 3.68931 5.4244C3.71802 5.46251 3.72622 5.51413 3.69888 5.55593C3.61958 5.63952 3.46645 5.6973 3.35298 5.68992C3.25317 5.68255 3.1397 5.6764 3.07134 5.60264C2.98384 5.47234 3.21489 5.52028 3.23813 5.56331C3.32017 5.62846 3.51567 5.58666 3.52114 5.50553C3.52935 5.4539 3.49243 5.42809 3.42681 5.40965C3.36118 5.39121 3.25454 5.42194 3.19028 5.43177C3.12602 5.44161 3.05903 5.43792 3.06724 5.37769C3.07817 5.32606 3.10415 5.27811 3.10415 5.22403C3.10552 5.18715 3.12739 5.13798 3.17114 5.13552ZM4.99634 5.19698C4.9936 5.19452 4.90063 5.26828 4.86099 5.29655L4.64497 5.45759C4.78989 5.37769 4.90884 5.31007 4.99634 5.19698ZM1.61938 5.37154C1.6522 5.37154 1.72192 5.42809 1.7479 5.45759L2.10474 5.83989C1.99946 5.81408 1.9229 5.75262 1.86411 5.67148C1.77524 5.58175 1.70962 5.46742 1.57427 5.43054C1.45122 5.36908 1.50317 5.35187 1.60298 5.4035C1.59888 5.38014 1.60571 5.37154 1.61938 5.37154Z" fill="black"/>
</svg>
