<svg width="111" height="148" viewBox="0 0 111 148" fill="none" xmlns="http://www.w3.org/2000/svg">
<path d="M15.7136 0C-6.98588 31.804 14.094 37.9272 27.1734 45.1166C29.4348 40.2119 32.0324 35.7642 35.5161 31.5907C19.6253 24.8583 16.7527 10.2053 15.7136 0ZM94.3125 0C93.2734 10.2053 90.4008 24.8583 74.5099 31.5907C77.9937 35.7642 80.5913 40.2119 82.8527 45.1166C95.9627 37.9272 116.988 31.804 94.3125 0ZM55.0131 22.8781C41.1696 31.2861 35.9745 39.4503 31.0545 51.7576C45.6924 55.3219 64.3031 55.3219 78.9716 51.7576C74.0516 39.4503 68.8565 31.2861 55.0131 22.8781ZM22.2534 55.3523C20.6337 58.4901 14.7357 78.1086 14.6746 83.3179C16.1109 81.8252 17.5778 80.302 19.0141 78.7788L21.031 80.5457C21.3671 72.747 24.8815 64.4609 28.7014 56.9364C26.715 56.449 24.2703 55.9311 22.2534 55.3523ZM87.7727 55.3523C85.8781 55.8702 83.0972 56.5404 81.3247 56.9364C85.1141 64.4609 88.659 72.747 88.9646 80.5457L91.012 78.7788L95.3515 83.3179C98.5602 79.5404 89.3924 58.4901 87.7727 55.3523ZM34.7216 58.0331L32.3074 65.2835C39.275 67.2636 45.6313 69.1219 53.3934 71.3762L51.407 76.555C49.6957 76.0676 47.9233 75.5801 46.1814 75.0623C45.2952 76.8291 43.2782 77.9868 41.078 77.9868C37.9609 77.9868 35.4856 75.7934 35.4856 73.1126C35.4856 72.7166 35.5161 72.351 35.6078 71.9854L30.535 70.5536L26.2872 83.257L37.3192 93.706L41.7808 85.4808H68.2147L72.7069 93.706L83.7389 83.257L79.4911 70.5536C77.8409 71.0106 76.1907 71.4676 74.5711 71.955C74.6933 72.3205 74.7239 72.7166 74.7239 73.1126C74.7239 75.7934 72.2486 77.9868 69.1009 77.9868C66.8701 77.9868 64.8532 76.7987 63.967 75.0318C62.1639 75.5497 60.3915 76.0371 58.6191 76.555L56.6021 71.3762C63.6919 69.3046 70.1705 67.4464 77.7187 65.2835L75.2739 58.0331C60.6971 61.4146 49.329 61.4146 34.7216 58.0331ZM21.5199 86.9126L0 109.364L8.86834 123.987H26.44L21.9478 131.785L33.4075 128.465L55.0131 147.2L76.6186 128.465L88.0478 131.785L83.5555 123.987H101.127L110.02 109.364L88.4756 86.9126L70.9345 102.114L64.242 90.4768H45.6924L38.9999 102.114L21.5199 86.9126ZM49.3901 94.7417H60.636V100.225H49.3901V94.7417Z" fill="white"/>
</svg>
