<svg width="70" height="108" viewBox="0 0 70 108" fill="none" xmlns="http://www.w3.org/2000/svg">
<path d="M42.2495 101.458H51.7864C51.7864 101.458 52.2406 107.5 47.018 107.5C41.7953 107.5 42.2495 101.458 42.2495 101.458Z" fill="#787878"/>
<path d="M33.5928 19.1335L40.6467 26.6862L44.515 0L58.1677 28.1967L70 14.3501L67.0419 33.4836L63.1737 47.3302L53.1617 55.1347L47.2455 56.897L41.5569 55.6382L32.6826 49.3443L29.497 39.274L33.5928 19.1335Z" fill="#F6A350"/>
<path d="M43.6048 31.4695L46.1078 36.5047L48.8383 28.4485L51.9603 34.2389L53.8443 40.5328L53.007 46.8267L51.2946 50.8548H45.3438L41.5569 48.3372L40.8743 42.7986L43.6048 31.4695Z" fill="#F7DD72"/>
<path d="M39.509 54.1276L47.2455 55.6382L54.527 54.1276L51.7964 101.458H42.2395L39.509 54.1276Z" fill="#9D6120"/>
<path d="M43.0227 64.6996C43.0926 64.6999 43.1958 64.7007 43.3274 64.7016C43.5909 64.7034 43.9696 64.7069 44.4299 64.7143C45.3513 64.7291 46.5997 64.7588 47.9065 64.8178C49.2139 64.8769 50.5769 64.9649 51.7297 65.0971C52.3063 65.1632 52.8269 65.2399 53.26 65.3285C53.6976 65.4181 54.0293 65.517 54.2375 65.6205C54.7643 65.8824 54.9698 66.0908 55.0715 66.3549C55.1261 66.4965 55.1565 66.6699 55.1721 66.9028C55.1877 67.1367 55.1868 67.4146 55.1868 67.7641C55.1867 69.127 55.0074 70.0706 54.1721 70.9008C54.1518 70.9209 54.0967 70.9579 53.9807 70.9985C53.8694 71.0373 53.7225 71.0719 53.5412 71.103C53.179 71.165 52.7034 71.2059 52.1496 71.228C51.0437 71.2719 49.6525 71.2421 48.2854 71.183C46.9194 71.124 45.582 71.0352 44.5862 70.9613C44.0887 70.9244 43.6766 70.8916 43.3889 70.8676C43.245 70.8556 43.1316 70.846 43.0549 70.8393C43.0168 70.836 42.9876 70.8332 42.968 70.8315C42.9636 70.8311 42.9597 70.8308 42.9563 70.8305C42.9449 70.8273 42.928 70.822 42.9065 70.8149C42.8588 70.799 42.7883 70.7727 42.7024 70.7328C42.5299 70.6528 42.2971 70.5187 42.0647 70.3031C41.6065 69.8781 41.1243 69.1162 41.1243 67.7641C41.1243 66.412 41.6066 65.6502 42.0647 65.225C42.2971 65.0094 42.5299 64.8744 42.7024 64.7944C42.7881 64.7546 42.8588 64.7291 42.9065 64.7133C42.9245 64.7073 42.9395 64.7028 42.9504 64.6996C42.968 64.6997 42.9924 64.6995 43.0227 64.6996Z" fill="white" stroke="black" stroke-width="0.5"/>
<path d="M55.1914 68.1046C55.1915 68.1197 55.1928 68.1365 55.1924 68.1544C55.19 68.2573 55.1786 68.4035 55.1406 68.5714C55.0648 68.9066 54.8861 69.3241 54.4727 69.6681C53.6457 70.356 51.7694 70.8323 47.5488 69.4981C45.8374 68.9571 44.099 69.781 42.834 70.6778C42.1943 71.1313 41.6575 71.6159 41.2812 71.9864C41.0929 72.1719 40.9439 72.3299 40.8418 72.4415C40.7909 72.4972 40.7515 72.5417 40.7246 72.5724C40.7112 72.5877 40.7004 72.6002 40.6934 72.6085C40.6901 72.6123 40.6874 72.6151 40.6855 72.6173C40.6847 72.6182 40.6841 72.6196 40.6836 72.6202L40.6826 72.6212L40.6191 72.6954L40.624 72.7931L41.293 88.8204C41.2188 88.8072 41.1312 88.7922 41.0303 88.7745C40.6497 88.7076 40.079 88.6077 39.3193 88.4786C37.8001 88.2205 35.5237 87.8432 32.4941 87.3643C31.665 87.2333 30.5439 87.2674 29.3447 87.3858C28.1407 87.5048 26.8389 87.7108 25.6406 87.9317C24.4417 88.1528 23.3426 88.3899 22.5439 88.5714C22.1446 88.6621 21.8196 88.7388 21.5947 88.7931C21.4827 88.8201 21.3954 88.8418 21.3359 88.8565C21.3062 88.8639 21.2829 88.8693 21.2676 88.8731C21.2636 88.8741 21.2598 88.8743 21.2568 88.8751L-4.78516 93.3536L-5.73633 73.0655C-5.57595 73.0839 -5.35244 73.1087 -5.07129 73.1378C-4.45232 73.2017 -3.55356 73.2866 -2.43457 73.3702C-0.196925 73.5374 2.92418 73.6996 6.45898 73.6808C13.5206 73.643 22.2675 72.8825 28.915 69.9659C30.2863 69.3643 31.0248 68.6107 31.7705 67.754C32.5109 66.9034 33.2544 65.9574 34.6533 64.9015C36.4981 63.509 38.9226 62.3221 40.8955 61.4815C41.8799 61.0621 42.7482 60.7308 43.3701 60.504C43.6811 60.3906 43.9303 60.3029 44.1016 60.2442C44.1577 60.225 44.2054 60.2084 44.2441 60.1954L55.1914 68.1046Z" fill="white" stroke="black" stroke-width="0.5"/>
<path d="M42.5099 71.534C42.582 71.5297 42.689 71.5238 42.8248 71.516C43.0963 71.5004 43.4864 71.4784 43.9607 71.4547C44.9103 71.4073 46.1974 71.3517 47.5461 71.3173C48.8953 71.2829 50.3036 71.2694 51.4979 71.3083C52.0952 71.3277 52.6365 71.3606 53.0882 71.4089C53.5436 71.4577 53.8929 71.5212 54.1159 71.5982C54.6794 71.7929 54.893 71.9612 55.002 72.1682C55.0599 72.2783 55.0979 72.4171 55.1238 72.6125C55.1498 72.8099 55.1619 73.0463 55.1776 73.3488C55.208 73.9362 55.1872 74.4274 55.0596 74.866C54.9338 75.2984 54.7001 75.6933 54.2847 76.0825C54.2644 76.1016 54.206 76.1384 54.0845 76.1823C53.9691 76.224 53.8176 76.2651 53.6313 76.304C53.2583 76.3818 52.7683 76.4482 52.1984 76.5035C51.0596 76.6139 49.6239 76.6788 48.2131 76.7172C46.8034 76.7555 45.4224 76.7664 44.3935 76.7677C43.8792 76.7684 43.4529 76.7669 43.1555 76.765C43.0069 76.7641 42.8904 76.7632 42.8111 76.7624C42.7715 76.762 42.7406 76.7616 42.7202 76.7613C42.7157 76.7613 42.7118 76.7602 42.7084 76.7601C42.7072 76.7599 42.7058 76.7606 42.7045 76.7604C42.6921 76.7583 42.6718 76.7548 42.6462 76.7494C42.595 76.7386 42.5195 76.7209 42.4281 76.6918C42.2442 76.6331 41.9978 76.531 41.7489 76.3601C41.2594 76.024 40.7424 75.4093 40.6833 74.2683C40.6243 73.1276 41.0743 72.4522 41.5259 72.0563C41.7555 71.8552 41.9897 71.7225 42.1663 71.641C42.2541 71.6005 42.3273 71.5734 42.3771 71.5562C42.3996 71.5484 42.4179 71.5428 42.43 71.5391C42.4484 71.538 42.4752 71.5362 42.5099 71.534Z" fill="white" stroke="black" stroke-width="0.5"/>
<path d="M44.3393 82.4664C44.3915 82.4601 44.4682 82.4516 44.5663 82.4402C44.7634 82.4172 45.0472 82.3844 45.392 82.3476C46.0818 82.274 47.0166 82.1817 47.9977 82.1079C48.9795 82.034 50.0042 81.9791 50.8745 81.9782C51.3097 81.9777 51.7029 81.991 52.031 82.0216C52.3637 82.0526 52.6119 82.1002 52.7673 82.1604C53.174 82.3182 53.3312 82.4586 53.4221 82.6468C53.5281 82.8667 53.5613 83.1785 53.6197 83.7537C53.7303 84.8456 53.6711 85.6057 53.1255 86.3336C53.1199 86.3411 53.091 86.3706 53.0118 86.4116C52.9368 86.4504 52.8344 86.4906 52.704 86.5315C52.4429 86.6134 52.0947 86.6896 51.6839 86.7584C50.8635 86.8958 49.8228 87.0009 48.7961 87.0803C47.7707 87.1597 46.7644 87.2123 46.0141 87.2455C45.6391 87.2621 45.328 87.2743 45.1111 87.2818C45.0026 87.2855 44.9174 87.2876 44.8596 87.2894C44.8321 87.2902 44.8108 87.2909 44.796 87.2914C44.7884 87.29 44.7774 87.2885 44.764 87.2855C44.7295 87.2778 44.6771 87.2643 44.6124 87.2414C44.4825 87.1952 44.304 87.1112 44.1182 86.9642C43.7529 86.6753 43.3339 86.1201 43.2248 85.0435C43.1157 83.9669 43.413 83.3229 43.7114 82.9516C43.8631 82.7628 44.0205 82.6381 44.138 82.5612C44.1964 82.523 44.2448 82.497 44.277 82.481C44.284 82.4776 44.2904 82.4743 44.2957 82.4718C44.3074 82.4704 44.3223 82.4685 44.3393 82.4664Z" fill="white" stroke="black" stroke-width="0.5"/>
<path d="M42.5702 76.9884C42.6351 76.9846 42.7307 76.9797 42.8529 76.973C43.0977 76.9595 43.4499 76.94 43.8779 76.9198C44.7337 76.8794 45.8932 76.8333 47.1085 76.8073C48.3247 76.7813 49.5941 76.7762 50.67 76.8193C51.208 76.8408 51.6947 76.8739 52.1007 76.9221C52.5111 76.9709 52.8237 77.033 53.0212 77.1062C53.5249 77.2931 53.7121 77.4516 53.8089 77.6458C53.8612 77.7507 53.8956 77.8836 53.9192 78.0705C53.943 78.2591 53.9547 78.4851 53.9692 78.7738C54.025 79.8845 53.8992 80.6517 53.1708 81.3704C53.1561 81.3849 53.1077 81.4177 53.0001 81.4582C52.8982 81.4966 52.7634 81.5351 52.5961 81.5711C52.2619 81.643 51.822 81.7032 51.3088 81.753C50.2836 81.8523 48.9906 81.907 47.719 81.9364C46.4485 81.9658 45.2034 81.9691 44.2759 81.9651C43.8124 81.9631 43.428 81.9597 43.1599 81.9564C43.0258 81.9547 42.9202 81.9532 42.8487 81.952C42.8131 81.9515 42.7858 81.9505 42.7675 81.9502C42.7635 81.9501 42.7598 81.9499 42.7567 81.9499C42.746 81.9479 42.7296 81.945 42.7083 81.9401C42.6632 81.9298 42.5962 81.9124 42.5148 81.8845C42.3514 81.8285 42.1317 81.731 41.9094 81.5685C41.4727 81.2494 41.0047 80.6639 40.9498 79.574C40.8951 78.4839 41.3017 77.8438 41.7038 77.4731C41.9084 77.2845 42.1171 77.1616 42.2739 77.0859C42.3521 77.0481 42.4167 77.0217 42.4606 77.0059C42.4776 76.9998 42.4917 76.9959 42.5019 76.9926C42.5183 76.9916 42.5413 76.9901 42.5702 76.9884Z" fill="white" stroke="black" stroke-width="0.5"/>
</svg>
