<svg width="62" height="63" viewBox="0 0 62 63" fill="none" xmlns="http://www.w3.org/2000/svg">
<path d="M48.2495 56.9502H57.7864C57.7864 56.9502 58.2406 62.9924 53.018 62.9924C47.7953 62.9924 48.2495 56.9502 48.2495 56.9502Z" fill="#787878"/>
<path d="M45.509 9.62V2.61018H60.527V9.62L57.7964 56.9502H48.2395L45.509 9.62Z" fill="#9D6120"/>
<path d="M45.5 4.61018L60.6 5.61018L60.5 9.61018L45.5 9.11018L45.5 4.61018Z" fill="black"/>
<path d="M45.5 2.61018C47.5 0.610185 50.8801 -0.340415 54.5 0.110189C57.2786 0.45607 60 2.11018 60.5 2.61018C60.8238 2.93397 60.6 6.11019 60.6 6.11019C60.6 6.11019 60.6 6.71771 60.6 7.11018C60.6 7.50266 60.6 8.11018 60.6 8.11018C60.6 8.11018 60.6052 8.71775 60.6 9.11018C60.5954 9.45687 60.5 9.99235 60.5 9.99235L45.5 9.11019C45.5 9.11019 45 8.11019 45.5 7.61019C45.9142 7.19598 60.6 8.11018 60.6 8.11018L45.5 6.61019C45.5 6.61019 44.8619 6.0244 45 5.61019C45.0873 5.34822 45.5 5.11019 45.5 5.11019L60.6 6.41584V6.11019L45.5 4.61018C45.5 4.61018 44.9477 3.16247 45.5 2.61018Z" fill="#1E1E1E"/>
<path d="M49.0227 20.192C49.0926 20.1922 49.1958 20.193 49.3274 20.194C49.5909 20.1958 49.9696 20.1993 50.4299 20.2066C51.3513 20.2214 52.5997 20.2511 53.9065 20.3102C55.2139 20.3692 56.5769 20.4573 57.7297 20.5895C58.3063 20.6556 58.8269 20.7323 59.26 20.8209C59.6976 20.9105 60.0293 21.0094 60.2375 21.1129C60.7643 21.3747 60.9698 21.5832 61.0715 21.8473C61.1261 21.9889 61.1565 22.1623 61.1721 22.3951C61.1877 22.6291 61.1868 22.9069 61.1868 23.2565C61.1867 24.6194 61.0074 25.563 60.1721 26.3932C60.1518 26.4133 60.0967 26.4503 59.9807 26.4908C59.8694 26.5297 59.7225 26.5643 59.5412 26.5953C59.179 26.6574 58.7034 26.6983 58.1496 26.7203C57.0437 26.7643 55.6525 26.7345 54.2854 26.6754C52.9194 26.6164 51.582 26.5276 50.5862 26.4537C50.0887 26.4168 49.6766 26.3839 49.3889 26.36C49.245 26.348 49.1316 26.3383 49.0549 26.3316C49.0168 26.3283 48.9876 26.3256 48.968 26.3238C48.9636 26.3234 48.9597 26.3232 48.9563 26.3229C48.9449 26.3196 48.928 26.3144 48.9065 26.3072C48.8588 26.2914 48.7883 26.265 48.7024 26.2252C48.5299 26.1452 48.2971 26.0111 48.0647 25.7955C47.6065 25.3705 47.1243 24.6086 47.1243 23.2565C47.1243 21.9044 47.6066 21.1425 48.0647 20.7174C48.2971 20.5018 48.5299 20.3667 48.7024 20.2867C48.7881 20.247 48.8588 20.2215 48.9065 20.2057C48.9245 20.1997 48.9395 20.1952 48.9504 20.192C48.968 20.192 48.9924 20.1919 49.0227 20.192Z" fill="white" stroke="black" stroke-width="0.5"/>
<path d="M61.1914 23.597C61.1915 23.612 61.1928 23.6288 61.1924 23.6468C61.19 23.7496 61.1786 23.8959 61.1406 24.0638C61.0648 24.399 60.8861 24.8165 60.4727 25.1604C59.6457 25.8484 57.7694 26.3246 53.5488 24.9905C51.8374 24.4495 50.099 25.2734 48.834 26.1702C48.1943 26.6237 47.6575 27.1082 47.2812 27.4788C47.0929 27.6643 46.9439 27.8222 46.8418 27.9339C46.7909 27.9896 46.7515 28.034 46.7246 28.0647C46.7112 28.0801 46.7004 28.0926 46.6934 28.1009C46.6901 28.1046 46.6874 28.1075 46.6855 28.1096C46.6847 28.1106 46.6841 28.112 46.6836 28.1126L46.6826 28.1136L46.6191 28.1878L46.624 28.2854L47.293 44.3128C47.2188 44.2996 47.1312 44.2846 47.0303 44.2669C46.6497 44.2 46.079 44.1 45.3193 43.971C43.8001 43.7129 41.5237 43.3356 38.4941 42.8567C37.665 42.7257 36.5439 42.7598 35.3447 42.8782C34.1407 42.9971 32.8389 43.2031 31.6406 43.4241C30.4417 43.6452 29.3426 43.8823 28.5439 44.0638C28.1446 44.1545 27.8196 44.2311 27.5947 44.2854C27.4827 44.3125 27.3954 44.3342 27.3359 44.3489C27.3062 44.3563 27.2829 44.3617 27.2676 44.3655C27.2636 44.3665 27.2598 44.3667 27.2568 44.3675L1.21484 48.846L0.263672 28.5579C0.424052 28.5763 0.647558 28.6011 0.928711 28.6302C1.54768 28.6941 2.44644 28.779 3.56543 28.8626C5.80308 29.0297 8.92418 29.192 12.459 29.1731C19.5206 29.1354 28.2675 28.3749 34.915 25.4583C36.2863 24.8566 37.0248 24.1031 37.7705 23.2464C38.5109 22.3958 39.2544 21.4498 40.6533 20.3938C42.4981 19.0014 44.9226 17.8145 46.8955 16.9739C47.8799 16.5545 48.7482 16.2232 49.3701 15.9964C49.6811 15.883 49.9303 15.7953 50.1016 15.7366C50.1577 15.7174 50.2054 15.7008 50.2441 15.6878L61.1914 23.597Z" fill="white" stroke="black" stroke-width="0.5"/>
<path d="M48.5099 27.0264C48.582 27.022 48.689 27.0162 48.8248 27.0084C49.0963 26.9928 49.4864 26.9708 49.9607 26.9471C50.9103 26.8996 52.1974 26.8441 53.5461 26.8097C54.8953 26.7752 56.3036 26.7618 57.4979 26.8006C58.0952 26.8201 58.6365 26.8529 59.0882 26.9013C59.5436 26.9501 59.8929 27.0135 60.1159 27.0905C60.6794 27.2853 60.893 27.4536 61.002 27.6605C61.0599 27.7706 61.0979 27.9094 61.1238 28.1048C61.1498 28.3023 61.1619 28.5387 61.1776 28.8411C61.208 29.4285 61.1872 29.9198 61.0596 30.3584C60.9338 30.7908 60.7001 31.1856 60.2847 31.5749C60.2644 31.5939 60.206 31.6307 60.0845 31.6746C59.9691 31.7164 59.8176 31.7575 59.6313 31.7963C59.2583 31.8742 58.7683 31.9406 58.1984 31.9959C57.0596 32.1062 55.6239 32.1712 54.2131 32.2095C52.8034 32.2478 51.4224 32.2588 50.3935 32.2601C49.8792 32.2607 49.4529 32.2593 49.1555 32.2574C49.0069 32.2565 48.8904 32.2555 48.8111 32.2548C48.7715 32.2544 48.7406 32.2539 48.7202 32.2537C48.7157 32.2537 48.7118 32.2525 48.7084 32.2525C48.7072 32.2523 48.7058 32.253 48.7045 32.2527C48.6921 32.2507 48.6718 32.2472 48.6462 32.2418C48.595 32.2309 48.5195 32.2133 48.4281 32.1842C48.2442 32.1255 47.9978 32.0233 47.7489 31.8525C47.2594 31.5163 46.7424 30.9016 46.6833 29.7607C46.6243 28.62 47.0743 27.9445 47.5259 27.5487C47.7555 27.3475 47.9897 27.2149 48.1663 27.1333C48.2541 27.0928 48.3273 27.0658 48.3771 27.0485C48.3996 27.0407 48.4179 27.0352 48.43 27.0315C48.4484 27.0303 48.4752 27.0285 48.5099 27.0264Z" fill="white" stroke="black" stroke-width="0.5"/>
<path d="M50.3393 37.9588C50.3915 37.9525 50.4682 37.944 50.5663 37.9326C50.7634 37.9096 51.0472 37.8767 51.392 37.84C52.0818 37.7663 53.0166 37.6741 53.9977 37.6003C54.9795 37.5263 56.0042 37.4715 56.8745 37.4705C57.3097 37.4701 57.7029 37.4834 58.031 37.514C58.3637 37.545 58.6119 37.5926 58.7673 37.6528C59.174 37.8106 59.3312 37.9509 59.4221 38.1392C59.5281 38.3591 59.5623 38.6707 59.6206 39.246C59.7313 40.3379 59.6711 41.0981 59.1255 41.8259C59.1199 41.8334 59.091 41.8629 59.0118 41.904C58.9368 41.9428 58.8344 41.9829 58.704 42.0238C58.4429 42.1057 58.0947 42.182 57.6839 42.2508C56.8635 42.3881 55.8228 42.4932 54.7961 42.5727C53.7707 42.652 52.7644 42.7047 52.0141 42.7379C51.6391 42.7544 51.328 42.7667 51.1111 42.7742C51.0026 42.7779 50.9174 42.78 50.8596 42.7817C50.8321 42.7826 50.8108 42.7833 50.796 42.7837C50.7884 42.7824 50.7774 42.7808 50.764 42.7779C50.7295 42.7701 50.6771 42.7567 50.6124 42.7337C50.4825 42.6876 50.304 42.6036 50.1182 42.4566C49.7529 42.1676 49.3339 41.6125 49.2248 40.5359C49.1157 39.4593 49.413 38.8152 49.7114 38.444C49.8631 38.2552 50.0205 38.1305 50.138 38.0536C50.1964 38.0153 50.2448 37.9894 50.277 37.9734C50.284 37.9699 50.2904 37.9667 50.2957 37.9642C50.3074 37.9628 50.3223 37.9608 50.3393 37.9588Z" fill="white" stroke="black" stroke-width="0.5"/>
<path d="M48.5702 32.4808C48.6351 32.477 48.7307 32.4721 48.8529 32.4654C49.0977 32.4518 49.4499 32.4323 49.8779 32.4121C50.7337 32.3717 51.8932 32.3256 53.1085 32.2997C54.3247 32.2737 55.5941 32.2686 56.67 32.3117C57.208 32.3332 57.6947 32.3663 58.1007 32.4145C58.5111 32.4633 58.8237 32.5253 59.0212 32.5986C59.5249 32.7855 59.7121 32.9439 59.8089 33.1382C59.8612 33.2431 59.8956 33.376 59.9192 33.5628C59.943 33.7514 59.9547 33.9775 59.9692 34.2661C60.025 35.3769 59.8992 36.1441 59.1708 36.8628C59.1561 36.8772 59.1077 36.9101 59.0001 36.9506C58.8982 36.989 58.7634 37.0275 58.5961 37.0635C58.2619 37.1353 57.822 37.1956 57.3088 37.2453C56.2836 37.3446 54.9906 37.3994 53.719 37.4288C52.4485 37.4581 51.2034 37.4614 50.2759 37.4575C49.8124 37.4555 49.428 37.4521 49.1599 37.4488C49.0258 37.4471 48.9202 37.4455 48.8487 37.4444C48.8131 37.4438 48.7858 37.4429 48.7675 37.4426C48.7635 37.4425 48.7598 37.4423 48.7567 37.4422C48.746 37.4403 48.7296 37.4374 48.7083 37.4325C48.6632 37.4222 48.5962 37.4047 48.5148 37.3769C48.3514 37.3208 48.1317 37.2234 47.9094 37.0609C47.4727 36.7418 47.0047 36.1562 46.9498 35.0663C46.8951 33.9762 47.3017 33.3362 47.7038 32.9655C47.9084 32.7768 48.1171 32.6539 48.2739 32.5782C48.3521 32.5405 48.4167 32.5141 48.4606 32.4983C48.4776 32.4921 48.4917 32.4882 48.5019 32.485C48.5183 32.484 48.5413 32.4825 48.5702 32.4808Z" fill="white" stroke="black" stroke-width="0.5"/>
<path d="M0 28.27L2.5 31L1.5 48.5L0.98 49.14L0 28.27Z" fill="white"/>
</svg>
