<svg width="159" height="103" viewBox="0 0 159 103" fill="none" xmlns="http://www.w3.org/2000/svg">
<path d="M67.1884 31.0874L62.1145 33.4012L54.1165 30.3512C54.1165 30.3512 49.57 27.2885 44.6297 24.4463C42.9648 23.4885 39.5446 23.5947 37.6834 24.076C34.6388 24.8633 34.311 24.8135 31.1905 24.824C28.244 24.834 28.8441 27.2306 24.1423 29.6495C21.5156 31.0008 19.8282 33.9634 17.1642 35.6784C12.2024 38.8729 18.9655 44.1933 14.2577 47.6273C8.43555 51.8742 11.9878 55.8693 11.9878 55.8693L7.7761 53.7453C7.7761 53.7453 6.7944 49.3324 12.024 45.3226C17.6457 41.0122 8.30972 37.6907 14.4984 33.9872C19.1676 31.1931 23.2048 24.6486 27.145 23.2407C31.4662 21.6968 32.3465 21.0695 35.841 20.7103C39.1916 20.3659 41.2724 20.128 44.415 21.3333C47.4299 22.4897 48.2862 23.2306 51.356 25.2436C58.7412 30.0861 67.1884 31.0874 67.1884 31.0874Z" fill="#1E1E1E"/>
<path d="M34.0441 91.4394L34.6564 88.175L31.3788 83.8112C31.3788 83.8112 28.6738 81.4856 26.0422 78.902C25.1554 78.0313 24.6473 76.0005 24.6392 74.8459C24.6258 72.9573 24.5391 72.7697 24.0209 70.9269C23.5316 69.1869 24.2145 68.2553 24.956 65.1982C25.3702 63.4904 26.5675 60.4673 27.2059 58.695C28.395 55.3939 30.4494 57.8789 31.833 54.6998C33.544 50.7682 35.8923 51.0242 35.8923 51.0242L34.9028 48.6803C34.9028 48.6803 32.0247 49.8505 30.3642 53.4048C28.5792 57.2255 26.0658 55.2349 24.7607 59.3194C23.776 62.401 22.5664 66.2348 22.3373 68.7244C22.0861 71.4547 21.8368 72.0474 22.197 74.1516C22.5425 76.169 22.7418 77.4248 24.034 79.1386C25.2737 80.7829 25.8872 81.2017 27.6788 82.7783C31.9889 86.5713 34.0441 91.4394 34.0441 91.4394Z" fill="#1E1E1E"/>
<path d="M114 93.9647L115.758 90.6927L122.286 89.3149C122.286 89.3149 126.743 89.2818 131.314 88.9716C132.854 88.8671 134.854 87.4819 135.706 86.489C137.098 84.8649 137.323 84.766 139.197 83.5509C140.966 82.4035 140.949 81.0979 142.425 77.9108C143.249 76.1302 144.234 72.639 144.876 70.6388C146.073 66.9131 142.163 67.5601 143.073 63.7977C144.197 59.1447 141.615 57.6483 141.615 57.6483L144.335 56.3445C144.335 56.3445 146.417 59.4622 145.516 63.7518C144.548 68.3629 148.565 68.4794 146.915 72.9677C145.67 76.354 144.105 80.5555 142.522 82.8769C140.785 85.4228 140.607 86.1179 138.704 87.6748C136.879 89.1674 135.759 90.108 133.189 90.6454C130.725 91.161 129.793 91.0746 126.815 91.1281C119.649 91.2566 114 93.9647 114 93.9647Z" fill="#1E1E1E"/>
<path d="M84 26.7348L88.8456 29.2498L97.1721 26.2717C97.1721 26.2717 102.042 23.2012 107.284 20.3682C109.05 19.4135 112.466 19.6021 114.281 20.1438C117.25 21.0299 117.584 20.9857 120.709 21.0682C123.66 21.1462 124.814 22.6506 129.276 25.266C131.769 26.7271 135.971 30.0317 138.464 31.8707C143.107 35.2961 138.281 37.2829 142.644 40.9508C148.041 45.4868 146.579 48.9987 146.579 48.9987L150.703 48.5923C150.703 48.5923 150.166 43.5757 145.339 39.2991C140.15 34.7018 144.408 31.7672 138.588 27.7861C134.197 24.7825 128.728 21.0696 124.925 19.5198C120.755 17.8201 119.937 17.1497 116.473 16.6971C113.152 16.2632 111.091 15.9689 107.819 17.1462C104.679 18.2757 103.745 19.0242 100.463 21.0403C92.566 25.8908 84 26.7348 84 26.7348Z" fill="#1E1E1E"/>
<path d="M20 53C20 38.6406 31.6406 27 46 27H130C144.359 27 156 38.6406 156 53V53C156 67.3594 144.359 79 130 79H46C31.6406 79 20 67.3594 20 53V53Z" fill="white"/>
<path d="M128.645 24.6562C129.459 24.633 130.17 24.9468 130.742 25.4062L131.293 25.8516L131.773 26.25L132.172 26.1328L132.746 25.957C133.31 25.7917 133.887 25.7984 134.434 25.9688L134.973 26.1914L136.004 26.7539H136.098L136.707 26.6133L137.328 26.4727L138.031 26.4141C138.482 26.4333 138.908 26.5752 139.285 26.8242L139.812 27.2812L140.656 28.2188C140.838 28.4212 141.003 28.5514 141.148 28.6289L141.629 28.8867L142.121 29.1445C142.157 29.1624 142.26 29.2028 142.484 29.1914L143.164 29.1562L143.832 29.1094C144.54 29.0716 145.252 29.2258 145.883 29.625L146.375 29.9297L146.867 30.2461C147.478 30.6332 147.921 31.1825 148.191 31.8281L148.684 33C148.727 33.1037 148.757 33.1178 148.777 33.1289L149.809 33.6914C150.417 34.0216 150.901 34.5116 151.215 35.1328L151.473 35.6602L151.742 36.1758C151.853 36.3949 151.982 36.591 152.141 36.7617L152.539 37.1836L152.926 37.5938C153.317 38.0133 153.613 38.4989 153.816 39.0352L154.016 39.5742L154.227 40.1133C154.308 40.3282 154.421 40.532 154.566 40.7227L155.27 41.6367C155.715 42.2197 155.923 42.9074 155.914 43.6289V44.2266L155.902 44.8359C155.898 45.1602 155.921 45.4599 155.961 45.7383L156.031 46.2891L156.113 46.8398C156.164 47.1891 156.217 47.5396 156.277 47.8828L156.371 48.4219L156.477 48.9609C156.516 49.1825 156.587 49.4161 156.699 49.6641L157.191 50.7422C157.391 51.1789 157.551 51.637 157.672 52.1016L157.812 52.6641L157.965 53.2383C158.136 53.8941 158.116 54.5613 157.906 55.207L157.73 55.7695L157.543 56.332C157.464 56.5759 157.425 56.8173 157.414 57.0586L157.379 57.6328L157.355 58.207C157.319 59.0067 156.971 59.6895 156.441 60.2227L155.527 61.1367C155.474 61.19 155.462 61.2314 155.457 61.2422L155.445 61.2539L155.328 62.3789L155.152 64.1367L155.082 64.7344C155.002 65.4848 154.676 66.1511 154.121 66.668L153.688 67.0664L153.254 67.4766C153.082 67.6368 152.95 67.8028 152.855 67.9805L152.598 68.4844L152.328 68.9766C152.137 69.3351 151.934 69.6929 151.719 70.043L151.414 70.5352L151.121 71.0273C150.761 71.6138 150.247 72.0527 149.633 72.3398L149.094 72.5977L148.543 72.8438L148.531 72.8555C148.527 72.8633 148.517 72.8812 148.508 72.9023L148.273 73.4883L148.027 74.0742C147.734 74.7852 147.216 75.3712 146.48 75.7031L145.953 75.9375L145.426 76.1836C145.235 76.2697 145.055 76.3809 144.898 76.5352L144.477 76.9453L144.055 77.3672C143.577 77.8371 142.998 78.1551 142.344 78.3047L141.77 78.4336L141.195 78.5742C140.943 78.6317 140.708 78.7146 140.492 78.832L139.988 79.1133L139.473 79.3828C138.706 79.7987 137.878 79.7983 137.129 79.5469L136.496 79.3359L135.852 79.125L135.441 79.3711L134.938 79.6641C134.555 79.89 134.153 80.1085 133.742 80.2969L133.191 80.543L132.652 80.7891C131.974 81.1001 131.234 81.1741 130.508 80.9766L129.934 80.8125L129.359 80.6602C128.945 80.547 128.536 80.4151 128.129 80.2734L127.566 80.0742L127.004 79.8867C126.933 79.8621 126.889 79.8561 126.828 79.875L126.266 80.0625L125.703 80.2383C125.086 80.4341 124.442 80.4699 123.805 80.332L123.242 80.2031L122.68 80.0859C122.555 80.0589 122.432 80.0568 122.293 80.0977L121.73 80.2734L121.168 80.4375C120.798 80.5464 120.425 80.6536 120.055 80.7656L119.492 80.9414L118.93 81.1055C118.288 81.2993 117.621 81.3053 116.973 81.1289L115.848 80.8242C115.726 80.7921 115.616 80.7933 115.496 80.8242L114.934 80.9766L114.371 81.1172C113.892 81.2407 113.407 81.3145 112.918 81.3281L111.793 81.3516C111.088 81.3707 110.426 81.1705 109.848 80.8242L108.723 80.1445C108.553 80.0436 108.45 80.0274 108.395 80.0273L107.832 80.0391H107.27C106.993 80.0424 106.708 80.074 106.426 80.1328L105.301 80.3672C104.945 80.4413 104.59 80.525 104.234 80.6133L103.109 80.8945C102.509 81.0435 101.897 81.0432 101.293 80.9062L100.73 80.7891L100.168 80.6602C99.7198 80.5583 99.2712 80.4189 98.832 80.25L98.2695 80.0391L97.707 79.8164C97.6231 79.7844 97.5735 79.7897 97.5195 79.8047L96.3945 80.1094C95.9302 80.2383 95.4624 80.3305 94.9883 80.3672L94.4258 80.4141L93.8633 80.4492C93.3699 80.4874 92.8767 80.4686 92.3867 80.3906L91.8242 80.2969L91.2617 80.2148C91.1418 80.1958 91.015 80.1979 90.8633 80.25L90.3008 80.4492L89.7383 80.6367C88.9724 80.9013 88.1878 80.8469 87.4766 80.5078L86.3516 79.9688C86.1253 79.8607 85.9277 79.8071 85.7539 79.793L84.6289 79.6992C84.6151 79.6981 84.5463 79.7016 84.3945 79.793L83.832 80.1211L83.2695 80.4609C82.6988 80.8044 82.0526 81.0152 81.3594 81.0117H80.2344C79.771 81.0091 79.3104 80.9565 78.8516 80.8711L77.7266 80.6602C77.3534 80.5905 76.9747 80.5291 76.6016 80.4609L75.4766 80.25C75.4525 80.2456 75.4017 80.2407 75.2891 80.2969L74.1641 80.8594C73.2722 81.3036 72.3318 81.1966 71.5508 80.6836L70.4258 79.9336C70.3994 79.9162 70.3788 79.9039 70.3672 79.8984L69.8633 80.0156L69.3008 80.1328C68.7342 80.2516 68.1588 80.2641 67.5898 80.1562L66.4648 79.9453C66.3336 79.9208 66.2043 79.9237 66.0547 79.9688L65.4922 80.1328L64.9297 80.3086C64.3728 80.4761 63.7982 80.5322 63.2188 80.4727L62.0938 80.3555C61.8245 80.3278 61.5547 80.3258 61.2852 80.3555L60.7227 80.4258L60.1602 80.4844C59.5517 80.5512 58.953 80.4739 58.3789 80.2734L57.8164 80.0742L57.3008 79.8984L56.7734 80.1914L56.2109 80.4961C55.3911 80.9402 54.4771 80.9512 53.6562 80.5078L53.0938 80.2031L52.625 79.9453L52.1914 80.1562L51.6289 80.4141C51.1775 80.6234 50.7139 80.7965 50.2461 80.918L49.6836 81.0586L49.1211 81.2109C48.4576 81.3824 47.7846 81.3477 47.1406 81.1289L46.5781 80.9414L46.0156 80.7422C45.6776 80.6272 45.3367 80.5319 45.0078 80.4492L43.9062 80.168C43.6685 80.1082 43.4296 80.0803 43.1914 80.0859L42.6172 80.1094L42.0547 80.1211C41.6562 80.1313 41.2538 80.129 40.8477 80.1211L40.2617 80.1094L39.6875 80.0977C39.1282 80.0867 38.5797 79.9838 38.0586 79.7812L37.5195 79.5703L36.9922 79.3594C36.5688 79.1945 36.1562 78.9978 35.7617 78.7734L35.2695 78.4922L34.7656 78.2109C34.5633 78.0965 34.3419 78.0113 34.0977 77.9531L33.5234 77.8125L32.9492 77.6836C32.21 77.5071 31.5976 77.0792 31.1562 76.4766L30.8047 75.9844L30.4414 75.5039C30.3897 75.4333 30.3391 75.3979 30.2656 75.375L29.1172 75.0234C28.3076 74.7707 27.7048 74.2051 27.3711 73.4414L27.125 72.8789L26.8789 72.3047C26.8605 72.2635 26.8363 72.2507 26.832 72.2461C26.8269 72.241 26.8215 72.2233 26.7969 72.2109L26.2578 71.9414L25.7188 71.6836C25.0144 71.3306 24.5003 70.7453 24.2422 69.9961L24.0547 69.4336L23.8555 68.8711C23.7466 68.5545 23.6261 68.2599 23.4922 67.9922L23.2461 67.5L23 66.9961C22.9677 66.9322 22.8971 66.8383 22.7305 66.7266L22.1914 66.375L21.6641 66.0117C20.9042 65.5044 20.4535 64.715 20.4688 63.7734L20.4922 62.5312C20.4964 62.2609 20.4659 62.0378 20.4102 61.8516L20.2461 61.3125L20.0938 60.7852C20.0401 60.6085 19.9396 60.4191 19.7891 60.2109L19.4375 59.7188L19.0742 59.2148C18.5776 58.5261 18.4182 57.708 18.6289 56.8828L18.7812 56.2969L18.9336 55.6992C18.9421 55.6642 18.9458 55.6454 18.9453 55.6406C18.9445 55.6339 18.9377 55.6149 18.9219 55.582L18.6523 55.0312L18.3945 54.4805C18.0379 53.7381 17.9993 52.9288 18.3125 52.1602L18.5469 51.5977L18.7695 51.0352C18.8563 50.8222 18.8948 50.6351 18.8984 50.4609L18.9219 49.3359C18.9341 48.7573 19.0697 48.1984 19.3086 47.6719L19.7773 46.6406C19.8857 46.4018 19.9658 46.1572 20.0117 45.9141L20.1055 45.375L20.2109 44.8242C20.2831 44.4422 20.3686 44.0602 20.457 43.6758L20.5859 43.125L20.7031 42.5742C20.8398 41.9808 21.1154 41.4397 21.5 40.9688L21.8516 40.5234L22.2148 40.0781C22.2615 40.0201 22.3129 39.9364 22.332 39.7852L22.4023 39.1758L22.4844 38.5664L22.6484 37.9102C22.89 37.2938 23.352 36.8122 23.9727 36.5156L24.5469 36.2344L25.1211 35.9648C25.2902 35.8841 25.3647 35.8083 25.4023 35.7539L25.7188 35.2852L26.0234 34.8281C26.2894 34.4333 26.5946 34.0678 26.9375 33.7383L27.3359 33.3516L27.7344 32.9766C28.0733 32.6511 28.4502 32.3605 28.8477 32.1094L29.3164 31.8047L29.7852 31.5117C30.0635 31.336 30.3332 31.1454 30.5938 30.9492L31.0391 30.6211L31.4727 30.293C31.8516 30.0077 32.2601 29.7636 32.6914 29.5664L33.1953 29.332L33.6992 29.1094C34.0857 28.9331 34.4799 28.771 34.8828 28.6406L35.4102 28.4766L35.9258 28.3125C35.9037 28.3202 35.899 28.325 35.9141 28.3125C35.934 28.2957 35.9784 28.2466 36.043 28.1484L36.4414 27.5508L36.8281 26.9531C37.3201 26.2011 38.1307 25.6501 39.1836 25.7227L39.7812 25.7578L40.3789 25.8047C40.6312 25.8221 40.8618 25.7969 41.0703 25.7461L41.6328 25.6055L42.1836 25.4766C42.5703 25.3814 42.9605 25.2889 43.3555 25.207L43.9297 25.0898L44.4922 24.9727C44.7464 24.92 45.0567 24.8801 45.3711 24.9023C45.5905 24.9183 45.9455 24.9677 46.2852 25.1836L46.6133 25.4648L46.7773 25.6289L46.8008 25.6758C46.8443 25.6912 46.9065 25.7026 46.9766 25.7227L47.5391 25.875L48.1016 26.0391C48.2572 26.0836 48.3949 26.0887 48.5352 26.0625L49.6602 25.8516C49.9986 25.7881 50.3396 25.7175 50.6797 25.6289L51.2422 25.4766L51.8047 25.3359C52.2894 25.2095 52.7851 25.135 53.2812 25.125L54.4062 25.1016C55.0124 25.0895 55.5996 25.2153 56.1523 25.4531L57.2773 25.9453C57.292 25.9516 57.306 25.9552 57.3125 25.957C57.3128 25.957 57.3243 25.9492 57.3359 25.9453L58.4609 25.5703C58.9609 25.4027 59.4746 25.3122 59.9961 25.2891L60.5586 25.2539L61.1211 25.2305C61.5305 25.2123 61.9421 25.2086 62.3516 25.2188L62.9141 25.2305L63.4766 25.2539C63.7466 25.2604 64.0219 25.2337 64.2969 25.1836L64.8594 25.0781L65.4219 24.9844C66.0179 24.8761 66.6191 24.899 67.2031 25.0547L67.7656 25.207L68.3281 25.3477C68.5962 25.4189 68.8561 25.4665 69.1133 25.4766L69.6758 25.5L70.2383 25.5117C70.6746 25.5281 71.1166 25.5711 71.5508 25.6406L72.6758 25.8281C72.8998 25.8638 73.1207 25.8608 73.3438 25.8281L74.4688 25.6641C74.7471 25.6233 75.0335 25.5535 75.3242 25.4531L75.8867 25.2656L76.4492 25.0664C77.0013 24.876 77.5761 24.7945 78.1602 24.832L79.2852 24.9023C79.6397 24.9251 79.9971 24.9406 80.3516 24.9492L81.4766 24.9727C81.8816 24.9825 82.2906 25.0081 82.6953 25.043L83.8203 25.1367C84.1095 25.1614 84.3984 25.1718 84.6875 25.1484L85.8125 25.0547C86.5163 24.9974 87.1855 25.164 87.7812 25.4883L88.9062 26.0977C88.9343 26.1129 88.9527 26.1286 88.9648 26.1328H88.9766L90.1016 25.875C90.3928 25.8074 90.689 25.7067 90.9922 25.582L91.5547 25.3594L92.1172 25.125C92.8755 24.8133 93.6817 24.8305 94.4258 25.1602L95.5508 25.6523C95.6409 25.6917 95.6809 25.6952 95.7148 25.6875L96.2773 25.5469L96.8398 25.418C97.4227 25.2804 98.0216 25.2654 98.6094 25.3828L99.1719 25.5L99.7344 25.6055C99.776 25.6136 99.8351 25.6205 99.9453 25.5703L101.07 25.0547L101.773 24.8555C102.239 24.7892 102.694 24.8541 103.109 25.0312L103.707 25.3711L104.27 25.793L104.809 26.2031L105.254 26.0859L105.816 25.9336C106.288 25.8119 106.765 25.7433 107.246 25.7227L108.371 25.6758C108.725 25.6607 109.084 25.6358 109.438 25.6055L110.562 25.5117C110.925 25.4806 111.29 25.4459 111.652 25.4062L112.215 25.3359L112.777 25.2773C113.197 25.2316 113.623 25.2023 114.043 25.1953H114.605L115.168 25.1836C115.811 25.1738 116.421 25.333 116.984 25.6172L117.547 25.8984L117.84 26.0625L118.227 25.7695L118.789 25.3477L119.375 24.9961C119.591 24.9031 119.834 24.8368 120.09 24.8086C120.349 24.7805 120.602 24.7939 120.84 24.8438L121.508 25.0898L122.07 25.3945L122.633 25.6875C122.879 25.8176 123.104 25.8892 123.301 25.9219L123.863 26.0156L124.391 26.1094C124.395 26.1082 124.427 26.1 124.484 26.0625L125.609 25.3125C126.171 24.943 126.816 24.6998 127.52 24.6797L128.645 24.6562ZM128.164 27.668L127.602 27.6797C127.554 27.6817 127.445 27.7002 127.262 27.8203L126.699 28.1953L126.137 28.5586C125.508 28.9722 124.757 29.2068 123.945 29.0742L122.82 28.8867C122.269 28.7965 121.739 28.6118 121.238 28.3477L120.676 28.043L120.383 27.8906L120.02 28.1719L119.457 28.5938C119.11 28.8522 118.681 29.0602 118.18 29.1211C117.666 29.1833 117.183 29.0759 116.762 28.8633L116.199 28.582L115.637 28.2891C115.454 28.197 115.318 28.1823 115.215 28.1836L114.652 28.1953H114.09C113.763 28.2008 113.433 28.2299 113.105 28.2656L111.98 28.3828C111.595 28.4249 111.206 28.4669 110.82 28.5L109.695 28.5938C109.299 28.6277 108.897 28.6472 108.5 28.6641L107.938 28.6992L107.375 28.7227C107.11 28.734 106.841 28.7689 106.566 28.8398L106.004 28.9922L105.441 29.1328C104.54 29.3663 103.708 29.1009 103.051 28.6172L102.488 28.207L102.055 27.8906L101.75 28.043L101.188 28.3008C100.55 28.591 99.8554 28.6873 99.1484 28.5469L98.5859 28.4414L98.0234 28.3242C97.8612 28.2918 97.6984 28.2965 97.5312 28.3359L96.9688 28.4648L96.4062 28.6055C95.6921 28.7737 94.9851 28.6838 94.332 28.3945L93.7695 28.1484L93.2188 27.9023L92.6914 28.125L92.1289 28.3594C91.6856 28.5414 91.2365 28.6872 90.7812 28.793L89.6562 29.0508C88.8838 29.2297 88.1244 29.0933 87.4648 28.7344L86.3398 28.125C86.1881 28.0431 86.1044 28.0392 86.0586 28.043L84.9336 28.1367C84.4766 28.1739 84.0194 28.1641 83.5625 28.125L82.4375 28.0312C82.0948 28.0018 81.7487 27.981 81.4062 27.9727L80.2812 27.9492C79.8862 27.9397 79.4809 27.916 79.0859 27.8906L77.9609 27.8203C77.797 27.8105 77.6173 27.8349 77.4219 27.9023L76.8594 28.1016L76.2969 28.2891C75.8389 28.4469 75.3727 28.56 74.9023 28.6289L73.7773 28.793C73.2518 28.8698 72.7199 28.877 72.1953 28.793L71.0703 28.6055C70.7567 28.5555 70.4442 28.5235 70.1328 28.5117L69.5703 28.4883L69.0078 28.4766C68.5188 28.4582 68.0326 28.381 67.5547 28.2539L66.4297 27.9492C66.2664 27.9057 66.1124 27.8989 65.9609 27.9258L64.8359 28.1367C64.3636 28.2228 63.8835 28.2653 63.4062 28.2539L62.8438 28.2305L62.2812 28.2188C61.9407 28.2103 61.5906 28.2154 61.25 28.2305L60.125 28.2773C59.8983 28.2877 59.6583 28.3347 59.4102 28.418L58.2852 28.793C57.5489 29.0391 56.7945 29.0012 56.0938 28.6992L54.9688 28.207C54.7733 28.1228 54.6067 28.0987 54.4648 28.1016L53.3398 28.125C53.0876 28.1302 52.83 28.1618 52.5664 28.2305L52.0039 28.3828L51.4414 28.5234C51.0332 28.6299 50.6208 28.7278 50.2109 28.8047L49.0859 29.0156C48.4776 29.1292 47.8624 29.0916 47.2695 28.9219L46.707 28.7695L46.1445 28.6055C45.9167 28.5401 45.6875 28.4558 45.4766 28.3594C45.3168 28.2862 45.1076 28.1426 44.8906 27.9492L44.5391 28.0312L43.9648 28.1484C43.6057 28.2229 43.2485 28.2966 42.8984 28.3828L41.7969 28.6641C41.2695 28.7939 40.7256 28.8303 40.1797 28.793L39.5703 28.7578L39.2422 28.7227L38.9492 29.1914L38.5625 29.7891C38.1716 30.3866 37.6126 30.9137 36.8516 31.1602L36.3242 31.3359L35.8086 31.5C35.5157 31.5948 35.2238 31.711 34.9414 31.8398L34.4492 32.0625L33.9453 32.2969C33.71 32.4042 33.484 32.5281 33.2773 32.6836L32.8438 33.0234L32.3984 33.3516C32.0734 33.5962 31.7361 33.8247 31.3906 34.043L30.9219 34.3477L30.4531 34.6406C30.2265 34.7837 30.0131 34.9479 29.8203 35.1328L29.0234 35.9062C28.8347 36.0875 28.6668 36.2856 28.5195 36.5039L28.2031 36.9609L27.8984 37.4297C27.5216 37.989 26.9988 38.3913 26.4102 38.6719L25.8359 38.9531L25.4258 39.1406L25.3789 39.5508L25.3086 40.1602C25.2248 40.8234 24.9681 41.4462 24.5352 41.9766L24.1836 42.4219L23.8203 42.8672C23.725 42.9842 23.6651 43.103 23.6328 43.2422L23.375 44.3438C23.2949 44.6915 23.229 45.043 23.1641 45.3867L23.0586 45.9258L22.9531 46.4766C22.8619 46.9575 22.711 47.4223 22.5078 47.8711L22.2734 48.3984L22.0391 48.9141C21.9657 49.0762 21.9252 49.2398 21.9219 49.4062L21.9102 49.957L21.8984 50.5195C21.8869 51.0902 21.763 51.6429 21.5469 52.1719L21.3242 52.7344L21.1133 53.2266L21.3594 53.7305L21.6289 54.2812C21.9578 54.9651 22.0278 55.7133 21.8398 56.4492L21.6875 57.0352L21.5586 57.5156L21.8633 57.9609L22.2266 58.4531C22.5515 58.9029 22.8055 59.3914 22.9648 59.918L23.1172 60.457L23.2812 60.9844C23.437 61.5015 23.5015 62.0417 23.4922 62.5898L23.4805 63.1992L23.4688 63.6094L23.8555 63.8789L24.3945 64.2305C24.9315 64.5892 25.3852 65.0636 25.6836 65.6602L25.9297 66.1523L26.1758 66.6562C26.3722 67.0494 26.5429 67.4666 26.6914 67.8984L26.8906 68.4609L27.0664 69L27.043 69.0234H27.0781L27.0664 69L28.1445 69.5391C28.8217 69.8803 29.3212 70.4236 29.6211 71.1094L29.8672 71.6719L30.0898 72.1758L30.5938 72.3281L31.168 72.5156C31.8585 72.7319 32.4411 73.1409 32.8672 73.7227L33.2188 74.2148L33.582 74.707C33.5936 74.7228 33.5994 74.7359 33.6055 74.7422L33.6172 74.7539H33.6289L33.6523 74.7656L34.2148 74.8945L34.7891 75.0352C35.3043 75.1576 35.7959 75.3489 36.2539 75.6094L36.7461 75.8906L37.25 76.1719C37.5163 76.3231 37.7955 76.4587 38.082 76.5703L38.6094 76.7695L39.1484 76.9805C39.3372 77.0537 39.535 77.0935 39.7461 77.0977L40.3203 77.1094L40.9062 77.1211C41.2665 77.1281 41.622 77.13 41.9727 77.1211L42.5469 77.1094L43.1094 77.0859C43.6235 77.0728 44.1329 77.1362 44.6328 77.2617L45.1953 77.4023L45.7461 77.543C46.1556 77.646 46.5658 77.7666 46.9766 77.9062L47.5391 78.0938L48.1016 78.293C48.2059 78.3285 48.2865 78.3266 48.3711 78.3047L48.9336 78.1523L49.4961 78.0117C49.7772 77.9387 50.0658 77.8331 50.3633 77.6953L50.9258 77.4375L51.4883 77.168C52.1038 76.8825 52.7513 76.8433 53.3633 77.0156L53.9609 77.2617L54.5234 77.5547L54.9336 77.7656L55.3438 77.5547L55.9062 77.25C56.4437 76.959 57.0378 76.8367 57.6406 76.9102L58.2383 77.0508L58.8008 77.25L59.3633 77.4375C59.5377 77.4985 59.6918 77.523 59.832 77.5078L60.3945 77.4375L60.957 77.3789C61.4365 77.3261 61.9187 77.3181 62.3984 77.3672L63.5234 77.4844C63.6928 77.5018 63.871 77.4946 64.0625 77.4375L64.625 77.2617L65.1875 77.0977C65.787 76.9173 66.4093 76.875 67.0273 76.9922L68.1523 77.2031C68.3319 77.2372 68.5095 77.2415 68.6914 77.2031L69.8164 76.9688L70.4258 76.8984C71.0276 76.9051 71.5924 77.1171 72.0781 77.4375L72.6406 77.8008L73.0391 78.0586L73.3906 77.8945L73.9531 77.6133C74.5872 77.2969 75.2903 77.1648 76.0156 77.2969L77.1406 77.5078C77.5175 77.5767 77.9005 77.6484 78.2773 77.7188L79.4023 77.9297C79.6888 77.9828 79.9759 78.0103 80.2578 78.0117H81.3828C81.4402 78.0115 81.5472 77.9999 81.7227 77.8945L82.8477 77.2148C83.4448 76.8556 84.1286 76.653 84.8633 76.7109L85.9883 76.8047C86.5636 76.8508 87.118 77.0123 87.6406 77.2617L88.7656 77.8008L88.7539 77.8125V77.8008H88.7656L88.8008 77.8125L88.7891 77.8008L89.3164 77.6133L89.8789 77.4141C90.4753 77.208 91.1018 77.1503 91.7305 77.25L92.293 77.3438L92.8555 77.4258C93.1145 77.467 93.3732 77.4805 93.6289 77.4609L94.1914 77.4141L94.7539 77.3789C95.0288 77.3577 95.3129 77.3057 95.5977 77.2266L96.1602 77.0625L96.7227 76.9102C97.4172 76.7176 98.1211 76.7605 98.7852 77.0156L99.3477 77.2383L99.9102 77.4492C100.219 77.5681 100.524 77.662 100.824 77.7305L101.949 77.9883C102.094 78.0212 102.235 78.013 102.383 77.9766L102.945 77.8477L103.508 77.707C103.901 77.6096 104.298 77.5195 104.691 77.4375L105.816 77.2031C106.284 77.1057 106.761 77.0447 107.234 77.0391H107.797L108.359 77.0273C109.053 77.0201 109.698 77.2359 110.27 77.5781L110.832 77.9062L111.395 78.2461C111.565 78.348 111.666 78.3528 111.711 78.3516L112.836 78.3281C113.093 78.3208 113.354 78.2799 113.621 78.2109L114.184 78.0703L114.746 77.918C115.374 77.7558 116.019 77.7595 116.645 77.9297L117.77 78.2344C117.87 78.2613 117.956 78.2667 118.062 78.2344L118.625 78.0586L119.188 77.8945C119.566 77.78 119.946 77.6661 120.324 77.5547L121.449 77.2266C122.06 77.047 122.688 77.0212 123.312 77.1562L123.875 77.2734L124.438 77.4023C124.549 77.4264 124.659 77.4193 124.789 77.3789L125.352 77.2031L125.914 77.0156C126.6 76.7981 127.311 76.8154 127.988 77.0508L128.551 77.25L129.113 77.4375C129.456 77.5569 129.808 77.6704 130.156 77.7656L130.719 77.918L131.293 78.082C131.32 78.0893 131.336 78.0823 131.34 78.082C131.342 78.0819 131.362 78.0871 131.398 78.0703L131.949 77.8125L132.488 77.5664C132.808 77.42 133.122 77.2581 133.414 77.0859L133.918 76.793L134.422 76.4883L135.008 76.2305C135.608 76.0447 136.233 76.0828 136.812 76.2773L137.445 76.4883L138.09 76.7109H138.102L138.547 76.4766L139.062 76.1953C139.523 75.9448 140.014 75.7617 140.527 75.6445L141.676 75.3867C141.786 75.3617 141.874 75.3164 141.957 75.2344L142.379 74.8125L142.801 74.4023C143.206 74.003 143.665 73.6755 144.184 73.4414L144.723 73.207L145.238 72.9609C145.242 72.9533 145.244 72.9394 145.25 72.9258L145.742 71.7539C146.037 71.0395 146.554 70.463 147.277 70.125L147.816 69.8789L148.367 69.6211C148.469 69.5725 148.517 69.5175 148.555 69.457L149.164 68.4727C149.347 68.1746 149.518 67.8733 149.68 67.5703L149.949 67.0664L150.207 66.5742C150.466 66.0884 150.811 65.6618 151.215 65.2852L151.648 64.875L152.07 64.4766C152.081 64.4663 152.092 64.4557 152.094 64.4531C152.095 64.4491 152.104 64.435 152.105 64.418L152.164 63.8203L152.223 63.2344C152.264 62.8401 152.313 62.4489 152.352 62.0742L152.469 60.9492C152.547 60.1863 152.897 59.5399 153.406 59.0273L154.32 58.1133C154.344 58.0894 154.349 58.0647 154.355 58.0547L154.391 57.4922L154.414 56.9297C154.438 56.4099 154.533 55.8917 154.695 55.3945L154.871 54.8438L155.059 54.2812C155.09 54.1851 155.085 54.1034 155.059 54L154.918 53.4258L154.766 52.8516C154.688 52.5547 154.588 52.2634 154.461 51.9844L154.215 51.4453L153.969 50.918C153.757 50.4535 153.599 49.9701 153.512 49.4766L153.324 48.3984C153.259 48.0264 153.203 47.6509 153.148 47.2734L152.984 46.1719C152.92 45.7236 152.896 45.2602 152.902 44.7891L152.914 44.1914V43.5938C152.915 43.5174 152.901 43.4945 152.879 43.4648L152.527 43.0078L152.176 42.5391C151.856 42.119 151.6 41.661 151.414 41.168L151.215 40.6289L151.016 40.1016C150.95 39.9281 150.848 39.7793 150.723 39.6445L150.336 39.2227L149.949 38.8125C149.592 38.4287 149.295 37.9936 149.059 37.5234L148.801 37.0078L148.531 36.4922C148.497 36.4242 148.46 36.3722 148.379 36.3281L147.348 35.7656C146.677 35.4016 146.191 34.8398 145.906 34.1602L145.414 32.9883C145.357 32.8513 145.304 32.8041 145.262 32.7773L144.77 32.4609L144.277 32.1562C144.252 32.1404 144.181 32.0995 143.996 32.1094L143.328 32.1445L142.648 32.1797C141.989 32.2148 141.317 32.1089 140.703 31.7812L139.742 31.2656C139.244 30.9995 138.798 30.6472 138.418 30.2227L137.996 29.7539L137.738 29.4609L137.352 29.543L136.73 29.6836C135.999 29.8428 135.248 29.7644 134.562 29.3906L134.047 29.1094L133.566 28.8398L133.016 29.0039L132.441 29.1797C131.5 29.4534 130.625 29.1658 129.957 28.6289L129.406 28.1953L128.855 27.75C128.781 27.6902 128.735 27.6647 128.715 27.6562L128.164 27.668ZM27.0781 69.0234H27.043L27.0664 69L27.0781 69.0234Z" fill="#1E1E1E"/>
<path d="M20.0117 57.5391C20.0606 59.2276 20.33 60.8706 20.8086 62.4375C23.2749 70.5096 31.1091 76.6696 40.7539 77.8125L41.4336 77.9531L42.4648 78.1758C42.5002 78.1834 42.535 78.1891 42.5703 78.1875L43.6367 78.1289L44.6914 78.0703C44.8733 78.0605 45.059 78.0433 45.2422 78.0117L45.3008 78H61.9297L62.5859 78.1758L63.5234 78.4336L64.4492 78.3281L65.5039 78.2109C65.7159 78.1864 65.9328 78.1498 66.1484 78.1055L66.6523 78H71.7969L72.4531 78.1406L73.4492 78.0234L73.6836 78H77.1523L78.1133 78.0938L78.5234 78H83.3398L83.832 78.1875L84.6406 78.4805L85.4141 78.3867L86.4688 78.2461C86.873 78.1939 87.2806 78.161 87.6875 78.1523L89.7852 78.1055C90.0623 78.0996 90.34 78.0939 90.6172 78.082L91.6719 78.0352L92.5156 78H100.543L101.539 78.2578L102.125 78.3984L102.746 78.1641L103.191 78H107.902L108.617 78.1875C108.75 78.2226 108.874 78.2481 108.992 78.2578L110.047 78.3398L110.938 78.4102L111.863 78.1055L112.203 78H119.352L119.879 78.1992L120.559 78.4688L121.215 78.3398L122.258 78.1289L122.504 78.082C122.991 78.0069 123.489 78.0023 123.98 78.0586L124.227 78.082L125.27 78.2578L126.148 78.3984L127.027 78.1641L127.625 78H131L131.551 78.1406L132.605 78.4102L133.672 78.3633L134.48 78.3164L135.242 77.8828L135.406 77.7891C145.563 76.5263 153.671 69.7004 155.574 60.9492C155.725 60.2552 155.843 59.5445 155.914 58.8281C155.93 58.6654 155.937 58.4997 155.949 58.3359C155.968 58.0725 155.988 57.805 155.996 57.5391V57.7031C155.991 57.9138 155.983 58.1265 155.973 58.3359C155.965 58.5005 155.948 58.6643 155.938 58.8281C155.889 59.5459 155.818 60.2596 155.715 60.9609C153.853 73.6298 143.186 83.4368 130.133 83.9766L130.051 83.9531L129.312 83.7656L128.574 83.9531L128.41 84H118.25L117.723 83.8008L116.762 83.4258L115.848 83.4492L114.805 83.4609H114.793L113.738 83.8125L113.164 84H107.129C107.116 83.9966 107.095 83.9918 107.082 83.9883L106.039 83.7188L105.453 83.5664L104.855 83.7891L104.281 84H99.793L99.0195 83.8008C98.963 83.7865 98.9137 83.7892 98.8789 83.7891L96.7695 83.8008C96.5175 83.803 96.26 83.8104 96.0078 83.8242L94.9648 83.8828L93.9102 83.9414C93.5994 83.9584 93.2834 83.975 92.9727 83.9883L92.6562 84H82.2734L81.7578 83.8125L81.1016 83.5664L80.4688 83.7188L79.4141 83.9531C79.3367 83.9707 79.2575 83.9856 79.1797 84H76.8594L76.4961 83.9648L75.4531 83.8594C75.3718 83.8513 75.2895 83.8501 75.207 83.8594L74.1523 83.9883L74.0352 84H71.1406L70.1562 83.7773L69.2773 83.5898L68.3984 83.7656L67.3555 83.9766C67.3222 83.9834 67.2833 83.9934 67.25 84H61.1211L61.0156 83.9648L59.9609 83.6836L58.918 83.7305L57.875 83.7656C57.4935 83.7812 57.108 83.7819 56.7266 83.7656L54.6172 83.6719C54.3493 83.6604 54.0764 83.6634 53.8086 83.6602L52.7656 83.6367L51.7109 83.625C51.3916 83.6211 51.0693 83.6236 50.75 83.6133L49.707 83.5781L48.6523 83.543C48.5586 83.54 48.4616 83.5488 48.3594 83.5664L47.3047 83.7422L46.2617 83.9297C46.1493 83.9491 46.0347 83.9608 45.9219 83.9766C33.3821 83.4818 23.0353 74.4358 20.5625 62.5078C20.2399 60.9511 20.0537 59.3453 20.0117 57.7031V57.5391Z" fill="#1E1E1E"/>
</svg>
