<svg width="120" height="26" viewBox="0 0 120 26" fill="none" xmlns="http://www.w3.org/2000/svg">
<path d="M3 3H117V23H3V3Z" fill="#1E1E1E"/>
<path d="M71.7305 0.75L72.293 0.785156C72.9034 0.828005 73.4792 1.0151 74.0156 1.30078L74.5781 1.59375L75.1406 1.89844C75.2714 1.96807 75.3352 1.96058 75.3633 1.95703L75.9258 1.88672L76.4883 1.80469C76.9318 1.74591 77.3788 1.71778 77.8242 1.72266L78.3867 1.73438H78.9492C79.4131 1.73973 79.8844 1.78851 80.3438 1.875L81.4688 2.08594C81.5892 2.10819 81.7115 2.10878 81.8555 2.0625L82.418 1.875L82.9805 1.69922C83.5429 1.51871 84.1254 1.45029 84.7148 1.51172L85.8398 1.62891C86.2679 1.67406 86.7034 1.74914 87.1289 1.83984L88.2539 2.07422C88.5561 2.13849 88.8586 2.18519 89.1562 2.20312L90.2812 2.27344C90.56 2.29 90.8444 2.27459 91.125 2.23828L92.25 2.09766C92.5216 2.06223 92.798 1.99308 93.082 1.89844L94.207 1.52344C94.8487 1.3089 95.5271 1.27339 96.1875 1.44141L96.75 1.59375L97.3125 1.73438C97.4993 1.78121 97.6769 1.78285 97.8516 1.75781L98.4141 1.6875L98.9766 1.60547C99.2994 1.55916 99.6234 1.48765 99.9492 1.40625L101.074 1.125C101.756 0.955011 102.442 1.00926 103.09 1.25391L104.215 1.67578C104.298 1.7074 104.346 1.70334 104.402 1.6875L104.965 1.53516L105.527 1.37109C105.979 1.24321 106.438 1.16297 106.898 1.11328L107.461 1.04297L108.023 0.984375C108.616 0.920737 109.205 0.989738 109.77 1.17188L110.332 1.35938L110.895 1.53516C111.076 1.59383 111.245 1.61102 111.398 1.59375L111.961 1.52344L112.523 1.46484C113.048 1.40622 113.574 1.42492 114.094 1.52344L115.219 1.73438C115.609 1.80836 115.974 1.89206 116.309 1.96875L117.246 2.17969C117.693 2.28299 118.149 2.53234 118.477 2.97656C118.784 3.39638 118.881 3.86159 118.898 4.24219L118.945 5.36719C118.972 5.97819 118.861 6.5762 118.629 7.13672L118.395 7.69922L118.195 8.15625L118.465 8.67188L118.758 9.23438C119.172 10.0215 119.196 10.9068 118.805 11.7188L118.266 12.8438L118.242 12.8789L118.418 13.4414L118.582 14.0039C118.713 14.4353 118.822 14.8682 118.898 15.3047L118.992 15.8672L119.098 16.4297C119.184 16.9258 119.206 17.4291 119.168 17.9297L119.074 19.0547C119.053 19.3276 119.064 19.6007 119.098 19.875L119.238 21C119.288 21.4036 119.248 21.8608 119.051 22.3008C118.852 22.7422 118.537 23.0781 118.184 23.3086L117.27 23.8945C116.739 24.2399 116.148 24.4341 115.523 24.4688L114.961 24.4922L114.398 24.5273C113.979 24.5501 113.552 24.5534 113.133 24.5391L112.57 24.5156L112.008 24.5039C111.586 24.4893 111.163 24.4535 110.742 24.3984L110.18 24.3164L109.617 24.2461C109.421 24.2206 109.224 24.2347 109.02 24.2812L108.457 24.4102L107.895 24.5273C107.505 24.6158 107.112 24.7086 106.723 24.7852L105.598 24.9961C105.054 25.1027 104.505 25.1161 103.957 25.0312L102.832 24.8672C102.566 24.826 102.298 24.8139 102.035 24.832L100.91 24.9023C100.277 24.9451 99.6677 24.823 99.0938 24.5742L98.5312 24.3398L98.0625 24.1289L97.5938 24.3984L97.0312 24.7031C96.3573 25.0688 95.5873 25.202 94.8047 24.9961L94.2422 24.8438L93.6797 24.7031C93.3582 24.6185 93.0364 24.55 92.7188 24.5039L91.5938 24.3398C91.3032 24.2979 91.0146 24.286 90.7266 24.293L89.6016 24.3164C89.4076 24.3212 89.1962 24.3589 88.9688 24.4453L87.8438 24.8672C87.2521 25.092 86.6273 25.1839 85.9922 25.1016L85.4297 25.0312L84.8672 24.9492C84.5157 24.9037 84.1636 24.8737 83.8125 24.8438L83.25 24.7969L82.6875 24.7383C82.3263 24.7075 81.9588 24.6886 81.5977 24.668L80.4727 24.5977C80.1499 24.5793 79.8226 24.5832 79.5 24.5977L78.375 24.6445C77.8187 24.6689 77.2668 24.589 76.7344 24.4219L75.6094 24.0703C75.5834 24.0626 75.5675 24.0701 75.5625 24.0703C75.5538 24.071 75.5291 24.0672 75.4922 24.082L74.9297 24.3047L74.3672 24.5391C73.8641 24.7403 73.343 24.8716 72.8086 24.9141L72.2461 24.9492L71.6836 24.9961C71.1068 25.0417 70.535 24.9723 69.9844 24.7969L69.4219 24.6211L68.8594 24.4336C68.7087 24.3855 68.5759 24.3771 68.4492 24.3984L67.8867 24.5039L67.3242 24.5977C66.9052 24.6707 66.4791 24.727 66.0586 24.7617L64.9336 24.8555C64.2759 24.9093 63.6439 24.7759 63.0586 24.5039L62.4961 24.2461L62.0039 24.0117L61.5234 24.2461L60.9609 24.5156C60.1972 24.8824 59.3642 24.9085 58.582 24.5625L58.0195 24.3047L57.5977 24.1172L57.1523 24.3984L56.5898 24.7383C56.005 25.0902 55.3373 25.2981 54.6211 25.2656L53.4961 25.2188C52.905 25.1914 52.3316 25.0361 51.7969 24.7852L51.2344 24.5156L50.6719 24.2578C50.5284 24.1908 50.4366 24.1797 50.3672 24.1875L49.2422 24.3281C48.9181 24.3666 48.5844 24.4195 48.2578 24.4922L47.6953 24.6211L47.1328 24.7383C46.4593 24.8872 45.7874 24.8284 45.1523 24.5859L44.0273 24.1641C43.8544 24.098 43.7114 24.0812 43.582 24.0938L43.0195 24.1406L42.457 24.1992C42.2292 24.2214 41.9852 24.2752 41.7305 24.375L40.6055 24.8203C39.9055 25.0935 39.1649 25.1142 38.4492 24.8672L37.8867 24.668L37.3242 24.4805C36.9768 24.3602 36.6271 24.2498 36.2812 24.1523L35.7188 23.9883L35.2734 23.8594L34.7461 24.2578L34.1836 24.6562C33.4842 25.1569 32.6029 25.3768 31.6875 25.0547L31.125 24.8555L30.5625 24.668C30.1748 24.5316 29.7896 24.3829 29.4023 24.2344L28.8398 24.0234L28.3828 23.8359L27.8906 24.1406L27.3281 24.4688C26.5058 24.953 25.5621 24.9827 24.7148 24.5156L24.1523 24.1992L23.5898 23.8945C23.4794 23.8335 23.4288 23.8338 23.4141 23.8359L22.2891 24C21.9078 24.0571 21.5219 24.1131 21.1406 24.1641L20.5781 24.2461L20.0156 24.3164C19.619 24.3694 19.2173 24.4104 18.8203 24.4453L18.2578 24.4922L17.6953 24.5508C17.2469 24.5901 16.7964 24.5908 16.3477 24.5625L15.2227 24.4922C14.8099 24.4659 14.3924 24.4215 13.9805 24.3633L13.418 24.2812L12.8555 24.2109C12.6862 24.187 12.5115 24.1864 12.3281 24.2344L11.2031 24.5391C10.6604 24.6834 10.0976 24.7341 9.53906 24.6797L8.41406 24.5625C8.26974 24.5489 8.11251 24.5698 7.93359 24.6328L6.80859 25.0312C6.26099 25.2238 5.69003 25.3071 5.10938 25.2773L4.54688 25.2539L3.98438 25.2188C3.53323 25.1953 2.92549 25.0417 2.48438 24.5039C2.06532 23.9917 2.01461 23.3952 2.03906 22.9922L2.10938 21.7734C2.13165 21.4063 2.14206 21.0572 2.13281 20.7305L2.12109 20.168L2.09766 19.6055C2.09479 19.5044 2.06473 19.3659 1.95703 19.1719L1.65234 18.6094L1.33594 18.0469C1.03817 17.5121 0.837071 16.9273 0.785156 16.3125L0.691406 15.1875C0.644004 14.624 0.70986 14.0669 0.867188 13.5234L1.19531 12.3984C1.26954 12.1427 1.30676 11.8888 1.3125 11.6484L1.33594 10.5234C1.34398 10.1836 1.33856 9.84381 1.32422 9.50391L1.27734 8.37891C1.25675 7.89304 1.29667 7.40674 1.38281 6.92578L1.47656 6.36328L1.58203 5.80078C1.61783 5.6013 1.61728 5.40247 1.58203 5.20312L1.47656 4.64062L1.38281 4.07812C1.34609 3.87218 1.31267 3.65809 1.30078 3.46875C1.29514 3.37876 1.28369 3.23668 1.30078 3.08203C1.30952 3.00394 1.33733 2.88119 1.38281 2.74219C1.42521 2.61352 1.52299 2.37355 1.74609 2.14453L1.80469 2.07422L1.86328 2.01562L2.47266 1.62891C2.61191 1.58092 2.73357 1.55677 2.8125 1.54688C2.96904 1.52762 3.12057 1.54206 3.21094 1.54688C3.3981 1.55724 3.60633 1.58286 3.80859 1.61719L4.93359 1.80469C5.0259 1.8204 5.13598 1.82286 5.27344 1.76953L6.39844 1.32422C7.15367 1.03266 7.94221 1.0685 8.67188 1.39453L9.23438 1.64062L9.79688 1.89844C9.95295 1.96834 10.0713 1.97807 10.1602 1.96875L11.2852 1.85156C11.7125 1.80687 12.146 1.77957 12.5742 1.78125H13.1367L13.6992 1.79297C14.1752 1.79523 14.6477 1.84689 15.1172 1.94531L16.2422 2.17969C16.4757 2.22872 16.7079 2.23452 16.9336 2.21484L18.0586 2.12109C18.4763 2.08472 18.8943 2.06227 19.3125 2.0625H20.4375C20.8157 2.06273 21.1961 2.0716 21.5742 2.07422H22.6992C22.8575 2.07514 23.0346 2.05238 23.2383 1.96875L24.3633 1.5C24.8493 1.29947 25.3511 1.15806 25.8633 1.08984L26.9883 0.949219C27.5099 0.879824 28.0389 0.887824 28.5586 0.972656L29.1211 1.05469L29.6836 1.14844C29.8871 1.18121 30.0878 1.18585 30.293 1.14844L31.418 0.9375C32.1301 0.8075 32.8246 0.930082 33.457 1.23047L34.0195 1.48828L34.5703 1.75781L35.0977 1.55859L35.6602 1.34766C36.322 1.09888 37.0211 1.05222 37.7109 1.24219L38.2734 1.39453L38.8359 1.55859C38.962 1.59318 39.0775 1.58926 39.1992 1.55859L40.3242 1.27734C40.7923 1.15956 41.2654 1.08897 41.7422 1.06641L42.3047 1.03125L42.8672 1.00781C43.5444 0.9759 44.1857 1.14467 44.7656 1.45312L45.8906 2.0625C46.0741 2.16034 46.2087 2.18056 46.3008 2.17969L46.8633 2.16797H47.4258C47.7733 2.16464 48.1211 2.15338 48.4688 2.13281L49.5938 2.0625C49.8286 2.04855 50.0777 2.00619 50.332 1.92188L50.8945 1.73438L51.457 1.53516C51.9869 1.35826 52.5408 1.27662 53.0977 1.28906L54.2227 1.3125C54.824 1.32617 55.4029 1.47044 55.9453 1.72266L56.5078 1.99219L57.0703 2.25C57.2505 2.33393 57.3922 2.3601 57.5039 2.35547L58.6289 2.30859C58.9235 2.2962 59.2207 2.26214 59.5195 2.20312L60.082 2.08594L60.6445 1.98047C60.9492 1.92016 61.2584 1.82999 61.5703 1.72266L62.1328 1.53516L62.6953 1.33594C63.3937 1.09527 64.1228 1.09907 64.8164 1.34766L65.3789 1.55859L65.9414 1.75781C66.0903 1.81144 66.2153 1.82138 66.3281 1.80469L66.8906 1.71094L67.4531 1.62891C67.7168 1.58805 67.9927 1.51317 68.2734 1.40625L68.8359 1.19531L69.3984 0.972656C69.9632 0.757002 70.5608 0.660627 71.168 0.703125L71.7305 0.75ZM70.4766 3.77344L69.9141 3.99609L69.3516 4.20703C68.8849 4.38523 68.4056 4.51848 67.9219 4.59375L67.3594 4.67578L66.7969 4.76953C66.1629 4.86776 65.531 4.79637 64.9336 4.58203L64.3711 4.37109L63.8086 4.17188C63.7704 4.15811 63.746 4.16022 63.7383 4.16016C63.7309 4.1601 63.7135 4.16055 63.6797 4.17188L63.1172 4.37109L62.5547 4.55859C62.1179 4.70911 61.6746 4.83392 61.2305 4.92188L60.668 5.02734L60.1055 5.14453C59.6563 5.23345 59.1995 5.27807 58.7461 5.29688L57.6211 5.34375C56.984 5.3696 56.3735 5.23362 55.8047 4.96875L54.6797 4.45312C54.4733 4.35702 54.2995 4.31579 54.1523 4.3125L53.0273 4.28906C52.8364 4.28499 52.6351 4.31101 52.418 4.38281L51.293 4.75781C50.8011 4.92202 50.2928 5.0317 49.7812 5.0625L49.2188 5.08594L48.6562 5.12109C48.2564 5.14485 47.8492 5.16418 47.4492 5.16797H46.8867L46.3242 5.17969C45.669 5.18543 45.049 5.0113 44.4844 4.71094L43.3594 4.10156C43.1907 4.01158 43.0786 4.00446 43.0078 4.00781L41.8828 4.05469C41.6107 4.06759 41.3317 4.11278 41.0508 4.18359L39.9258 4.46484C39.2985 4.62253 38.6618 4.61301 38.0391 4.44141L36.9141 4.13672C36.8543 4.12024 36.8025 4.11558 36.7148 4.14844L35.5898 4.57031C34.8186 4.86018 34.0206 4.81046 33.293 4.46484L32.7305 4.20703L32.168 3.9375C32.0505 3.88172 31.9947 3.88374 31.957 3.89062L30.832 4.10156C30.289 4.20064 29.7361 4.20218 29.1914 4.11328L28.0664 3.92578C27.8384 3.88902 27.6129 3.88416 27.3867 3.91406L26.8242 3.99609L26.2617 4.06641C26.0244 4.09797 25.7752 4.16871 25.5117 4.27734L24.9492 4.51172L24.3867 4.73438C23.8423 4.95901 23.2664 5.07831 22.6758 5.07422H21.5508C21.1797 5.07165 20.8086 5.06273 20.4375 5.0625H19.3125C18.9815 5.06229 18.6479 5.08047 18.3164 5.10938L17.1914 5.20312C16.6683 5.24864 16.1481 5.21731 15.6328 5.10938L14.5078 4.875C14.2301 4.81668 13.947 4.79403 13.6758 4.79297L13.1133 4.78125H12.5508C12.2323 4.78021 11.9093 4.79462 11.5898 4.82812L10.4648 4.94531C9.80691 5.01366 9.1695 4.90449 8.57812 4.64062L8.01562 4.38281L7.45312 4.13672L7.44141 4.125L6.91406 4.34766L6.35156 4.55859C5.76982 4.78403 5.15885 4.85813 4.53516 4.76953C4.61717 5.28866 4.62822 5.80951 4.53516 6.32812L4.42969 6.89062L4.33594 7.45312C4.28779 7.72143 4.26618 7.98662 4.27734 8.25L4.32422 9.375C4.34141 9.78119 4.34554 10.1875 4.33594 10.5938L4.3125 11.7188C4.30033 12.2284 4.20983 12.7362 4.06641 13.2305L3.91406 13.793L3.75 14.3555C3.69046 14.5606 3.66407 14.7565 3.67969 14.9414L3.77344 16.0664C3.78549 16.2009 3.84245 16.3692 3.96094 16.582L4.26562 17.1445L4.58203 17.707C4.89107 18.262 5.07927 18.8748 5.09766 19.5234L5.12109 20.0859L5.13281 20.6484C5.14463 21.0695 5.13634 21.5033 5.10938 21.9492L5.08594 22.2773L5.26172 22.2891C5.43003 22.2977 5.61105 22.2662 5.8125 22.1953L6.375 21.9961L6.9375 21.8086C7.50703 21.608 8.10251 21.5271 8.70703 21.5859L9.26953 21.6328L9.83203 21.6914C10.0235 21.7101 10.2225 21.6996 10.4297 21.6445L11.5547 21.3398C12.1181 21.1904 12.6994 21.1526 13.2773 21.2344L14.4023 21.3984C14.7378 21.4458 15.0756 21.4709 15.4102 21.4922L15.9727 21.5391L16.5352 21.5742C16.8317 21.5929 17.1288 21.5883 17.4258 21.5625L17.9883 21.5039L18.5508 21.457C18.9031 21.4261 19.2645 21.3869 19.6172 21.3398L20.1797 21.2695L20.7422 21.1875C21.1081 21.1386 21.4778 21.0899 21.8438 21.0352L22.9688 20.8711C23.7108 20.7607 24.4196 20.9248 25.043 21.2695L25.6055 21.5742L25.9688 21.7734L26.3672 21.5508L26.9297 21.2227L27.4922 20.9648C27.8855 20.8311 28.3016 20.7796 28.7227 20.8359L29.3555 21L29.918 21.2227L30.4805 21.4336C30.8403 21.5716 31.1992 21.7055 31.5586 21.832L32.1211 22.0312L32.5078 22.1602L33 21.8203L33.5625 21.4102C34.2306 20.9318 35.0705 20.6912 35.9648 20.9414L36.5273 21.1055L37.0898 21.2578C37.4936 21.3716 37.9064 21.5053 38.3086 21.6445L38.8711 21.832L39.4336 22.0312C39.4458 22.0352 39.4528 22.0423 39.457 22.043H39.4805C39.4874 22.0414 39.4994 22.0375 39.5156 22.0312L40.6406 21.5859C41.1347 21.3924 41.6432 21.2618 42.1641 21.2109L42.7266 21.1641L43.2891 21.1055C43.908 21.0454 44.5182 21.1326 45.0938 21.3516L45.6562 21.5742L46.2188 21.7852C46.3321 21.8284 46.4135 21.8252 46.4883 21.8086L47.0508 21.6914L47.6133 21.5625C48.0361 21.4684 48.4652 21.3904 48.8906 21.3398L49.4531 21.2812L50.0156 21.2109C50.6936 21.1314 51.3476 21.2569 51.9492 21.5391L52.5117 21.8086L53.0742 22.0664C53.2895 22.1674 53.4778 22.2114 53.6367 22.2188L54.7617 22.2656C54.7976 22.2666 54.8861 22.2663 55.043 22.1719L56.168 21.4922L56.7539 21.2227C57.1607 21.0873 57.5889 21.0439 58.0195 21.1172L58.6758 21.3164L59.2383 21.5625L59.7188 21.7852L60.2227 21.5508L60.7852 21.2812C61.5624 20.908 62.4144 20.8922 63.1992 21.2578L63.7617 21.5273L64.3242 21.7852C64.4843 21.8592 64.5983 21.8742 64.6875 21.8672L65.8125 21.7734C66.142 21.7463 66.4776 21.7023 66.8086 21.6445L67.3711 21.5508L67.9336 21.4453C68.554 21.3378 69.1773 21.3838 69.7734 21.5742L70.3359 21.7617L70.8984 21.9375C71.0952 21.9998 71.2784 22.0213 71.4492 22.0078L72.5742 21.9141C72.7859 21.8968 73.0111 21.8473 73.2539 21.75L74.3789 21.3047C75.0653 21.0295 75.7967 20.9866 76.5117 21.2109L77.6367 21.5625C77.8528 21.6303 78.0539 21.6531 78.2461 21.6445L79.3711 21.5977C79.7968 21.5786 80.2228 21.585 80.6484 21.6094L81.2109 21.6445L81.7734 21.668C82.1623 21.6902 82.5565 21.7169 82.9453 21.75L83.5078 21.7969L84.0703 21.8555C84.4646 21.8891 84.8599 21.9216 85.2539 21.9727L85.8164 22.0547L86.3789 22.125C86.4934 22.1398 86.6197 22.1261 86.7773 22.0664L87.9023 21.6445C88.4249 21.446 88.9752 21.3301 89.5312 21.3164L90.6562 21.293C91.1146 21.282 91.5715 21.3089 92.0273 21.375L93.1523 21.5391C93.5837 21.6016 94.0139 21.6845 94.4414 21.7969L95.0039 21.9492L95.543 22.0781C95.5514 22.0752 95.5769 22.0798 95.6016 22.0664L96.7266 21.457L97.3125 21.2109C97.7122 21.0955 98.1286 21.0765 98.543 21.1523L99.1641 21.3398L100.289 21.832C100.461 21.9055 100.597 21.9219 100.711 21.9141L101.273 21.8789L101.836 21.832C102.322 21.7986 102.806 21.8277 103.289 21.9023L104.414 22.0664C104.616 22.0976 104.818 22.095 105.023 22.0547L105.586 21.9492L106.148 21.832C106.507 21.7615 106.867 21.691 107.227 21.6094L108.352 21.3516C108.895 21.228 109.451 21.1977 110.004 21.2695L110.566 21.3516L111.129 21.4219C111.457 21.4648 111.787 21.4927 112.113 21.5039L112.676 21.5156L113.238 21.5391C113.569 21.5504 113.904 21.5453 114.234 21.5273L114.797 21.5039L115.359 21.4688C115.48 21.4618 115.567 21.4345 115.641 21.3867L116.086 21.082L116.203 20.9883L116.191 20.8125L116.121 20.25C116.062 19.7761 116.049 19.2956 116.086 18.8203L116.133 18.2578L116.168 17.6953C116.187 17.4467 116.177 17.1983 116.133 16.9453L115.945 15.8203C115.891 15.5069 115.807 15.1896 115.711 14.8711L115.547 14.3086L115.371 13.7461C115.142 12.9877 115.226 12.2212 115.559 11.5312L115.828 10.9688L116.039 10.5234L115.805 10.0781L115.512 9.51562C115.118 8.76624 115.061 7.92005 115.395 7.11328L115.617 6.55078L115.852 5.98828C115.929 5.801 115.951 5.64559 115.945 5.50781L115.922 4.94531L115.629 4.88672C115.339 4.82029 115.014 4.75532 114.656 4.6875L113.531 4.47656C113.302 4.43324 113.075 4.41623 112.852 4.44141L112.289 4.51172L111.727 4.57031C111.133 4.63656 110.546 4.57688 109.98 4.39453L109.418 4.20703L108.855 4.03125C108.673 3.97225 108.507 3.95649 108.352 3.97266L107.227 4.08984C106.938 4.12079 106.644 4.18186 106.348 4.26562L105.785 4.41797L105.223 4.58203C104.53 4.77791 103.825 4.73915 103.16 4.48828L102.598 4.27734L102.035 4.05469C101.935 4.01665 101.868 4.02627 101.801 4.04297L100.676 4.32422C100.252 4.42994 99.8248 4.50921 99.3984 4.57031L98.2734 4.73438C97.7005 4.8162 97.123 4.78322 96.5625 4.64062L96 4.5L95.4375 4.34766C95.3511 4.3266 95.2723 4.33669 95.168 4.37109L94.043 4.74609C93.5801 4.90085 93.1006 5.0127 92.625 5.07422L91.5 5.21484C91.0335 5.27488 90.562 5.28993 90.0938 5.26172L88.9688 5.19141C88.5187 5.1641 88.0667 5.11061 87.6211 5.01562L87.0586 4.88672L86.4961 4.76953C86.1745 4.70112 85.8542 4.65101 85.5352 4.61719L84.4102 4.5C84.252 4.48332 84.0798 4.49904 83.8945 4.55859L83.332 4.73438L82.7695 4.92188C82.1656 5.11543 81.5338 5.15723 80.9062 5.03906L79.7812 4.82812C79.4935 4.77414 79.209 4.73797 78.9258 4.73438H78.3633L77.8008 4.72266C77.4988 4.71917 77.1905 4.74109 76.8867 4.78125L76.3242 4.85156L75.7617 4.93359C75.04 5.02924 74.3494 4.87368 73.7344 4.54688L73.1719 4.24219L72.6094 3.94922C72.396 3.83557 72.2213 3.78318 72.082 3.77344L70.957 3.70312C70.8157 3.69329 70.6594 3.70437 70.4766 3.77344Z" fill="#1E1E1E"/>
</svg>
