<svg width="125" height="61" viewBox="0 0 125 61" fill="none" xmlns="http://www.w3.org/2000/svg">
<path d="M2 13C2 7.47715 6.47715 3 12 3H112C117.523 3 122 7.47715 122 13V48C122 53.5228 117.523 58 112 58H12C6.47715 58 2 53.5228 2 48V13Z" fill="white"/>
<path d="M14.8125 3.53883L14.5361 2.06452L14.8125 3.53883ZM17.0625 3.0757L16.6839 1.62426L17.0625 3.0757ZM17.625 2.92899L17.2464 1.47755L17.625 2.92899ZM18.1875 2.78228L18.5661 4.23372L18.1875 2.78228ZM19.3125 2.62437L19.2827 1.12466L19.3125 2.62437ZM20.4375 2.60198L20.4673 4.10168L20.4375 2.60198ZM21.5625 2.83356L22.1569 1.45636L21.5625 2.83356ZM22.6875 3.31912L22.0931 4.69632L22.6875 3.31912ZM24.9375 2.99574L25.4146 4.41783L24.9375 2.99574ZM26.0625 2.78209L25.9961 1.28356L26.0625 2.78209ZM30.5625 2.66028L30.2935 1.18461L30.5625 2.66028ZM31.6875 2.45518L31.9565 3.93086L31.6875 2.45518ZM32.8125 2.5026L32.4261 3.95197L32.8125 2.5026ZM33.375 2.65256L33.7614 1.20319L33.375 2.65256ZM33.9375 2.80253L34.3239 1.35315L33.9375 2.80253ZM38.4375 3.30707L38.6747 1.82594L38.4375 3.30707ZM39.5625 3.31467L39.3449 1.83054L39.5625 3.31467ZM40.6875 3.14974L40.9051 4.63387L40.6875 3.14974ZM41.8125 2.87311L41.3231 1.4552L41.8125 2.87311ZM44.0625 2.32682L43.9662 3.82373L44.0625 2.32682ZM48.5625 2.53821L48.4339 4.03268L48.5625 2.53821ZM51.9375 2.546L52.0593 4.04105L51.9375 2.546ZM53.0625 2.8063L52.3455 4.12383L53.0625 2.8063ZM55.3125 3.59439L55.651 5.0557L55.3125 3.59439ZM56.4375 3.3338L56.099 1.87249L56.4375 3.3338ZM60.9375 3.02642L61.5452 1.65501L60.9375 3.02642ZM62.0625 3.14291L61.718 1.68301L62.0625 3.14291ZM64.3125 2.85703L64.6063 1.38609L64.3125 2.85703ZM65.4375 3.08174L65.1437 4.55268L65.4375 3.08174ZM66.5625 2.93786L67.1843 4.30291L66.5625 2.93786ZM67.125 2.68163L66.5032 1.31658L67.125 2.68163ZM69.375 2.99764L70.2645 1.78981L69.375 2.99764ZM69.9375 3.41187L69.048 4.6197L69.9375 3.41187ZM71.0625 3.68036L70.6863 2.22831L71.0625 3.68036ZM73.3125 3.21916L73.3763 4.71781L73.3125 3.21916ZM73.875 3.19522L73.8112 1.69658L73.875 3.19522ZM75.5625 3.09911L75.6906 4.59363L75.5625 3.09911ZM76.6875 3.00267L76.8156 4.49719L76.6875 3.00267ZM77.8125 2.89295L77.6494 1.40183L77.8125 2.89295ZM81.1875 2.68033L81.1625 1.18053L81.1875 2.68033ZM84.5625 3.38803L85.4616 4.58872L84.5625 3.38803ZM85.125 2.96683L84.2259 1.76614L85.125 2.96683ZM90.1875 3.58871L89.9453 5.06902L90.1875 3.58871ZM91.3125 3.31063L90.488 2.05756L91.3125 3.31063ZM91.875 2.94052L92.6995 4.19359L91.875 2.94052ZM92.4375 2.5704L91.613 1.31733L92.4375 2.5704ZM94.125 2.16813L94.0821 0.668744L94.125 2.16813ZM98.625 3.41443L99.1808 4.80765L98.625 3.41443ZM99.1875 3.19002L98.6317 1.7968L99.1875 3.19002ZM100.312 3.14542L100.769 1.71665L100.312 3.14542ZM100.875 3.32523L100.418 4.75401L100.875 3.32523ZM107.625 3.70364L107.687 2.20492L107.625 3.70364ZM108.188 3.72687L108.126 5.22559L108.188 3.72687ZM112.767 2.2129L112.736 0.713219L112.767 2.2129ZM113.852 2.61362L114.812 1.46126L113.852 2.61362ZM114.843 3.43955L115.804 2.28719L114.843 3.43955ZM115.922 3.95232L116.175 2.47386L115.922 3.95232ZM117.087 4.15193L116.833 5.6304L117.087 4.15193ZM118.028 4.71355L119.213 3.79301L118.028 4.71355ZM118.746 5.63715L117.562 6.55769L118.746 5.63715ZM119.516 6.49578L118.474 7.57467L119.516 6.49578ZM120.338 7.28941L121.38 6.21052L120.338 7.28941ZM120.905 8.23583L122.348 7.82578L120.905 8.23583ZM121.061 8.78544L119.618 9.1955L121.061 8.78544ZM121.217 9.33505L119.774 9.74511L121.217 9.33505ZM121.613 10.4151L120.247 11.0337L121.613 10.4151ZM122.094 11.476L123.46 10.8574L122.094 11.476ZM122.135 12.5777L120.718 12.0849L122.135 12.5777ZM121.738 13.7202L123.154 14.213L121.738 13.7202ZM121.476 14.8539L119.985 14.687L121.476 14.8539ZM121.413 15.4164L119.922 15.2495L121.413 15.4164ZM121.35 15.9789L122.841 16.1458L121.35 15.9789ZM121.289 17.1039L122.789 17.0985L121.289 17.1039ZM121.293 18.2289L119.793 18.2343L121.293 18.2289ZM121.494 19.3539L120.08 19.8543L121.494 19.3539ZM121.892 20.4789L120.478 20.9793L121.892 20.4789ZM122.241 21.6039L123.691 21.2178L122.241 21.6039ZM122.391 22.1664L120.942 22.5525L122.391 22.1664ZM122.541 22.7289L123.99 22.3428L122.541 22.7289ZM122.558 23.8539L124.018 24.1991L122.558 23.8539ZM122.425 24.4164L120.965 24.0712L122.425 24.4164ZM122.232 26.1039L120.744 26.2967L122.232 26.1039ZM122.377 27.2289L120.89 27.4217L122.377 27.2289ZM122.128 28.3539L120.827 27.6087L122.128 28.3539ZM121.806 28.9164L120.505 28.1712L121.806 28.9164ZM121.484 29.4789L120.183 28.7337L121.484 29.4789ZM121.3 30.6039L119.843 30.9603L121.3 30.6039ZM121.437 31.1664L119.98 31.5228L121.437 31.1664ZM121.575 31.7289L123.032 31.3725L121.575 31.7289ZM121.906 32.8539L123.324 32.3669L121.906 32.8539ZM122.099 33.4164L120.68 33.9035L122.099 33.4164ZM122.292 33.9789L123.711 33.4919L122.292 33.9789ZM122.31 35.1039L123.743 35.5489L122.31 35.1039ZM122.136 35.6664L120.703 35.2215L122.136 35.6664ZM121.961 36.2289L120.528 35.784L121.961 36.2289ZM121.853 37.3539L120.364 37.5311L121.853 37.3539ZM121.987 38.4789L123.476 38.3018L121.987 38.4789ZM122.218 40.1664L123.702 39.9501L122.218 40.1664ZM122.3 40.7289L123.784 40.5126L122.3 40.7289ZM122.174 41.8539L120.767 41.3347L122.174 41.8539ZM121.967 42.4164L123.374 42.9356L121.967 42.4164ZM121.842 44.1039L120.51 44.7928L121.842 44.1039ZM122.424 45.2289L121.092 45.9178L122.424 45.2289ZM122.602 46.3542L121.131 46.0588L122.602 46.3542ZM122.376 47.4799L123.846 47.7753L122.376 47.4799ZM122.337 48.6476L123.825 48.4656L122.337 48.6476ZM122.484 49.8574L120.996 50.0394L122.484 49.8574ZM122.238 50.9791L120.963 50.1891L122.238 50.9791ZM121.598 52.0125L122.873 52.8025L121.598 52.0125ZM121.029 53.0687L119.667 52.441L121.029 53.0687ZM120.532 54.1476L121.895 54.7753L120.532 54.1476ZM118.964 54.9309L118.692 53.4559L118.964 54.9309ZM118.305 55.0528L118.577 56.5279L118.305 55.0528ZM117.295 55.6266L118.482 56.5442L117.295 55.6266ZM116.946 56.0785L115.759 55.1609L116.946 56.0785ZM116.597 56.5303L115.41 55.6127L116.597 56.5303ZM115.762 57.3547L116.675 58.5447L115.762 57.3547ZM115.276 57.7272L114.363 56.5371L115.276 57.7272ZM114.791 58.0996L115.704 59.2897L114.791 58.0996ZM113.708 58.3679L113.966 56.8903L113.708 58.3679ZM113.111 58.2637L113.369 56.7861L113.111 58.2637ZM112.514 58.1595L112.256 59.6372L112.514 58.1595ZM111.355 57.8594L111.848 56.4429L111.355 57.8594ZM110.23 57.4676L110.723 56.051L110.23 57.4676ZM109.105 57.45L108.651 56.0201L109.105 57.45ZM107.98 57.8067L107.526 56.3768L107.98 57.8067ZM106.855 57.8632L106.537 59.3292L106.855 57.8632ZM105.73 57.6195L106.047 56.1535L105.73 57.6195ZM104.605 57.6632L104.181 56.2241L104.605 57.6632ZM104.042 57.8286L104.465 59.2676L104.042 57.8286ZM103.48 57.994L103.056 56.555L103.48 57.994ZM102.355 58.3297L101.92 56.8939L102.355 58.3297ZM101.23 58.67L101.664 60.1058L101.23 58.67ZM100.105 58.6872L99.7109 60.1346L100.105 58.6872ZM99.5422 58.5341L99.9359 57.0867L99.5422 58.5341ZM98.9797 58.3811L98.5859 59.8285L98.9797 58.3811ZM97.8547 58.3733L98.2296 59.8257L97.8547 58.3733ZM97.2922 58.5185L97.6671 59.9709L97.2922 58.5185ZM96.7297 58.6637L96.3547 57.2113L96.7297 58.6637ZM95.6047 58.8242L95.5639 57.3248L95.6047 58.8242ZM91.1047 57.5299L91.1226 59.0298L91.1047 57.5299ZM89.9797 57.5433L89.9618 56.0434L89.9797 57.5433ZM88.8547 57.6672L89.1606 59.1357L88.8547 57.6672ZM87.7297 57.9016L88.0356 59.3701L87.7297 57.9016ZM86.6047 58.1583L86.2435 56.7025L86.6047 58.1583ZM85.4797 58.4374L85.8408 59.8933L85.4797 58.4374ZM84.3547 58.4491L84.0224 59.9119L84.3547 58.4491ZM83.2297 58.1936L83.562 56.7308L83.2297 58.1936ZM82.1047 57.8495L82.643 56.4494L82.1047 57.8495ZM81.5422 57.6332L81.0038 59.0332L81.5422 57.6332ZM80.9797 57.4169L81.518 56.0168L80.9797 57.4169ZM79.8547 57.3569L79.4529 55.9117L79.8547 57.3569ZM78.7297 57.6697L79.1314 59.1149L78.7297 57.6697ZM77.6047 57.8695L77.7203 59.365L77.6047 57.8695ZM77.0422 57.913L76.9266 56.4174L77.0422 57.913ZM76.4797 57.9565L76.5953 59.452L76.4797 57.9565ZM75.3547 57.9104L75.1188 59.3917L75.3547 57.9104ZM74.7922 57.8208L75.0281 56.3395L74.7922 57.8208ZM74.2297 57.7312L73.9938 59.2125L74.2297 57.7312ZM73.1047 57.8359L72.6149 56.4182L73.1047 57.8359ZM72.5422 58.0303L72.0524 56.6125L72.5422 58.0303ZM71.9797 58.2246L72.4695 59.6424L71.9797 58.2246ZM70.8547 58.1503L71.5011 56.7967L70.8547 58.1503ZM70.2922 57.8816L69.6457 59.2352L70.2922 57.8816ZM69.7297 57.613L70.3761 56.2594L69.7297 57.613ZM66.3547 57.5024L65.5813 56.2171L66.3547 57.5024ZM65.2297 58.1793L66.003 59.4645L65.2297 58.1793ZM64.1047 58.5148L64.097 60.0148L64.1047 58.5148ZM62.9797 58.5091L62.972 60.0091L62.9797 58.5091ZM61.8547 58.4012L62.13 56.9267L61.8547 58.4012ZM60.7297 58.1912L60.4544 59.6657L60.7297 58.1912ZM59.6047 57.9834L59.335 59.459L59.6047 57.9834ZM59.0422 57.8806L59.3118 56.405L59.0422 57.8806ZM58.4797 57.7778L58.21 59.2534L58.4797 57.7778ZM57.3547 57.9559L58.0247 59.2979L57.3547 57.9559ZM56.2297 58.5176L55.5596 57.1756L56.2297 58.5176ZM55.1047 58.4274L54.2787 59.6795L55.1047 58.4274ZM54.5422 58.0563L55.3681 56.8042L54.5422 58.0563ZM53.9797 57.6853L54.8056 56.4332L53.9797 57.6853ZM52.8547 57.4327L53.1639 58.9005L52.8547 57.4327ZM51.7297 57.6697L51.4204 56.2019L51.7297 57.6697ZM50.6047 57.6816L50.884 56.2078L50.6047 57.6816ZM49.4797 57.4683L49.2003 58.9421L49.4797 57.4683ZM48.3547 57.5309L48.7868 58.9673L48.3547 57.5309ZM47.2297 57.8693L46.7976 56.4329L47.2297 57.8693ZM46.1047 57.9807L46.258 56.4886L46.1047 57.9807ZM44.9797 57.8651L44.8263 59.3573L44.9797 57.8651ZM43.8547 57.8692L43.6906 56.3782L43.8547 57.8692ZM42.7297 57.993L42.8937 59.484L42.7297 57.993ZM41.6047 57.8583L41.1097 59.2743L41.6047 57.8583ZM40.4797 57.4651L40.9746 56.0491L40.4797 57.4651ZM39.3547 57.5732L38.6402 56.2543L39.3547 57.5732ZM38.2297 58.1827L38.9442 59.5016L38.2297 58.1827ZM37.1047 58.1836L36.3918 59.5033L37.1047 58.1836ZM35.9797 57.5759L36.6926 56.2561L35.9797 57.5759ZM34.8547 57.5329L35.4858 58.8937L34.8547 57.5329ZM34.2922 57.7938L34.9233 59.1546L34.2922 57.7938ZM33.7297 58.0547L33.0986 56.6939L33.7297 58.0547ZM32.6047 58.4617L32.2276 57.0098L32.6047 58.4617ZM31.4797 58.7538L31.1026 57.302L31.4797 58.7538ZM30.3547 58.7085L30.8379 57.2885L30.3547 58.7085ZM29.2297 58.3256L28.7464 59.7456L29.2297 58.3256ZM28.1047 58.0197L28.4039 56.5498L28.1047 58.0197ZM27.5422 57.9052L27.243 59.3751L27.5422 57.9052ZM26.9797 57.7907L27.2789 56.3208L26.9797 57.7907ZM25.8547 57.7646L26.0876 59.2464L25.8547 57.7646ZM25.2922 57.853L25.5251 59.3349L25.2922 57.853ZM24.7297 57.9415L24.4968 56.4596L24.7297 57.9415ZM23.6047 58.1441L23.306 56.6742L23.6047 58.1441ZM22.4797 58.3727L22.7783 59.8427L22.4797 58.3727ZM21.3547 58.4491L21.4555 56.9525L21.3547 58.4491ZM20.2297 58.3733L20.1288 59.8699L20.2297 58.3733ZM16.8547 58.194L16.4848 56.7403L16.8547 58.194ZM15.7297 58.4802L15.3598 57.0265L15.7297 58.4802ZM14.6047 58.4017L15.1546 57.0061L14.6047 58.4017ZM13.4797 57.9584L12.9297 59.3539L13.4797 57.9584ZM12.3369 57.9205L12.7898 59.3505L12.3369 57.9205ZM11.1763 58.2881L10.7234 56.8581L11.1763 58.2881ZM10.1091 58.0916L9.18596 59.2739L10.1091 58.0916ZM9.13533 57.3313L10.0585 56.149L9.13533 57.3313ZM8.05396 56.884L7.88573 58.3745L8.05396 56.884ZM6.86501 56.7498L7.03324 55.2593L6.86501 56.7498ZM5.96172 56.1754L4.68042 56.9553L5.96172 56.1754ZM5.6529 55.668L6.9342 54.8881L5.6529 55.668ZM5.34409 55.1607L4.06279 55.9406L5.34409 55.1607ZM4.76022 54.1917L6.04882 53.4239L4.76022 54.1917ZM4.2101 53.2684L5.49871 52.5007L4.2101 53.2684ZM3.42832 52.4204L2.51884 53.6133L3.42832 52.4204ZM2.41486 51.6477L3.32434 50.4549L2.41486 51.6477ZM2.04011 50.6562L0.574554 50.3366L2.04011 50.6562ZM2.30406 49.4459L3.76961 49.7655L2.30406 49.4459ZM2.20629 46.0633L0.825121 46.6484L2.20629 46.0633ZM1.72971 44.9383L3.11088 44.3531L1.72971 44.9383ZM1.72282 43.8133L0.335623 43.2426L1.72282 43.8133ZM1.95423 43.2508L0.567032 42.6801L1.95423 43.2508ZM2.18564 42.6883L3.57284 43.2589L2.18564 42.6883ZM2.18191 41.5633L3.56585 40.9847L2.18191 41.5633ZM1.94677 41.0008L0.562821 41.5793L1.94677 41.0008ZM1.71162 40.4383L3.09557 39.8597L1.71162 40.4383ZM1.68713 39.3133L0.282399 38.7872L1.68713 39.3133ZM2.10843 38.1883L3.51316 38.7143L2.10843 38.1883ZM2.26435 37.0633L0.771397 37.2085L2.26435 37.0633ZM2.22499 34.8133L3.68937 35.1382L2.22499 34.8133ZM2.47464 33.6883L1.01027 33.3633L2.47464 33.6883ZM2.48288 32.0008L0.99087 32.1554L2.48288 32.0008ZM2.2803 30.3133L0.797523 30.5399L2.2803 30.3133ZM2.1943 29.7508L3.67707 29.5241L2.1943 29.7508ZM2.14613 28.0633L3.61106 28.3857L2.14613 28.0633ZM2.39376 26.9383L0.928829 26.6158L2.39376 26.9383ZM2.26146 25.8133L0.896308 26.4348L2.26146 25.8133ZM1.74924 24.6883L3.11439 24.0667L1.74924 24.6883ZM2.60848 21.3133L1.12112 21.5076L2.60848 21.3133ZM2.4615 20.1883L3.94886 19.9939L2.4615 20.1883ZM2.70254 11.8406L1.23213 11.5441L2.70254 11.8406ZM3.14159 10.332L1.79451 9.67218L3.14159 10.332ZM3.6431 6.79787L2.1488 6.92847L3.6431 6.79787ZM5.23215 5.24385L4.54946 3.90821L5.23215 5.24385ZM6.24843 4.61999L5.3599 3.41147L6.24843 4.61999ZM7.18024 3.9349L6.29171 2.72638L7.18024 3.9349ZM11.4474 2.88658L11.1458 4.35595L11.4474 2.88658ZM12.5625 3.16108L12.1496 4.60312L12.5625 3.16108ZM13.125 3.32215L12.7121 4.76419L13.2746 4.92527L13.6875 3.48323L14.1004 2.04119L13.5379 1.88011L13.125 3.32215ZM13.6875 3.48323L13.2746 4.92527C13.8685 5.09535 14.4795 5.12741 15.0889 5.01314L14.8125 3.53883L14.5361 2.06452C14.3955 2.09088 14.2565 2.08587 14.1004 2.04119L13.6875 3.48323ZM14.8125 3.53883L15.0889 5.01314L15.6514 4.90767L15.375 3.43336L15.0986 1.95905L14.5361 2.06452L14.8125 3.53883ZM15.375 3.43336L15.6514 4.90767L16.2139 4.80219L15.9375 3.32789L15.6611 1.85358L15.0986 1.95905L15.375 3.43336ZM15.9375 3.32789L16.2139 4.80219C16.6238 4.72535 17.0328 4.63362 17.4411 4.52714L17.0625 3.0757L16.6839 1.62426C16.3422 1.7134 16.0012 1.7898 15.6611 1.85358L15.9375 3.32789ZM17.0625 3.0757L17.4411 4.52714L18.0036 4.38043L17.625 2.92899L17.2464 1.47755L16.6839 1.62426L17.0625 3.0757ZM17.625 2.92899L18.0036 4.38043L18.5661 4.23372L18.1875 2.78228L17.8089 1.33083L17.2464 1.47755L17.625 2.92899ZM18.1875 2.78228L18.5661 4.23372C18.8309 4.16464 19.0889 4.12911 19.3423 4.12407L19.3125 2.62437L19.2827 1.12466C18.7861 1.13455 18.2941 1.2043 17.8089 1.33083L18.1875 2.78228ZM19.3125 2.62437L19.3423 4.12407L19.9048 4.11287L19.875 2.61317L19.8452 1.11347L19.2827 1.12466L19.3125 2.62437ZM19.875 2.61317L19.9048 4.11287L20.4673 4.10168L20.4375 2.60198L20.4077 1.10227L19.8452 1.11347L19.875 2.61317ZM20.4375 2.60198L20.4673 4.10168C20.6094 4.09885 20.7723 4.12625 20.9681 4.21076L21.5625 2.83356L22.1569 1.45636C21.6027 1.21716 21.0156 1.09017 20.4077 1.10227L20.4375 2.60198ZM21.5625 2.83356L20.9681 4.21076L21.5306 4.45354L22.125 3.07634L22.7194 1.69914L22.1569 1.45636L21.5625 2.83356ZM22.125 3.07634L21.5306 4.45354L22.0931 4.69632L22.6875 3.31912L23.2819 1.94193L22.7194 1.69914L22.125 3.07634ZM22.6875 3.31912L22.0931 4.69632C22.7954 4.99943 23.5518 5.04284 24.2896 4.79528L23.8125 3.37318L23.3354 1.95109C23.3237 1.955 23.3181 1.95579 23.3179 1.95583C23.3177 1.95585 23.3195 1.95564 23.322 1.95576C23.3244 1.95587 23.3236 1.95612 23.3186 1.95491C23.3133 1.95364 23.3013 1.95027 23.2819 1.94193L22.6875 3.31912ZM23.8125 3.37318L24.2896 4.79528L24.8521 4.60655L24.375 3.18446L23.8979 1.76236L23.3354 1.95109L23.8125 3.37318ZM24.375 3.18446L24.8521 4.60655L25.4146 4.41783L24.9375 2.99574L24.4604 1.57364L23.8979 1.76236L24.375 3.18446ZM24.9375 2.99574L25.4146 4.41783C25.6641 4.33413 25.901 4.29071 26.1289 4.28062L26.0625 2.78209L25.9961 1.28356C25.474 1.30669 24.9609 1.40571 24.4604 1.57364L24.9375 2.99574ZM26.0625 2.78209L26.1289 4.28062L26.6914 4.25569L26.625 2.75716L26.5586 1.25863L25.9961 1.28356L26.0625 2.78209ZM26.625 2.75716L26.6914 4.25569L27.2539 4.23077L27.1875 2.73224L27.1211 1.23371L26.5586 1.25863L26.625 2.75716ZM27.1875 2.73224L27.2539 4.23077C27.5945 4.21568 27.935 4.21233 28.2755 4.22074L28.3125 2.72119L28.3495 1.22165C27.94 1.21155 27.5305 1.21557 27.1211 1.23371L27.1875 2.73224ZM28.3125 2.72119L28.2755 4.22074L28.838 4.23462L28.875 2.73507L28.912 1.23553L28.3495 1.22165L28.3125 2.72119ZM28.875 2.73507L28.838 4.23462L29.4005 4.2485L29.4375 2.74895L29.4745 1.24941L28.912 1.23553L28.875 2.73507ZM29.4375 2.74895L29.4005 4.2485C29.8797 4.26032 30.3572 4.22243 30.8315 4.13596L30.5625 2.66028L30.2935 1.18461C30.0178 1.23487 29.7453 1.25609 29.4745 1.24941L29.4375 2.74895ZM30.5625 2.66028L30.8315 4.13596L31.394 4.03341L31.125 2.55773L30.856 1.08206L30.2935 1.18461L30.5625 2.66028ZM31.125 2.55773L31.394 4.03341L31.9565 3.93086L31.6875 2.45518L31.4185 0.979506L30.856 1.08206L31.125 2.55773ZM31.6875 2.45518L31.9565 3.93086C32.1097 3.90293 32.2609 3.90794 32.4261 3.95197L32.8125 2.5026L33.1989 1.05322C32.6141 0.897296 32.0153 0.870703 31.4185 0.979506L31.6875 2.45518ZM32.8125 2.5026L32.4261 3.95197L32.9886 4.10194L33.375 2.65256L33.7614 1.20319L33.1989 1.05322L32.8125 2.5026ZM33.375 2.65256L32.9886 4.10194L33.5511 4.2519L33.9375 2.80253L34.3239 1.35315L33.7614 1.20319L33.375 2.65256ZM33.9375 2.80253L33.5511 4.2519C34.0303 4.37966 34.516 4.45415 35.0063 4.47253L35.0625 2.97359L35.1187 1.47464C34.859 1.4649 34.5947 1.42535 34.3239 1.35315L33.9375 2.80253ZM35.0625 2.97359L35.0063 4.47253L35.5688 4.49362L35.625 2.99468L35.6812 1.49573L35.1187 1.47464L35.0625 2.97359ZM35.625 2.99468L35.5688 4.49362L36.1313 4.51471L36.1875 3.01577L36.2437 1.51682L35.6812 1.49573L35.625 2.99468ZM36.1875 3.01577L36.1313 4.51471C36.4449 4.52648 36.7595 4.55749 37.0753 4.60806L37.3125 3.12693L37.5497 1.6458C37.1155 1.57627 36.6801 1.53318 36.2437 1.51682L36.1875 3.01577ZM37.3125 3.12693L37.0753 4.60806L37.6378 4.69813L37.875 3.217L38.1122 1.73587L37.5497 1.6458L37.3125 3.12693ZM37.875 3.217L37.6378 4.69813L38.2003 4.7882L38.4375 3.30707L38.6747 1.82594L38.1122 1.73587L37.875 3.217ZM38.4375 3.30707L38.2003 4.7882C38.7256 4.8723 39.2539 4.87595 39.7801 4.79881L39.5625 3.31467L39.3449 1.83054C39.1211 1.86335 38.8994 1.86193 38.6747 1.82594L38.4375 3.30707ZM39.5625 3.31467L39.7801 4.79881L40.3426 4.71634L40.125 3.23221L39.9074 1.74807L39.3449 1.83054L39.5625 3.31467ZM40.125 3.23221L40.3426 4.71634L40.9051 4.63387L40.6875 3.14974L40.4699 1.6656L39.9074 1.74807L40.125 3.23221ZM40.6875 3.14974L40.9051 4.63387C41.3768 4.56472 41.8427 4.44954 42.3019 4.29102L41.8125 2.87311L41.3231 1.4552C41.0323 1.55556 40.7482 1.6248 40.4699 1.6656L40.6875 3.14974ZM41.8125 2.87311L42.3019 4.29102L42.8644 4.09686L42.375 2.67895L41.8856 1.26104L41.3231 1.4552L41.8125 2.87311ZM42.375 2.67895L42.8644 4.09686L43.4269 3.9027L42.9375 2.48479L42.4481 1.06688L41.8856 1.26104L42.375 2.67895ZM42.9375 2.48479L43.4269 3.9027C43.6245 3.83451 43.8007 3.81308 43.9662 3.82373L44.0625 2.32682L44.1588 0.82992C43.5743 0.792314 43.0005 0.876201 42.4481 1.06688L42.9375 2.48479ZM44.0625 2.32682L43.9662 3.82373L44.5287 3.85992L44.625 2.36302L44.7213 0.866111L44.1588 0.82992L44.0625 2.32682ZM44.625 2.36302L44.5287 3.85992L45.0912 3.89611L45.1875 2.39921L45.2838 0.902302L44.7213 0.866111L44.625 2.36302ZM45.1875 2.39921L45.0912 3.89611C45.4862 3.92152 45.8812 3.93901 46.2762 3.94856L46.3125 2.449L46.3488 0.949435C45.9938 0.940854 45.6388 0.925145 45.2838 0.902302L45.1875 2.39921ZM46.3125 2.449L46.2762 3.94856L46.8388 3.96216L46.875 2.46259L46.9113 0.963032L46.3488 0.949435L46.3125 2.449ZM46.875 2.46259L46.8388 3.96216L47.4013 3.97575L47.4375 2.47619L47.4738 0.976631L46.9113 0.963032L46.875 2.46259ZM47.4375 2.47619L47.4013 3.97575C47.7453 3.98407 48.0895 4.00304 48.4339 4.03268L48.5625 2.53821L48.6911 1.04373C48.2855 1.00882 47.8797 0.986444 47.4738 0.976631L47.4375 2.47619ZM48.5625 2.53821L48.4339 4.03268L48.9964 4.0811L49.125 2.58662L49.2536 1.09215L48.6911 1.04373L48.5625 2.53821ZM49.125 2.58662L48.9964 4.0811L49.5589 4.12951L49.6875 2.63504L49.8161 1.14056L49.2536 1.09215L49.125 2.58662ZM49.6875 2.63504L49.5589 4.12951C50.0171 4.16896 50.4759 4.17002 50.9343 4.13268L50.8125 2.63763L50.6907 1.14259C50.3991 1.16634 50.1079 1.16567 49.8161 1.14056L49.6875 2.63504ZM50.8125 2.63763L50.9343 4.13268L51.4968 4.08686L51.375 2.59182L51.2532 1.09677L50.6907 1.14259L50.8125 2.63763ZM51.375 2.59182L51.4968 4.08686L52.0593 4.04105L51.9375 2.546L51.8157 1.05095L51.2532 1.09677L51.375 2.59182ZM51.9375 2.546L52.0593 4.04105C52.1054 4.03729 52.1913 4.0399 52.3455 4.12383L53.0625 2.8063L53.7795 1.48878C53.1837 1.16454 52.5196 0.993618 51.8157 1.05095L51.9375 2.546ZM53.0625 2.8063L52.3455 4.12383L52.908 4.42995L53.625 3.11243L54.342 1.7949L53.7795 1.48878L53.0625 2.8063ZM53.625 3.11243L52.908 4.42995L53.4705 4.73608L54.1875 3.41855L54.9045 2.10103L54.342 1.7949L53.625 3.11243ZM54.1875 3.41855L53.4705 4.73608C54.13 5.095 54.8785 5.23462 55.651 5.0557L55.3125 3.59439L54.974 2.13308C54.9705 2.13389 54.9711 2.13346 54.9748 2.13332C54.9764 2.13326 54.978 2.13328 54.9794 2.13337C54.9809 2.13345 54.9817 2.13357 54.9816 2.13357C54.9816 2.13356 54.9803 2.13336 54.9777 2.13269C54.975 2.13202 54.9707 2.13079 54.9646 2.12867C54.9525 2.12443 54.9325 2.11627 54.9045 2.10103L54.1875 3.41855ZM55.3125 3.59439L55.651 5.0557L56.2135 4.92541L55.875 3.4641L55.5365 2.00278L54.974 2.13308L55.3125 3.59439ZM55.875 3.4641L56.2135 4.92541L56.776 4.79512L56.4375 3.3338L56.099 1.87249L55.5365 2.00278L55.875 3.4641ZM56.4375 3.3338L56.776 4.79512C57.2342 4.68898 57.6866 4.54307 58.1327 4.35969L57.5625 2.97231L56.9923 1.58493C56.6884 1.70982 56.3908 1.80491 56.099 1.87249L56.4375 3.3338ZM57.5625 2.97231L58.1327 4.35969L58.6952 4.12849L58.125 2.74111L57.5548 1.35373L56.9923 1.58493L57.5625 2.97231ZM58.125 2.74111L58.6952 4.12849L59.2577 3.89728L58.6875 2.50991L58.1173 1.12253L57.5548 1.35373L58.125 2.74111ZM58.6875 2.50991L59.2577 3.89728C59.2667 3.89361 59.2669 3.89441 59.2594 3.89591C59.2515 3.89746 59.2398 3.89884 59.226 3.89862C59.2121 3.8984 59.2015 3.89667 59.1956 3.89532C59.1901 3.89405 59.193 3.89408 59.2048 3.89935L59.8125 2.52794L60.4202 1.15653C59.6761 0.826833 58.8756 0.810831 58.1173 1.12253L58.6875 2.50991ZM59.8125 2.52794L59.2048 3.89935L59.7673 4.14859L60.375 2.77718L60.9827 1.40577L60.4202 1.15653L59.8125 2.52794ZM60.375 2.77718L59.7673 4.14859L60.3298 4.39782L60.9375 3.02642L61.5452 1.65501L60.9827 1.40577L60.375 2.77718ZM60.9375 3.02642L60.3298 4.39782C60.9835 4.68744 61.6922 4.77149 62.407 4.60281L62.0625 3.14291L61.718 1.68301C61.6828 1.69132 61.6415 1.6977 61.5452 1.65501L60.9375 3.02642ZM62.0625 3.14291L62.407 4.60281L62.9695 4.47006L62.625 3.01016L62.2805 1.55026L61.718 1.68301L62.0625 3.14291ZM62.625 3.01016L62.9695 4.47006L63.532 4.33732L63.1875 2.87742L62.843 1.41752L62.2805 1.55026L62.625 3.01016ZM63.1875 2.87742L63.532 4.33732C63.6991 4.29788 63.8564 4.29556 64.0187 4.32797L64.3125 2.85703L64.6063 1.38609C64.0186 1.26869 63.4259 1.27997 62.843 1.41752L63.1875 2.87742ZM64.3125 2.85703L64.0187 4.32797L64.5812 4.44033L64.875 2.96938L65.1688 1.49844L64.6063 1.38609L64.3125 2.85703ZM64.875 2.96938L64.5812 4.44033L65.1437 4.55268L65.4375 3.08174L65.7313 1.6108L65.1688 1.49844L64.875 2.96938ZM65.4375 3.08174L65.1437 4.55268C65.8518 4.69413 66.5463 4.59355 67.1843 4.30291L66.5625 2.93786L65.9407 1.57282C65.8287 1.62382 65.7732 1.61916 65.7313 1.6108L65.4375 3.08174ZM66.5625 2.93786L67.1843 4.30291L67.7468 4.04668L67.125 2.68163L66.5032 1.31658L65.9407 1.57282L66.5625 2.93786ZM67.125 2.68163L67.7468 4.04668L68.3093 3.79044L67.6875 2.4254L67.0657 1.06035L66.5032 1.31658L67.125 2.68163ZM67.6875 2.4254L68.3093 3.79044C68.29 3.79926 68.2535 3.81283 68.2022 3.82091C68.1499 3.82914 68.0947 3.8297 68.0414 3.8222C67.9319 3.80683 67.8904 3.76723 67.923 3.79123L68.8125 2.5834L69.702 1.37557C68.958 0.827714 68.0091 0.630608 67.0657 1.06035L67.6875 2.4254ZM68.8125 2.5834L67.923 3.79123L68.4855 4.20546L69.375 2.99764L70.2645 1.78981L69.702 1.37557L68.8125 2.5834ZM69.375 2.99764L68.4855 4.20546L69.048 4.6197L69.9375 3.41187L70.827 2.20405L70.2645 1.78981L69.375 2.99764ZM69.9375 3.41187L69.048 4.6197C69.7052 5.10368 70.5373 5.36598 71.4387 5.13241L71.0625 3.68036L70.6863 2.22831C70.7065 2.22306 70.7339 2.21864 70.7659 2.21831C70.798 2.21798 70.8262 2.22185 70.8482 2.22709C70.8923 2.23761 70.8856 2.24721 70.827 2.20405L69.9375 3.41187ZM71.0625 3.68036L71.4387 5.13241L72.0012 4.98665L71.625 3.53461L71.2488 2.08256L70.6863 2.22831L71.0625 3.68036ZM71.625 3.53461L72.0012 4.98665L72.5637 4.8409L72.1875 3.38886L71.8113 1.93681L71.2488 2.08256L71.625 3.53461ZM72.1875 3.38886L72.5637 4.8409C72.8398 4.76937 73.1101 4.72913 73.3763 4.71781L73.3125 3.21916L73.2487 1.72052C72.7649 1.74111 72.2852 1.81401 71.8113 1.93681L72.1875 3.38886ZM73.3125 3.21916L73.3763 4.71781L73.9388 4.69386L73.875 3.19522L73.8112 1.69658L73.2487 1.72052L73.3125 3.21916ZM73.875 3.19522L73.9388 4.69386L74.5013 4.66992L74.4375 3.17127L74.3737 1.67263L73.8112 1.69658L73.875 3.19522ZM74.4375 3.17127L74.5013 4.66992C74.8978 4.65304 75.2943 4.62761 75.6906 4.59363L75.5625 3.09911L75.4344 1.60459C75.0807 1.63491 74.7272 1.65759 74.3737 1.67263L74.4375 3.17127ZM75.5625 3.09911L75.6906 4.59363L76.2531 4.54541L76.125 3.05089L75.9969 1.55637L75.4344 1.60459L75.5625 3.09911ZM76.125 3.05089L76.2531 4.54541L76.8156 4.49719L76.6875 3.00267L76.5594 1.50816L75.9969 1.55637L76.125 3.05089ZM76.6875 3.00267L76.8156 4.49719C77.2023 4.46405 77.589 4.42633 77.9756 4.38406L77.8125 2.89295L77.6494 1.40183C77.286 1.44157 76.9227 1.47701 76.5594 1.50816L76.6875 3.00267ZM77.8125 2.89295L77.9756 4.38406L78.5381 4.32255L78.375 2.83143L78.2119 1.34032L77.6494 1.40183L77.8125 2.89295ZM78.375 2.83143L78.5381 4.32255L79.1006 4.26104L78.9375 2.76992L78.7744 1.27881L78.2119 1.34032L78.375 2.83143ZM78.9375 2.76992L79.1006 4.26104C79.43 4.22502 79.7589 4.20431 80.0875 4.19884L80.0625 2.69905L80.0375 1.19926C79.6161 1.20627 79.1951 1.23282 78.7744 1.27881L78.9375 2.76992ZM80.0625 2.69905L80.0875 4.19884L80.65 4.18948L80.625 2.68969L80.6 1.1899L80.0375 1.19926L80.0625 2.69905ZM80.625 2.68969L80.65 4.18948L81.2125 4.18012L81.1875 2.68033L81.1625 1.18053L80.6 1.1899L80.625 2.68969ZM81.1875 2.68033L81.2125 4.18012C81.3157 4.1784 81.4512 4.20085 81.6354 4.294L82.3125 2.95553L82.9896 1.61706C82.4238 1.33079 81.8093 1.16977 81.1625 1.18053L81.1875 2.68033ZM82.3125 2.95553L81.6354 4.294L82.1979 4.57857L82.875 3.2401L83.5521 1.90163L82.9896 1.61706L82.3125 2.95553ZM82.875 3.2401L82.1979 4.57857L82.7604 4.86313L83.4375 3.52466L84.1146 2.18619L83.5521 1.90163L82.875 3.2401ZM83.4375 3.52466L82.7604 4.86313C83.1817 5.0763 83.6661 5.18436 84.1809 5.12184C84.6845 5.06067 85.114 4.84901 85.4616 4.58872L84.5625 3.38803L83.6634 2.18734C83.636 2.20785 83.6905 2.15936 83.8192 2.14373C83.9589 2.12676 84.0683 2.16274 84.1146 2.18619L83.4375 3.52466ZM84.5625 3.38803L85.4616 4.58872L86.0241 4.16752L85.125 2.96683L84.2259 1.76614L83.6634 2.18734L84.5625 3.38803ZM85.125 2.96683L86.0241 4.16752L86.5866 3.74632L85.6875 2.54563L84.7884 1.34494L84.2259 1.76614L85.125 2.96683ZM85.6875 2.54563L86.5866 3.74632C86.611 3.72803 86.5508 3.7799 86.4146 3.79494C86.2676 3.81116 86.1558 3.77099 86.1121 3.74789L86.8125 2.42147L87.5129 1.09505C87.0942 0.873925 86.6074 0.755432 86.0855 0.813041C85.5742 0.869462 85.139 1.08243 84.7884 1.34494L85.6875 2.54563ZM86.8125 2.42147L86.1121 3.74789L86.6746 4.04492L87.375 2.71851L88.0754 1.39209L87.5129 1.09505L86.8125 2.42147ZM87.375 2.71851L86.6746 4.04492L87.2371 4.34196L87.9375 3.01555L88.6379 1.68913L88.0754 1.39209L87.375 2.71851ZM87.9375 3.01555L87.2371 4.34196C87.739 4.60702 88.2678 4.79454 88.8203 4.88494L89.0625 3.40463L89.3047 1.92431C89.1072 1.89199 88.886 1.82013 88.6379 1.68913L87.9375 3.01555ZM89.0625 3.40463L88.8203 4.88494L89.3828 4.97698L89.625 3.49667L89.8672 2.01635L89.3047 1.92431L89.0625 3.40463ZM89.625 3.49667L89.3828 4.97698L89.9453 5.06902L90.1875 3.58871L90.4297 2.10839L89.8672 2.01635L89.625 3.49667ZM90.1875 3.58871L89.9453 5.06902C90.7576 5.20194 91.5081 4.97751 92.137 4.56371L91.3125 3.31063L90.488 2.05756C90.4201 2.10223 90.3879 2.10956 90.3901 2.10903C90.3909 2.10883 90.3967 2.10754 90.4061 2.10715C90.4156 2.10675 90.424 2.10746 90.4297 2.10839L90.1875 3.58871ZM91.3125 3.31063L92.137 4.56371L92.6995 4.19359L91.875 2.94052L91.0505 1.68744L90.488 2.05756L91.3125 3.31063ZM91.875 2.94052L92.6995 4.19359L93.262 3.82348L92.4375 2.5704L91.613 1.31733L91.0505 1.68744L91.875 2.94052ZM92.4375 2.5704L93.262 3.82348C93.4505 3.69947 93.5592 3.68492 93.6054 3.6836L93.5625 2.18421L93.5196 0.684822C92.8158 0.704937 92.1745 0.947846 91.613 1.31733L92.4375 2.5704ZM93.5625 2.18421L93.6054 3.6836L94.1679 3.66752L94.125 2.16813L94.0821 0.668744L93.5196 0.684822L93.5625 2.18421ZM94.125 2.16813L94.1679 3.66752L94.7304 3.65144L94.6875 2.15205L94.6446 0.652667L94.0821 0.668744L94.125 2.16813ZM94.6875 2.15205L94.7304 3.65144C94.7137 3.65192 94.7106 3.64775 94.73 3.65495C94.7532 3.66351 94.8099 3.68916 94.8991 3.75763L95.8125 2.5678L96.7259 1.37797C96.1501 0.935907 95.4463 0.629755 94.6446 0.652667L94.6875 2.15205ZM95.8125 2.5678L94.8991 3.75763L95.4616 4.18945L96.375 2.99962L97.2884 1.80979L96.7259 1.37797L95.8125 2.5678ZM96.375 2.99962L95.4616 4.18945L96.0241 4.62126L96.9375 3.43144L97.8509 2.24161L97.2884 1.80979L96.375 2.99962ZM96.9375 3.43144L96.0241 4.62126C96.7338 5.16612 97.6601 5.41434 98.6183 5.03206L98.0625 3.63884L97.5067 2.24563C97.5309 2.23598 97.57 2.2241 97.6212 2.2186C97.6731 2.21303 97.7249 2.21537 97.772 2.22406C97.8672 2.24161 97.8945 2.27504 97.8509 2.24161L96.9375 3.43144ZM98.0625 3.63884L98.6183 5.03206L99.1808 4.80765L98.625 3.41443L98.0692 2.02122L97.5067 2.24563L98.0625 3.63884ZM98.625 3.41443L99.1808 4.80765L99.7433 4.58324L99.1875 3.19002L98.6317 1.7968L98.0692 2.02122L98.625 3.41443ZM99.1875 3.19002L99.7433 4.58324C99.7846 4.56678 99.8047 4.56568 99.8094 4.56549C99.8136 4.56532 99.8267 4.56489 99.8558 4.5742L100.312 3.14542L100.769 1.71665C100.054 1.48792 99.3209 1.52184 98.6317 1.7968L99.1875 3.19002ZM100.312 3.14542L99.8558 4.5742L100.418 4.75401L100.875 3.32523L101.332 1.89646L100.769 1.71665L100.312 3.14542ZM100.875 3.32523L100.418 4.75401L100.981 4.93382L101.438 3.50504L101.894 2.07627L101.332 1.89646L100.875 3.32523ZM101.438 3.50504L100.981 4.93382C101.773 5.18705 102.565 5.08317 103.266 4.71107L102.562 3.38621L101.859 2.06136C101.839 2.0722 101.828 2.07579 101.826 2.07628C101.825 2.07666 101.831 2.07476 101.842 2.07354C101.854 2.0723 101.867 2.07232 101.878 2.07356C101.89 2.07479 101.896 2.07669 101.894 2.07627L101.438 3.50504ZM102.562 3.38621L103.266 4.71107L103.828 4.41242L103.125 3.08757L102.422 1.76271L101.859 2.06136L102.562 3.38621ZM103.125 3.08757L103.828 4.41242L104.391 4.11378L103.688 2.78892L102.984 1.46407L102.422 1.76271L103.125 3.08757ZM103.688 2.78892L104.391 4.11378C104.393 4.11261 104.344 4.13732 104.259 4.13784C104.22 4.13808 104.186 4.13298 104.159 4.1261C104.133 4.11941 104.12 4.11269 104.122 4.11358L104.812 2.78201L105.503 1.45043C104.688 1.02765 103.792 1.03525 102.984 1.46407L103.688 2.78892ZM104.812 2.78201L104.122 4.11358L104.684 4.40531L105.375 3.07373L106.066 1.74216L105.503 1.45043L104.812 2.78201ZM105.375 3.07373L104.684 4.40531L105.247 4.69703L105.938 3.36546L106.628 2.03388L106.066 1.74216L105.375 3.07373ZM105.938 3.36546L105.247 4.69703C105.792 4.97981 106.38 5.15352 107.001 5.17914L107.062 3.68041L107.124 2.18169C106.995 2.17634 106.833 2.14007 106.628 2.03388L105.938 3.36546ZM107.062 3.68041L107.001 5.17914L107.563 5.20237L107.625 3.70364L107.687 2.20492L107.124 2.18169L107.062 3.68041ZM107.625 3.70364L107.563 5.20237L108.126 5.22559L108.188 3.72687L108.249 2.22815L107.687 2.20492L107.625 3.70364ZM108.188 3.72687L108.126 5.22559C108.877 5.25664 109.56 5.01282 110.145 4.62293L109.312 3.37498L108.48 2.12703C108.394 2.18427 108.335 2.20861 108.302 2.21891C108.272 2.22847 108.256 2.22844 108.249 2.22815L108.188 3.72687ZM109.312 3.37498L110.145 4.62293L110.707 4.2478L109.875 2.99985L109.043 1.7519L108.48 2.12703L109.312 3.37498ZM109.875 2.99985L110.707 4.2478L111.27 3.87268L110.438 2.62473L109.605 1.37678L109.043 1.7519L109.875 2.99985ZM110.438 2.62473L111.27 3.87268C111.443 3.75714 111.553 3.73843 111.62 3.73704L111.589 2.23737L111.558 0.73769C110.839 0.752613 110.182 0.992146 109.605 1.37678L110.438 2.62473ZM111.589 2.23737L111.62 3.73704L112.209 3.72481L112.178 2.22513L112.147 0.725455L111.558 0.73769L111.589 2.23737ZM112.178 2.22513L112.209 3.72481L112.799 3.71257L112.767 2.2129L112.736 0.713219L112.147 0.725455L112.178 2.22513ZM112.767 2.2129L112.799 3.71257C112.807 3.71241 112.81 3.713 112.81 3.71304C112.81 3.71307 112.811 3.71315 112.813 3.71402C112.817 3.71517 112.843 3.72513 112.892 3.76598L113.852 2.61362L114.812 1.46126C114.233 0.978096 113.526 0.696821 112.736 0.713219L112.767 2.2129ZM113.852 2.61362L112.892 3.76598L113.388 4.17895L114.348 3.02659L115.308 1.87423L114.812 1.46126L113.852 2.61362ZM114.348 3.02659L113.388 4.17895L113.883 4.59191L114.843 3.43955L115.804 2.28719L115.308 1.87423L114.348 3.02659ZM114.843 3.43955L113.883 4.59191C114.397 5.02035 114.996 5.31565 115.668 5.43078L115.922 3.95232L116.175 2.47386C116.07 2.45592 115.95 2.40937 115.804 2.28719L114.843 3.43955ZM115.922 3.95232L115.668 5.43078L116.251 5.53059L116.504 4.05213L116.757 2.57366L116.175 2.47386L115.922 3.95232ZM116.504 4.05213L116.251 5.53059L116.833 5.6304L117.087 4.15193L117.34 2.67347L116.757 2.57366L116.504 4.05213ZM117.087 4.15193L116.833 5.6304C116.848 5.6329 116.854 5.6352 116.854 5.6352C116.854 5.63524 116.853 5.63489 116.852 5.63403C116.85 5.63316 116.848 5.63198 116.845 5.63048C116.84 5.62724 116.836 5.62424 116.834 5.62298C116.833 5.62186 116.837 5.62466 116.844 5.63409L118.028 4.71355L119.213 3.79301C118.741 3.18601 118.093 2.8025 117.34 2.67347L117.087 4.15193ZM118.028 4.71355L116.844 5.63409L117.203 6.09589L118.387 5.17535L119.572 4.25481L119.213 3.79301L118.028 4.71355ZM118.387 5.17535L117.203 6.09589L117.562 6.55769L118.746 5.63715L119.931 4.71661L119.572 4.25481L118.387 5.17535ZM118.746 5.63715L117.562 6.55769C117.844 6.9203 118.148 7.2596 118.474 7.57467L119.516 6.49578L120.558 5.41688C120.337 5.20286 120.127 4.96974 119.931 4.71661L118.746 5.63715ZM119.516 6.49578L118.474 7.57467L118.885 7.97149L119.927 6.89259L120.969 5.8137L120.558 5.41688L119.516 6.49578ZM119.927 6.89259L118.885 7.97149L119.296 8.3683L120.338 7.28941L121.38 6.21052L120.969 5.8137L119.927 6.89259ZM120.338 7.28941L119.296 8.3683C119.379 8.44906 119.43 8.53377 119.462 8.64589L120.905 8.23583L122.348 7.82578C122.171 7.20509 121.844 6.65885 121.38 6.21052L120.338 7.28941ZM120.905 8.23583L119.462 8.64589L119.618 9.1955L121.061 8.78544L122.504 8.37539L122.348 7.82578L120.905 8.23583ZM121.061 8.78544L119.618 9.1955L119.774 9.74511L121.217 9.33505L122.66 8.92499L122.504 8.37539L121.061 8.78544ZM121.217 9.33505L119.774 9.74511C119.899 10.1842 120.057 10.6138 120.247 11.0337L121.613 10.4151L122.98 9.79649C122.85 9.50911 122.743 9.21874 122.66 8.92499L121.217 9.33505ZM121.613 10.4151L120.247 11.0337L120.487 11.5642L121.854 10.9456L123.22 10.3269L122.98 9.79649L121.613 10.4151ZM121.854 10.9456L120.487 11.5642L120.727 12.0946L122.094 11.476L123.46 10.8574L123.22 10.3269L121.854 10.9456ZM122.094 11.476L120.727 12.0946C120.73 12.1012 120.729 12.1013 120.728 12.0955C120.727 12.0897 120.725 12.0817 120.725 12.073C120.725 12.0645 120.726 12.0595 120.726 12.0596C120.725 12.06 120.724 12.0682 120.718 12.0849L122.135 12.5777L123.552 13.0705C123.805 12.342 123.785 11.5761 123.46 10.8574L122.094 11.476ZM122.135 12.5777L120.718 12.0849L120.52 12.6561L121.936 13.1489L123.353 13.6417L123.552 13.0705L122.135 12.5777ZM121.936 13.1489L120.52 12.6561L120.321 13.2274L121.738 13.7202L123.154 14.213L123.353 13.6417L121.936 13.1489ZM121.738 13.7202L120.321 13.2274C120.154 13.7066 120.041 14.1937 119.985 14.687L121.476 14.8539L122.967 15.0208C122.995 14.7641 123.056 14.4954 123.154 14.213L121.738 13.7202ZM121.476 14.8539L119.985 14.687L119.922 15.2495L121.413 15.4164L122.904 15.5833L122.967 15.0208L121.476 14.8539ZM121.413 15.4164L119.922 15.2495L119.859 15.812L121.35 15.9789L122.841 16.1458L122.904 15.5833L121.413 15.4164ZM121.35 15.9789L119.859 15.812C119.811 16.2439 119.788 16.6764 119.789 17.1093L121.289 17.1039L122.789 17.0985C122.788 16.7814 122.805 16.464 122.841 16.1458L121.35 15.9789ZM121.289 17.1039L119.789 17.1093L119.791 17.6718L121.291 17.6664L122.791 17.661L122.789 17.0985L121.289 17.1039ZM121.291 17.6664L119.791 17.6718L119.793 18.2343L121.293 18.2289L122.793 18.2235L122.791 17.661L121.291 17.6664ZM121.293 18.2289L119.793 18.2343C119.795 18.788 119.895 19.33 120.08 19.8543L121.494 19.3539L122.908 18.8535C122.828 18.6278 122.794 18.4199 122.793 18.2235L121.293 18.2289ZM121.494 19.3539L120.08 19.8543L120.279 20.4168L121.693 19.9164L123.107 19.416L122.908 18.8535L121.494 19.3539ZM121.693 19.9164L120.279 20.4168L120.478 20.9793L121.892 20.4789L123.306 19.9785L123.107 19.416L121.693 19.9164ZM121.892 20.4789L120.478 20.9793C120.598 21.3177 120.702 21.6545 120.792 21.99L122.241 21.6039L123.691 21.2178C123.58 20.8033 123.452 20.3902 123.306 19.9785L121.892 20.4789ZM122.241 21.6039L120.792 21.99L120.942 22.5525L122.391 22.1664L123.841 21.7803L123.691 21.2178L122.241 21.6039ZM122.391 22.1664L120.942 22.5525L121.092 23.115L122.541 22.7289L123.99 22.3428L123.841 21.7803L122.391 22.1664ZM122.541 22.7289L121.092 23.115C121.128 23.2526 121.129 23.3764 121.098 23.5087L122.558 23.8539L124.018 24.1991C124.164 23.5815 124.154 22.9552 123.99 22.3428L122.541 22.7289ZM122.558 23.8539L121.098 23.5087L120.965 24.0712L122.425 24.4164L123.885 24.7616L124.018 24.1991L122.558 23.8539ZM122.425 24.4164L120.965 24.0712L120.832 24.6337L122.292 24.9789L123.751 25.3241L123.885 24.7616L122.425 24.4164ZM122.292 24.9789L120.832 24.6337C120.702 25.1815 120.672 25.7387 120.744 26.2967L122.232 26.1039L123.719 25.9111C123.694 25.7191 123.704 25.5264 123.751 25.3241L122.292 24.9789ZM122.232 26.1039L120.744 26.2967L120.817 26.8592L122.305 26.6664L123.792 26.4736L123.719 25.9111L122.232 26.1039ZM122.305 26.6664L120.817 26.8592L120.89 27.4217L122.377 27.2289L123.865 27.0361L123.792 26.4736L122.305 26.6664ZM122.377 27.2289L120.89 27.4217C120.891 27.4268 120.903 27.4753 120.827 27.6087L122.128 28.3539L123.43 29.0992C123.783 28.4825 123.962 27.781 123.865 27.0361L122.377 27.2289ZM122.128 28.3539L120.827 27.6087L120.505 28.1712L121.806 28.9164L123.108 29.6617L123.43 29.0992L122.128 28.3539ZM121.806 28.9164L120.505 28.1712L120.183 28.7337L121.484 29.4789L122.786 30.2242L123.108 29.6617L121.806 28.9164ZM121.484 29.4789L120.183 28.7337C119.801 29.3992 119.649 30.1661 119.843 30.9603L121.3 30.6039L122.757 30.2475C122.757 30.2475 122.757 30.2479 122.757 30.2486C122.757 30.2493 122.757 30.2504 122.758 30.2517C122.758 30.2545 122.758 30.2581 122.759 30.2622C122.759 30.2712 122.758 30.279 122.757 30.2841C122.757 30.289 122.756 30.2874 122.76 30.2785C122.763 30.2692 122.771 30.2512 122.786 30.2242L121.484 29.4789ZM121.3 30.6039L119.843 30.9603L119.98 31.5228L121.437 31.1664L122.894 30.81L122.757 30.2475L121.3 30.6039ZM121.437 31.1664L119.98 31.5228L120.118 32.0853L121.575 31.7289L123.032 31.3725L122.894 30.81L121.437 31.1664ZM121.575 31.7289L120.118 32.0853C120.221 32.5056 120.344 32.9242 120.487 33.341L121.906 32.8539L123.324 32.3669C123.21 32.0337 123.113 31.7022 123.032 31.3725L121.575 31.7289ZM121.906 32.8539L120.487 33.341L120.68 33.9035L122.099 33.4164L123.518 32.9294L123.324 32.3669L121.906 32.8539ZM122.099 33.4164L120.68 33.9035L120.873 34.466L122.292 33.9789L123.711 33.4919L123.518 32.9294L122.099 33.4164ZM122.292 33.9789L120.873 34.466C120.9 34.5428 120.899 34.5914 120.878 34.659L122.31 35.1039L123.743 35.5489C123.955 34.8665 123.942 34.165 123.711 33.4919L122.292 33.9789ZM122.31 35.1039L120.878 34.659L120.703 35.2215L122.136 35.6664L123.568 36.1114L123.743 35.5489L122.31 35.1039ZM122.136 35.6664L120.703 35.2215L120.528 35.784L121.961 36.2289L123.393 36.6739L123.568 36.1114L122.136 35.6664ZM121.961 36.2289L120.528 35.784C120.352 36.3518 120.293 36.9386 120.364 37.5311L121.853 37.3539L123.343 37.1768C123.324 37.0192 123.337 36.856 123.393 36.6739L121.961 36.2289ZM121.853 37.3539L120.364 37.5311L120.43 38.0936L121.92 37.9164L123.409 37.7393L123.343 37.1768L121.853 37.3539ZM121.92 37.9164L120.43 38.0936L120.497 38.6561L121.987 38.4789L123.476 38.3018L123.409 37.7393L121.92 37.9164ZM121.987 38.4789L120.497 38.6561C120.544 39.0442 120.595 39.4322 120.651 39.8202L122.136 39.6039L123.62 39.3876C123.567 39.0256 123.519 38.6636 123.476 38.3018L121.987 38.4789ZM122.136 39.6039L120.651 39.8202L120.733 40.3827L122.218 40.1664L123.702 39.9501L123.62 39.3876L122.136 39.6039ZM122.218 40.1664L120.733 40.3827L120.815 40.9452L122.3 40.7289L123.784 40.5126L123.702 39.9501L122.218 40.1664ZM122.3 40.7289L120.815 40.9452C120.832 41.0588 120.823 41.1813 120.767 41.3347L122.174 41.8539L123.581 42.3731C123.801 41.7765 123.877 41.149 123.784 40.5126L122.3 40.7289ZM122.174 41.8539L120.767 41.3347L120.559 41.8972L121.967 42.4164L123.374 42.9356L123.581 42.3731L122.174 41.8539ZM121.967 42.4164L120.559 41.8972L120.352 42.4597L121.759 42.9789L123.166 43.4981L123.374 42.9356L121.967 42.4164ZM121.759 42.9789L120.352 42.4597C120.059 43.2544 120.135 44.0672 120.51 44.7928L121.842 44.1039L123.175 43.415C123.166 43.399 123.165 43.3933 123.167 43.3975C123.168 43.4021 123.171 43.4137 123.172 43.4306C123.173 43.4477 123.172 43.4645 123.17 43.479C123.168 43.4931 123.166 43.4999 123.166 43.4981L121.759 42.9789ZM121.842 44.1039L120.51 44.7928L120.801 45.3553L122.133 44.6664L123.466 43.9775L123.175 43.415L121.842 44.1039ZM122.133 44.6664L120.801 45.3553L121.092 45.9178L122.424 45.2289L123.756 44.54L123.466 43.9775L122.133 44.6664ZM122.424 45.2289L121.092 45.9178C121.123 45.9785 121.13 46.0133 121.132 46.0256C121.134 46.036 121.134 46.0443 121.131 46.0588L122.602 46.3542L124.072 46.6496C124.222 45.9053 124.09 45.1847 123.756 44.54L122.424 45.2289ZM122.602 46.3542L121.131 46.0588L121.018 46.6217L122.489 46.9171L123.959 47.2125L124.072 46.6496L122.602 46.3542ZM122.489 46.9171L121.018 46.6217L120.905 47.1845L122.376 47.4799L123.846 47.7753L123.959 47.2125L122.489 46.9171ZM122.376 47.4799L120.905 47.1845C120.796 47.7262 120.78 48.2771 120.848 48.8296L122.337 48.6476L123.825 48.4656C123.794 48.2116 123.804 47.9839 123.846 47.7753L122.376 47.4799ZM122.337 48.6476L120.848 48.8296L120.922 49.4345L122.411 49.2525L123.899 49.0705L123.825 48.4656L122.337 48.6476ZM122.411 49.2525L120.922 49.4345L120.996 50.0394L122.484 49.8574L123.973 49.6755L123.899 49.0705L122.411 49.2525ZM122.484 49.8574L120.996 50.0394C121.004 50.1048 120.996 50.1357 120.963 50.1891L122.238 50.9791L123.513 51.769C123.907 51.1335 124.064 50.4166 123.973 49.6755L122.484 49.8574ZM122.238 50.9791L120.963 50.1891L120.643 50.7058L121.918 51.4958L123.193 52.2857L123.513 51.769L122.238 50.9791ZM121.918 51.4958L120.643 50.7058L120.323 51.2226L121.598 52.0125L122.873 52.8025L123.193 52.2857L121.918 51.4958ZM121.598 52.0125L120.323 51.2226C120.078 51.6181 119.859 52.0243 119.667 52.441L121.029 53.0687L122.392 53.6963C122.531 53.3938 122.691 53.0959 122.873 52.8025L121.598 52.0125ZM121.029 53.0687L119.667 52.441L119.419 52.9805L120.781 53.6082L122.143 54.2358L122.392 53.6963L121.029 53.0687ZM120.781 53.6082L119.419 52.9805L119.17 53.52L120.532 54.1476L121.895 54.7753L122.143 54.2358L120.781 53.6082ZM120.532 54.1476L119.17 53.52C119.177 53.5042 119.191 53.4786 119.215 53.4488C119.24 53.4188 119.268 53.3919 119.298 53.3701C119.36 53.3251 119.393 53.3263 119.352 53.334L119.624 54.809L119.897 56.284C120.744 56.1274 121.496 55.6402 121.895 54.7753L120.532 54.1476ZM119.624 54.809L119.352 53.334L118.692 53.4559L118.964 54.9309L119.237 56.4059L119.897 56.284L119.624 54.809ZM118.964 54.9309L118.692 53.4559L118.032 53.5778L118.305 55.0528L118.577 56.5279L119.237 56.4059L118.964 54.9309ZM118.305 55.0528L118.032 53.5778C117.296 53.7137 116.606 54.066 116.109 54.709L117.295 55.6266L118.482 56.5442C118.48 56.5469 118.476 56.5513 118.471 56.5557C118.466 56.5602 118.463 56.5619 118.464 56.5612C118.466 56.5602 118.497 56.5427 118.577 56.5279L118.305 55.0528ZM117.295 55.6266L116.109 54.709L115.759 55.1609L116.946 56.0785L118.133 56.996L118.482 56.5442L117.295 55.6266ZM116.946 56.0785L115.759 55.1609L115.41 55.6127L116.597 56.5303L117.783 57.4479L118.133 56.996L116.946 56.0785ZM116.597 56.5303L115.41 55.6127C115.262 55.8048 115.077 55.9894 114.849 56.1646L115.762 57.3547L116.675 58.5447C117.094 58.2233 117.466 57.8584 117.783 57.4479L116.597 56.5303ZM115.762 57.3547L114.849 56.1646L114.363 56.5371L115.276 57.7272L116.189 58.9172L116.675 58.5447L115.762 57.3547ZM115.276 57.7272L114.363 56.5371L113.878 56.9096L114.791 58.0996L115.704 59.2897L116.189 58.9172L115.276 57.7272ZM114.791 58.0996L113.878 56.9096C113.869 56.916 113.869 56.915 113.877 56.911C113.886 56.9067 113.899 56.9013 113.917 56.897C113.934 56.8927 113.949 56.8911 113.96 56.8908C113.971 56.8905 113.974 56.8916 113.966 56.8903L113.708 58.3679L113.45 59.8456C114.266 59.988 115.051 59.7907 115.704 59.2897L114.791 58.0996ZM113.708 58.3679L113.966 56.8903L113.369 56.7861L113.111 58.2637L112.853 59.7414L113.45 59.8456L113.708 58.3679ZM113.111 58.2637L113.369 56.7861L112.772 56.6819L112.514 58.1595L112.256 59.6372L112.853 59.7414L113.111 58.2637ZM112.514 58.1595L112.772 56.6819C112.453 56.6261 112.145 56.5463 111.848 56.4429L111.355 57.8594L110.861 59.276C111.314 59.4338 111.78 59.554 112.256 59.6372L112.514 58.1595ZM111.355 57.8594L111.848 56.4429L111.286 56.247L110.792 57.6635L110.299 59.08L110.861 59.276L111.355 57.8594ZM110.792 57.6635L111.286 56.247L110.723 56.051L110.23 57.4676L109.736 58.8841L110.299 59.08L110.792 57.6635ZM110.23 57.4676L110.723 56.051C110.045 55.815 109.338 55.8024 108.651 56.0201L109.105 57.45L109.558 58.8798C109.621 58.8598 109.664 58.8589 109.736 58.8841L110.23 57.4676ZM109.105 57.45L108.651 56.0201L108.089 56.1985L108.542 57.6283L108.996 59.0582L109.558 58.8798L109.105 57.45ZM108.542 57.6283L108.089 56.1985L107.526 56.3768L107.98 57.8067L108.433 59.2365L108.996 59.0582L108.542 57.6283ZM107.98 57.8067L107.526 56.3768C107.394 56.4187 107.285 56.4216 107.172 56.3972L106.855 57.8632L106.537 59.3292C107.175 59.4673 107.815 59.4324 108.433 59.2365L107.98 57.8067ZM106.855 57.8632L107.172 56.3972L106.61 56.2754L106.292 57.7414L105.975 59.2074L106.537 59.3292L106.855 57.8632ZM106.292 57.7414L106.61 56.2754L106.047 56.1535L105.73 57.6195L105.412 59.0855L105.975 59.2074L106.292 57.7414ZM105.73 57.6195L106.047 56.1535C105.422 56.0182 104.792 56.0444 104.181 56.2241L104.605 57.6632L105.028 59.1022C105.167 59.0613 105.287 59.0585 105.412 59.0855L105.73 57.6195ZM104.605 57.6632L104.181 56.2241L103.619 56.3895L104.042 57.8286L104.465 59.2676L105.028 59.1022L104.605 57.6632ZM104.042 57.8286L103.619 56.3895L103.056 56.555L103.48 57.994L103.903 59.4331L104.465 59.2676L104.042 57.8286ZM103.48 57.994L103.056 56.555C102.678 56.6664 102.299 56.7794 101.92 56.8939L102.355 58.3297L102.789 59.7654C103.16 59.6531 103.532 59.5423 103.903 59.4331L103.48 57.994ZM102.355 58.3297L101.92 56.8939L101.358 57.0641L101.792 58.4998L102.227 59.9356L102.789 59.7654L102.355 58.3297ZM101.792 58.4998L101.358 57.0641L100.795 57.2343L101.23 58.67L101.664 60.1058L102.227 59.9356L101.792 58.4998ZM101.23 58.67L100.795 57.2343C100.687 57.2669 100.599 57.2673 100.498 57.2398L100.105 58.6872L99.7109 60.1346C100.36 60.3111 101.022 60.3 101.664 60.1058L101.23 58.67ZM100.105 58.6872L100.498 57.2398L99.9359 57.0867L99.5422 58.5341L99.1484 59.9815L99.7109 60.1346L100.105 58.6872ZM99.5422 58.5341L99.9359 57.0867L99.3734 56.9337L98.9797 58.3811L98.5859 59.8285L99.1484 59.9815L99.5422 58.5341ZM98.9797 58.3811L99.3734 56.9337C98.7479 56.7635 98.108 56.7587 97.4797 56.9209L97.8547 58.3733L98.2296 59.8257C98.3514 59.7942 98.4614 59.7946 98.5859 59.8285L98.9797 58.3811ZM97.8547 58.3733L97.4797 56.9209L96.9172 57.0661L97.2922 58.5185L97.6671 59.9709L98.2296 59.8257L97.8547 58.3733ZM97.2922 58.5185L96.9172 57.0661L96.3547 57.2113L96.7297 58.6637L97.1046 60.1161L97.6671 59.9709L97.2922 58.5185ZM96.7297 58.6637L96.3547 57.2113C96.0855 57.2809 95.8225 57.3178 95.5639 57.3248L95.6047 58.8242L95.6454 60.3237C96.1368 60.3103 96.6239 60.2402 97.1046 60.1161L96.7297 58.6637ZM95.6047 58.8242L95.5639 57.3248L95.0014 57.3401L95.0422 58.8395L95.0829 60.339L95.6454 60.3237L95.6047 58.8242ZM95.0422 58.8395L95.0014 57.3401L94.4389 57.3553L94.4797 58.8548L94.5204 60.3542L95.0829 60.339L95.0422 58.8395ZM94.4797 58.8548L94.4389 57.3553C94.3935 57.3566 94.2966 57.349 94.1251 57.2463L93.3547 58.5333L92.5842 59.8204C93.1628 60.1667 93.8159 60.3734 94.5204 60.3542L94.4797 58.8548ZM93.3547 58.5333L94.1251 57.2463L93.5626 56.9096L92.7922 58.1966L92.0217 59.4836L92.5842 59.8204L93.3547 58.5333ZM92.7922 58.1966L93.5626 56.9096L93.0001 56.5729L92.2297 57.8599L91.4592 59.1469L92.0217 59.4836L92.7922 58.1966ZM92.2297 57.8599L93.0001 56.5729C92.4271 56.2298 91.7824 56.0217 91.0868 56.03L91.1047 57.5299L91.1226 59.0298C91.177 59.0291 91.2823 59.041 91.4592 59.1469L92.2297 57.8599ZM91.1047 57.5299L91.0868 56.03L90.5243 56.0367L90.5422 57.5366L90.5601 59.0365L91.1226 59.0298L91.1047 57.5299ZM90.5422 57.5366L90.5243 56.0367L89.9618 56.0434L89.9797 57.5433L89.9976 59.0432L90.5601 59.0365L90.5422 57.5366ZM89.9797 57.5433L89.9618 56.0434C89.4879 56.049 89.0165 56.1013 88.5487 56.1987L88.8547 57.6672L89.1606 59.1357C89.4429 59.0769 89.7214 59.0465 89.9976 59.0432L89.9797 57.5433ZM88.8547 57.6672L88.5487 56.1987L87.9862 56.3159L88.2922 57.7844L88.5981 59.2529L89.1606 59.1357L88.8547 57.6672ZM88.2922 57.7844L87.9862 56.3159L87.4237 56.4331L87.7297 57.9016L88.0356 59.3701L88.5981 59.2529L88.2922 57.7844ZM87.7297 57.9016L87.4237 56.4331C87.0301 56.5152 86.6367 56.6049 86.2435 56.7025L86.6047 58.1583L86.9658 59.6142C87.3227 59.5257 87.6793 59.4443 88.0356 59.3701L87.7297 57.9016ZM86.6047 58.1583L86.2435 56.7025L85.681 56.842L86.0422 58.2979L86.4033 59.7537L86.9658 59.6142L86.6047 58.1583ZM86.0422 58.2979L85.681 56.842L85.1185 56.9815L85.4797 58.4374L85.8408 59.8933L86.4033 59.7537L86.0422 58.2979ZM85.4797 58.4374L85.1185 56.9815C84.9699 57.0184 84.8323 57.0194 84.687 56.9864L84.3547 58.4491L84.0224 59.9119C84.627 60.0492 85.2395 60.0424 85.8408 59.8933L85.4797 58.4374ZM84.3547 58.4491L84.687 56.9864L84.1245 56.8586L83.7922 58.3214L83.4599 59.7841L84.0224 59.9119L84.3547 58.4491ZM83.7922 58.3214L84.1245 56.8586L83.562 56.7308L83.2297 58.1936L82.8974 59.6563L83.4599 59.7841L83.7922 58.3214ZM83.2297 58.1936L83.562 56.7308C83.2601 56.6623 82.9539 56.569 82.643 56.4494L82.1047 57.8495L81.5663 59.2495C82.0054 59.4184 82.4492 59.5545 82.8974 59.6563L83.2297 58.1936ZM82.1047 57.8495L82.643 56.4494L82.0805 56.2331L81.5422 57.6332L81.0038 59.0332L81.5663 59.2495L82.1047 57.8495ZM81.5422 57.6332L82.0805 56.2331L81.518 56.0168L80.9797 57.4169L80.4413 58.8169L81.0038 59.0332L81.5422 57.6332ZM80.9797 57.4169L81.518 56.0168C80.853 55.7611 80.1486 55.7184 79.4529 55.9117L79.8547 57.3569L80.2564 58.8021C80.3108 58.787 80.3563 58.7843 80.4413 58.8169L80.9797 57.4169ZM79.8547 57.3569L79.4529 55.9117L78.8904 56.0681L79.2922 57.5133L79.6939 58.9585L80.2564 58.8021L79.8547 57.3569ZM79.2922 57.5133L78.8904 56.0681L78.3279 56.2245L78.7297 57.6697L79.1314 59.1149L79.6939 58.9585L79.2922 57.5133ZM78.7297 57.6697L78.3279 56.2245C78.0432 56.3036 77.764 56.3527 77.4891 56.374L77.6047 57.8695L77.7203 59.365C78.1954 59.3283 78.6661 59.2442 79.1314 59.1149L78.7297 57.6697ZM77.6047 57.8695L77.4891 56.374L76.9266 56.4174L77.0422 57.913L77.1578 59.4085L77.7203 59.365L77.6047 57.8695ZM77.0422 57.913L76.9266 56.4174L76.3641 56.4609L76.4797 57.9565L76.5953 59.452L77.1578 59.4085L77.0422 57.913ZM76.4797 57.9565L76.3641 56.4609C76.1075 56.4808 75.8505 56.4704 75.5906 56.429L75.3547 57.9104L75.1188 59.3917C75.6088 59.4698 76.1018 59.4902 76.5953 59.452L76.4797 57.9565ZM75.3547 57.9104L75.5906 56.429L75.0281 56.3395L74.7922 57.8208L74.5563 59.3021L75.1188 59.3917L75.3547 57.9104ZM74.7922 57.8208L75.0281 56.3395L74.4656 56.2499L74.2297 57.7312L73.9938 59.2125L74.5563 59.3021L74.7922 57.8208ZM74.2297 57.7312L74.4656 56.2499C73.8361 56.1496 73.2121 56.2119 72.6149 56.4182L73.1047 57.8359L73.5945 59.2537C73.7473 59.2009 73.8733 59.1933 73.9938 59.2125L74.2297 57.7312ZM73.1047 57.8359L72.6149 56.4182L72.0524 56.6125L72.5422 58.0303L73.032 59.4481L73.5945 59.2537L73.1047 57.8359ZM72.5422 58.0303L72.0524 56.6125L71.4899 56.8068L71.9797 58.2246L72.4695 59.6424L73.032 59.4481L72.5422 58.0303ZM71.9797 58.2246L71.4899 56.8068C71.4834 56.809 71.4841 56.8082 71.4909 56.8073C71.4941 56.8068 71.4981 56.8064 71.5026 56.8063C71.5072 56.8061 71.5117 56.8062 71.5161 56.8064C71.5252 56.8071 71.5301 56.8084 71.5294 56.8082C71.5284 56.8079 71.5191 56.8053 71.5011 56.7967L70.8547 58.1503L70.2082 59.5038C70.9201 59.8438 71.7028 59.9072 72.4695 59.6424L71.9797 58.2246ZM70.8547 58.1503L71.5011 56.7967L70.9386 56.5281L70.2922 57.8816L69.6457 59.2352L70.2082 59.5038L70.8547 58.1503ZM70.2922 57.8816L70.9386 56.5281L70.3761 56.2594L69.7297 57.613L69.0832 58.9665L69.6457 59.2352L70.2922 57.8816ZM69.7297 57.613L70.3761 56.2594C69.853 56.0096 69.3004 55.8502 68.7245 55.804L68.6047 57.2992L68.4848 58.7944C68.6589 58.8084 68.8563 58.8581 69.0832 58.9665L69.7297 57.613ZM68.6047 57.2992L68.7245 55.804L68.162 55.7589L68.0422 57.2541L67.9223 58.7493L68.4848 58.7944L68.6047 57.2992ZM68.0422 57.2541L68.162 55.7589L67.5995 55.7138L67.4797 57.209L67.3598 58.7042L67.9223 58.7493L68.0422 57.2541ZM67.4797 57.209L67.5995 55.7138C66.8633 55.6548 66.1796 55.8571 65.5813 56.2171L66.3547 57.5024L67.128 58.7876C67.2798 58.6963 67.346 58.7031 67.3598 58.7042L67.4797 57.209ZM66.3547 57.5024L65.5813 56.2171L65.0188 56.5555L65.7922 57.8408L66.5655 59.1261L67.128 58.7876L66.3547 57.5024ZM65.7922 57.8408L65.0188 56.5555L64.4563 56.894L65.2297 58.1793L66.003 59.4645L66.5655 59.1261L65.7922 57.8408ZM65.2297 58.1793L64.4563 56.894C64.2771 57.0018 64.1691 57.0151 64.1123 57.0149L64.1047 58.5148L64.097 60.0148C64.7903 60.0183 65.4322 59.808 66.003 59.4645L65.2297 58.1793ZM64.1047 58.5148L64.1123 57.0149L63.5498 57.012L63.5422 58.512L63.5345 60.012L64.097 60.0148L64.1047 58.5148ZM63.5422 58.512L63.5498 57.012L62.9873 57.0091L62.9797 58.5091L62.972 60.0091L63.5345 60.012L63.5422 58.512ZM62.9797 58.5091L62.9873 57.0091C62.7036 57.0077 62.4182 56.9805 62.13 56.9267L61.8547 58.4012L61.5794 59.8758C62.0411 59.962 62.5057 60.0067 62.972 60.0091L62.9797 58.5091ZM61.8547 58.4012L62.13 56.9267L61.5675 56.8217L61.2922 58.2962L61.0169 59.7708L61.5794 59.8758L61.8547 58.4012ZM61.2922 58.2962L61.5675 56.8217L61.0049 56.7167L60.7297 58.1912L60.4544 59.6657L61.0169 59.7708L61.2922 58.2962ZM60.7297 58.1912L61.0049 56.7167C60.6281 56.6463 60.2512 56.5767 59.8743 56.5078L59.6047 57.9834L59.335 59.459C59.7081 59.5272 60.0813 59.5961 60.4544 59.6657L60.7297 58.1912ZM59.6047 57.9834L59.8743 56.5078L59.3118 56.405L59.0422 57.8806L58.7725 59.3562L59.335 59.459L59.6047 57.9834ZM59.0422 57.8806L59.3118 56.405L58.7493 56.3023L58.4797 57.7778L58.21 59.2534L58.7725 59.3562L59.0422 57.8806ZM58.4797 57.7778L58.7493 56.3023C58.0229 56.1695 57.3196 56.2968 56.6846 56.6139L57.3547 57.9559L58.0247 59.2979C58.1397 59.2405 58.1865 59.2491 58.21 59.2534L58.4797 57.7778ZM57.3547 57.9559L56.6846 56.6139L56.1221 56.8947L56.7922 58.2367L57.4622 59.5788L58.0247 59.2979L57.3547 57.9559ZM56.7922 58.2367L56.1221 56.8947L55.5596 57.1756L56.2297 58.5176L56.8997 59.8596L57.4622 59.5788L56.7922 58.2367ZM56.2297 58.5176L55.5596 57.1756C55.5879 57.1615 55.6719 57.131 55.7871 57.1403C55.8964 57.149 55.948 57.1867 55.9306 57.1753L55.1047 58.4274L54.2787 59.6795C55.0614 60.1958 56.0052 60.3063 56.8997 59.8596L56.2297 58.5176ZM55.1047 58.4274L55.9306 57.1753L55.3681 56.8042L54.5422 58.0563L53.7162 59.3084L54.2787 59.6795L55.1047 58.4274ZM54.5422 58.0563L55.3681 56.8042L54.8056 56.4332L53.9797 57.6853L53.1537 58.9374L53.7162 59.3084L54.5422 58.0563ZM53.9797 57.6853L54.8056 56.4332C54.1584 56.0062 53.3798 55.7891 52.5454 55.9649L52.8547 57.4327L53.1639 58.9005C53.1549 58.9024 53.1415 58.9041 53.1256 58.904C53.1096 58.9039 53.0967 58.902 53.0886 58.9002C53.0717 58.8964 53.0927 58.8971 53.1537 58.9374L53.9797 57.6853ZM52.8547 57.4327L52.5454 55.9649L51.9829 56.0834L52.2922 57.5512L52.6014 59.019L53.1639 58.9005L52.8547 57.4327ZM52.2922 57.5512L51.9829 56.0834L51.4204 56.2019L51.7297 57.6697L52.0389 59.1375L52.6014 59.019L52.2922 57.5512ZM51.7297 57.6697L51.4204 56.2019C51.2385 56.2403 51.0636 56.2419 50.884 56.2078L50.6047 57.6816L50.3253 59.1553C50.8958 59.2635 51.4708 59.2572 52.0389 59.1375L51.7297 57.6697ZM50.6047 57.6816L50.884 56.2078L50.3215 56.1012L50.0422 57.575L49.7628 59.0487L50.3253 59.1553L50.6047 57.6816ZM50.0422 57.575L50.3215 56.1012L49.759 55.9946L49.4797 57.4683L49.2003 58.9421L49.7628 59.0487L50.0422 57.575ZM49.4797 57.4683L49.759 55.9946C49.141 55.8774 48.5221 55.9142 47.9226 56.0945L48.3547 57.5309L48.7868 58.9673C48.9373 58.922 49.0683 58.9171 49.2003 58.9421L49.4797 57.4683ZM48.3547 57.5309L47.9226 56.0945L47.3601 56.2637L47.7922 57.7001L48.2243 59.1365L48.7868 58.9673L48.3547 57.5309ZM47.7922 57.7001L47.3601 56.2637L46.7976 56.4329L47.2297 57.8693L47.6618 59.3057L48.2243 59.1365L47.7922 57.7001ZM47.2297 57.8693L46.7976 56.4329C46.6046 56.4909 46.4285 56.5061 46.258 56.4886L46.1047 57.9807L45.9513 59.4729C46.5309 59.5324 47.1047 59.4733 47.6618 59.3057L47.2297 57.8693ZM46.1047 57.9807L46.258 56.4886L45.6955 56.4308L45.5422 57.9229L45.3888 59.4151L45.9513 59.4729L46.1047 57.9807ZM45.5422 57.9229L45.6955 56.4308L45.133 56.373L44.9797 57.8651L44.8263 59.3573L45.3888 59.4151L45.5422 57.9229ZM44.9797 57.8651L45.133 56.373C44.6524 56.3236 44.171 56.3254 43.6906 56.3782L43.8547 57.8692L44.0187 59.3602C44.2884 59.3305 44.557 59.3296 44.8263 59.3573L44.9797 57.8651ZM43.8547 57.8692L43.6906 56.3782L43.1281 56.4401L43.2922 57.9311L43.4562 59.4221L44.0187 59.3602L43.8547 57.8692ZM43.2922 57.9311L43.1281 56.4401L42.5656 56.502L42.7297 57.993L42.8937 59.484L43.4562 59.4221L43.2922 57.9311ZM42.7297 57.993L42.5656 56.502C42.4249 56.5175 42.2748 56.5035 42.0996 56.4423L41.6047 57.8583L41.1097 59.2743C41.6846 59.4752 42.2845 59.5511 42.8937 59.484L42.7297 57.993ZM41.6047 57.8583L42.0996 56.4423L41.5371 56.2457L41.0422 57.6617L40.5472 59.0777L41.1097 59.2743L41.6047 57.8583ZM41.0422 57.6617L41.5371 56.2457L40.9746 56.0491L40.4797 57.4651L39.9847 58.8811L40.5472 59.0777L41.0422 57.6617ZM40.4797 57.4651L40.9746 56.0491C40.1689 55.7675 39.3559 55.8665 38.6402 56.2543L39.3547 57.5732L40.0692 58.8921C40.0871 58.8824 40.0945 58.8803 40.0917 58.8812C40.0885 58.8823 40.0776 58.8853 40.0607 58.8869C40.0435 58.8886 40.0259 58.8882 40.0099 58.8862C40.0022 58.8852 39.9961 58.884 39.9916 58.8829C39.9894 58.8824 39.9877 58.8819 39.9865 58.8816C39.9853 58.8813 39.9847 58.8811 39.9847 58.8811L40.4797 57.4651ZM39.3547 57.5732L38.6402 56.2543L38.0777 56.559L38.7922 57.8779L39.5067 59.1968L40.0692 58.8921L39.3547 57.5732ZM38.7922 57.8779L38.0777 56.559L37.5152 56.8638L38.2297 58.1827L38.9442 59.5016L39.5067 59.1968L38.7922 57.8779ZM38.2297 58.1827L37.5152 56.8638C37.5135 56.8647 37.5273 56.857 37.5557 56.8493C37.5849 56.8414 37.6228 56.8353 37.666 56.8353C37.7092 56.8352 37.7471 56.8413 37.7765 56.8492C37.8051 56.8569 37.819 56.8646 37.8176 56.8638L37.1047 58.1836L36.3918 59.5033C37.2126 59.9467 38.1244 59.9457 38.9442 59.5016L38.2297 58.1827ZM37.1047 58.1836L37.8176 56.8638L37.2551 56.56L36.5422 57.8797L35.8293 59.1995L36.3918 59.5033L37.1047 58.1836ZM36.5422 57.8797L37.2551 56.56L36.6926 56.2561L35.9797 57.5759L35.2668 58.8956L35.8293 59.1995L36.5422 57.8797ZM35.9797 57.5759L36.6926 56.2561C35.9163 55.8368 35.0434 55.7919 34.2236 56.1721L34.8547 57.5329L35.4858 58.8937C35.4858 58.8937 35.485 58.8941 35.4833 58.8947C35.4817 58.8954 35.4792 58.8963 35.476 58.8974C35.4694 58.8996 35.4601 58.9024 35.4481 58.9049C35.4232 58.9102 35.3928 58.9134 35.3599 58.9121C35.2887 58.9094 35.2537 58.8886 35.2668 58.8956L35.9797 57.5759ZM34.8547 57.5329L34.2236 56.1721L33.6611 56.433L34.2922 57.7938L34.9233 59.1546L35.4858 58.8937L34.8547 57.5329ZM34.2922 57.7938L33.6611 56.433L33.0986 56.6939L33.7297 58.0547L34.3608 59.4155L34.9233 59.1546L34.2922 57.7938ZM33.7297 58.0547L33.0986 56.6939C32.7999 56.8324 32.5098 56.9365 32.2276 57.0098L32.6047 58.4617L32.9817 59.9135C33.4496 59.792 33.9094 59.6248 34.3608 59.4155L33.7297 58.0547ZM32.6047 58.4617L32.2276 57.0098L31.6651 57.1559L32.0422 58.6077L32.4192 60.0596L32.9817 59.9135L32.6047 58.4617ZM32.0422 58.6077L31.6651 57.1559L31.1026 57.302L31.4797 58.7538L31.8567 60.2057L32.4192 60.0596L32.0422 58.6077ZM31.4797 58.7538L31.1026 57.302C31.018 57.324 30.942 57.3239 30.8379 57.2885L30.3547 58.7085L29.8714 60.1285C30.5173 60.3483 31.1913 60.3785 31.8567 60.2057L31.4797 58.7538ZM30.3547 58.7085L30.8379 57.2885L30.2754 57.097L29.7922 58.517L29.3089 59.9371L29.8714 60.1285L30.3547 58.7085ZM29.7922 58.517L30.2754 57.097L29.7129 56.9056L29.2297 58.3256L28.7464 59.7456L29.3089 59.9371L29.7922 58.517ZM29.2297 58.3256L29.7129 56.9056C29.2798 56.7582 28.8433 56.6393 28.4039 56.5498L28.1047 58.0197L27.8055 59.4896C28.116 59.5528 28.4296 59.6378 28.7464 59.7456L29.2297 58.3256ZM28.1047 58.0197L28.4039 56.5498L27.8414 56.4353L27.5422 57.9052L27.243 59.3751L27.8055 59.4896L28.1047 58.0197ZM27.5422 57.9052L27.8414 56.4353L27.2789 56.3208L26.9797 57.7907L26.6805 59.2606L27.243 59.3751L27.5422 57.9052ZM26.9797 57.7907L27.2789 56.3208C26.7301 56.2091 26.1749 56.1959 25.6218 56.2828L25.8547 57.7646L26.0876 59.2464C26.2845 59.2155 26.4793 59.2196 26.6805 59.2606L26.9797 57.7907ZM25.8547 57.7646L25.6218 56.2828L25.0593 56.3712L25.2922 57.853L25.5251 59.3349L26.0876 59.2464L25.8547 57.7646ZM25.2922 57.853L25.0593 56.3712L24.4968 56.4596L24.7297 57.9415L24.9626 59.4233L25.5251 59.3349L25.2922 57.853ZM24.7297 57.9415L24.4968 56.4596C24.0996 56.5221 23.7027 56.5936 23.306 56.6742L23.6047 58.1441L23.9033 59.6141C24.2567 59.5423 24.6098 59.4787 24.9626 59.4233L24.7297 57.9415ZM23.6047 58.1441L23.306 56.6742L22.7435 56.7885L23.0422 58.2584L23.3408 59.7284L23.9033 59.6141L23.6047 58.1441ZM23.0422 58.2584L22.7435 56.7885L22.181 56.9028L22.4797 58.3727L22.7783 59.8427L23.3408 59.7284L23.0422 58.2584ZM22.4797 58.3727L22.181 56.9028C21.935 56.9527 21.6944 56.9686 21.4555 56.9525L21.3547 58.4491L21.2538 59.9457C21.765 59.9802 22.2743 59.9451 22.7783 59.8427L22.4797 58.3727ZM21.3547 58.4491L21.4555 56.9525L20.893 56.9146L20.7922 58.4112L20.6913 59.9078L21.2538 59.9457L21.3547 58.4491ZM20.7922 58.4112L20.893 56.9146L20.3305 56.8767L20.2297 58.3733L20.1288 59.8699L20.6913 59.9078L20.7922 58.4112ZM20.2297 58.3733L20.3305 56.8767C19.9849 56.8534 19.639 56.8198 19.2928 56.7761L19.1047 58.2642L18.9165 59.7524C19.3204 59.8034 19.7245 59.8426 20.1288 59.8699L20.2297 58.3733ZM19.1047 58.2642L19.2928 56.7761L18.7303 56.7049L18.5422 58.1931L18.354 59.6813L18.9165 59.7524L19.1047 58.2642ZM18.5422 58.1931L18.7303 56.7049L18.1678 56.6338L17.9797 58.122L17.7915 59.6101L18.354 59.6813L18.5422 58.1931ZM17.9797 58.122L18.1678 56.6338C17.6018 56.5623 17.0376 56.5996 16.4848 56.7403L16.8547 58.194L17.2246 59.6477C17.4218 59.5975 17.6075 59.5869 17.7915 59.6101L17.9797 58.122ZM16.8547 58.194L16.4848 56.7403L15.9223 56.8834L16.2922 58.3371L16.6621 59.7908L17.2246 59.6477L16.8547 58.194ZM16.2922 58.3371L15.9223 56.8834L15.3598 57.0265L15.7297 58.4802L16.0996 59.9339L16.6621 59.7908L16.2922 58.3371ZM15.7297 58.4802L15.3598 57.0265C15.3032 57.041 15.2497 57.0436 15.1546 57.0061L14.6047 58.4017L14.0547 59.7973C14.7096 60.0553 15.4062 60.1103 16.0996 59.9339L15.7297 58.4802ZM14.6047 58.4017L15.1546 57.0061L14.5921 56.7845L14.0422 58.18L13.4922 59.5756L14.0547 59.7973L14.6047 58.4017ZM14.0422 58.18L14.5921 56.7845L14.0296 56.5628L13.4797 57.9584L12.9297 59.3539L13.4922 59.5756L14.0422 58.18ZM13.4797 57.9584L14.0296 56.5628C13.3318 56.2879 12.5967 56.2648 11.884 56.4905L12.3369 57.9205L12.7898 59.3505C12.8507 59.3312 12.8775 59.3334 12.9297 59.3539L13.4797 57.9584ZM12.3369 57.9205L11.884 56.4905L11.3037 56.6743L11.7566 58.1043L12.2095 59.5343L12.7898 59.3505L12.3369 57.9205ZM11.7566 58.1043L11.3037 56.6743L10.7234 56.8581L11.1763 58.2881L11.6292 59.7181L12.2095 59.5343L11.7566 58.1043ZM11.1763 58.2881L10.7234 56.8581C10.7352 56.8543 10.799 56.8387 10.8909 56.8556C10.933 56.8634 10.9684 56.8758 10.9951 56.8883C11.0211 56.9005 11.0332 56.9101 11.0323 56.9094L10.1091 58.0916L9.18596 59.2739C9.8934 59.8263 10.7625 59.9925 11.6292 59.7181L11.1763 58.2881ZM10.1091 58.0916L11.0323 56.9094L10.5454 56.5292L9.62223 57.7115L8.69906 58.8937L9.18596 59.2739L10.1091 58.0916ZM9.62223 57.7115L10.5454 56.5292L10.0585 56.149L9.13533 57.3313L8.21217 58.5135L8.69906 58.8937L9.62223 57.7115ZM9.13533 57.3313L10.0585 56.149C9.52303 55.7309 8.90307 55.4703 8.22219 55.3934L8.05396 56.884L7.88573 58.3745C7.99749 58.3871 8.09844 58.4247 8.21217 58.5135L9.13533 57.3313ZM8.05396 56.884L8.22219 55.3934L7.62771 55.3264L7.45949 56.8169L7.29126 58.3074L7.88573 58.3745L8.05396 56.884ZM7.45949 56.8169L7.62771 55.3264L7.03324 55.2593L6.86501 56.7498L6.69678 58.2403L7.29126 58.3074L7.45949 56.8169ZM6.86501 56.7498L7.03324 55.2593C7.03191 55.2591 7.04443 55.2604 7.06681 55.268C7.08973 55.2758 7.11764 55.2883 7.14687 55.3069C7.21066 55.3475 7.23973 55.39 7.24301 55.3954L5.96172 56.1754L4.68042 56.9553C5.12954 57.6931 5.84346 58.144 6.69678 58.2403L6.86501 56.7498ZM5.96172 56.1754L7.24301 55.3954L6.9342 54.8881L5.6529 55.668L4.37161 56.448L4.68042 56.9553L5.96172 56.1754ZM5.6529 55.668L6.9342 54.8881L6.62538 54.3808L5.34409 55.1607L4.06279 55.9406L4.37161 56.448L5.6529 55.668ZM5.34409 55.1607L6.62538 54.3808C6.42171 54.0462 6.22954 53.7272 6.04882 53.4239L4.76022 54.1917L3.47161 54.9595C3.65764 55.2717 3.85471 55.5988 4.06279 55.9406L5.34409 55.1607ZM4.76022 54.1917L6.04882 53.4239L5.77377 52.9623L4.48516 53.7301L3.19655 54.4979L3.47161 54.9595L4.76022 54.1917ZM4.48516 53.7301L5.77377 52.9623L5.49871 52.5007L4.2101 53.2684L2.9215 54.0362L3.19655 54.4979L4.48516 53.7301ZM4.2101 53.2684L5.49871 52.5007C5.20086 52.0008 4.80022 51.5802 4.33779 51.2276L3.42832 52.4204L2.51884 53.6133C2.73205 53.7758 2.8526 53.9206 2.9215 54.0362L4.2101 53.2684ZM3.42832 52.4204L4.33779 51.2276L3.83107 50.8413L2.92159 52.0341L2.01211 53.2269L2.51884 53.6133L3.42832 52.4204ZM2.92159 52.0341L3.83107 50.8413L3.32434 50.4549L2.41486 51.6477L1.50538 52.8406L2.01211 53.2269L2.92159 52.0341ZM2.41486 51.6477L3.32434 50.4549C3.33323 50.4617 3.41564 50.5301 3.47093 50.6764C3.52735 50.8256 3.51284 50.9429 3.50566 50.9758L2.04011 50.6562L0.574554 50.3366C0.479398 50.7729 0.483351 51.2572 0.664687 51.737C0.844897 52.2138 1.15868 52.5762 1.50538 52.8406L2.41486 51.6477ZM2.04011 50.6562L3.50566 50.9758L3.63764 50.3707L2.17208 50.0511L0.706528 49.7315L0.574554 50.3366L2.04011 50.6562ZM2.17208 50.0511L3.63764 50.3707L3.76961 49.7655L2.30406 49.4459L0.838501 49.1263L0.706528 49.7315L2.17208 50.0511ZM2.30406 49.4459L3.76961 49.7655C3.87747 49.2709 3.93628 48.7791 3.93816 48.2928L2.43817 48.287L0.93818 48.2812C0.937206 48.5333 0.906607 48.814 0.838501 49.1263L2.30406 49.4459ZM2.43817 48.287L3.93816 48.2928L3.9403 47.7391L2.44031 47.7333L0.94032 47.7275L0.93818 48.2812L2.43817 48.287ZM2.44031 47.7333L3.9403 47.7391L3.94244 47.1853L2.44245 47.1795L0.942461 47.1737L0.94032 47.7275L2.44031 47.7333ZM2.44245 47.1795L3.94244 47.1853C3.94473 46.5931 3.8173 46.0207 3.58747 45.4781L2.20629 46.0633L0.825121 46.6484C0.913015 46.8559 0.943025 47.0276 0.942461 47.1737L2.44245 47.1795ZM2.20629 46.0633L3.58747 45.4781L3.34917 44.9156L1.968 45.5008L0.586826 46.0859L0.825121 46.6484L2.20629 46.0633ZM1.968 45.5008L3.34917 44.9156L3.11088 44.3531L1.72971 44.9383L0.348531 45.5234L0.586826 46.0859L1.968 45.5008ZM1.72971 44.9383L3.11088 44.3531C3.1058 44.3412 3.10553 44.3377 3.10644 44.3419C3.10741 44.3464 3.10874 44.3551 3.10881 44.3666C3.10888 44.378 3.10766 44.3872 3.10659 44.3924C3.10558 44.3974 3.10554 44.3948 3.11002 44.3839L1.72282 43.8133L0.335623 43.2426C0.028137 43.99 0.0341183 44.7812 0.348531 45.5234L1.72971 44.9383ZM1.72282 43.8133L3.11002 44.3839L3.34143 43.8214L1.95423 43.2508L0.567032 42.6801L0.335623 43.2426L1.72282 43.8133ZM1.95423 43.2508L3.34143 43.8214L3.57284 43.2589L2.18564 42.6883L0.798442 42.1176L0.567032 42.6801L1.95423 43.2508ZM2.18564 42.6883L3.57284 43.2589C3.87903 42.5147 3.87581 41.7262 3.56585 40.9847L2.18191 41.5633L0.797962 42.1418C0.802993 42.1538 0.803344 42.1576 0.802537 42.1537C0.801673 42.1496 0.800455 42.1415 0.800419 42.1307C0.800384 42.12 0.801549 42.1116 0.802466 42.1071C0.803329 42.1029 0.80315 42.1061 0.798442 42.1176L2.18564 42.6883ZM2.18191 41.5633L3.56585 40.9847L3.33071 40.4222L1.94677 41.0008L0.562821 41.5793L0.797962 42.1418L2.18191 41.5633ZM1.94677 41.0008L3.33071 40.4222L3.09557 39.8597L1.71162 40.4383L0.327679 41.0168L0.562821 41.5793L1.94677 41.0008ZM1.71162 40.4383L3.09557 39.8597C3.08901 39.844 3.08715 39.8359 3.08691 39.8349C3.08672 39.834 3.08745 39.8372 3.08757 39.8431C3.0877 39.8491 3.08714 39.8535 3.08687 39.855C3.08664 39.8563 3.08735 39.8514 3.09186 39.8393L1.68713 39.3133L0.282399 38.7872C0.00589609 39.5256 0.026172 40.2955 0.327679 41.0168L1.71162 40.4383ZM1.68713 39.3133L3.09186 39.8393L3.30251 39.2768L1.89778 38.7508L0.493047 38.2247L0.282399 38.7872L1.68713 39.3133ZM1.89778 38.7508L3.30251 39.2768L3.51316 38.7143L2.10843 38.1883L0.703695 37.6622L0.493047 38.2247L1.89778 38.7508ZM2.10843 38.1883L3.51316 38.7143C3.72862 38.139 3.8173 37.5348 3.7573 36.918L2.26435 37.0633L0.771397 37.2085C0.78436 37.3418 0.769097 37.4876 0.703695 37.6622L2.10843 38.1883ZM2.26435 37.0633L3.7573 36.918L3.70257 36.3555L2.20962 36.5008L0.716671 36.646L0.771397 37.2085L2.26435 37.0633ZM2.20962 36.5008L3.70257 36.3555L3.64785 35.793L2.15489 35.9383L0.661944 36.0835L0.716671 36.646L2.20962 36.5008ZM2.15489 35.9383L3.64785 35.793C3.62696 35.5784 3.63971 35.362 3.68937 35.1382L2.22499 34.8133L0.760617 34.4883C0.643847 35.0145 0.60986 35.5482 0.661944 36.0835L2.15489 35.9383ZM2.22499 34.8133L3.68937 35.1382L3.8142 34.5757L2.34982 34.2508L0.885442 33.9258L0.760617 34.4883L2.22499 34.8133ZM2.34982 34.2508L3.8142 34.5757L3.93902 34.0132L2.47464 33.6883L1.01027 33.3633L0.885442 33.9258L2.34982 34.2508ZM2.47464 33.6883L3.93902 34.0132C4.05648 33.4839 4.08897 32.947 4.03318 32.4086L2.54117 32.5633L1.04916 32.7179C1.0711 32.9295 1.05924 33.1426 1.01027 33.3633L2.47464 33.6883ZM2.54117 32.5633L4.03318 32.4086L3.97489 31.8461L2.48288 32.0008L0.99087 32.1554L1.04916 32.7179L2.54117 32.5633ZM2.48288 32.0008L3.97489 31.8461L3.91659 31.2836L2.42459 31.4383L0.932576 31.5929L0.99087 32.1554L2.48288 32.0008ZM2.42459 31.4383L3.91659 31.2836C3.87522 30.8844 3.82404 30.4854 3.76307 30.0866L2.2803 30.3133L0.797523 30.5399C0.851216 30.8912 0.896225 31.2421 0.932576 31.5929L2.42459 31.4383ZM2.2803 30.3133L3.76307 30.0866L3.67707 29.5241L2.1943 29.7508L0.711527 29.9774L0.797523 30.5399L2.2803 30.3133ZM2.1943 29.7508L3.67707 29.5241L3.59108 28.9616L2.1083 29.1883L0.625532 29.4149L0.711527 29.9774L2.1943 29.7508ZM2.1083 29.1883L3.59108 28.9616C3.562 28.7714 3.56772 28.5826 3.61106 28.3857L2.14613 28.0633L0.681195 27.7408C0.559438 28.2939 0.539942 28.8551 0.625532 29.4149L2.1083 29.1883ZM2.14613 28.0633L3.61106 28.3857L3.73487 27.8232L2.26994 27.5008L0.805012 27.1783L0.681195 27.7408L2.14613 28.0633ZM2.26994 27.5008L3.73487 27.8232L3.85869 27.2607L2.39376 26.9383L0.928829 26.6158L0.805012 27.1783L2.26994 27.5008ZM2.39376 26.9383L3.85869 27.2607C4.01629 26.5448 3.92149 25.8393 3.62662 25.1917L2.26146 25.8133L0.896308 26.4348C0.942924 26.5372 0.93632 26.5818 0.928829 26.6158L2.39376 26.9383ZM2.26146 25.8133L3.62662 25.1917L3.37051 24.6292L2.00535 25.2508L0.640195 25.8723L0.896308 26.4348L2.26146 25.8133ZM2.00535 25.2508L3.37051 24.6292L3.11439 24.0667L1.74924 24.6883L0.384082 25.3098L0.640195 25.8723L2.00535 25.2508ZM1.74924 24.6883L3.11439 24.0667C3.11409 24.066 3.11927 24.0774 3.12392 24.0996C3.12869 24.1224 3.13156 24.1502 3.13046 24.1805C3.12805 24.2464 3.10917 24.2781 3.11659 24.264L1.79034 23.5633L0.464084 22.8625C0.0562592 23.6344 0.0142338 24.4975 0.384082 25.3098L1.74924 24.6883ZM1.79034 23.5633L3.11659 24.264L3.4138 23.7015L2.08755 23.0008L0.761294 22.3L0.464084 22.8625L1.79034 23.5633ZM2.08755 23.0008L3.4138 23.7015L3.71101 23.139L2.38476 22.4383L1.0585 21.7375L0.761294 22.3L2.08755 23.0008ZM2.38476 22.4383L3.71101 23.139C4.03581 22.5243 4.18986 21.8386 4.09584 21.1189L2.60848 21.3133L1.12112 21.5076C1.12508 21.5379 1.12998 21.6022 1.0585 21.7375L2.38476 22.4383ZM2.60848 21.3133L4.09584 21.1189L4.02235 20.5564L2.53499 20.7508L1.04763 20.9451L1.12112 21.5076L2.60848 21.3133ZM2.53499 20.7508L4.02235 20.5564L3.94886 19.9939L2.4615 20.1883L0.974139 20.3826L1.04763 20.9451L2.53499 20.7508ZM2.4615 20.1883L3.94886 19.9939C3.90785 19.6801 3.88658 19.3672 3.88483 19.0548L2.38485 19.0633L0.884878 19.0717C0.887334 19.5094 0.917161 19.9465 0.974139 20.3826L2.4615 20.1883ZM2.38485 19.0633L3.88483 19.0548L3.88167 18.4923L2.3817 18.5008L0.881722 18.5092L0.884878 19.0717L2.38485 19.0633ZM2.3817 18.5008L3.88167 18.4923L3.87852 17.9298L2.37854 17.9383L0.878566 17.9467L0.881722 18.5092L2.3817 18.5008ZM2.37854 17.9383L3.87852 17.9298C3.87674 17.6122 3.89312 17.2942 3.92779 16.9755L2.43659 16.8133L0.945388 16.651C0.898457 17.0824 0.87614 17.5143 0.878566 17.9467L2.37854 17.9383ZM2.43659 16.8133L3.92779 16.9755L3.98899 16.413L2.49779 16.2508L1.00659 16.0885L0.945388 16.651L2.43659 16.8133ZM2.49779 16.2508L3.98899 16.413L4.05019 15.8505L2.55899 15.6883L1.06779 15.526L1.00659 16.0885L2.49779 16.2508ZM2.55899 15.6883L4.05019 15.8505C4.09986 15.3939 4.11187 14.9367 4.08591 14.4796L2.58832 14.5646L1.09073 14.6497C1.10727 14.9408 1.09972 15.2326 1.06779 15.526L2.55899 15.6883ZM2.58832 14.5646L4.08591 14.4796L4.05404 13.9184L2.55645 14.0035L1.05886 14.0886L1.09073 14.6497L2.58832 14.5646ZM2.55645 14.0035L4.05404 13.9184L4.02217 13.3573L2.52458 13.4424L1.027 13.5274L1.05886 14.0886L2.55645 14.0035ZM2.52458 13.4424L4.02217 13.3573C4.00776 13.1035 4.02484 12.8716 4.06803 12.6574L2.59762 12.3609L1.12722 12.0644C1.03053 12.544 0.998916 13.033 1.027 13.5274L2.52458 13.4424ZM2.59762 12.3609L4.06803 12.6574L4.17294 12.1371L2.70254 11.8406L1.23213 11.5441L1.12722 12.0644L2.59762 12.3609ZM2.70254 11.8406L4.17294 12.1371L4.27785 11.6168L2.80745 11.3203L1.33704 11.0238L1.23213 11.5441L2.70254 11.8406ZM2.80745 11.3203L4.27785 11.6168C4.32289 11.3935 4.39339 11.1864 4.48867 10.9919L3.14159 10.332L1.79451 9.67218C1.58415 10.1016 1.43189 10.5534 1.33704 11.0238L2.80745 11.3203ZM3.14159 10.332L4.48867 10.9919L4.7179 10.5239L3.37082 9.86404L2.02375 9.2042L1.79451 9.67218L3.14159 10.332ZM3.37082 9.86404L4.7179 10.5239L4.94713 10.0559L3.60005 9.39606L2.25298 8.73622L2.02375 9.2042L3.37082 9.86404ZM3.60005 9.39606L4.94713 10.0559C5.25641 9.42449 5.31826 8.73653 5.26152 8.0874L3.76722 8.21801L2.27292 8.34861C2.29893 8.64624 2.24934 8.74364 2.25298 8.73622L3.60005 9.39606ZM3.76722 8.21801L5.26152 8.0874L5.19946 7.37733L3.70516 7.50794L2.21086 7.63854L2.27292 8.34861L3.76722 8.21801ZM3.70516 7.50794L5.19946 7.37733L5.1374 6.66726L3.6431 6.79787L2.1488 6.92847L2.21086 7.63854L3.70516 7.50794ZM3.6431 6.79787L5.1374 6.66726C5.13379 6.62589 5.14989 6.71541 5.07977 6.85778C5.0016 7.01648 4.8825 7.10716 4.8141 7.14212L4.13141 5.80648L3.44871 4.47084C3.0134 4.69335 2.62946 5.04302 2.38852 5.53219C2.15563 6.00502 2.11104 6.49646 2.1488 6.92847L3.6431 6.79787ZM4.13141 5.80648L4.8141 7.14212L5.36447 6.8608L4.68178 5.52516L3.99908 4.18953L3.44871 4.47084L4.13141 5.80648ZM4.68178 5.52516L5.36447 6.8608L5.91485 6.57949L5.23215 5.24385L4.54946 3.90821L3.99908 4.18953L4.68178 5.52516ZM5.23215 5.24385L5.91485 6.57949C6.34879 6.35768 6.757 6.10786 7.13696 5.8285L6.24843 4.61999L5.3599 3.41147C5.11865 3.58884 4.84934 3.75493 4.54946 3.90821L5.23215 5.24385ZM6.24843 4.61999L7.13696 5.8285L7.60287 5.48596L6.71433 4.27744L5.8258 3.06892L5.3599 3.41147L6.24843 4.61999ZM6.71433 4.27744L7.60287 5.48596L8.06877 5.14341L7.18024 3.9349L6.29171 2.72638L5.8258 3.06892L6.71433 4.27744ZM7.18024 3.9349L8.06877 5.14341C8.30463 4.97 8.56106 4.81494 8.83987 4.67886L8.18197 3.33084L7.52407 1.98282C7.08845 2.19542 6.67706 2.44306 6.29171 2.72638L7.18024 3.9349ZM8.18197 3.33084L8.83987 4.67886L9.3757 4.41735L8.7178 3.06933L8.05989 1.72131L7.52407 1.98282L8.18197 3.33084ZM8.7178 3.06933L9.3757 4.41735L9.91152 4.15584L9.25362 2.80782L8.59572 1.4598L8.05989 1.72131L8.7178 3.06933ZM9.25362 2.80782L9.91152 4.15584C9.9892 4.11793 10.0157 4.12403 10.0405 4.12911L10.3421 2.65974L10.6437 1.19036C9.93156 1.04422 9.23247 1.14903 8.59572 1.4598L9.25362 2.80782ZM10.3421 2.65974L10.0405 4.12911L10.5932 4.24253L10.8947 2.77316L11.1963 1.30378L10.6437 1.19036L10.3421 2.65974ZM10.8947 2.77316L10.5932 4.24253L11.1458 4.35595L11.4474 2.88658L11.7489 1.41721L11.1963 1.30378L10.8947 2.77316ZM11.4474 2.88658L11.1458 4.35595C11.4754 4.4236 11.81 4.50587 12.1496 4.60312L12.5625 3.16108L12.9754 1.71903C12.565 1.60151 12.1562 1.50079 11.7489 1.41721L11.4474 2.88658ZM12.5625 3.16108L12.1496 4.60312L12.7121 4.76419L13.125 3.32215L13.5379 1.88011L12.9754 1.71903L12.5625 3.16108Z" fill="#1E1E1E"/>
</svg>
