<svg width="140" height="58" viewBox="0 0 140 58" fill="none" xmlns="http://www.w3.org/2000/svg">
<path d="M2 29C2 14.6406 13.6406 3 28 3H112C126.359 3 138 14.6406 138 29C138 43.3594 126.359 55 112 55H28C13.6406 55 2 43.3594 2 29Z" fill="white"/>
<path d="M29.6875 3.42743L30.0558 1.97335L29.6875 3.42743ZM30.8125 3.33071L30.2255 1.95034L30.8125 3.33071ZM31.375 3.09152L30.788 1.71114L31.375 3.09152ZM31.9375 2.85232L32.5245 4.23269L31.9375 2.85232ZM33.0625 2.81354L32.559 4.22653L33.0625 2.81354ZM34.1875 3.21439L34.691 1.8014L34.1875 3.21439ZM35.3125 3.48424L35.1287 4.97294L35.3125 3.48424ZM36.4375 3.62311L36.6213 2.13441L36.4375 3.62311ZM38.125 3.24933L38.6748 4.64493L38.125 3.24933ZM38.6875 3.02773L38.1377 1.63213L38.6875 3.02773ZM39.8125 2.85405L39.9399 1.35947L39.8125 2.85405ZM40.9375 2.94991L40.8102 4.4445L40.9375 2.94991ZM42.0625 3.19847L42.5664 1.78564L42.0625 3.19847ZM42.625 3.39909L42.1211 4.81192L42.625 3.39909ZM43.1875 3.59972L42.6836 5.01255L43.1875 3.59972ZM44.3125 3.5489L44.9246 4.91831L44.3125 3.5489ZM45.4375 3.04602L44.8254 1.67661L45.4375 3.04602ZM46.5625 2.8749L46.7746 1.38997L46.5625 2.8749ZM47.6875 3.03556L47.4754 4.52049L47.6875 3.03556ZM51.0625 3.64621L50.5871 2.22355L51.0625 3.64621ZM52.1875 3.27026L52.6629 4.69292L52.1875 3.27026ZM55.5625 2.81628L55.1826 1.36518L55.5625 2.81628ZM56.125 2.66904L56.5049 4.12014L56.125 2.66904ZM56.6875 2.52179L57.0674 3.9729L56.6875 2.52179ZM61.1875 3.62514L60.6463 5.02411L61.1875 3.62514ZM62.3125 3.59818L61.7144 2.22257L62.3125 3.59818ZM63.4375 3.10906L64.0356 4.48467L63.4375 3.10906ZM65.125 2.85223L65.1086 1.35232L65.125 2.85223ZM66.8125 2.87366L66.9022 1.37634L66.8125 2.87366ZM67.9375 2.94106L67.8478 4.43838L67.9375 2.94106ZM70.1875 2.94727L70.1631 1.44747L70.1875 2.94727ZM71.3125 2.80677L70.9715 1.34606L71.3125 2.80677ZM72.4375 2.54412L72.7785 4.00484L72.4375 2.54412ZM73.5625 2.48266L73.7474 0.994099L73.5625 2.48266ZM74.6875 2.6224L74.5026 4.11096L74.6875 2.6224ZM75.8125 2.6478L75.9307 4.14313L75.8125 2.6478ZM76.9375 2.55886L76.8193 1.06353L76.9375 2.55886ZM78.0625 2.78782L77.4067 4.13689L78.0625 2.78782ZM79.1875 3.33466L79.8433 1.9856L79.1875 3.33466ZM81.4375 3.68738L81.3671 5.18572L81.4375 3.68738ZM82.5625 3.37211L83.3413 4.65412L82.5625 3.37211ZM83.6875 2.68873L82.9087 1.40672L83.6875 2.68873ZM84.8125 2.46617L85.1233 0.998716L84.8125 2.46617ZM85.9375 2.70443L85.6267 4.17188L85.9375 2.70443ZM87.0625 2.7653L86.908 1.27328L87.0625 2.7653ZM88.1875 2.64879L88.342 4.14081L88.1875 2.64879ZM89.3125 2.79071L89.8154 1.37752L89.3125 2.79071ZM90.4375 3.19105L89.9346 4.60424L90.4375 3.19105ZM91.5625 3.25725L91.91 4.71643L91.5625 3.25725ZM92.6875 2.9893L92.34 1.53012L92.6875 2.9893ZM93.8125 2.72475L93.4733 1.2636L93.8125 2.72475ZM94.9375 2.4636L95.2767 3.92475L94.9375 2.4636ZM96.0625 2.29967L96.1513 3.79704L96.0625 2.29967ZM97.1875 2.23296L97.0987 0.735591L97.1875 2.23296ZM98.3125 2.46581L98.9541 1.10997L98.3125 2.46581ZM99.4375 2.99821L98.7959 4.35405L99.4375 2.99821ZM100.562 3.37649L100.856 1.9054L100.562 3.37649ZM101.688 3.60064L101.394 5.07173L101.688 3.60064ZM102.812 3.48032L102.24 2.09398L102.812 3.48032ZM103.938 3.01551L104.51 4.40185L103.938 3.01551ZM105.062 2.87512L105.305 1.3948L105.062 2.87512ZM106.188 3.05915L105.945 4.53948L106.188 3.05915ZM107.312 2.96247L107.79 4.38459L107.312 2.96247ZM108.438 2.58508L107.96 1.16297L108.438 2.58508ZM109.562 2.66766L108.911 4.01875L109.562 2.66766ZM110.688 3.2102L111.339 1.8591L110.688 3.2102ZM111.811 3.39575L112.038 4.87855L111.811 3.39575ZM112.372 3.31004L112.146 1.82723L112.372 3.31004ZM112.933 3.22432L113.16 4.70712L112.933 3.22432ZM114.049 3.21636L113.841 4.70182L114.049 3.21636ZM115.158 3.37186L115.366 1.8864L115.158 3.37186ZM116.318 3.30921L116.657 4.77048L116.318 3.30921ZM117.53 3.0284L117.191 1.56712L117.53 3.0284ZM118.685 3.07413L118.203 4.49466L118.685 3.07413ZM119.782 3.44642L120.264 2.02589L119.782 3.44642ZM120.809 3.98229L119.923 5.19264L120.809 3.98229ZM121.764 4.68174L122.65 3.47139L121.764 4.68174ZM122.74 5.29486L123.441 3.96905L122.74 5.29486ZM123.238 5.55825L123.939 4.23244L123.238 5.55825ZM123.735 5.82164L123.034 7.14745L123.735 5.82164ZM124.811 6.22587L124.456 7.68325L124.811 6.22587ZM125.968 6.50757L126.323 5.05019L125.968 6.50757ZM126.85 7.19408L128.16 6.46304L126.85 7.19408ZM127.459 8.28541L128.769 7.55438L127.459 8.28541ZM128.351 9.01203L127.91 10.4456L128.351 9.01203ZM128.939 9.19299L129.38 7.75944L128.939 9.19299ZM129.526 9.37394L129.968 7.94039L129.526 9.37394ZM130.299 10.1613L131.734 9.72323L130.299 10.1613ZM130.484 10.7678L129.05 11.2059L130.484 10.7678ZM130.67 11.3743L132.104 10.9361L130.67 11.3743ZM131.451 12.2173L132.004 10.8229L131.451 12.2173ZM132.645 12.6905L132.092 14.0849L132.645 12.6905ZM133.363 13.531L131.892 13.826L133.363 13.531ZM133.605 14.7387L135.076 14.4437L133.605 14.7387ZM134.276 15.6831L135.066 14.4078L134.276 15.6831ZM135.375 16.3641L134.586 17.6393L135.375 16.3641ZM136.096 17.2628L134.661 17.7014L136.096 17.2628ZM136.437 18.3792L137.872 17.9406L136.437 18.3792ZM136.687 20.1163L135.19 20.2163L136.687 20.1163ZM136.726 20.7057L135.229 20.8058L136.726 20.7057ZM136.925 21.8336L138.363 21.4067L136.925 21.8336ZM137.085 22.372L135.647 22.7988L137.085 22.372ZM137.245 22.9104L138.683 22.4836L137.245 22.9104ZM137.376 24.0189L138.874 24.0952L137.376 24.0189ZM137.318 25.1588L135.82 25.0825L137.318 25.1588ZM137.285 26.2805L138.785 26.2895L137.285 26.2805ZM137.279 27.384L135.779 27.3751L137.279 27.384ZM137.465 28.492L138.885 28.0089L137.465 28.492ZM137.843 29.6046L136.423 30.0877L137.843 29.6046ZM137.836 30.7032L136.426 30.192L137.836 30.7032ZM137.639 31.2455L139.049 31.7567L137.639 31.2455ZM137.443 31.7879L136.032 31.2767L137.443 31.7879ZM137.501 32.9497L138.888 32.3782L137.501 32.9497ZM138.012 34.1885L136.625 34.7601L138.012 34.1885ZM137.998 35.3325L136.663 34.6471L137.998 35.3325ZM137.728 35.8571L139.062 36.5425L137.728 35.8571ZM137.459 36.3816L138.793 37.0671L137.459 36.3816ZM136.849 37.3828L138.069 38.255L136.849 37.3828ZM136.167 38.3361L134.947 37.4639L136.167 38.3361ZM135.683 39.365L137.134 39.7436L135.683 39.365ZM135.394 40.4696L133.943 40.091L135.394 40.4696ZM134.965 41.5104L133.67 40.7534L134.965 41.5104ZM134.394 42.4874L135.689 43.2444L134.394 42.4874ZM133.734 43.4015L132.607 42.4114L133.734 43.4015ZM133.36 43.827L134.487 44.817L133.36 43.827ZM132.987 44.2526L131.86 43.2626L132.987 44.2526ZM132.43 45.268L130.997 44.824L132.43 45.268ZM132.064 46.4477L133.497 46.8917L132.064 46.4477ZM131.376 47.3454L130.596 46.0643L131.376 47.3454ZM130.365 47.9611L131.145 49.2422L130.365 47.9611ZM129.514 48.7495L128.296 47.8743L129.514 48.7495ZM129.169 49.2301L130.387 50.1053L129.169 49.2301ZM128.824 49.7107L127.606 48.8354L128.824 49.7107ZM127.982 50.4921L127.205 49.2094L127.982 50.4921ZM127.486 50.7929L126.708 49.5102L127.486 50.7929ZM126.99 51.0937L127.768 52.3764L126.99 51.0937ZM125.878 51.4635L126.044 52.9542L125.878 51.4635ZM124.645 51.6015L124.478 50.1108L124.645 51.6015ZM123.478 51.7906L123.797 53.2562L123.478 51.7906ZM122.375 52.0311L122.055 50.5655L122.375 52.0311ZM121.409 52.6324L122.545 53.6115L121.409 52.6324ZM120.58 53.5946L121.716 54.5737L120.58 53.5946ZM119.619 54.2424L119.181 52.8077L119.619 54.2424ZM119.073 54.4091L118.635 52.9744L119.073 54.4091ZM118.527 54.5758L118.965 56.0104L118.527 54.5758ZM116.293 55.0395L116.553 56.5168L116.293 55.0395ZM115.161 55.181L115.272 56.6769L115.161 55.181ZM114.023 55.2659L113.911 53.7701L114.023 55.2659ZM112.886 55.1534L113.282 53.7064L112.886 55.1534ZM111.752 54.8434L111.356 56.2903L111.752 54.8434ZM110.622 54.5684L110.935 53.1014L110.622 54.5684ZM109.497 54.3284L109.81 52.8614L109.497 54.3284ZM108.372 54.6212L107.485 53.4119L108.372 54.6212ZM107.247 55.4467L108.135 56.6561L107.247 55.4467ZM106.122 55.7781L105.907 57.2627L106.122 55.7781ZM104.997 55.6153L105.212 54.1308L104.997 55.6153ZM103.872 55.202L103.11 56.4938L103.872 55.202ZM101.622 54.2479L101.511 52.752L101.622 54.2479ZM100.497 54.3314L100.608 55.8273L100.497 54.3314ZM99.3722 54.7209L98.5833 53.4451L99.3722 54.7209ZM98.2472 55.4165L99.036 56.6923L98.2472 55.4165ZM97.1222 55.5981L96.6973 57.0367L97.1222 55.5981ZM95.9972 55.2658L96.4221 53.8273L95.9972 55.2658ZM94.8722 55.2917L94.3876 53.8721L94.8722 55.2917ZM93.7472 55.6757L94.2317 57.0953L93.7472 55.6757ZM92.6222 55.6225L92.0228 56.9976L92.6222 55.6225ZM91.4972 55.1322L92.0965 53.7571L91.4972 55.1322ZM90.3722 55.1348L89.7675 53.7621L90.3722 55.1348ZM89.2472 55.6303L88.6425 54.2576L89.2472 55.6303ZM88.1222 55.4891L87.269 56.7229L88.1222 55.4891ZM86.9972 54.7112L87.8503 53.4774L86.9972 54.7112ZM85.8722 54.5094L85.3985 53.0862L85.8722 54.5094ZM84.7472 54.8838L85.2209 56.3071L84.7472 54.8838ZM83.6222 55.1867L83.9242 56.656L83.6222 55.1867ZM82.4972 55.418L82.1951 53.9487L82.4972 55.418ZM81.3722 55.5428L81.3476 54.043L81.3722 55.5428ZM80.2472 55.5613L80.2717 57.0611L80.2472 55.5613ZM79.1222 55.3048L79.7627 53.9485L79.1222 55.3048ZM77.9972 54.7736L77.3566 56.1299L77.9972 54.7736ZM76.8722 54.6244L77.1763 56.0933L76.8722 54.6244ZM75.7472 54.8574L75.443 53.3885L75.7472 54.8574ZM74.6222 54.9286L74.7423 53.4335L74.6222 54.9286ZM73.4972 54.8382L73.377 56.3334L73.4972 54.8382ZM71.8097 55.291L71.2025 53.9193L71.8097 55.291ZM71.2472 55.5399L71.8543 56.9116L71.2472 55.5399ZM70.1222 55.7143L70.3194 54.2273L70.1222 55.7143ZM68.9972 55.565L69.1944 54.0781L68.9972 55.565ZM67.8722 55.4384L68.0103 53.9448L67.8722 55.4384ZM67.3097 55.3863L67.1715 56.88L67.3097 55.3863ZM66.7472 55.3343L66.609 56.8279L66.7472 55.3343ZM65.6222 55.1345L66.0033 53.6838L65.6222 55.1345ZM64.4972 54.839L64.1161 56.2898L64.4972 54.839ZM63.3722 54.9308L63.9599 56.3109L63.3722 54.9308ZM62.2472 55.4099L61.6595 54.0298L62.2472 55.4099ZM61.1222 55.4238L60.5637 56.8159L61.1222 55.4238ZM60.5597 55.1981L60.0012 56.5902L60.5597 55.1981ZM59.9972 54.9724L60.5557 53.5803L59.9972 54.9724ZM58.8722 54.618L59.2068 53.1558L58.8722 54.618ZM58.3097 54.4893L57.975 55.9515L58.3097 54.4893ZM57.7472 54.3605L57.4125 55.8227L57.7472 54.3605ZM56.6222 54.3839L57.0138 55.8319L56.6222 54.3839ZM55.4972 54.6882L55.1055 53.2402L55.4972 54.6882ZM54.3722 54.944L54.6441 56.4192L54.3722 54.944ZM53.2472 55.1514L52.9752 53.6763L53.2472 55.1514ZM52.1222 55.3071L51.984 53.8135L52.1222 55.3071ZM51.5597 55.3592L51.4215 53.8656L51.5597 55.3592ZM50.9972 55.4112L51.1354 56.9049L50.9972 55.4112ZM49.8722 55.1731L49.1844 56.5061L49.8722 55.1731ZM48.7472 54.5926L49.4349 53.2596L48.7472 54.5926ZM46.4972 54.359L46.5475 55.8582L46.4972 54.359ZM45.3722 54.3641L45.3355 55.8637L45.3722 54.3641ZM44.8097 54.3504L44.8464 52.8508L44.8097 54.3504ZM44.2472 54.3366L44.2839 52.8371L44.2472 54.3366ZM43.1222 54.4371L42.8236 52.9671L43.1222 54.4371ZM41.9972 54.6656L42.2957 56.1356L41.9972 54.6656ZM40.8722 54.7531L40.9434 53.2548L40.8722 54.7531ZM40.3097 54.7263L40.2384 56.2246L40.3097 54.7263ZM39.7472 54.6996L39.8184 53.2013L39.7472 54.6996ZM38.6222 54.8485L38.1749 53.4168L38.6222 54.8485ZM37.4972 55.2L37.9445 56.6318L37.4972 55.2ZM36.3722 55.3066L36.1891 56.7954L36.3722 55.3066ZM35.2472 55.1683L35.4302 53.6795L35.2472 55.1683ZM34.1222 55.0759L34.0602 56.5746L34.1222 55.0759ZM31.8722 54.9823L31.809 56.481L31.8722 54.9823ZM31.3097 54.9586L31.3728 53.46L31.3097 54.9586ZM30.7472 54.9349L30.684 56.4336L30.7472 54.9349ZM29.6216 55.1076L29.1276 53.6913L29.6216 55.1076ZM29.0586 55.304L29.5526 56.7203L29.0586 55.304ZM28.4956 55.5004L28.9896 56.9167L28.4956 55.5004ZM27.3757 55.4429L27.9979 54.078L27.3757 55.4429ZM26.2621 54.9353L26.8842 53.5704L26.2621 54.9353ZM25.1736 54.488L24.6605 55.8975L25.1736 54.488ZM24.642 54.2945L24.1289 55.704L24.642 54.2945ZM24.1103 54.101L24.6234 52.6914L24.1103 54.101ZM23.0083 53.9255L23.0558 55.4248L23.0083 53.9255ZM21.8676 53.9616L21.8201 52.4624L21.8676 53.9616ZM20.8103 53.6843L20.0323 54.9668L20.8103 53.6843ZM19.8363 53.0935L20.6143 51.811L19.8363 53.0935ZM18.8402 52.5956L18.2859 53.9894L18.8402 52.5956ZM17.8219 52.1906L18.3762 50.7968L17.8219 52.1906ZM16.6397 52.0595L16.4816 50.5678L16.6397 52.0595ZM15.2935 52.2021L15.4516 53.6938L15.2935 52.2021ZM14.2522 51.7876L15.4477 50.8816L14.2522 51.7876ZM13.5158 50.8159L14.7113 49.9099L13.5158 50.8159ZM12.7799 49.8941L13.9265 48.927L12.7799 49.8941ZM12.0446 49.0223L10.898 49.9894L12.0446 49.0223ZM11.097 48.3885L11.5813 46.9689L11.097 48.3885ZM9.93717 47.9929L9.45289 49.4126L9.93717 47.9929ZM8.90714 47.4269L9.85692 46.2659L8.90714 47.4269ZM8.00687 46.6904L7.0571 47.8514L8.00687 46.6904ZM7.27102 45.815L5.96417 46.5513L7.27102 45.815ZM6.69959 44.8008L8.00645 44.0645L6.69959 44.8008ZM6.2602 43.0583L7.74873 42.8731L6.2602 43.0583ZM6.18336 42.4406L4.69484 42.6257L6.18336 42.4406ZM5.78853 41.3671L7.01871 40.5088L5.78853 41.3671ZM5.15254 40.4555L3.92236 41.3138L5.15254 40.4555ZM4.56434 39.5093L5.87816 38.7855L4.56434 39.5093ZM4.02394 38.5284L5.33776 37.8046L4.02394 38.5284ZM3.61798 37.4956L2.16289 37.8599L3.61798 37.4956ZM3.34647 36.4111L1.89138 36.7753L3.34647 36.4111ZM2.02253 34.3932L0.854219 35.334L2.02253 34.3932ZM1.88558 33.294L0.505883 32.7054L1.88558 33.294ZM2.40382 32.0792L1.02412 31.4906L2.40382 32.0792ZM2.65561 30.9217L1.15574 30.9417L2.65561 30.9217ZM2.36322 28.7007L1.00757 29.3427L2.36322 28.7007ZM2.09281 28.1297L3.44847 27.4877L2.09281 28.1297ZM1.82241 27.5588L0.466757 28.2008L1.82241 27.5588ZM1.54061 25.2446L0.0406386 25.2544L1.54061 25.2446ZM1.75189 23.5226L0.277855 23.2448L1.75189 23.5226ZM2.27161 21.8732L0.984776 21.1024L2.27161 21.8732ZM2.8809 20.8559L1.59406 20.0852L2.8809 20.8559ZM3.64418 19.3085L2.27198 18.7026L3.64418 19.3085ZM3.87351 18.7891L2.5013 18.1833L3.87351 18.7891ZM4.35423 17.762L3.00998 17.0964L4.35423 17.762ZM4.60564 17.2542L3.26139 16.5886L4.60564 17.2542ZM4.85704 16.7465L6.20129 17.4121L4.85704 16.7465ZM5.49949 15.8198L6.59598 16.8434L5.49949 15.8198ZM5.89054 15.4009L4.79405 14.3773L5.89054 15.4009ZM6.28158 14.982L5.18509 13.9584L6.28158 14.982ZM7.05028 14.1529L5.94671 13.1369L7.05028 14.1529ZM8.35617 12.3224L6.91489 11.9069L8.35617 12.3224ZM9.48338 10.3468L9.06595 8.90608L9.48338 10.3468ZM10.0918 10.1706L9.67434 8.72981L10.0918 10.1706ZM10.7002 9.99429L11.1176 11.435L10.7002 9.99429ZM11.7786 9.5299L10.9946 8.25106L11.7786 9.5299ZM12.7186 8.95366L13.5025 10.2325L12.7186 8.95366ZM13.544 8.2027L12.3543 7.28912L13.544 8.2027ZM14.2549 7.27703L15.4446 8.19061L14.2549 7.27703ZM15.0252 6.38929L13.9519 5.34138L15.0252 6.38929ZM15.44 5.96438L14.3668 4.91648L15.44 5.96438ZM15.8549 5.53948L16.9281 6.58738L15.8549 5.53948ZM16.7881 4.86117L17.4469 6.20874L16.7881 4.86117ZM17.8247 4.35436L17.1659 3.00679L17.8247 4.35436ZM20.1818 4.22501L20.0809 5.72161L20.1818 4.22501ZM21.2887 3.89554L20.388 2.69602L21.2887 3.89554ZM22.2764 3.15389L23.1771 4.35341L22.2764 3.15389ZM23.3747 2.99637L23.8739 1.58188L23.3747 2.99637ZM24.5835 3.42298L24.0843 4.83747L24.5835 3.42298ZM25.7342 3.41801L25.1776 2.02508L25.7342 3.41801ZM26.8268 2.98145L27.3834 4.37437L26.8268 2.98145ZM27.5298 2.82238L26.9997 4.22559L27.5298 2.82238ZM27.6865 2.88158L28.2166 1.47837L27.6865 2.88158ZM27.8433 2.94079L28.3734 1.53758L27.8433 2.94079ZM28.5625 3.14248L28.1942 4.59656L28.5625 3.14248ZM29.125 3.28496L28.7567 4.73904L29.3192 4.88151L29.6875 3.42743L30.0558 1.97335L29.4933 1.83088L29.125 3.28496ZM29.6875 3.42743L29.3192 4.88151C30.0298 5.06151 30.7399 4.99157 31.3995 4.71109L30.8125 3.33071L30.2255 1.95034C30.1351 1.98879 30.0952 1.98333 30.0558 1.97335L29.6875 3.42743ZM30.8125 3.33071L31.3995 4.71109L31.962 4.47189L31.375 3.09152L30.788 1.71114L30.2255 1.95034L30.8125 3.33071ZM31.375 3.09152L31.962 4.47189L32.5245 4.23269L31.9375 2.85232L31.3505 1.47194L30.788 1.71114L31.375 3.09152ZM31.9375 2.85232L32.5245 4.23269C32.5419 4.2253 32.5518 4.22276 32.5548 4.22207C32.5575 4.22144 32.5561 4.22198 32.5517 4.22213C32.5472 4.22229 32.5439 4.2219 32.5429 4.22175C32.5422 4.22164 32.5473 4.22234 32.559 4.22653L33.0625 2.81354L33.566 1.40055C32.8271 1.1373 32.063 1.16898 31.3505 1.47194L31.9375 2.85232ZM33.0625 2.81354L32.559 4.22653L33.1215 4.42695L33.625 3.01396L34.1285 1.60098L33.566 1.40055L33.0625 2.81354ZM33.625 3.01396L33.1215 4.42695L33.684 4.62737L34.1875 3.21439L34.691 1.8014L34.1285 1.60098L33.625 3.01396ZM34.1875 3.21439L33.684 4.62737C34.157 4.79589 34.6391 4.9125 35.1287 4.97294L35.3125 3.48424L35.4963 1.99554C35.2359 1.96341 34.968 1.90011 34.691 1.8014L34.1875 3.21439ZM35.3125 3.48424L35.1287 4.97294L35.6912 5.04238L35.875 3.55367L36.0588 2.06497L35.4963 1.99554L35.3125 3.48424ZM35.875 3.55367L35.6912 5.04238L36.2537 5.11181L36.4375 3.62311L36.6213 2.13441L36.0588 2.06497L35.875 3.55367ZM36.4375 3.62311L36.2537 5.11181C36.8937 5.19081 37.5204 5.09973 38.1123 4.86654L37.5625 3.47094L37.0127 2.07533C36.8546 2.13762 36.7313 2.14798 36.6213 2.13441L36.4375 3.62311ZM37.5625 3.47094L38.1123 4.86654L38.6748 4.64493L38.125 3.24933L37.5752 1.85373L37.0127 2.07533L37.5625 3.47094ZM38.125 3.24933L38.6748 4.64493L39.2373 4.42333L38.6875 3.02773L38.1377 1.63213L37.5752 1.85373L38.125 3.24933ZM38.6875 3.02773L39.2373 4.42333C39.4128 4.35418 39.5566 4.33768 39.6852 4.34864L39.8125 2.85405L39.9399 1.35947C39.3184 1.30651 38.7122 1.4058 38.1377 1.63213L38.6875 3.02773ZM39.8125 2.85405L39.6852 4.34864L40.2477 4.39657L40.375 2.90198L40.5024 1.4074L39.9399 1.35947L39.8125 2.85405ZM40.375 2.90198L40.2477 4.39657L40.8102 4.4445L40.9375 2.94991L41.0649 1.45533L40.5024 1.4074L40.375 2.90198ZM40.9375 2.94991L40.8102 4.4445C41.0494 4.46488 41.2981 4.51837 41.5586 4.61129L42.0625 3.19847L42.5664 1.78564C42.0769 1.61107 41.5756 1.49885 41.0649 1.45533L40.9375 2.94991ZM42.0625 3.19847L41.5586 4.61129L42.1211 4.81192L42.625 3.39909L43.1289 1.98627L42.5664 1.78564L42.0625 3.19847ZM42.625 3.39909L42.1211 4.81192L42.6836 5.01255L43.1875 3.59972L43.6914 2.1869L43.1289 1.98627L42.625 3.39909ZM43.1875 3.59972L42.6836 5.01255C43.4349 5.28053 44.2095 5.23799 44.9246 4.91831L44.3125 3.5489L43.7004 2.17949C43.6833 2.18714 43.6742 2.18947 43.6728 2.18983C43.6716 2.19012 43.6752 2.18918 43.6823 2.18886C43.6895 2.18853 43.6957 2.18905 43.6996 2.18965C43.7033 2.19022 43.7008 2.19026 43.6914 2.1869L43.1875 3.59972ZM44.3125 3.5489L44.9246 4.91831L45.4871 4.66687L44.875 3.29746L44.2629 1.92805L43.7004 2.17949L44.3125 3.5489ZM44.875 3.29746L45.4871 4.66687L46.0496 4.41543L45.4375 3.04602L44.8254 1.67661L44.2629 1.92805L44.875 3.29746ZM45.4375 3.04602L46.0496 4.41543C46.189 4.35315 46.2792 4.34966 46.3504 4.35984L46.5625 2.8749L46.7746 1.38997C46.0958 1.29304 45.436 1.40363 44.8254 1.67661L45.4375 3.04602ZM46.5625 2.8749L46.3504 4.35984L46.9129 4.44016L47.125 2.95523L47.3371 1.47029L46.7746 1.38997L46.5625 2.8749ZM47.125 2.95523L46.9129 4.44016L47.4754 4.52049L47.6875 3.03556L47.8996 1.55062L47.3371 1.47029L47.125 2.95523ZM47.6875 3.03556L47.4754 4.52049C47.7645 4.56177 48.0579 4.62914 48.3563 4.72441L48.8125 3.29546L49.2687 1.86651C48.8171 1.72235 48.3605 1.61645 47.8996 1.55062L47.6875 3.03556ZM48.8125 3.29546L48.3563 4.72441L48.9188 4.90399L49.375 3.47504L49.8312 2.04609L49.2687 1.86651L48.8125 3.29546ZM49.375 3.47504L48.9188 4.90399L49.4813 5.08356L49.9375 3.65461L50.3937 2.22566L49.8312 2.04609L49.375 3.47504ZM49.9375 3.65461L49.4813 5.08356C50.1611 5.30058 50.8624 5.29463 51.5379 5.06887L51.0625 3.64621L50.5871 2.22355C50.5126 2.24843 50.4639 2.24808 50.3937 2.22566L49.9375 3.65461ZM51.0625 3.64621L51.5379 5.06887L52.1004 4.8809L51.625 3.45823L51.1496 2.03557L50.5871 2.22355L51.0625 3.64621ZM51.625 3.45823L52.1004 4.8809L52.6629 4.69292L52.1875 3.27026L51.7121 1.84759L51.1496 2.03557L51.625 3.45823ZM52.1875 3.27026L52.6629 4.69292C52.9166 4.60816 53.1584 4.56281 53.3916 4.55051L53.3125 3.05259L53.2334 1.55468C52.7166 1.58196 52.2084 1.68172 51.7121 1.84759L52.1875 3.27026ZM53.3125 3.05259L53.3916 4.55051L53.9541 4.52082L53.875 3.02291L53.7959 1.52499L53.2334 1.55468L53.3125 3.05259ZM53.875 3.02291L53.9541 4.52082L54.5166 4.49113L54.4375 2.99322L54.3584 1.4953L53.7959 1.52499L53.875 3.02291ZM54.4375 2.99322L54.5166 4.49113C54.9964 4.46581 55.4721 4.39049 55.9424 4.26739L55.5625 2.81628L55.1826 1.36518C54.9029 1.43841 54.6286 1.48104 54.3584 1.4953L54.4375 2.99322ZM55.5625 2.81628L55.9424 4.26739L56.5049 4.12014L56.125 2.66904L55.7451 1.21793L55.1826 1.36518L55.5625 2.81628ZM56.125 2.66904L56.5049 4.12014L57.0674 3.9729L56.6875 2.52179L56.3076 1.07068L55.7451 1.21793L56.125 2.66904ZM56.6875 2.52179L57.0674 3.9729C57.1913 3.94046 57.3027 3.94058 57.4273 3.9737L57.8125 2.52399L58.1977 1.07429C57.5723 0.90814 56.9337 0.90679 56.3076 1.07068L56.6875 2.52179ZM57.8125 2.52399L57.4273 3.9737L57.9898 4.12315L58.375 2.67344L58.7602 1.22373L58.1977 1.07429L57.8125 2.52399ZM58.375 2.67344L57.9898 4.12315L58.5523 4.27259L58.9375 2.82289L59.3227 1.37318L58.7602 1.22373L58.375 2.67344ZM58.9375 2.82289L58.5523 4.27259C58.8726 4.35767 59.1955 4.46287 59.5213 4.5889L60.0625 3.18993L60.6037 1.79096C60.1795 1.62686 59.7524 1.48736 59.3227 1.37318L58.9375 2.82289ZM60.0625 3.18993L59.5213 4.5889L60.0838 4.80651L60.625 3.40753L61.1662 2.00856L60.6037 1.79096L60.0625 3.18993ZM60.625 3.40753L60.0838 4.80651L60.6463 5.02411L61.1875 3.62514L61.7287 2.22617L61.1662 2.00856L60.625 3.40753ZM61.1875 3.62514L60.6463 5.02411C61.3963 5.31423 62.1806 5.29118 62.9106 4.97379L62.3125 3.59818L61.7144 2.22257C61.7001 2.22878 61.6942 2.22994 61.6959 2.22954C61.6979 2.22908 61.7044 2.22786 61.7141 2.22763C61.7237 2.2274 61.7317 2.22827 61.7365 2.22915C61.7411 2.22998 61.7388 2.23007 61.7287 2.22617L61.1875 3.62514ZM62.3125 3.59818L62.9106 4.97379L63.4731 4.72923L62.875 3.35362L62.2769 1.97801L61.7144 2.22257L62.3125 3.59818ZM62.875 3.35362L63.4731 4.72923L64.0356 4.48467L63.4375 3.10906L62.8394 1.73345L62.2769 1.97801L62.875 3.35362ZM63.4375 3.10906L64.0356 4.48467C64.2436 4.39421 64.4216 4.35999 64.5789 4.35827L64.5625 2.85836L64.5461 1.35845C63.9534 1.36491 63.3814 1.49782 62.8394 1.73345L63.4375 3.10906ZM64.5625 2.85836L64.5789 4.35827L65.1414 4.35214L65.125 2.85223L65.1086 1.35232L64.5461 1.35845L64.5625 2.85836ZM65.125 2.85223L65.1414 4.35214L65.7039 4.346L65.6875 2.84609L65.6711 1.34618L65.1086 1.35232L65.125 2.85223ZM65.6875 2.84609L65.7039 4.346C66.0434 4.3423 66.383 4.35062 66.7228 4.37097L66.8125 2.87366L66.9022 1.37634C66.492 1.35176 66.0816 1.3417 65.6711 1.34618L65.6875 2.84609ZM66.8125 2.87366L66.7228 4.37097L67.2853 4.40468L67.375 2.90736L67.4647 1.41005L66.9022 1.37634L66.8125 2.87366ZM67.375 2.90736L67.2853 4.40468L67.8478 4.43838L67.9375 2.94106L68.0272 1.44375L67.4647 1.41005L67.375 2.90736ZM67.9375 2.94106L67.8478 4.43838C68.2607 4.46312 68.6738 4.47213 69.0869 4.4654L69.0625 2.9656L69.0381 1.4658C68.7012 1.47129 68.3643 1.46394 68.0272 1.44375L67.9375 2.94106ZM69.0625 2.9656L69.0869 4.4654L69.6494 4.45623L69.625 2.95643L69.6006 1.45663L69.0381 1.4658L69.0625 2.9656ZM69.625 2.95643L69.6494 4.45623L70.2119 4.44707L70.1875 2.94727L70.1631 1.44747L69.6006 1.45663L69.625 2.95643ZM70.1875 2.94727L70.2119 4.44707C70.6964 4.43917 71.1775 4.37864 71.6535 4.26749L71.3125 2.80677L70.9715 1.34606C70.6975 1.41001 70.4286 1.44314 70.1631 1.44747L70.1875 2.94727ZM71.3125 2.80677L71.6535 4.26749L72.216 4.13616L71.875 2.67545L71.534 1.21473L70.9715 1.34606L71.3125 2.80677ZM71.875 2.67545L72.216 4.13616L72.7785 4.00484L72.4375 2.54412L72.0965 1.0834L71.534 1.21473L71.875 2.67545ZM72.4375 2.54412L72.7785 4.00484C72.9846 3.95673 73.1816 3.94687 73.3776 3.97122L73.5625 2.48266L73.7474 0.994099C73.1934 0.925291 72.6404 0.956404 72.0965 1.0834L72.4375 2.54412ZM73.5625 2.48266L73.3776 3.97122L73.9401 4.04109L74.125 2.55253L74.3099 1.06397L73.7474 0.994099L73.5625 2.48266ZM74.125 2.55253L73.9401 4.04109L74.5026 4.11096L74.6875 2.6224L74.8724 1.13384L74.3099 1.06397L74.125 2.55253ZM74.6875 2.6224L74.5026 4.11096C74.9777 4.16997 75.4542 4.1808 75.9307 4.14313L75.8125 2.6478L75.6943 1.15246C75.4208 1.17409 75.1473 1.16798 74.8724 1.13384L74.6875 2.6224ZM75.8125 2.6478L75.9307 4.14313L76.4932 4.09867L76.375 2.60333L76.2568 1.108L75.6943 1.15246L75.8125 2.6478ZM76.375 2.60333L76.4932 4.09867L77.0557 4.0542L76.9375 2.55886L76.8193 1.06353L76.2568 1.108L76.375 2.60333ZM76.9375 2.55886L77.0557 4.0542C77.1361 4.04784 77.2453 4.05843 77.4067 4.13689L78.0625 2.78782L78.7183 1.43875C78.1297 1.15264 77.4889 1.0106 76.8193 1.06353L76.9375 2.55886ZM78.0625 2.78782L77.4067 4.13689L77.9692 4.41031L78.625 3.06124L79.2808 1.71218L78.7183 1.43875L78.0625 2.78782ZM78.625 3.06124L77.9692 4.41031L78.5317 4.68373L79.1875 3.33466L79.8433 1.9856L79.2808 1.71218L78.625 3.06124ZM79.1875 3.33466L78.5317 4.68373C79.0694 4.94508 79.6425 5.10469 80.2421 5.13286L80.3125 3.63452L80.3829 2.13617C80.2325 2.1291 80.0556 2.08881 79.8433 1.9856L79.1875 3.33466ZM80.3125 3.63452L80.2421 5.13286L80.8046 5.15929L80.875 3.66095L80.9454 2.1626L80.3829 2.13617L80.3125 3.63452ZM80.875 3.66095L80.8046 5.15929L81.3671 5.18572L81.4375 3.68738L81.5079 2.18903L80.9454 2.1626L80.875 3.66095ZM81.4375 3.68738L81.3671 5.18572C82.0881 5.2196 82.7552 5.01015 83.3413 4.65412L82.5625 3.37211L81.7837 2.09011C81.6198 2.18967 81.5369 2.19039 81.5079 2.18903L81.4375 3.68738ZM82.5625 3.37211L83.3413 4.65412L83.9038 4.31243L83.125 3.03042L82.3462 1.74842L81.7837 2.09011L82.5625 3.37211ZM83.125 3.03042L83.9038 4.31243L84.4663 3.97073L83.6875 2.68873L82.9087 1.40672L82.3462 1.74842L83.125 3.03042ZM83.6875 2.68873L84.4663 3.97073C84.5254 3.93478 84.5494 3.93207 84.5411 3.93372C84.5375 3.93444 84.5302 3.93543 84.5208 3.93537C84.5114 3.9353 84.5045 3.93421 84.5017 3.93362L84.8125 2.46617L85.1233 0.998716C84.3204 0.828674 83.5593 1.01154 82.9087 1.40672L83.6875 2.68873ZM84.8125 2.46617L84.5017 3.93362L85.0642 4.05275L85.375 2.5853L85.6858 1.11785L85.1233 0.998716L84.8125 2.46617ZM85.375 2.5853L85.0642 4.05275L85.6267 4.17188L85.9375 2.70443L86.2483 1.23698L85.6858 1.11785L85.375 2.5853ZM85.9375 2.70443L85.6267 4.17188C86.152 4.28313 86.684 4.31253 87.217 4.25732L87.0625 2.7653L86.908 1.27328C86.691 1.29575 86.473 1.28457 86.2483 1.23698L85.9375 2.70443ZM87.0625 2.7653L87.217 4.25732L87.7795 4.19907L87.625 2.70705L87.4705 1.21503L86.908 1.27328L87.0625 2.7653ZM87.625 2.70705L87.7795 4.19907L88.342 4.14081L88.1875 2.64879L88.033 1.15677L87.4705 1.21503L87.625 2.70705ZM88.1875 2.64879L88.342 4.14081C88.4824 4.12628 88.6331 4.14109 88.8096 4.2039L89.3125 2.79071L89.8154 1.37752C89.2419 1.17343 88.6426 1.09364 88.033 1.15677L88.1875 2.64879ZM89.3125 2.79071L88.8096 4.2039L89.3721 4.40407L89.875 2.99088L90.3779 1.5777L89.8154 1.37752L89.3125 2.79071ZM89.875 2.99088L89.3721 4.40407L89.9346 4.60424L90.4375 3.19105L90.9404 1.77787L90.3779 1.5777L89.875 2.99088ZM90.4375 3.19105L89.9346 4.60424C90.5733 4.83152 91.2435 4.87518 91.91 4.71643L91.5625 3.25725L91.215 1.79807C91.1315 1.81795 91.0517 1.81748 90.9404 1.77787L90.4375 3.19105ZM91.5625 3.25725L91.91 4.71643L92.4725 4.58246L92.125 3.12327L91.7775 1.66409L91.215 1.79807L91.5625 3.25725ZM92.125 3.12327L92.4725 4.58246L93.035 4.44848L92.6875 2.9893L92.34 1.53012L91.7775 1.66409L92.125 3.12327ZM92.6875 2.9893L93.035 4.44848C93.4073 4.35983 93.7795 4.2723 94.1517 4.1859L93.8125 2.72475L93.4733 1.2636C93.0955 1.3513 92.7177 1.44014 92.34 1.53012L92.6875 2.9893ZM93.8125 2.72475L94.1517 4.1859L94.7142 4.05533L94.375 2.59418L94.0358 1.13303L93.4733 1.2636L93.8125 2.72475ZM94.375 2.59418L94.7142 4.05533L95.2767 3.92475L94.9375 2.4636L94.5983 1.00245L94.0358 1.13303L94.375 2.59418ZM94.9375 2.4636L95.2767 3.92475C95.5714 3.85633 95.8627 3.81416 96.1513 3.79704L96.0625 2.29967L95.9737 0.802303C95.5123 0.829664 95.0536 0.896774 94.5983 1.00245L94.9375 2.4636ZM96.0625 2.29967L96.1513 3.79704L96.7138 3.76369L96.625 2.26632L96.5362 0.768947L95.9737 0.802303L96.0625 2.29967ZM96.625 2.26632L96.7138 3.76369L97.2763 3.73033L97.1875 2.23296L97.0987 0.735591L96.5362 0.768947L96.625 2.26632ZM97.1875 2.23296L97.2763 3.73033C97.3743 3.72452 97.4993 3.74045 97.6709 3.82164L98.3125 2.46581L98.9541 1.10997C98.3757 0.836222 97.7507 0.696926 97.0987 0.735591L97.1875 2.23296ZM98.3125 2.46581L97.6709 3.82164L98.2334 4.08784L98.875 2.73201L99.5166 1.37617L98.9541 1.10997L98.3125 2.46581ZM98.875 2.73201L98.2334 4.08784L98.7959 4.35405L99.4375 2.99821L100.079 1.64237L99.5166 1.37617L98.875 2.73201ZM99.4375 2.99821L98.7959 4.35405C99.2725 4.57963 99.7642 4.74691 100.269 4.84757L100.562 3.37649L100.856 1.9054C100.611 1.85663 100.352 1.77172 100.079 1.64237L99.4375 2.99821ZM100.562 3.37649L100.269 4.84757L100.832 4.95965L101.125 3.48856L101.418 2.01748L100.856 1.9054L100.562 3.37649ZM101.125 3.48856L100.832 4.95965L101.394 5.07173L101.688 3.60064L101.981 2.12956L101.418 2.01748L101.125 3.48856ZM101.688 3.60064L101.394 5.07173C102.078 5.20797 102.754 5.12748 103.385 4.86665L102.812 3.48032L102.24 2.09398C102.121 2.14302 102.047 2.14275 101.981 2.12956L101.688 3.60064ZM102.812 3.48032L103.385 4.86665L103.948 4.63425L103.375 3.24791L102.802 1.86158L102.24 2.09398L102.812 3.48032ZM103.375 3.24791L103.948 4.63425L104.51 4.40185L103.938 3.01551L103.365 1.62918L102.802 1.86158L103.375 3.24791ZM103.938 3.01551L104.51 4.40185C104.646 4.34583 104.739 4.34218 104.82 4.35545L105.062 2.87512L105.305 1.3948C104.636 1.28538 103.979 1.37532 103.365 1.62918L103.938 3.01551ZM105.062 2.87512L104.82 4.35545L105.383 4.44746L105.625 2.96714L105.867 1.48681L105.305 1.3948L105.062 2.87512ZM105.625 2.96714L105.383 4.44746L105.945 4.53948L106.188 3.05915L106.43 1.57882L105.867 1.48681L105.625 2.96714ZM106.188 3.05915L105.945 4.53948C106.571 4.64186 107.193 4.58473 107.79 4.38459L107.312 2.96247L106.835 1.54035C106.682 1.5918 106.554 1.59912 106.43 1.57882L106.188 3.05915ZM107.312 2.96247L107.79 4.38459L108.352 4.19589L107.875 2.77378L107.398 1.35166L106.835 1.54035L107.312 2.96247ZM107.875 2.77378L108.352 4.19589L108.915 4.0072L108.438 2.58508L107.96 1.16297L107.398 1.35166L107.875 2.77378ZM108.438 2.58508L108.915 4.0072C108.921 4.00512 108.92 4.00592 108.914 4.00677C108.907 4.00765 108.899 4.00798 108.89 4.00736C108.882 4.00675 108.878 4.00554 108.88 4.00603C108.882 4.0066 108.892 4.00963 108.911 4.01875L109.562 2.66766L110.214 1.31657C109.507 0.975609 108.728 0.90563 107.96 1.16297L108.438 2.58508ZM109.562 2.66766L108.911 4.01875L109.473 4.29002L110.125 2.93893L110.777 1.58784L110.214 1.31657L109.562 2.66766ZM110.125 2.93893L109.473 4.29002L110.036 4.56129L110.688 3.2102L111.339 1.8591L110.777 1.58784L110.125 2.93893ZM110.688 3.2102L110.036 4.56129C110.655 4.85989 111.334 4.98597 112.038 4.87855L111.811 3.39575L111.585 1.91295C111.54 1.91982 111.47 1.9222 111.339 1.8591L110.688 3.2102ZM111.811 3.39575L112.038 4.87855L112.599 4.79284L112.372 3.31004L112.146 1.82723L111.585 1.91295L111.811 3.39575ZM112.372 3.31004L112.599 4.79284L113.16 4.70712L112.933 3.22432L112.707 1.74152L112.146 1.82723L112.372 3.31004ZM112.933 3.22432L113.16 4.70712C113.392 4.67167 113.617 4.67051 113.841 4.70182L114.049 3.21636L114.257 1.7309C113.741 1.65854 113.223 1.66269 112.707 1.74152L112.933 3.22432ZM114.049 3.21636L113.841 4.70182L114.395 4.77957L114.603 3.29411L114.812 1.80865L114.257 1.7309L114.049 3.21636ZM114.603 3.29411L114.395 4.77957L114.949 4.85733L115.158 3.37186L115.366 1.8864L114.812 1.80865L114.603 3.29411ZM115.158 3.37186L114.949 4.85733C115.52 4.93741 116.093 4.90104 116.657 4.77048L116.318 3.30921L115.979 1.84794C115.735 1.90459 115.534 1.90999 115.366 1.8864L115.158 3.37186ZM116.318 3.30921L116.657 4.77048L117.263 4.63008L116.924 3.1688L116.585 1.70753L115.979 1.84794L116.318 3.30921ZM116.924 3.1688L117.263 4.63008L117.868 4.48967L117.53 3.0284L117.191 1.56712L116.585 1.70753L116.924 3.1688ZM117.53 3.0284L117.868 4.48967C118.021 4.45429 118.121 4.4668 118.203 4.49466L118.685 3.07413L119.166 1.6536C118.517 1.43327 117.846 1.41529 117.191 1.56712L117.53 3.0284ZM118.685 3.07413L118.203 4.49466L118.752 4.68081L119.233 3.26028L119.715 1.83974L119.166 1.6536L118.685 3.07413ZM119.233 3.26028L118.752 4.68081L119.3 4.86695L119.782 3.44642L120.264 2.02589L119.715 1.83974L119.233 3.26028ZM119.782 3.44642L119.3 4.86695C119.519 4.94092 119.725 5.04776 119.923 5.19264L120.809 3.98229L121.695 2.77194C121.256 2.45052 120.778 2.2001 120.264 2.02589L119.782 3.44642ZM120.809 3.98229L119.923 5.19264L120.401 5.54237L121.287 4.33202L122.173 3.12166L121.695 2.77194L120.809 3.98229ZM121.287 4.33202L120.401 5.54237L120.878 5.8921L121.764 4.68174L122.65 3.47139L122.173 3.12166L121.287 4.33202ZM121.764 4.68174L120.878 5.8921C121.252 6.16596 121.639 6.40942 122.038 6.62067L122.74 5.29486L123.441 3.96905C123.177 3.82911 122.913 3.66383 122.65 3.47139L121.764 4.68174ZM122.74 5.29486L122.038 6.62067L122.536 6.88406L123.238 5.55825L123.939 4.23244L123.441 3.96905L122.74 5.29486ZM123.238 5.55825L122.536 6.88406L123.034 7.14745L123.735 5.82164L124.437 4.49583L123.939 4.23244L123.238 5.55825ZM123.735 5.82164L123.034 7.14745C123.481 7.38425 123.957 7.56166 124.456 7.68325L124.811 6.22587L125.166 4.76849C124.894 4.70229 124.653 4.61021 124.437 4.49583L123.735 5.82164ZM124.811 6.22587L124.456 7.68325L125.034 7.8241L125.389 6.36672L125.744 4.90934L125.166 4.76849L124.811 6.22587ZM125.389 6.36672L125.034 7.8241L125.612 7.96494L125.968 6.50757L126.323 5.05019L125.744 4.90934L125.389 6.36672ZM125.968 6.50757L125.612 7.96494C125.615 7.96553 125.608 7.96413 125.596 7.9583C125.584 7.95234 125.57 7.94398 125.556 7.93367C125.543 7.92345 125.535 7.91475 125.532 7.91074C125.529 7.90703 125.532 7.9105 125.54 7.92511L126.85 7.19408L128.16 6.46304C127.765 5.75546 127.136 5.24829 126.323 5.05019L125.968 6.50757ZM126.85 7.19408L125.54 7.92511L125.845 8.47078L127.155 7.73975L128.465 7.00871L128.16 6.46304L126.85 7.19408ZM127.155 7.73975L125.845 8.47078L126.15 9.01645L127.459 8.28541L128.769 7.55438L128.465 7.00871L127.155 7.73975ZM127.459 8.28541L126.15 9.01645C126.537 9.71123 127.142 10.2092 127.91 10.4456L128.351 9.01203L128.793 7.57849C128.786 7.57634 128.781 7.57454 128.778 7.57336C128.777 7.57277 128.776 7.5723 128.775 7.572C128.775 7.5717 128.774 7.57154 128.774 7.57154C128.774 7.57154 128.774 7.57167 128.775 7.57194C128.775 7.57222 128.776 7.57261 128.777 7.57311C128.778 7.57416 128.78 7.57544 128.782 7.57689C128.786 7.58011 128.787 7.58196 128.786 7.58037C128.784 7.57857 128.778 7.57089 128.769 7.55438L127.459 8.28541ZM128.351 9.01203L127.91 10.4456L128.497 10.6265L128.939 9.19299L129.38 7.75944L128.793 7.57849L128.351 9.01203ZM128.939 9.19299L128.497 10.6265L129.085 10.8075L129.526 9.37394L129.968 7.94039L129.38 7.75944L128.939 9.19299ZM129.526 9.37394L129.085 10.8075C129.07 10.803 129.008 10.7782 128.943 10.7119C128.879 10.647 128.863 10.5931 128.865 10.5995L130.299 10.1613L131.734 9.72323C131.47 8.86086 130.853 8.21297 129.968 7.94039L129.526 9.37394ZM130.299 10.1613L128.865 10.5995L129.05 11.2059L130.484 10.7678L131.919 10.3297L131.734 9.72323L130.299 10.1613ZM130.484 10.7678L129.05 11.2059L129.235 11.8124L130.67 11.3743L132.104 10.9361L131.919 10.3297L130.484 10.7678ZM130.67 11.3743L129.235 11.8124C129.494 12.6591 130.083 13.2882 130.899 13.6117L131.451 12.2173L132.004 10.8229C131.995 10.8192 131.999 10.8196 132.011 10.8277C132.023 10.836 132.04 10.8494 132.057 10.8683C132.075 10.8871 132.088 10.9058 132.096 10.921C132.105 10.9358 132.106 10.9423 132.104 10.9361L130.67 11.3743ZM131.451 12.2173L130.899 13.6117L131.495 13.8483L132.048 12.4539L132.601 11.0595L132.004 10.8229L131.451 12.2173ZM132.048 12.4539L131.495 13.8483L132.092 14.0849L132.645 12.6905L133.198 11.2961L132.601 11.0595L132.048 12.4539ZM132.645 12.6905L132.092 14.0849C132.1 14.0882 132.045 14.0668 131.982 13.9931C131.917 13.9171 131.896 13.8462 131.892 13.826L133.363 13.531L134.833 13.2359C134.648 12.3103 134.044 11.6317 133.198 11.2961L132.645 12.6905ZM133.363 13.531L131.892 13.826L132.013 14.4299L133.484 14.1348L134.954 13.8398L134.833 13.2359L133.363 13.531ZM133.484 14.1348L132.013 14.4299L132.134 15.0337L133.605 14.7387L135.076 14.4437L134.954 13.8398L133.484 14.1348ZM133.605 14.7387L132.134 15.0337C132.301 15.8655 132.786 16.5251 133.486 16.9583L134.276 15.6831L135.066 14.4078C135.048 14.3969 135.041 14.3908 135.042 14.3914C135.043 14.3922 135.049 14.3977 135.056 14.408C135.063 14.4184 135.069 14.4291 135.073 14.4382C135.077 14.4471 135.077 14.4499 135.076 14.4437L133.605 14.7387ZM134.276 15.6831L133.486 16.9583L134.036 17.2988L134.826 16.0236L135.615 14.7484L135.066 14.4078L134.276 15.6831ZM134.826 16.0236L134.036 17.2988L134.586 17.6393L135.375 16.3641L136.165 15.0889L135.615 14.7484L134.826 16.0236ZM135.375 16.3641L134.586 17.6393C134.641 17.6739 134.659 17.6959 134.66 17.6973C134.661 17.6985 134.66 17.698 134.66 17.6966C134.659 17.6952 134.66 17.6962 134.661 17.7014L136.096 17.2628L137.53 16.8242C137.298 16.0659 136.805 15.4852 136.165 15.0889L135.375 16.3641ZM136.096 17.2628L134.661 17.7014L134.832 18.2596L136.266 17.821L137.701 17.3824L137.53 16.8242L136.096 17.2628ZM136.266 17.821L134.832 18.2596L135.003 18.8178L136.437 18.3792L137.872 17.9406L137.701 17.3824L136.266 17.821ZM136.437 18.3792L135.003 18.8178C135.082 19.0785 135.132 19.3474 135.151 19.6269L136.647 19.5268L138.144 19.4268C138.11 18.9203 138.019 18.4241 137.872 17.9406L136.437 18.3792ZM136.647 19.5268L135.151 19.6269L135.19 20.2163L136.687 20.1163L138.183 20.0162L138.144 19.4268L136.647 19.5268ZM136.687 20.1163L135.19 20.2163L135.229 20.8058L136.726 20.7057L138.223 20.6056L138.183 20.0162L136.687 20.1163ZM136.726 20.7057L135.229 20.8058C135.263 21.3038 135.348 21.7897 135.487 22.2604L136.925 21.8336L138.363 21.4067C138.29 21.1596 138.242 20.8935 138.223 20.6056L136.726 20.7057ZM136.925 21.8336L135.487 22.2604L135.647 22.7988L137.085 22.372L138.523 21.9452L138.363 21.4067L136.925 21.8336ZM137.085 22.372L135.647 22.7988L135.807 23.3373L137.245 22.9104L138.683 22.4836L138.523 21.9452L137.085 22.372ZM137.245 22.9104L135.807 23.3373C135.864 23.5305 135.889 23.7297 135.878 23.9426L137.376 24.0189L138.874 24.0952C138.902 23.5481 138.839 23.0083 138.683 22.4836L137.245 22.9104ZM137.376 24.0189L135.878 23.9426L135.849 24.5125L137.347 24.5888L138.845 24.6651L138.874 24.0952L137.376 24.0189ZM137.347 24.5888L135.849 24.5125L135.82 25.0825L137.318 25.1588L138.816 25.2351L138.845 24.6651L137.347 24.5888ZM137.318 25.1588L135.82 25.0825C135.799 25.4841 135.788 25.8805 135.785 26.2716L137.285 26.2805L138.785 26.2895C138.787 25.9449 138.798 25.5934 138.816 25.2351L137.318 25.1588ZM137.285 26.2805L135.785 26.2716L135.782 26.8233L137.282 26.8323L138.782 26.8413L138.785 26.2895L137.285 26.2805ZM137.282 26.8323L135.782 26.8233L135.779 27.3751L137.279 27.384L138.779 27.393L138.782 26.8413L137.282 26.8323ZM137.279 27.384L135.779 27.3751C135.775 27.9208 135.868 28.4562 136.045 28.9752L137.465 28.492L138.885 28.0089C138.809 27.7862 138.778 27.5829 138.779 27.393L137.279 27.384ZM137.465 28.492L136.045 28.9752L136.234 29.5315L137.654 29.0483L139.074 28.5652L138.885 28.0089L137.465 28.492ZM137.654 29.0483L136.234 29.5315L136.423 30.0877L137.843 29.6046L139.263 29.1214L139.074 28.5652L137.654 29.0483ZM137.843 29.6046L136.423 30.0877C136.436 30.1255 136.436 30.1433 136.436 30.1473C136.436 30.151 136.436 30.1638 136.426 30.192L137.836 30.7032L139.246 31.2144C139.496 30.5257 139.497 29.8087 139.263 29.1214L137.843 29.6046ZM137.836 30.7032L136.426 30.192L136.229 30.7344L137.639 31.2455L139.049 31.7567L139.246 31.2144L137.836 30.7032ZM137.639 31.2455L136.229 30.7344L136.032 31.2767L137.443 31.7879L138.853 32.2991L139.049 31.7567L137.639 31.2455ZM137.443 31.7879L136.032 31.2767C135.754 32.0456 135.826 32.8223 136.114 33.5212L137.501 32.9497L138.888 32.3782C138.873 32.3418 138.865 32.3155 138.861 32.2987C138.858 32.2822 138.857 32.2743 138.857 32.2739C138.857 32.2737 138.857 32.2779 138.856 32.2848C138.855 32.2917 138.854 32.2969 138.853 32.2991L137.443 31.7879ZM137.501 32.9497L136.114 33.5212L136.37 34.1406L137.757 33.5691L139.143 32.9976L138.888 32.3782L137.501 32.9497ZM137.757 33.5691L136.37 34.1406L136.625 34.7601L138.012 34.1885L139.399 33.617L139.143 32.9976L137.757 33.5691ZM138.012 34.1885L136.625 34.7601C136.646 34.8111 136.636 34.8089 136.636 34.7656C136.636 34.7449 136.639 34.7213 136.645 34.6975C136.651 34.6738 136.659 34.6566 136.663 34.6471L137.998 35.3325L139.332 36.018C139.741 35.2214 139.711 34.3746 139.399 33.617L138.012 34.1885ZM137.998 35.3325L136.663 34.6471L136.394 35.1716L137.728 35.8571L139.062 36.5425L139.332 36.018L137.998 35.3325ZM137.728 35.8571L136.394 35.1716L136.124 35.6962L137.459 36.3816L138.793 37.0671L139.062 36.5425L137.728 35.8571ZM137.459 36.3816L136.124 35.6962C135.978 35.9814 135.813 36.2526 135.628 36.5106L136.849 37.3828L138.069 38.255C138.339 37.8774 138.58 37.4813 138.793 37.0671L137.459 36.3816ZM136.849 37.3828L135.628 36.5106L135.288 36.9872L136.508 37.8594L137.728 38.7316L138.069 38.255L136.849 37.3828ZM136.508 37.8594L135.288 36.9872L134.947 37.4639L136.167 38.3361L137.388 39.2082L137.728 38.7316L136.508 37.8594ZM136.167 38.3361L134.947 37.4639C134.616 37.9267 134.375 38.4362 134.231 38.9864L135.683 39.365L137.134 39.7436C137.183 39.5574 137.264 39.381 137.388 39.2082L136.167 38.3361ZM135.683 39.365L134.231 38.9864L134.087 39.5387L135.538 39.9173L136.99 40.2959L137.134 39.7436L135.683 39.365ZM135.538 39.9173L134.087 39.5387L133.943 40.091L135.394 40.4696L136.846 40.8482L136.99 40.2959L135.538 39.9173ZM135.394 40.4696L133.943 40.091C133.881 40.3277 133.79 40.5472 133.67 40.7534L134.965 41.5104L136.26 42.2674C136.52 41.8223 136.715 41.3479 136.846 40.8482L135.394 40.4696ZM134.965 41.5104L133.67 40.7534L133.384 41.2419L134.679 41.9989L135.974 42.7559L136.26 42.2674L134.965 41.5104ZM134.679 41.9989L133.384 41.2419L133.099 41.7304L134.394 42.4874L135.689 43.2444L135.974 42.7559L134.679 41.9989ZM134.394 42.4874L133.099 41.7304C132.957 41.9731 132.793 42.1998 132.607 42.4114L133.734 43.4015L134.861 44.3915C135.174 44.0357 135.45 43.653 135.689 43.2444L134.394 42.4874ZM133.734 43.4015L132.607 42.4114L132.234 42.837L133.36 43.827L134.487 44.817L134.861 44.3915L133.734 43.4015ZM133.36 43.827L132.234 42.837L131.86 43.2626L132.987 44.2526L134.113 45.2426L134.487 44.817L133.36 43.827ZM132.987 44.2526L131.86 43.2626C131.459 43.7186 131.176 44.2476 130.997 44.824L132.43 45.268L133.863 45.712C133.928 45.5019 134.016 45.354 134.113 45.2426L132.987 44.2526ZM132.43 45.268L130.997 44.824L130.814 45.4139L132.247 45.8578L133.68 46.3018L133.863 45.712L132.43 45.268ZM132.247 45.8578L130.814 45.4139L130.632 46.0037L132.064 46.4477L133.497 46.8917L133.68 46.3018L132.247 45.8578ZM132.064 46.4477L130.632 46.0037C130.625 46.0261 130.618 46.0396 130.615 46.0464C130.612 46.053 130.61 46.055 130.61 46.0544C130.611 46.0537 130.612 46.0532 130.611 46.0537C130.61 46.0543 130.606 46.0581 130.596 46.0643L131.376 47.3454L132.156 48.6265C132.82 48.2223 133.272 47.6176 133.497 46.8917L132.064 46.4477ZM131.376 47.3454L130.596 46.0643L130.09 46.3721L130.871 47.6533L131.651 48.9344L132.156 48.6265L131.376 47.3454ZM130.871 47.6533L130.09 46.3721L129.585 46.68L130.365 47.9611L131.145 49.2422L131.651 48.9344L130.871 47.6533ZM130.365 47.9611L129.585 46.68C129.076 46.9898 128.644 47.3906 128.296 47.8743L129.514 48.7495L130.732 49.6248C130.845 49.4677 130.98 49.3429 131.145 49.2422L130.365 47.9611ZM129.514 48.7495L128.296 47.8743L127.951 48.3549L129.169 49.2301L130.387 50.1053L130.732 49.6248L129.514 48.7495ZM129.169 49.2301L127.951 48.3549L127.606 48.8354L128.824 49.7107L130.042 50.5859L130.387 50.1053L129.169 49.2301ZM128.824 49.7107L127.606 48.8354C127.491 48.9951 127.359 49.1157 127.205 49.2094L127.982 50.4921L128.76 51.7747C129.267 51.4673 129.696 51.067 130.042 50.5859L128.824 49.7107ZM127.982 50.4921L127.205 49.2094L126.708 49.5102L127.486 50.7929L128.264 52.0756L128.76 51.7747L127.982 50.4921ZM127.486 50.7929L126.708 49.5102L126.212 49.8111L126.99 51.0937L127.768 52.3764L128.264 52.0756L127.486 50.7929ZM126.99 51.0937L126.212 49.8111C126.08 49.8912 125.92 49.9494 125.711 49.9728L125.878 51.4635L126.044 52.9542C126.656 52.8857 127.238 52.6974 127.768 52.3764L126.99 51.0937ZM125.878 51.4635L125.711 49.9728L125.095 50.0418L125.261 51.5325L125.428 53.0232L126.044 52.9542L125.878 51.4635ZM125.261 51.5325L125.095 50.0418L124.478 50.1108L124.645 51.6015L124.812 53.0921L125.428 53.0232L125.261 51.5325ZM124.645 51.6015L124.478 50.1108C124.021 50.1619 123.581 50.2329 123.158 50.3251L123.478 51.7906L123.797 53.2562C124.11 53.1881 124.448 53.1329 124.812 53.0921L124.645 51.6015ZM123.478 51.7906L123.158 50.3251L122.607 50.4453L122.926 51.9108L123.246 53.3764L123.797 53.2562L123.478 51.7906ZM122.926 51.9108L122.607 50.4453L122.055 50.5655L122.375 52.0311L122.694 53.4966L123.246 53.3764L122.926 51.9108ZM122.375 52.0311L122.055 50.5655C121.331 50.7235 120.733 51.1185 120.273 51.6533L121.409 52.6324L122.545 53.6115C122.637 53.5048 122.684 53.4989 122.694 53.4966L122.375 52.0311ZM121.409 52.6324L120.273 51.6533L119.858 52.1344L120.995 53.1135L122.131 54.0926L122.545 53.6115L121.409 52.6324ZM120.995 53.1135L119.858 52.1344L119.444 52.6155L120.58 53.5946L121.716 54.5737L122.131 54.0926L120.995 53.1135ZM120.58 53.5946L119.444 52.6155C119.331 52.7463 119.245 52.7885 119.181 52.8077L119.619 54.2424L120.057 55.677C120.722 55.474 121.276 55.0844 121.716 54.5737L120.58 53.5946ZM119.619 54.2424L119.181 52.8077L118.635 52.9744L119.073 54.4091L119.511 55.8437L120.057 55.677L119.619 54.2424ZM119.073 54.4091L118.635 52.9744L118.089 53.1411L118.527 54.5758L118.965 56.0104L119.511 55.8437L119.073 54.4091ZM118.527 54.5758L118.089 53.1411C117.784 53.2344 117.473 53.3087 117.158 53.3642L117.418 54.8415L117.678 56.3188C118.113 56.2422 118.542 56.1394 118.965 56.0104L118.527 54.5758ZM117.418 54.8415L117.158 53.3642L116.596 53.4632L116.855 54.9405L117.115 56.4178L117.678 56.3188L117.418 54.8415ZM116.855 54.9405L116.596 53.4632L116.033 53.5622L116.293 55.0395L116.553 56.5168L117.115 56.4178L116.855 54.9405ZM116.293 55.0395L116.033 53.5622C115.707 53.6196 115.379 53.6606 115.049 53.6852L115.161 55.181L115.272 56.6769C115.702 56.6448 116.129 56.5915 116.553 56.5168L116.293 55.0395ZM115.161 55.181L115.049 53.6852L114.48 53.7276L114.592 55.2235L114.703 56.7193L115.272 56.6769L115.161 55.181ZM114.592 55.2235L114.48 53.7276L113.911 53.7701L114.023 55.2659L114.134 56.7618L114.703 56.7193L114.592 55.2235ZM114.023 55.2659L113.911 53.7701C113.707 53.7853 113.5 53.7661 113.282 53.7064L112.886 55.1534L112.491 56.6003C113.029 56.7474 113.579 56.8032 114.134 56.7618L114.023 55.2659ZM112.886 55.1534L113.282 53.7064L112.714 53.5514L112.319 54.9984L111.924 56.4453L112.491 56.6003L112.886 55.1534ZM112.319 54.9984L112.714 53.5514L112.147 53.3964L111.752 54.8434L111.356 56.2903L111.924 56.4453L112.319 54.9984ZM111.752 54.8434L112.147 53.3964C111.742 53.2858 111.338 53.1874 110.935 53.1014L110.622 54.5684L110.309 56.0354C110.656 56.1093 111.005 56.1943 111.356 56.2903L111.752 54.8434ZM110.622 54.5684L110.935 53.1014L110.373 52.9814L110.06 54.4484L109.747 55.9154L110.309 56.0354L110.622 54.5684ZM110.06 54.4484L110.373 52.9814L109.81 52.8614L109.497 54.3284L109.184 55.7954L109.747 55.9154L110.06 54.4484ZM109.497 54.3284L109.81 52.8614C108.929 52.6733 108.125 52.9421 107.485 53.4119L108.372 54.6212L109.26 55.8305C109.324 55.7832 109.341 55.7857 109.312 55.7932C109.298 55.797 109.277 55.8007 109.251 55.8013C109.225 55.8019 109.202 55.7992 109.184 55.7954L109.497 54.3284ZM108.372 54.6212L107.485 53.4119L106.922 53.8246L107.81 55.034L108.697 56.2433L109.26 55.8305L108.372 54.6212ZM107.81 55.034L106.922 53.8246L106.36 54.2374L107.247 55.4467L108.135 56.6561L108.697 56.2433L107.81 55.034ZM107.247 55.4467L106.36 54.2374C106.286 54.2912 106.253 54.2993 106.261 54.2971C106.265 54.296 106.275 54.2933 106.291 54.2921C106.307 54.2909 106.323 54.2916 106.337 54.2936L106.122 55.7781L105.907 57.2627C106.756 57.3855 107.519 57.1078 108.135 56.6561L107.247 55.4467ZM106.122 55.7781L106.337 54.2936L105.774 54.2122L105.56 55.6967L105.345 57.1813L105.907 57.2627L106.122 55.7781ZM105.56 55.6967L105.774 54.2122L105.212 54.1308L104.997 55.6153L104.782 57.0999L105.345 57.1813L105.56 55.6967ZM104.997 55.6153L105.212 54.1308C105.057 54.1084 104.866 54.0469 104.634 53.9102L103.872 55.202L103.11 56.4938C103.628 56.7997 104.187 57.0138 104.782 57.0999L104.997 55.6153ZM103.872 55.202L104.634 53.9102L104.072 53.5782L103.31 54.8701L102.547 56.1619L103.11 56.4938L103.872 55.202ZM103.31 54.8701L104.072 53.5782L103.509 53.2463L102.747 54.5381L101.985 55.83L102.547 56.1619L103.31 54.8701ZM102.747 54.5381L103.509 53.2463C102.914 52.8948 102.237 52.6981 101.511 52.752L101.622 54.2479L101.733 55.7438C101.757 55.7421 101.83 55.7388 101.985 55.83L102.747 54.5381ZM101.622 54.2479L101.511 52.752L100.949 52.7938L101.06 54.2897L101.171 55.7855L101.733 55.7438L101.622 54.2479ZM101.06 54.2897L100.949 52.7938L100.386 52.8355L100.497 54.3314L100.608 55.8273L101.171 55.7855L101.06 54.2897ZM100.497 54.3314L100.386 52.8355C99.7326 52.884 99.128 53.1083 98.5833 53.4451L99.3722 54.7209L100.161 55.9968C100.366 55.8698 100.512 55.8344 100.608 55.8273L100.497 54.3314ZM99.3722 54.7209L98.5833 53.4451L98.0208 53.7929L98.8097 55.0687L99.5985 56.3445L100.161 55.9968L99.3722 54.7209ZM98.8097 55.0687L98.0208 53.7929L97.4583 54.1406L98.2472 55.4165L99.036 56.6923L99.5985 56.3445L98.8097 55.0687ZM98.2472 55.4165L97.4583 54.1406C97.4121 54.1692 97.4094 54.1608 97.4456 54.155C97.4628 54.1522 97.4828 54.151 97.5036 54.1524C97.5243 54.1538 97.5393 54.1573 97.5471 54.1596L97.1222 55.5981L96.6973 57.0367C97.5362 57.2845 98.3494 57.1168 99.036 56.6923L98.2472 55.4165ZM97.1222 55.5981L97.5471 54.1596L96.9846 53.9934L96.5597 55.432L96.1348 56.8705L96.6973 57.0367L97.1222 55.5981ZM96.5597 55.432L96.9846 53.9934L96.4221 53.8273L95.9972 55.2658L95.5723 56.7044L96.1348 56.8705L96.5597 55.432ZM95.9972 55.2658L96.4221 53.8273C95.745 53.6273 95.0523 53.6452 94.3876 53.8721L94.8722 55.2917L95.3567 56.7113C95.442 56.6821 95.4993 56.6828 95.5723 56.7044L95.9972 55.2658ZM94.8722 55.2917L94.3876 53.8721L93.8251 54.0641L94.3097 55.4837L94.7942 56.9033L95.3567 56.7113L94.8722 55.2917ZM94.3097 55.4837L93.8251 54.0641L93.2626 54.2561L93.7472 55.6757L94.2317 57.0953L94.7942 56.9033L94.3097 55.4837ZM93.7472 55.6757L93.2626 54.2561C93.2516 54.2599 93.2469 54.2605 93.2477 54.2603C93.2487 54.2602 93.2517 54.2599 93.2555 54.2601C93.2592 54.2603 93.2596 54.2607 93.2556 54.2597C93.2514 54.2587 93.2402 54.2556 93.2215 54.2475L92.6222 55.6225L92.0228 56.9976C92.7287 57.3052 93.4901 57.3484 94.2317 57.0953L93.7472 55.6757ZM92.6222 55.6225L93.2215 54.2475L92.659 54.0023L92.0597 55.3774L91.4603 56.7524L92.0228 56.9976L92.6222 55.6225ZM92.0597 55.3774L92.659 54.0023L92.0965 53.7571L91.4972 55.1322L90.8978 56.5073L91.4603 56.7524L92.0597 55.3774ZM91.4972 55.1322L92.0965 53.7571C91.3367 53.426 90.5252 53.4284 89.7675 53.7621L90.3722 55.1348L90.9768 56.5075C90.9863 56.5034 90.9863 56.5044 90.9776 56.5063C90.9686 56.5083 90.9549 56.5102 90.9381 56.5103C90.9214 56.5103 90.9075 56.5084 90.8981 56.5064C90.8892 56.5044 90.8888 56.5033 90.8978 56.5073L91.4972 55.1322ZM90.3722 55.1348L89.7675 53.7621L89.205 54.0098L89.8097 55.3826L90.4143 56.7553L90.9768 56.5075L90.3722 55.1348ZM89.8097 55.3826L89.205 54.0098L88.6425 54.2576L89.2472 55.6303L89.8518 57.0031L90.4143 56.7553L89.8097 55.3826ZM89.2472 55.6303L88.6425 54.2576C88.658 54.2508 88.6887 54.2396 88.7326 54.2327C88.7773 54.2257 88.8249 54.2248 88.8715 54.2306C88.9679 54.2427 89.005 54.2759 88.9753 54.2554L88.1222 55.4891L87.269 56.7229C88.0151 57.2388 88.9389 57.4052 89.8518 57.0031L89.2472 55.6303ZM88.1222 55.4891L88.9753 54.2554L88.4128 53.8664L87.5597 55.1001L86.7065 56.3339L87.269 56.7229L88.1222 55.4891ZM87.5597 55.1001L88.4128 53.8664L87.8503 53.4774L86.9972 54.7112L86.144 55.9449L86.7065 56.3339L87.5597 55.1001ZM86.9972 54.7112L87.8503 53.4774C87.1552 52.9967 86.2938 52.7882 85.3985 53.0862L85.8722 54.5094L86.3459 55.9326C86.3293 55.9382 86.3026 55.9448 86.2682 55.9474C86.2335 55.9501 86.1997 55.948 86.1699 55.9427C86.1087 55.9317 86.0988 55.9137 86.144 55.9449L86.9972 54.7112ZM85.8722 54.5094L85.3985 53.0862L84.836 53.2734L85.3097 54.6966L85.7834 56.1199L86.3459 55.9326L85.8722 54.5094ZM85.3097 54.6966L84.836 53.2734L84.2735 53.4606L84.7472 54.8838L85.2209 56.3071L85.7834 56.1199L85.3097 54.6966ZM84.7472 54.8838L84.2735 53.4606C83.9529 53.5673 83.6352 53.6526 83.3201 53.7174L83.6222 55.1867L83.9242 56.656C84.3591 56.5665 84.7914 56.45 85.2209 56.3071L84.7472 54.8838ZM83.6222 55.1867L83.3201 53.7174L82.7576 53.8331L83.0597 55.3023L83.3617 56.7716L83.9242 56.656L83.6222 55.1867ZM83.0597 55.3023L82.7576 53.8331L82.1951 53.9487L82.4972 55.418L82.7992 56.8873L83.3617 56.7716L83.0597 55.3023ZM82.4972 55.418L82.1951 53.9487C81.9095 54.0074 81.6274 54.0385 81.3476 54.043L81.3722 55.5428L81.3967 57.0426C81.8669 57.035 82.3348 56.9828 82.7992 56.8873L82.4972 55.418ZM81.3722 55.5428L81.3476 54.043L80.7851 54.0522L80.8097 55.552L80.8342 57.0518L81.3967 57.0426L81.3722 55.5428ZM80.8097 55.552L80.7851 54.0522L80.2226 54.0615L80.2472 55.5613L80.2717 57.0611L80.8342 57.0518L80.8097 55.552ZM80.2472 55.5613L80.2226 54.0615C80.1008 54.0634 79.9522 54.0379 79.7627 53.9485L79.1222 55.3048L78.4816 56.6612C79.0422 56.9259 79.6436 57.0713 80.2717 57.0611L80.2472 55.5613ZM79.1222 55.3048L79.7627 53.9485L79.2002 53.6828L78.5597 55.0392L77.9191 56.3956L78.4816 56.6612L79.1222 55.3048ZM78.5597 55.0392L79.2002 53.6828L78.6377 53.4172L77.9972 54.7736L77.3566 56.1299L77.9191 56.3956L78.5597 55.0392ZM77.9972 54.7736L78.6377 53.4172C77.9942 53.1133 77.2887 53.0063 76.568 53.1556L76.8722 54.6244L77.1763 56.0933C77.2056 56.0872 77.2501 56.0796 77.3566 56.1299L77.9972 54.7736ZM76.8722 54.6244L76.568 53.1556L76.0055 53.2721L76.3097 54.7409L76.6138 56.2097L77.1763 56.0933L76.8722 54.6244ZM76.3097 54.7409L76.0055 53.2721L75.443 53.3885L75.7472 54.8574L76.0513 56.3262L76.6138 56.2097L76.3097 54.7409ZM75.7472 54.8574L75.443 53.3885C75.205 53.4378 74.9728 53.452 74.7423 53.4335L74.6222 54.9286L74.502 56.4238C75.0215 56.4656 75.5394 56.4322 76.0513 56.3262L75.7472 54.8574ZM74.6222 54.9286L74.7423 53.4335L74.1798 53.3883L74.0597 54.8834L73.9395 56.3786L74.502 56.4238L74.6222 54.9286ZM74.0597 54.8834L74.1798 53.3883L73.6173 53.343L73.4972 54.8382L73.377 56.3334L73.9395 56.3786L74.0597 54.8834ZM73.4972 54.8382L73.6173 53.343C72.9714 53.2911 72.3473 53.4126 71.765 53.6703L72.3722 55.042L72.9793 56.4136C73.147 56.3394 73.2729 56.325 73.377 56.3334L73.4972 54.8382ZM72.3722 55.042L71.765 53.6703L71.2025 53.9193L71.8097 55.291L72.4168 56.6626L72.9793 56.4136L72.3722 55.042ZM71.8097 55.291L71.2025 53.9193L70.64 54.1683L71.2472 55.5399L71.8543 56.9116L72.4168 56.6626L71.8097 55.291ZM71.2472 55.5399L70.64 54.1683C70.4954 54.2323 70.3979 54.2377 70.3194 54.2273L70.1222 55.7143L69.9249 57.2013C70.5964 57.2904 71.2489 57.1796 71.8543 56.9116L71.2472 55.5399ZM70.1222 55.7143L70.3194 54.2273L69.7569 54.1527L69.5597 55.6397L69.3624 57.1266L69.9249 57.2013L70.1222 55.7143ZM69.5597 55.6397L69.7569 54.1527L69.1944 54.0781L68.9972 55.565L68.7999 57.052L69.3624 57.1266L69.5597 55.6397ZM68.9972 55.565L69.1944 54.0781C68.7999 54.0257 68.4052 53.9813 68.0103 53.9448L67.8722 55.4384L67.734 56.932C68.0892 56.9649 68.4445 57.0048 68.7999 57.052L68.9972 55.565ZM67.8722 55.4384L68.0103 53.9448L67.4478 53.8927L67.3097 55.3863L67.1715 56.88L67.734 56.932L67.8722 55.4384ZM67.3097 55.3863L67.4478 53.8927L66.8853 53.8407L66.7472 55.3343L66.609 56.8279L67.1715 56.88L67.3097 55.3863ZM66.7472 55.3343L66.8853 53.8407C66.5947 53.8138 66.3009 53.762 66.0033 53.6838L65.6222 55.1345L65.2411 56.5853C65.6934 56.7041 66.1496 56.7855 66.609 56.8279L66.7472 55.3343ZM65.6222 55.1345L66.0033 53.6838L65.4408 53.536L65.0597 54.9868L64.6786 56.4376L65.2411 56.5853L65.6222 55.1345ZM65.0597 54.9868L65.4408 53.536L64.8783 53.3882L64.4972 54.839L64.1161 56.2898L64.6786 56.4376L65.0597 54.9868ZM64.4972 54.839L64.8783 53.3882C64.1642 53.2007 63.4488 53.2678 62.7845 53.5507L63.3722 54.9308L63.9599 56.3109C64.0455 56.2744 64.0802 56.2804 64.1161 56.2898L64.4972 54.839ZM63.3722 54.9308L62.7845 53.5507L62.222 53.7903L62.8097 55.1703L63.3974 56.5504L63.9599 56.3109L63.3722 54.9308ZM62.8097 55.1703L62.222 53.7903L61.6595 54.0298L62.2472 55.4099L62.8349 56.79L63.3974 56.5504L62.8097 55.1703ZM62.2472 55.4099L61.6595 54.0298C61.6465 54.0353 61.6419 54.036 61.6449 54.0353C61.6482 54.0346 61.6558 54.0334 61.6662 54.0332C61.6766 54.0331 61.6849 54.0342 61.6897 54.0351C61.6942 54.036 61.6915 54.0359 61.6807 54.0316L61.1222 55.4238L60.5637 56.8159C61.3109 57.1157 62.0981 57.1037 62.8349 56.79L62.2472 55.4099ZM61.1222 55.4238L61.6807 54.0316L61.1182 53.806L60.5597 55.1981L60.0012 56.5902L60.5637 56.8159L61.1222 55.4238ZM60.5597 55.1981L61.1182 53.806L60.5557 53.5803L59.9972 54.9724L59.4387 56.3646L60.0012 56.5902L60.5597 55.1981ZM59.9972 54.9724L60.5557 53.5803C60.1116 53.4021 59.6619 53.26 59.2068 53.1558L58.8722 54.618L58.5375 56.0802C58.8324 56.1477 59.1327 56.2418 59.4387 56.3646L59.9972 54.9724ZM58.8722 54.618L59.2068 53.1558L58.6443 53.0271L58.3097 54.4893L57.975 55.9515L58.5375 56.0802L58.8722 54.618ZM58.3097 54.4893L58.6443 53.0271L58.0818 52.8983L57.7472 54.3605L57.4125 55.8227L57.975 55.9515L58.3097 54.4893ZM57.7472 54.3605L58.0818 52.8983C57.4648 52.7571 56.8404 52.771 56.2305 52.9359L56.6222 54.3839L57.0138 55.8319C57.1539 55.794 57.2795 55.7923 57.4125 55.8227L57.7472 54.3605ZM56.6222 54.3839L56.2305 52.9359L55.668 53.0881L56.0597 54.536L56.4513 55.984L57.0138 55.8319L56.6222 54.3839ZM56.0597 54.536L55.668 53.0881L55.1055 53.2402L55.4972 54.6882L55.8888 56.1362L56.4513 55.984L56.0597 54.536ZM55.4972 54.6882L55.1055 53.2402C54.7693 53.3311 54.4342 53.4073 54.1002 53.4689L54.3722 54.944L54.6441 56.4192C55.0601 56.3425 55.475 56.2481 55.8888 56.1362L55.4972 54.6882ZM54.3722 54.944L54.1002 53.4689L53.5377 53.5726L53.8097 55.0477L54.0816 56.5228L54.6441 56.4192L54.3722 54.944ZM53.8097 55.0477L53.5377 53.5726L52.9752 53.6763L53.2472 55.1514L53.5191 56.6265L54.0816 56.5228L53.8097 55.0477ZM53.2472 55.1514L52.9752 53.6763C52.644 53.7373 52.3136 53.783 51.984 53.8135L52.1222 55.3071L52.2604 56.8008C52.6808 56.7619 53.1004 56.7037 53.5191 56.6265L53.2472 55.1514ZM52.1222 55.3071L51.984 53.8135L51.4215 53.8656L51.5597 55.3592L51.6979 56.8528L52.2604 56.8008L52.1222 55.3071ZM51.5597 55.3592L51.4215 53.8656L50.859 53.9176L50.9972 55.4112L51.1354 56.9049L51.6979 56.8528L51.5597 55.3592ZM50.9972 55.4112L50.859 53.9176C50.8024 53.9228 50.7122 53.9186 50.5599 53.84L49.8722 55.1731L49.1844 56.5061C49.7821 56.8145 50.4419 56.969 51.1354 56.9049L50.9972 55.4112ZM49.8722 55.1731L50.5599 53.84L49.9974 53.5498L49.3097 54.8828L48.6219 56.2159L49.1844 56.5061L49.8722 55.1731ZM49.3097 54.8828L49.9974 53.5498L49.4349 53.2596L48.7472 54.5926L48.0594 55.9256L48.6219 56.2159L49.3097 54.8828ZM48.7472 54.5926L49.4349 53.2596C48.861 52.9635 48.2337 52.7999 47.5719 52.8221L47.6222 54.3213L47.6725 55.8204C47.7606 55.8175 47.8833 55.8348 48.0594 55.9256L48.7472 54.5926ZM47.6222 54.3213L47.5719 52.8221L47.0094 52.841L47.0597 54.3401L47.11 55.8393L47.6725 55.8204L47.6222 54.3213ZM47.0597 54.3401L47.0094 52.841L46.4469 52.8599L46.4972 54.359L46.5475 55.8582L47.11 55.8393L47.0597 54.3401ZM46.4972 54.359L46.4469 52.8599C46.1008 52.8715 45.7549 52.873 45.4089 52.8646L45.3722 54.3641L45.3355 55.8637C45.7395 55.8736 46.1435 55.8717 46.5475 55.8582L46.4972 54.359ZM45.3722 54.3641L45.4089 52.8646L44.8464 52.8508L44.8097 54.3504L44.773 55.8499L45.3355 55.8637L45.3722 54.3641ZM44.8097 54.3504L44.8464 52.8508L44.2839 52.8371L44.2472 54.3366L44.2105 55.8362L44.773 55.8499L44.8097 54.3504ZM44.2472 54.3366L44.2839 52.8371C43.7941 52.8251 43.3067 52.869 42.8236 52.9671L43.1222 54.4371L43.4207 55.9071C43.6877 55.8529 43.9502 55.8298 44.2105 55.8362L44.2472 54.3366ZM43.1222 54.4371L42.8236 52.9671L42.2611 53.0814L42.5597 54.5513L42.8582 56.0213L43.4207 55.9071L43.1222 54.4371ZM42.5597 54.5513L42.2611 53.0814L41.6986 53.1956L41.9972 54.6656L42.2957 56.1356L42.8582 56.0213L42.5597 54.5513ZM41.9972 54.6656L41.6986 53.1956C41.4429 53.2475 41.1921 53.2666 40.9434 53.2548L40.8722 54.7531L40.8009 56.2514C41.3022 56.2752 41.8015 56.236 42.2957 56.1356L41.9972 54.6656ZM40.8722 54.7531L40.9434 53.2548L40.3809 53.228L40.3097 54.7263L40.2384 56.2246L40.8009 56.2514L40.8722 54.7531ZM40.3097 54.7263L40.3809 53.228L39.8184 53.2013L39.7472 54.6996L39.6759 56.1979L40.2384 56.2246L40.3097 54.7263ZM39.7472 54.6996L39.8184 53.2013C39.26 53.1747 38.7096 53.2497 38.1749 53.4168L38.6222 54.8485L39.0695 56.2803C39.2847 56.2131 39.4844 56.1888 39.6759 56.1979L39.7472 54.6996ZM38.6222 54.8485L38.1749 53.4168L37.6124 53.5925L38.0597 55.0243L38.507 56.456L39.0695 56.2803L38.6222 54.8485ZM38.0597 55.0243L37.6124 53.5925L37.0499 53.7683L37.4972 55.2L37.9445 56.6318L38.507 56.456L38.0597 55.0243ZM37.4972 55.2L37.0499 53.7683C36.8702 53.8244 36.7099 53.8368 36.5552 53.8178L36.3722 55.3066L36.1891 56.7954C36.7844 56.8686 37.3741 56.81 37.9445 56.6318L37.4972 55.2ZM36.3722 55.3066L36.5552 53.8178L35.9927 53.7486L35.8097 55.2374L35.6266 56.7262L36.1891 56.7954L36.3722 55.3066ZM35.8097 55.2374L35.9927 53.7486L35.4302 53.6795L35.2472 55.1683L35.0641 56.6571L35.6266 56.7262L35.8097 55.2374ZM35.2472 55.1683L35.4302 53.6795C35.0153 53.6285 34.5999 53.5943 34.1842 53.5771L34.1222 55.0759L34.0602 56.5746C34.3944 56.5884 34.729 56.6159 35.0641 56.6571L35.2472 55.1683ZM34.1222 55.0759L34.1842 53.5771L33.6217 53.5539L33.5597 55.0526L33.4977 56.5513L34.0602 56.5746L34.1222 55.0759ZM33.5597 55.0526L33.6217 53.5539L33.0592 53.5306L32.9972 55.0293L32.9352 56.528L33.4977 56.5513L33.5597 55.0526ZM32.9972 55.0293L33.0592 53.5306C32.6845 53.5151 32.3099 53.4995 31.9353 53.4837L31.8722 54.9823L31.809 56.481C32.1844 56.4968 32.5598 56.5125 32.9352 56.528L32.9972 55.0293ZM31.8722 54.9823L31.9353 53.4837L31.3728 53.46L31.3097 54.9586L31.2465 56.4573L31.809 56.481L31.8722 54.9823ZM31.3097 54.9586L31.3728 53.46L30.8103 53.4363L30.7472 54.9349L30.684 56.4336L31.2465 56.4573L31.3097 54.9586ZM30.7472 54.9349L30.8103 53.4363C30.2351 53.412 29.6711 53.5017 29.1276 53.6913L29.6216 55.1076L30.1156 56.5239C30.3228 56.4517 30.5093 56.4263 30.684 56.4336L30.7472 54.9349ZM29.6216 55.1076L29.1276 53.6913L28.5646 53.8877L29.0586 55.304L29.5526 56.7203L30.1156 56.5239L29.6216 55.1076ZM29.0586 55.304L28.5646 53.8877L28.0016 54.084L28.4956 55.5004L28.9896 56.9167L29.5526 56.7203L29.0586 55.304ZM28.4956 55.5004L28.0016 54.084C27.9919 54.0874 27.9893 54.0874 27.993 54.0869C27.9969 54.0863 28.0033 54.0858 28.011 54.0862C28.0185 54.0866 28.0228 54.0876 28.0224 54.0875C28.0219 54.0874 28.0138 54.0853 27.9979 54.078L27.3757 55.4429L26.7536 56.8078C27.4661 57.1326 28.2389 57.1785 28.9896 56.9167L28.4956 55.5004ZM27.3757 55.4429L27.9979 54.078L27.441 53.8242L26.8189 55.1891L26.1968 56.554L26.7536 56.8078L27.3757 55.4429ZM26.8189 55.1891L27.441 53.8242L26.8842 53.5704L26.2621 54.9353L25.6399 56.3002L26.1968 56.554L26.8189 55.1891ZM26.2621 54.9353L26.8842 53.5704C26.4801 53.3862 26.0809 53.222 25.6867 53.0785L25.1736 54.488L24.6605 55.8975C24.9752 56.0121 25.3016 56.146 25.6399 56.3002L26.2621 54.9353ZM25.1736 54.488L25.6867 53.0785L25.1551 52.885L24.642 54.2945L24.1289 55.704L24.6605 55.8975L25.1736 54.488ZM24.642 54.2945L25.1551 52.885L24.6234 52.6914L24.1103 54.101L23.5973 55.5105L24.1289 55.704L24.642 54.2945ZM24.1103 54.101L24.6234 52.6914C24.088 52.4965 23.5303 52.4082 22.9609 52.4263L23.0083 53.9255L23.0558 55.4248C23.2469 55.4187 23.4239 55.4474 23.5973 55.5105L24.1103 54.101ZM23.0083 53.9255L22.9609 52.4263L22.3905 52.4443L22.438 53.9436L22.4854 55.4428L23.0558 55.4248L23.0083 53.9255ZM22.438 53.9436L22.3905 52.4443L21.8201 52.4624L21.8676 53.9616L21.9151 55.4609L22.4854 55.4428L22.438 53.9436ZM21.8676 53.9616L21.8201 52.4624C21.7296 52.4652 21.664 52.4478 21.5882 52.4018L20.8103 53.6843L20.0323 54.9668C20.6058 55.3147 21.2451 55.4821 21.9151 55.4609L21.8676 53.9616ZM20.8103 53.6843L21.5882 52.4018L21.1013 52.1064L20.3233 53.3889L19.5453 54.6714L20.0323 54.9668L20.8103 53.6843ZM20.3233 53.3889L21.1013 52.1064L20.6143 51.811L19.8363 53.0935L19.0583 54.3759L19.5453 54.6714L20.3233 53.3889ZM19.8363 53.0935L20.6143 51.811C20.2211 51.5725 19.8144 51.3688 19.3945 51.2018L18.8402 52.5956L18.2859 53.9894C18.5448 54.0924 18.8022 54.2206 19.0583 54.3759L19.8363 53.0935ZM18.8402 52.5956L19.3945 51.2018L18.8854 50.9993L18.3311 52.3931L17.7768 53.7869L18.2859 53.9894L18.8402 52.5956ZM18.3311 52.3931L18.8854 50.9993L18.3762 50.7968L17.8219 52.1906L17.2676 53.5845L17.7768 53.7869L18.3311 52.3931ZM17.8219 52.1906L18.3762 50.7968C17.7637 50.5532 17.1162 50.5006 16.4816 50.5678L16.6397 52.0595L16.7978 53.5511C17.0606 53.5233 17.2013 53.5581 17.2676 53.5845L17.8219 52.1906ZM16.6397 52.0595L16.4816 50.5678L15.8085 50.6392L15.9666 52.1308L16.1247 53.6225L16.7978 53.5511L16.6397 52.0595ZM15.9666 52.1308L15.8085 50.6392L15.1354 50.7105L15.2935 52.2021L15.4516 53.6938L16.1247 53.6225L15.9666 52.1308ZM15.2935 52.2021L15.1354 50.7105C15.1033 50.7139 15.1564 50.7027 15.2514 50.7405C15.354 50.7814 15.4203 50.8455 15.4477 50.8816L14.2522 51.7876L13.0567 52.6936C13.6595 53.4889 14.5494 53.7894 15.4516 53.6938L15.2935 52.2021ZM14.2522 51.7876L15.4477 50.8816L15.0795 50.3958L13.884 51.3018L12.6885 52.2077L13.0567 52.6936L14.2522 51.7876ZM13.884 51.3018L15.0795 50.3958L14.7113 49.9099L13.5158 50.8159L12.3203 51.7219L12.6885 52.2077L13.884 51.3018ZM13.5158 50.8159L14.7113 49.9099C14.4511 49.5666 14.1896 49.2389 13.9265 48.927L12.7799 49.8941L11.6333 50.8612C11.8605 51.1306 12.0895 51.4174 12.3203 51.7219L13.5158 50.8159ZM12.7799 49.8941L13.9265 48.927L13.5588 48.4911L12.4122 49.4582L11.2656 50.4253L11.6333 50.8612L12.7799 49.8941ZM12.4122 49.4582L13.5588 48.4911L13.1912 48.0552L12.0446 49.0223L10.898 49.9894L11.2656 50.4253L12.4122 49.4582ZM12.0446 49.0223L13.1912 48.0552C12.7574 47.5409 12.2057 47.1819 11.5813 46.9689L11.097 48.3885L10.6127 49.8082C10.7614 49.859 10.8415 49.9225 10.898 49.9894L12.0446 49.0223ZM11.097 48.3885L11.5813 46.9689L11.0014 46.7711L10.5171 48.1907L10.0328 49.6104L10.6127 49.8082L11.097 48.3885ZM10.5171 48.1907L11.0014 46.7711L10.4215 46.5732L9.93717 47.9929L9.45289 49.4126L10.0328 49.6104L10.5171 48.1907ZM9.93717 47.9929L10.4215 46.5732C10.195 46.496 10.0112 46.3921 9.85692 46.2659L8.90714 47.4269L7.95736 48.5879C8.40325 48.9526 8.9061 49.2261 9.45289 49.4126L9.93717 47.9929ZM8.90714 47.4269L9.85692 46.2659L9.40679 45.8976L8.45701 47.0586L7.50723 48.2196L7.95736 48.5879L8.90714 47.4269ZM8.45701 47.0586L9.40679 45.8976L8.95665 45.5294L8.00687 46.6904L7.0571 47.8514L7.50723 48.2196L8.45701 47.0586ZM8.00687 46.6904L8.95665 45.5294C8.8011 45.4021 8.67686 45.2544 8.57788 45.0787L7.27102 45.815L5.96417 46.5513C6.24614 47.0518 6.61248 47.4876 7.0571 47.8514L8.00687 46.6904ZM7.27102 45.815L8.57788 45.0787L8.29216 44.5716L6.98531 45.3079L5.67845 46.0442L5.96417 46.5513L7.27102 45.815ZM6.98531 45.3079L8.29216 44.5716L8.00645 44.0645L6.69959 44.8008L5.39273 45.5371L5.67845 46.0442L6.98531 45.3079ZM6.69959 44.8008L8.00645 44.0645C7.91833 43.9081 7.85437 43.7224 7.82556 43.4908L6.33704 43.6759L4.84851 43.8611C4.92215 44.4531 5.0999 45.0173 5.39273 45.5371L6.69959 44.8008ZM6.33704 43.6759L7.82556 43.4908L7.74873 42.8731L6.2602 43.0583L4.77167 43.2434L4.84851 43.8611L6.33704 43.6759ZM6.2602 43.0583L7.74873 42.8731L7.67189 42.2554L6.18336 42.4406L4.69484 42.6257L4.77167 43.2434L6.2602 43.0583ZM6.18336 42.4406L7.67189 42.2554C7.59422 41.631 7.38633 41.0357 7.01871 40.5088L5.78853 41.3671L4.55835 42.2254C4.61473 42.3062 4.67005 42.4265 4.69484 42.6257L6.18336 42.4406ZM5.78853 41.3671L7.01871 40.5088L6.70072 40.053L5.47054 40.9113L4.24036 41.7696L4.55835 42.2254L5.78853 41.3671ZM5.47054 40.9113L6.70072 40.053L6.38272 39.5972L5.15254 40.4555L3.92236 41.3138L4.24036 41.7696L5.47054 40.9113ZM5.15254 40.4555L6.38272 39.5972C6.20118 39.337 6.033 39.0665 5.87816 38.7855L4.56434 39.5093L3.25053 40.2331C3.45596 40.606 3.67991 40.9663 3.92236 41.3138L5.15254 40.4555ZM4.56434 39.5093L5.87816 38.7855L5.60796 38.295L4.29414 39.0188L2.98033 39.7426L3.25053 40.2331L4.56434 39.5093ZM4.29414 39.0188L5.60796 38.295L5.33776 37.8046L4.02394 38.5284L2.71012 39.2522L2.98033 39.7426L4.29414 39.0188ZM4.02394 38.5284L5.33776 37.8046C5.21991 37.5906 5.13213 37.3672 5.07308 37.1313L3.61798 37.4956L2.16289 37.8599C2.28485 38.3471 2.46771 38.8121 2.71012 39.2522L4.02394 38.5284ZM3.61798 37.4956L5.07308 37.1313L4.93732 36.5891L3.48223 36.9533L2.02713 37.3176L2.16289 37.8599L3.61798 37.4956ZM3.48223 36.9533L4.93732 36.5891L4.80157 36.0468L3.34647 36.4111L1.89138 36.7753L2.02713 37.3176L3.48223 36.9533ZM3.34647 36.4111L4.80157 36.0468C4.65188 35.4489 4.3655 34.9112 3.98296 34.4362L2.81465 35.3769L1.64634 36.3177C1.79189 36.4985 1.86006 36.6503 1.89138 36.7753L3.34647 36.4111ZM2.81465 35.3769L3.98296 34.4362L3.5869 33.9443L2.41859 34.8851L1.25028 35.8259L1.64634 36.3177L2.81465 35.3769ZM2.41859 34.8851L3.5869 33.9443L3.19084 33.4525L2.02253 34.3932L0.854219 35.334L1.25028 35.8259L2.41859 34.8851ZM2.02253 34.3932L3.19084 33.4525C3.20859 33.4745 3.26249 33.5565 3.27875 33.6871C3.2945 33.8134 3.26286 33.8882 3.26528 33.8826L1.88558 33.294L0.505883 32.7054C0.335555 33.1047 0.240373 33.5651 0.301766 34.0579C0.363682 34.5549 0.57242 34.9841 0.854219 35.334L2.02253 34.3932ZM1.88558 33.294L3.26528 33.8826L3.5244 33.2752L2.1447 32.6866L0.765 32.098L0.505883 32.7054L1.88558 33.294ZM2.1447 32.6866L3.5244 33.2752L3.78352 32.6678L2.40382 32.0792L1.02412 31.4906L0.765 32.098L2.1447 32.6866ZM2.40382 32.0792L3.78352 32.6678C4.02214 32.1084 4.16364 31.515 4.15548 30.9018L2.65561 30.9217L1.15574 30.9417C1.15734 31.0619 1.13099 31.2401 1.02412 31.4906L2.40382 32.0792ZM2.65561 30.9217L4.15548 30.9018L4.14815 30.3517L2.64828 30.3717L1.14841 30.3917L1.15574 30.9417L2.65561 30.9217ZM2.64828 30.3717L4.14815 30.3517L4.14082 29.8017L2.64095 29.8217L1.14109 29.8417L1.14841 30.3917L2.64828 30.3717ZM2.64095 29.8217L4.14082 29.8017C4.13267 29.19 3.97766 28.6051 3.71887 28.0586L2.36322 28.7007L1.00757 29.3427C1.10932 29.5576 1.13947 29.72 1.14109 29.8417L2.64095 29.8217ZM2.36322 28.7007L3.71887 28.0586L3.44847 27.4877L2.09281 28.1297L0.737163 28.7717L1.00757 29.3427L2.36322 28.7007ZM2.09281 28.1297L3.44847 27.4877L3.17806 26.9167L1.82241 27.5588L0.466757 28.2008L0.737163 28.7717L2.09281 28.1297ZM1.82241 27.5588L3.17806 26.9167C3.08314 26.7163 3.04915 26.547 3.04817 26.3969L1.5482 26.4067L0.0482354 26.4165C0.0523188 27.0412 0.201134 27.6399 0.466757 28.2008L1.82241 27.5588ZM1.5482 26.4067L3.04817 26.3969L3.04437 25.8158L1.5444 25.8256L0.0444369 25.8354L0.0482354 26.4165L1.5482 26.4067ZM1.5444 25.8256L3.04437 25.8158L3.04057 25.2348L1.54061 25.2446L0.0406386 25.2544L0.0444369 25.8354L1.5444 25.8256ZM1.54061 25.2446L3.04057 25.2348C3.03867 24.9438 3.06459 24.6563 3.11838 24.371L1.64435 24.0931L0.170315 23.8152C0.0807221 24.2904 0.0374761 24.7706 0.0406386 25.2544L1.54061 25.2446ZM1.64435 24.0931L3.11838 24.371L3.22592 23.8005L1.75189 23.5226L0.277855 23.2448L0.170315 23.8152L1.64435 24.0931ZM1.75189 23.5226L3.22592 23.8005L3.33346 23.2301L1.85943 22.9522L0.385395 22.6743L0.277855 23.2448L1.75189 23.5226ZM1.85943 22.9522L3.33346 23.2301C3.37164 23.0276 3.44438 22.8344 3.55845 22.6439L2.27161 21.8732L0.984776 21.1024C0.692655 21.5901 0.490608 22.1162 0.385395 22.6743L1.85943 22.9522ZM2.27161 21.8732L3.55845 22.6439L3.86309 22.1353L2.57626 21.3645L1.28942 20.5938L0.984776 21.1024L2.27161 21.8732ZM2.57626 21.3645L3.86309 22.1353L4.16774 21.6267L2.8809 20.8559L1.59406 20.0852L1.28942 20.5938L2.57626 21.3645ZM2.8809 20.8559L4.16774 21.6267C4.40127 21.2367 4.60809 20.8391 4.78707 20.4337L3.41486 19.8279L2.04266 19.222C1.91588 19.5092 1.76672 19.7969 1.59406 20.0852L2.8809 20.8559ZM3.41486 19.8279L4.78707 20.4337L5.01639 19.9144L3.64418 19.3085L2.27198 18.7026L2.04266 19.222L3.41486 19.8279ZM3.64418 19.3085L5.01639 19.9144L5.24571 19.395L3.87351 18.7891L2.5013 18.1833L2.27198 18.7026L3.64418 19.3085ZM3.87351 18.7891L5.24571 19.395C5.38973 19.0688 5.54065 18.7463 5.69848 18.4276L4.35423 17.762L3.00998 17.0964C2.83261 17.4546 2.66305 17.8169 2.5013 18.1833L3.87351 18.7891ZM4.35423 17.762L5.69848 18.4276L5.94988 17.9198L4.60564 17.2542L3.26139 16.5886L3.00998 17.0964L4.35423 17.762ZM4.60564 17.2542L5.94988 17.9198L6.20129 17.4121L4.85704 16.7465L3.51279 16.0809L3.26139 16.5886L4.60564 17.2542ZM4.85704 16.7465L6.20129 17.4121C6.30341 17.2058 6.43369 17.0173 6.59598 16.8434L5.49949 15.8198L4.403 14.7962C4.0439 15.1809 3.74588 15.6101 3.51279 16.0809L4.85704 16.7465ZM5.49949 15.8198L6.59598 16.8434L6.98703 16.4245L5.89054 15.4009L4.79405 14.3773L4.403 14.7962L5.49949 15.8198ZM5.89054 15.4009L6.98703 16.4245L7.37807 16.0056L6.28158 14.982L5.18509 13.9584L4.79405 14.3773L5.89054 15.4009ZM6.28158 14.982L7.37807 16.0056C7.64107 15.7239 7.89967 15.4449 8.15385 15.1688L7.05028 14.1529L5.94671 13.1369C5.69736 13.4078 5.44349 13.6816 5.18509 13.9584L6.28158 14.982ZM7.05028 14.1529L8.15385 15.1688L8.5315 14.7586L7.42793 13.7427L6.32436 12.7267L5.94671 13.1369L7.05028 14.1529ZM7.42793 13.7427L8.5315 14.7586L8.90915 14.3484L7.80558 13.3324L6.70201 12.3165L6.32436 12.7267L7.42793 13.7427ZM7.80558 13.3324L8.90915 14.3484C9.33652 13.8841 9.62547 13.3345 9.79745 12.738L8.35617 12.3224L6.91489 11.9069C6.85629 12.1101 6.77817 12.2338 6.70201 12.3165L7.80558 13.3324ZM8.35617 12.3224L9.79745 12.738L9.97039 12.1382L8.52911 11.7227L7.08783 11.3071L6.91489 11.9069L8.35617 12.3224ZM8.52911 11.7227L9.97039 12.1382L10.1433 11.5385L8.70205 11.1229L7.26077 10.7073L7.08783 11.3071L8.52911 11.7227ZM8.70205 11.1229L10.1433 11.5385C10.1398 11.5506 10.115 11.6196 10.0409 11.6932C10.0069 11.727 9.97272 11.7513 9.9441 11.7675C9.91631 11.7832 9.89959 11.7879 9.90081 11.7876L9.48338 10.3468L9.06595 8.90608C8.1746 9.16433 7.52128 9.8038 7.26077 10.7073L8.70205 11.1229ZM9.48338 10.3468L9.90081 11.7876L10.5092 11.6113L10.0918 10.1706L9.67434 8.72981L9.06595 8.90608L9.48338 10.3468ZM10.0918 10.1706L10.5092 11.6113L11.1176 11.435L10.7002 9.99429L10.2827 8.55354L9.67434 8.72981L10.0918 10.1706ZM10.7002 9.99429L11.1176 11.435C11.6333 11.2856 12.1193 11.0805 12.5625 10.8087L11.7786 9.5299L10.9946 8.25106C10.8112 8.36351 10.5782 8.46794 10.2827 8.55354L10.7002 9.99429ZM11.7786 9.5299L12.5625 10.8087L13.0325 10.5206L12.2486 9.24178L11.4646 7.96293L10.9946 8.25106L11.7786 9.5299ZM12.2486 9.24178L13.0325 10.5206L13.5025 10.2325L12.7186 8.95366L11.9347 7.67481L11.4646 7.96293L12.2486 9.24178ZM12.7186 8.95366L13.5025 10.2325C13.9813 9.939 14.3916 9.56178 14.7337 9.11629L13.544 8.2027L12.3543 7.28912C12.2226 7.46073 12.0826 7.58415 11.9347 7.67481L12.7186 8.95366ZM13.544 8.2027L14.7337 9.11629L15.0891 8.65345L13.8995 7.73987L12.7098 6.82628L12.3543 7.28912L13.544 8.2027ZM13.8995 7.73987L15.0891 8.65345L15.4446 8.19061L14.2549 7.27703L13.0652 6.36344L12.7098 6.82628L13.8995 7.73987ZM14.2549 7.27703L15.4446 8.19061C15.6448 7.92991 15.8625 7.67878 16.0984 7.43719L15.0252 6.38929L13.9519 5.34138C13.6346 5.66634 13.3389 6.00703 13.0652 6.36344L14.2549 7.27703ZM15.0252 6.38929L16.0984 7.43719L16.5133 7.01229L15.44 5.96438L14.3668 4.91648L13.9519 5.34138L15.0252 6.38929ZM15.44 5.96438L16.5133 7.01229L16.9281 6.58738L15.8549 5.53948L14.7816 4.49157L14.3668 4.91648L15.44 5.96438ZM15.8549 5.53948L16.9281 6.58738C17.0883 6.42333 17.2602 6.30004 17.4469 6.20874L16.7881 4.86117L16.1292 3.5136C15.6249 3.76018 15.1746 4.08908 14.7816 4.49157L15.8549 5.53948ZM16.7881 4.86117L17.4469 6.20874L17.9652 5.95533L17.3064 4.60777L16.6475 3.2602L16.1292 3.5136L16.7881 4.86117ZM17.3064 4.60777L17.9652 5.95533L18.4835 5.70193L17.8247 4.35436L17.1659 3.00679L16.6475 3.2602L17.3064 4.60777ZM17.8247 4.35436L18.4835 5.70193C18.5778 5.65581 18.6907 5.62782 18.855 5.63891L18.9559 4.14231L19.0569 2.64571C18.4039 2.60166 17.7626 2.71504 17.1659 3.00679L17.8247 4.35436ZM18.9559 4.14231L18.855 5.63891L19.4679 5.68026L19.5689 4.18366L19.6699 2.68706L19.0569 2.64571L18.9559 4.14231ZM19.5689 4.18366L19.4679 5.68026L20.0809 5.72161L20.1818 4.22501L20.2828 2.72841L19.6699 2.68706L19.5689 4.18366ZM20.1818 4.22501L20.0809 5.72161C20.8503 5.77352 21.5742 5.55686 22.1893 5.09506L21.2887 3.89554L20.388 2.69602C20.3556 2.72033 20.3396 2.72492 20.3371 2.72566C20.3347 2.72637 20.3202 2.73094 20.2828 2.72841L20.1818 4.22501ZM21.2887 3.89554L22.1893 5.09506L22.6832 4.72423L21.7825 3.52471L20.8819 2.32519L20.388 2.69602L21.2887 3.89554ZM21.7825 3.52471L22.6832 4.72423L23.1771 4.35341L22.2764 3.15389L21.3758 1.95437L20.8819 2.32519L21.7825 3.52471ZM22.2764 3.15389L23.1771 4.35341C23.1634 4.3637 23.1047 4.40044 23.0109 4.4139C22.9196 4.427 22.8667 4.40774 22.8755 4.41086L23.3747 2.99637L23.8739 1.58188C23.0192 1.28023 22.1242 1.39246 21.3758 1.95437L22.2764 3.15389ZM23.3747 2.99637L22.8755 4.41086L23.4799 4.62417L23.9791 3.20967L24.4783 1.79518L23.8739 1.58188L23.3747 2.99637ZM23.9791 3.20967L23.4799 4.62417L24.0843 4.83747L24.5835 3.42298L25.0827 2.00849L24.4783 1.79518L23.9791 3.20967ZM24.5835 3.42298L24.0843 4.83747C24.797 5.089 25.5576 5.10387 26.2908 4.81093L25.7342 3.41801L25.1776 2.02508C25.1738 2.0266 25.1713 2.02744 25.1698 2.02786C25.1684 2.02828 25.1678 2.02841 25.1677 2.02841C25.1677 2.02841 25.1679 2.02839 25.168 2.02837C25.1682 2.02836 25.1679 2.0284 25.1669 2.02841C25.1658 2.02841 25.1402 2.02876 25.0827 2.00849L24.5835 3.42298ZM25.7342 3.41801L26.2908 4.81093L26.8371 4.59265L26.2805 3.19973L25.7239 1.8068L25.1776 2.02508L25.7342 3.41801ZM26.2805 3.19973L26.8371 4.59265L27.3834 4.37437L26.8268 2.98145L26.2702 1.58852L25.7239 1.8068L26.2805 3.19973ZM26.8268 2.98145L27.3834 4.37437C27.453 4.34655 27.5073 4.32683 27.5479 4.31337C27.5897 4.2995 27.6079 4.2953 27.6067 4.29556C27.6055 4.29585 27.5952 4.29815 27.5773 4.30081C27.5598 4.30339 27.5288 4.30725 27.4871 4.30892C27.4461 4.31056 27.384 4.31055 27.3068 4.30134C27.2303 4.29221 27.123 4.27217 26.9997 4.22559L27.5298 2.82238L28.0599 1.41917C27.5584 1.2297 27.0859 1.33758 26.9447 1.36952C26.7179 1.42083 26.486 1.50232 26.2702 1.58852L26.8268 2.98145ZM27.5298 2.82238L26.9997 4.22559L27.1564 4.28479L27.6865 2.88158L28.2166 1.47837L28.0599 1.41917L27.5298 2.82238ZM27.6865 2.88158L27.1564 4.28479L27.3132 4.344L27.8433 2.94079L28.3734 1.53758L28.2166 1.47837L27.6865 2.88158ZM27.8433 2.94079L27.3132 4.344C27.513 4.41948 27.8417 4.50728 28.1942 4.59656L28.5625 3.14248L28.9308 1.6884C28.7497 1.64252 28.6094 1.6054 28.5065 1.57653C28.3905 1.54401 28.3592 1.53222 28.3734 1.53758L27.8433 2.94079ZM28.5625 3.14248L28.1942 4.59656L28.7567 4.73904L29.125 3.28496L29.4933 1.83088L28.9308 1.6884L28.5625 3.14248Z" fill="#1E1E1E"/>
</svg>
