<svg width="156" height="103" viewBox="0 0 156 103" fill="none" xmlns="http://www.w3.org/2000/svg">
<path d="M67.1884 31.0874L62.1145 33.4012L54.1165 30.3512C54.1165 30.3512 49.57 27.2885 44.6297 24.4463C42.9648 23.4885 39.5446 23.5947 37.6834 24.076C34.6388 24.8633 34.311 24.8135 31.1905 24.824C28.244 24.834 28.8441 27.2306 24.1423 29.6495C21.5156 31.0008 19.8282 33.9634 17.1642 35.6784C12.2024 38.8729 18.9655 44.1933 14.2577 47.6273C8.43555 51.8742 11.9878 55.8693 11.9878 55.8693L7.7761 53.7453C7.7761 53.7453 6.7944 49.3324 12.024 45.3226C17.6457 41.0122 8.30972 37.6907 14.4984 33.9872C19.1676 31.1931 23.2048 24.6486 27.145 23.2407C31.4662 21.6968 32.3465 21.0695 35.841 20.7103C39.1916 20.3659 41.2724 20.128 44.415 21.3333C47.4299 22.4897 48.2862 23.2306 51.356 25.2436C58.7412 30.0861 67.1884 31.0874 67.1884 31.0874Z" fill="#1E1E1E"/>
<path d="M34.0441 91.4394L34.6564 88.175L31.3788 83.8112C31.3788 83.8112 28.6738 81.4856 26.0422 78.902C25.1554 78.0313 24.6473 76.0005 24.6392 74.8459C24.6258 72.9573 24.5391 72.7697 24.0209 70.9269C23.5316 69.1869 24.2145 68.2553 24.956 65.1982C25.3702 63.4904 26.5675 60.4673 27.2059 58.695C28.395 55.3939 30.4494 57.8789 31.833 54.6998C33.544 50.7682 35.8923 51.0242 35.8923 51.0242L34.9028 48.6803C34.9028 48.6803 32.0247 49.8505 30.3642 53.4048C28.5792 57.2255 26.0658 55.2349 24.7607 59.3194C23.776 62.401 22.5664 66.2348 22.3373 68.7244C22.0861 71.4547 21.8368 72.0474 22.197 74.1516C22.5425 76.169 22.7418 77.4248 24.034 79.1386C25.2737 80.7829 25.8872 81.2017 27.6788 82.7783C31.9889 86.5713 34.0441 91.4394 34.0441 91.4394Z" fill="#1E1E1E"/>
<path d="M114 93.9647L115.758 90.6927L122.286 89.3149C122.286 89.3149 126.743 89.2818 131.314 88.9716C132.854 88.8671 134.854 87.4819 135.706 86.489C137.098 84.8649 137.323 84.766 139.197 83.5509C140.966 82.4035 140.949 81.0979 142.425 77.9108C143.249 76.1302 144.234 72.639 144.876 70.6388C146.073 66.9131 142.163 67.5601 143.073 63.7977C144.197 59.1447 141.615 57.6483 141.615 57.6483L144.335 56.3445C144.335 56.3445 146.417 59.4622 145.516 63.7518C144.548 68.3629 148.565 68.4794 146.915 72.9677C145.67 76.354 144.105 80.5555 142.522 82.8769C140.785 85.4228 140.607 86.1179 138.704 87.6748C136.879 89.1674 135.759 90.108 133.189 90.6454C130.725 91.161 129.793 91.0746 126.815 91.1281C119.649 91.2566 114 93.9647 114 93.9647Z" fill="#1E1E1E"/>
<path d="M84 26.7348L88.8456 29.2498L97.1721 26.2717C97.1721 26.2717 102.042 23.2012 107.284 20.3682C109.05 19.4135 112.466 19.6021 114.281 20.1438C117.25 21.0299 117.584 20.9857 120.709 21.0682C123.66 21.1462 124.814 22.6506 129.276 25.266C131.769 26.7271 135.971 30.0317 138.464 31.8707C143.107 35.2961 138.281 37.2829 142.644 40.9508C148.041 45.4868 146.579 48.9987 146.579 48.9987L150.703 48.5923C150.703 48.5923 150.166 43.5757 145.339 39.2991C140.15 34.7018 144.408 31.7672 138.588 27.7861C134.197 24.7825 128.728 21.0696 124.925 19.5198C120.755 17.8201 119.937 17.1497 116.473 16.6971C113.152 16.2632 111.091 15.9689 107.819 17.1462C104.679 18.2757 103.745 19.0242 100.463 21.0403C92.566 25.8908 84 26.7348 84 26.7348Z" fill="#1E1E1E"/>
<path d="M20.0117 57.5391C20.0606 59.2276 20.33 60.8706 20.8086 62.4375C23.2749 70.5096 31.1091 76.6696 40.7539 77.8125L41.4336 77.9531L42.4648 78.1758C42.5002 78.1834 42.535 78.1891 42.5703 78.1875L43.6367 78.1289L44.6914 78.0703C44.8733 78.0605 45.059 78.0433 45.2422 78.0117L45.3008 78H61.9297L62.5859 78.1758L63.5234 78.4336L64.4492 78.3281L65.5039 78.2109C65.7159 78.1864 65.9328 78.1498 66.1484 78.1055L66.6523 78H71.7969L72.4531 78.1406L73.4492 78.0234L73.6836 78H77.1523L78.1133 78.0938L78.5234 78H83.3398L83.832 78.1875L84.6406 78.4805L85.4141 78.3867L86.4688 78.2461C86.873 78.1939 87.2806 78.161 87.6875 78.1523L89.7852 78.1055C90.0623 78.0996 90.34 78.0939 90.6172 78.082L91.6719 78.0352L92.5156 78H100.543L101.539 78.2578L102.125 78.3984L102.746 78.1641L103.191 78H107.902L108.617 78.1875C108.75 78.2226 108.874 78.2481 108.992 78.2578L110.047 78.3398L110.938 78.4102L111.863 78.1055L112.203 78H119.352L119.879 78.1992L120.559 78.4688L121.215 78.3398L122.258 78.1289L122.504 78.082C122.991 78.0069 123.489 78.0023 123.98 78.0586L124.227 78.082L125.27 78.2578L126.148 78.3984L127.027 78.1641L127.625 78H131L131.551 78.1406L132.605 78.4102L133.672 78.3633L134.48 78.3164L135.242 77.8828L135.406 77.7891C145.563 76.5263 153.671 69.7004 155.574 60.9492C155.725 60.2552 155.843 59.5445 155.914 58.8281C155.93 58.6654 155.937 58.4997 155.949 58.3359C155.968 58.0725 155.988 57.805 155.996 57.5391V57.7031C155.991 57.9138 155.983 58.1265 155.973 58.3359C155.965 58.5005 155.948 58.6643 155.938 58.8281C155.889 59.5459 155.818 60.2596 155.715 60.9609C153.853 73.6298 143.186 83.4368 130.133 83.9766L130.051 83.9531L129.312 83.7656L128.574 83.9531L128.41 84H118.25L117.723 83.8008L116.762 83.4258L115.848 83.4492L114.805 83.4609H114.793L113.738 83.8125L113.164 84H107.129C107.116 83.9966 107.095 83.9918 107.082 83.9883L106.039 83.7188L105.453 83.5664L104.855 83.7891L104.281 84H99.793L99.0195 83.8008C98.963 83.7865 98.9137 83.7892 98.8789 83.7891L96.7695 83.8008C96.5175 83.803 96.26 83.8104 96.0078 83.8242L94.9648 83.8828L93.9102 83.9414C93.5994 83.9584 93.2834 83.975 92.9727 83.9883L92.6562 84H82.2734L81.7578 83.8125L81.1016 83.5664L80.4688 83.7188L79.4141 83.9531C79.3367 83.9707 79.2575 83.9856 79.1797 84H76.8594L76.4961 83.9648L75.4531 83.8594C75.3718 83.8513 75.2895 83.8501 75.207 83.8594L74.1523 83.9883L74.0352 84H71.1406L70.1562 83.7773L69.2773 83.5898L68.3984 83.7656L67.3555 83.9766C67.3222 83.9834 67.2833 83.9934 67.25 84H61.1211L61.0156 83.9648L59.9609 83.6836L58.918 83.7305L57.875 83.7656C57.4935 83.7812 57.108 83.7819 56.7266 83.7656L54.6172 83.6719C54.3493 83.6604 54.0764 83.6634 53.8086 83.6602L52.7656 83.6367L51.7109 83.625C51.3916 83.6211 51.0693 83.6236 50.75 83.6133L49.707 83.5781L48.6523 83.543C48.5586 83.54 48.4616 83.5488 48.3594 83.5664L47.3047 83.7422L46.2617 83.9297C46.1493 83.9491 46.0347 83.9608 45.9219 83.9766C33.3821 83.4818 23.0353 74.4358 20.5625 62.5078C20.2399 60.9511 20.0537 59.3453 20.0117 57.7031V57.5391Z" fill="#1E1E1E"/>
</svg>
