<svg width="156" height="103" viewBox="0 0 156 103" fill="none" xmlns="http://www.w3.org/2000/svg">
<path d="M67.1884 31.0874L62.1145 33.4012L54.1165 30.3513C54.1165 30.3513 49.57 27.2886 44.6297 24.4463C42.9648 23.4885 39.5446 23.5947 37.6834 24.076C34.6388 24.8634 34.311 24.8135 31.1905 24.8241C28.244 24.8341 28.8441 27.2306 24.1423 29.6495C21.5156 31.0009 19.8282 33.9634 17.1642 35.6785C12.2024 38.873 18.9655 44.1934 14.2577 47.6274C8.43555 51.8742 11.9878 55.8693 11.9878 55.8693L7.7761 53.7454C7.7761 53.7454 6.7944 49.3324 12.024 45.3227C17.6457 41.0123 8.30972 37.6907 14.4984 33.9873C19.1676 31.1932 23.2048 24.6486 27.145 23.2408C31.4662 21.6968 32.3465 21.0696 35.841 20.7103C39.1916 20.3659 41.2724 20.1281 44.415 21.3334C47.4299 22.4897 48.2862 23.2307 51.356 25.2436C58.7412 30.0862 67.1884 31.0874 67.1884 31.0874Z" fill="#1E1E1E"/>
<path d="M34.0441 91.4395L34.6564 88.1751L31.3788 83.8112C31.3788 83.8112 28.6738 81.4857 26.0422 78.902C25.1554 78.0313 24.6473 76.0006 24.6392 74.846C24.6258 72.9574 24.5391 72.7697 24.0209 70.927C23.5316 69.187 24.2145 68.2553 24.956 65.1983C25.3702 63.4904 26.5675 60.4673 27.2059 58.6951C28.395 55.394 30.4494 57.879 31.833 54.6999C33.544 50.7683 35.8923 51.0242 35.8923 51.0242L34.9028 48.6804C34.9028 48.6804 32.0247 49.8506 30.3642 53.4048C28.5792 57.2255 26.0658 55.235 24.7607 59.3194C23.776 62.401 22.5664 66.2349 22.3373 68.7245C22.0861 71.4547 21.8368 72.0475 22.197 74.1516C22.5425 76.1691 22.7418 77.4248 24.034 79.1387C25.2737 80.7829 25.8872 81.2018 27.6788 82.7784C31.9889 86.5714 34.0441 91.4395 34.0441 91.4395Z" fill="#1E1E1E"/>
<path d="M114 93.9647L115.758 90.6927L122.286 89.3149C122.286 89.3149 126.743 89.2818 131.314 88.9716C132.854 88.8671 134.854 87.4819 135.706 86.489C137.098 84.8649 137.323 84.766 139.197 83.5509C140.966 82.4035 140.949 81.0979 142.425 77.9108C143.249 76.1302 144.234 72.639 144.876 70.6388C146.073 66.9131 142.163 67.5601 143.073 63.7977C144.197 59.1447 141.615 57.6483 141.615 57.6483L144.335 56.3445C144.335 56.3445 146.417 59.4622 145.516 63.7518C144.548 68.3629 148.565 68.4794 146.915 72.9677C145.67 76.354 144.105 80.5555 142.522 82.8769C140.785 85.4228 140.607 86.1179 138.704 87.6748C136.879 89.1674 135.759 90.108 133.189 90.6454C130.725 91.161 129.793 91.0746 126.815 91.1281C119.649 91.2566 114 93.9647 114 93.9647Z" fill="#1E1E1E"/>
<path d="M84 26.7348L88.8456 29.2498L97.1721 26.2717C97.1721 26.2717 102.042 23.2012 107.284 20.3682C109.05 19.4135 112.466 19.6021 114.281 20.1438C117.25 21.0299 117.584 20.9857 120.709 21.0682C123.66 21.1462 124.814 22.6506 129.276 25.266C131.769 26.7271 135.971 30.0317 138.464 31.8707C143.107 35.2961 138.281 37.2829 142.644 40.9508C148.041 45.4868 146.579 48.9987 146.579 48.9987L150.703 48.5923C150.703 48.5923 150.166 43.5757 145.339 39.2991C140.15 34.7018 144.408 31.7672 138.588 27.7861C134.197 24.7825 128.728 21.0696 124.925 19.5198C120.755 17.8201 119.937 17.1497 116.473 16.6971C113.152 16.2632 111.091 15.9689 107.819 17.1462C104.679 18.2757 103.745 19.0242 100.463 21.0403C92.566 25.8908 84 26.7348 84 26.7348Z" fill="#1E1E1E"/>
<path d="M20.0117 53.5391C20.0606 55.2276 20.33 56.8706 20.8086 58.4375C23.2749 66.5096 31.1091 72.6696 40.7539 73.8125L41.4336 73.9531L42.4648 74.1758C42.5002 74.1834 42.535 74.1891 42.5703 74.1875L43.6367 74.1289L44.6914 74.0703C44.8733 74.0605 45.059 74.0433 45.2422 74.0117L45.3008 74H61.9297L62.5859 74.1758L63.5234 74.4336L64.4492 74.3281L65.5039 74.2109C65.7159 74.1864 65.9328 74.1498 66.1484 74.1055L66.6523 74H71.7969L72.4531 74.1406L73.4492 74.0234L73.6836 74H77.1523L78.1133 74.0938L78.5234 74H83.3398L83.832 74.1875L84.6406 74.4805L85.4141 74.3867L86.4688 74.2461C86.873 74.1939 87.2806 74.161 87.6875 74.1523L89.7852 74.1055C90.0623 74.0996 90.34 74.0939 90.6172 74.082L91.6719 74.0352L92.5156 74H100.543L101.539 74.2578L102.125 74.3984L102.746 74.1641L103.191 74H107.902L108.617 74.1875C108.75 74.2226 108.874 74.2481 108.992 74.2578L110.047 74.3398L110.938 74.4102L111.863 74.1055L112.203 74H119.352L119.879 74.1992L120.559 74.4688L121.215 74.3398L122.258 74.1289L122.504 74.082C122.991 74.0069 123.489 74.0023 123.98 74.0586L124.227 74.082L125.27 74.2578L126.148 74.3984L127.027 74.1641L127.625 74H131L131.551 74.1406L132.605 74.4102L133.672 74.3633L134.48 74.3164L135.242 73.8828L135.406 73.7891C145.563 72.5263 153.671 65.7004 155.574 56.9492C155.725 56.2552 155.843 55.5445 155.914 54.8281C155.93 54.6654 155.937 54.4997 155.949 54.3359C155.968 54.0725 155.988 53.805 155.996 53.5391V53.7031C155.991 53.9138 155.983 54.1265 155.973 54.3359C155.965 54.5005 155.948 54.6643 155.938 54.8281C155.889 55.5459 155.818 56.2596 155.715 56.9609C153.853 69.6298 143.186 79.4368 130.133 79.9766L130.051 79.9531L129.312 79.7656L128.574 79.9531L128.41 80H118.25L117.723 79.8008L116.762 79.4258L115.848 79.4492L114.805 79.4609H114.793L113.738 79.8125L113.164 80H107.129C107.116 79.9966 107.095 79.9918 107.082 79.9883L106.039 79.7188L105.453 79.5664L104.855 79.7891L104.281 80H99.793L99.0195 79.8008C98.963 79.7865 98.9137 79.7892 98.8789 79.7891L96.7695 79.8008C96.5175 79.803 96.26 79.8104 96.0078 79.8242L94.9648 79.8828L93.9102 79.9414C93.5994 79.9584 93.2834 79.975 92.9727 79.9883L92.6562 80H82.2734L81.7578 79.8125L81.1016 79.5664L80.4688 79.7188L79.4141 79.9531C79.3367 79.9707 79.2575 79.9856 79.1797 80H76.8594L76.4961 79.9648L75.4531 79.8594C75.3718 79.8513 75.2895 79.8501 75.207 79.8594L74.1523 79.9883L74.0352 80H71.1406L70.1562 79.7773L69.2773 79.5898L68.3984 79.7656L67.3555 79.9766C67.3222 79.9834 67.2833 79.9934 67.25 80H61.1211L61.0156 79.9648L59.9609 79.6836L58.918 79.7305L57.875 79.7656C57.4935 79.7812 57.108 79.7819 56.7266 79.7656L54.6172 79.6719C54.3493 79.6604 54.0764 79.6634 53.8086 79.6602L52.7656 79.6367L51.7109 79.625C51.3916 79.6211 51.0693 79.6236 50.75 79.6133L49.707 79.5781L48.6523 79.543C48.5586 79.54 48.4616 79.5488 48.3594 79.5664L47.3047 79.7422L46.2617 79.9297C46.1493 79.9491 46.0347 79.9608 45.9219 79.9766C33.3821 79.4818 23.0353 70.4358 20.5625 58.5078C20.2399 56.9511 20.0537 55.3453 20.0117 53.7031V53.5391Z" fill="#1E1E1E"/>
</svg>
