<svg width="93" height="233" viewBox="0 0 93 233" fill="none" xmlns="http://www.w3.org/2000/svg">
<path d="M91.8057 26.9033C91.7927 26.9428 91.7797 26.9845 91.7656 27.0273C91.6014 27.5264 91.3638 28.2517 91.0693 29.1572C90.4803 30.9685 89.6642 33.5018 88.7549 36.3906C86.9376 42.164 84.7433 49.3739 83.252 55.0781C81.8038 60.617 80.8955 64.9922 80.0166 69.3574C79.1378 73.722 78.2897 78.0681 76.958 83.583C73.7477 96.8774 68.8332 113.7 64.7168 127.211C62.6594 133.964 60.803 139.885 59.4609 144.117C58.7899 146.233 58.2476 147.928 57.873 149.093C57.6859 149.675 57.5399 150.124 57.4414 150.429C57.3922 150.581 57.3553 150.697 57.3301 150.774C57.3216 150.8 57.3142 150.822 57.3086 150.84L53.7754 158.736L53.6992 158.906L53.6895 159.092L52.5957 179.909L52.5947 179.936V220.603L49.3535 221.685L44.9873 205.99L43.0244 206.217L41.9707 231.554H38.0898L35.4482 206.154L33.4707 206.074L28.7012 231.554H24.2812L25.3359 203.831L23.4619 203.307L12.0537 223.824L9.06152 221.015L18.7334 187.912L19.4531 185.447L17.2559 186.775L2.39453 195.759L1.16211 192.759L16.2422 175.798L30.0752 166.831L30.332 166.665L30.4521 166.384L36.7412 151.593L36.7939 151.469L36.8115 151.335L46.377 80.6982L61.6377 1.84863L91.8057 26.9033Z" fill="white" stroke="#1E1E1E" stroke-width="2"/>
</svg>
