<svg width="236" height="500" viewBox="0 0 236 500" fill="none" xmlns="http://www.w3.org/2000/svg">
<path d="M100.542 44.0371C99.4902 42.7202 98.0178 29.7092 99.0695 20.649C99.7725 14.5929 100.514 10.4895 104.749 6.11041C108.983 1.73134 112.303 0 118 0C123.697 0 127.017 1.73134 131.251 6.11041C135.486 10.4895 136.228 14.5929 136.93 20.649C137.982 29.7092 136.51 42.7202 135.458 44.0371C134.617 45.0906 133.565 47.619 133.144 53.0973C133.144 53.0973 132.931 58.5828 134.196 61.7362C135.508 65.004 138.403 68.5419 139.034 68.9001C145.344 72.4821 148.536 73.5287 154.809 76.064C161.194 78.6446 171.426 81.9638 171.426 81.9638C171.426 81.9638 181.666 87.3484 185.308 93.3418C187.699 97.2757 189.094 104.509 189.094 104.509V118.837L201.084 180.784L208.446 235.145L213.283 246.523L224.011 253.477L236 266.962L234.528 270.544L222.328 263.169L229.9 289.086L226.535 292.246L217.28 275.6L218.121 297.724H213.283L209.497 277.497L207.394 297.724H202.977L202.135 277.497L198.56 290.35L194.774 289.086V257.269L193.932 241.256L191.198 235.145C191.198 235.145 181.004 203.811 176.053 183.312C173.996 174.793 171.216 161.399 171.216 161.399L164.485 139.275C164.485 139.275 155.486 178.591 159.647 203.329C160.955 211.102 162.5 222.925 162.5 222.925C162.5 222.925 164.225 234.102 164.485 241.256C165.053 256.902 168.458 265.436 169.112 281.079C170.237 307.979 162.294 322.861 163.223 349.768C163.857 368.149 168.495 378.154 168.692 396.544C168.976 423.144 159.016 463.97 159.016 463.97L162.171 483.354L167.009 492.836L165.957 498.946L141.348 500L138.824 492.836L142.61 482.301V474.716V470.501V463.97C142.61 463.97 135.017 426.426 133.986 402.023C133.2 383.434 137.143 372.933 135.458 354.404C133.187 329.422 119.262 292.246 119.262 292.246H116.738C116.738 292.246 102.813 329.422 100.542 354.404C98.8575 372.933 102.8 383.434 102.014 402.023C100.983 426.426 93.3904 463.97 93.3904 463.97V470.501V474.716V482.301L97.1765 492.836L94.6524 500L70.0428 498.946L68.9911 492.836L73.8289 483.354L76.984 463.97C76.984 463.97 67.0244 423.144 67.3084 396.544C67.5048 378.154 72.1428 368.149 72.7772 349.768C73.7058 322.861 65.7632 307.979 66.8877 281.079C67.5416 265.436 70.9473 256.902 71.5152 241.256C71.7748 234.102 73 222.925 73 222.925C73 222.925 75.0454 211.102 76.3529 203.329C80.5144 178.591 71.5152 139.275 71.5152 139.275C71.5152 139.275 67.0687 152.662 64.7843 161.399C62.5676 169.878 62.0037 174.793 59.9465 183.312C54.9964 203.811 44.8021 235.145 44.8021 235.145L42.0677 241.256L41.2264 257.269V289.086L37.4403 290.35L33.8645 277.497L33.0232 297.724H28.6061L26.5027 277.497L22.7166 297.724H17.8788L18.7201 275.6L9.46524 292.246L6.09982 289.086L13.672 263.169L1.47237 270.544L0 266.962L11.9893 253.477L22.7166 246.523L27.5544 235.145L34.9162 180.784L46.9055 118.837V104.509C46.9055 104.509 48.3005 97.2757 50.6916 93.3418C54.3345 87.3484 64.574 81.9638 64.574 81.9638C64.574 81.9638 74.806 78.6446 81.1907 76.064C87.4636 73.5287 90.656 72.4821 96.9661 68.9001C97.5972 68.5419 100.492 65.004 101.804 61.7362C103.069 58.5828 102.856 53.0973 102.856 53.0973C102.435 47.619 101.383 45.0906 100.542 44.0371Z" fill="#1E1E1E"/>
</svg>
