<svg width="107" height="98" viewBox="0 0 107 98" fill="none" xmlns="http://www.w3.org/2000/svg">
<g clip-path="url(#clip0_2054_362)">
<path d="M54.2308 40.8008C53.5177 40.8207 52.8274 41.0776 52.3006 41.6734C52.2476 41.7332 52.2001 41.7938 52.1532 41.8572L52.1326 41.8341C50.1746 44.611 48.215 48.1069 47.1171 52.0124C45.8887 56.3816 45.7129 61.1686 47.741 66.0719L45.8795 67.0328C44.3102 63.2388 43.926 59.4487 44.2855 55.8898C43.3558 56.5011 42.4851 57.259 41.6869 58.1331C39.233 54.5564 36.2041 51.201 33.2945 48.8238C33.1373 48.6476 32.9597 48.4955 32.7665 48.3719C32.3959 48.1364 32.0007 48.0215 31.601 48.0007C31.5599 47.9983 31.5187 47.997 31.4776 47.997C31.4359 47.997 31.3926 47.999 31.3508 48.0007C30.7661 48.0256 30.1803 48.2371 29.6572 48.5596C28.7006 49.1495 27.8422 50.1238 27.1889 51.3692C26.5357 52.6147 26.1976 53.9244 26.2119 55.1395C26.2263 56.3548 26.6393 57.5966 27.6278 58.225C27.6682 58.2505 27.7104 58.2709 27.7513 58.2936L27.7375 58.3242C30.7322 60.3858 34.6888 63.1474 37.2408 66.6078C36.5187 69.4239 36.381 72.3324 36.9528 74.8644C38.6316 82.3005 43.8011 89.0489 49.3527 93.3185C52.1286 95.4532 54.9918 96.9669 57.4949 97.6669C59.9979 98.3667 62.0887 98.2238 63.4086 97.3414C66.3873 95.3509 68.3813 91.7514 69.5863 87.4772C68.8346 87.9699 68.0397 88.3752 67.2139 88.6866C63.2891 90.169 58.6455 89.7562 54.7489 87.4541C50.8522 85.1521 47.7163 80.8734 47.0115 74.8106L49.0443 74.5161C49.6666 79.8677 52.3252 83.43 55.7088 85.429C59.0925 87.4281 63.2137 87.7784 66.5558 86.5161C69.898 85.254 72.4437 82.518 73.032 78.0758C73.5184 74.4029 72.608 69.4368 69.3192 63.2086C67.2194 63.4756 65.0769 63.9886 63.1071 64.6249L62.5379 62.4274C63.9344 61.9764 65.4113 61.5859 66.9124 61.2907C67.2009 61.3177 67.4969 61.2937 67.7936 61.2025C67.9034 61.1686 68.0111 61.1264 68.1158 61.0764C68.1193 61.0757 68.1226 61.073 68.1261 61.0727C68.1256 61.0717 68.1266 61.0696 68.1261 61.0688C69.0281 60.6339 69.6002 59.6635 69.8711 58.615C70.1739 57.4428 70.1671 56.0765 69.8404 54.68C69.5135 53.2836 68.923 52.0906 68.1432 51.2429C67.5585 50.6068 66.8033 50.1399 66.0007 50.0866C65.7506 50.0703 65.4998 50.0962 65.2566 50.1633L65.2464 50.1135C63.4872 50.8289 61.5457 51.7987 59.6515 53.0686C58.67 54.4623 57.9002 55.8226 57.4025 57.1568C56.6295 59.2293 56.4687 61.2137 57.1351 63.4575L55.1911 64.1809C54.3727 61.4248 54.5872 58.7505 55.5101 56.2766C56.3247 54.0928 57.6746 52.0391 59.3121 49.9835L59.2949 49.9642C59.3644 49.902 59.4307 49.8356 59.4937 49.7653C60.293 48.8617 60.3977 47.547 60.1348 46.3625C59.8721 45.178 59.2537 44.0016 58.3452 42.9748L58.3384 42.9709C57.4312 41.9471 56.3882 41.2444 55.3353 40.9458C55.0714 40.8708 54.8015 40.8247 54.5296 40.808C54.4787 40.8051 54.4263 40.8013 54.3754 40.8007C54.3276 40.7998 54.2788 40.7992 54.2313 40.8007L54.2308 40.8008ZM54.3027 43.0821C54.3422 43.0821 54.3856 43.0821 54.4296 43.0858C54.5469 43.096 54.6797 43.1235 54.8306 43.1662C55.4351 43.3377 56.209 43.8194 56.8843 44.5827C57.5594 45.3458 57.989 46.2223 58.1424 46.9137C58.2958 47.6054 58.1819 47.9889 58.0327 48.1579C57.8833 48.3269 57.5642 48.4482 56.9598 48.2767C56.3551 48.1052 55.5813 47.6199 54.9061 46.8565C54.2309 46.0934 53.8014 45.217 53.6478 44.5255C53.4944 43.8338 53.6083 43.4541 53.7575 43.2852C53.8557 43.1743 54.0257 43.0833 54.3027 43.0823V43.0821ZM31.4671 50.2821C31.5867 50.2858 31.6824 50.3186 31.7516 50.3626C31.9364 50.4802 32.124 50.7918 32.1323 51.4883C32.1405 52.1845 31.9219 53.1423 31.4363 54.0679C30.9508 54.994 30.3048 55.6872 29.7462 56.0317C29.1876 56.3763 28.8271 56.352 28.6422 56.2347C28.4575 56.1171 28.27 55.8055 28.2618 55.109C28.2535 54.4127 28.472 53.4511 28.9576 52.5253C29.4432 51.5996 30.0891 50.91 30.6478 50.5654C30.9269 50.3932 31.1571 50.3126 31.34 50.2898C31.3821 50.284 31.4245 50.2815 31.4669 50.2822L31.4671 50.2821ZM43.5277 50.4391C42.1015 50.4483 40.6267 51.1112 39.7977 52.1693C40.549 53.0443 41.2755 53.9387 41.9677 54.8489C42.8284 54.1404 43.7517 53.5346 44.7311 53.0613C44.8562 52.4746 44.9997 51.8959 45.1595 51.3273C45.2069 51.1589 45.2569 50.9929 45.307 50.8258C44.7618 50.5588 44.1498 50.4353 43.5276 50.4393L43.5277 50.4391ZM65.8114 52.372C65.8412 52.3696 65.8739 52.3696 65.9074 52.372C66.1077 52.3892 66.3745 52.5207 66.7096 52.8853C67.1563 53.3711 67.6116 54.2204 67.8546 55.2584C68.0976 56.2964 68.076 57.2954 67.8992 57.9802C67.7225 58.6646 67.4529 58.9353 67.248 58.9981C67.0428 59.061 66.7142 58.9864 66.2674 58.5007C65.8207 58.0147 65.3653 57.1653 65.1224 56.1274C64.8793 55.0894 64.9008 54.0903 65.0777 53.4056C65.2545 52.7211 65.5242 52.4504 65.7291 52.3877C65.7548 52.3796 65.7815 52.3747 65.8114 52.3723V52.372Z" fill="white"/>
<path d="M38.3374 1.37402C41.184 1.37413 43.7976 3.64636 45.8999 7.73047C47.9869 11.785 49.1421 17.1336 49.1421 21.0049V75.4443C49.142 78.5947 47.1036 81.9966 43.2915 85.2783L42.9175 85.5947C38.8793 88.9622 33.211 91.9653 27.3735 94.1406C21.5375 96.3153 15.5422 97.6523 10.98 97.9111C8.6963 98.0405 6.80017 97.8853 5.57666 97.5557C4.48912 97.263 4.13806 96.9262 4.04248 96.7979L4.01611 96.7559C3.1414 95.0443 2.36352 91.9136 1.81104 87.8301C1.2609 83.7639 0.940149 78.8062 0.95459 73.4785C0.983495 62.8149 2.13089 50.4832 4.2876 39.7373C5.87934 31.8055 12.4889 21.8479 19.9106 14.1299C23.6145 10.2788 27.4867 6.98096 30.8794 4.70996C32.5685 3.57947 34.1698 2.73973 35.4917 2.18457C36.8344 1.6207 37.8336 1.37402 38.3374 1.37402ZM69.1899 1C69.6939 1.00015 70.6925 1.24697 72.0347 1.81055C73.3565 2.36559 74.9578 3.20493 76.647 4.33496C80.0398 6.606 83.9118 9.90489 87.6157 13.7559C95.0375 21.474 101.647 31.4314 103.239 39.3633C105.395 50.11 106.542 62.4409 106.571 73.1045C106.585 78.4322 106.265 83.39 105.715 87.4561C105.163 91.5401 104.385 94.6712 103.51 96.3828C103.473 96.4553 103.193 96.8476 101.951 97.1816C100.726 97.511 98.8299 97.6665 96.5464 97.5371C91.9842 97.278 85.9888 95.9422 80.1528 93.7676C74.3158 91.592 68.6474 88.5892 64.6089 85.2217C60.5564 81.8424 58.3843 78.3223 58.3843 75.0703V20.6309C58.3843 16.7596 59.5395 11.4109 61.6265 7.35645C63.7288 3.27226 66.3433 1 69.1899 1Z" fill="white" stroke="#1E1E1E"/>
</g>
<defs>
<clipPath id="clip0_2054_362">
<rect width="107" height="98" fill="white"/>
</clipPath>
</defs>
</svg>
