<svg width="42" height="63" viewBox="0 0 42 63" fill="none" xmlns="http://www.w3.org/2000/svg">
<path d="M15.3516 0.000751615C15.2892 0.0019451 15.225 0.00567496 15.16 0.0100014H15.107C13.9242 0.0100014 12.9236 0.517532 12.4824 1.19424C12.0686 1.82858 11.8614 2.70102 12.4716 4.49961C13.124 5.81289 13.6465 7.60984 14.0996 9.92625L12.0424 10.6209C11.2757 6.70174 10.3207 5.12634 9.67319 4.75143C9.34927 4.5642 9.03137 4.54749 8.55583 4.73756C8.08028 4.92762 7.48466 5.3619 6.8357 5.99161C5.83501 6.96222 5.20965 8.21672 5.24676 9.27818C5.27514 10.0953 5.65648 11.1527 6.97756 12.3134C7.10196 12.4044 7.22578 12.4931 7.35323 12.5885L7.34268 12.6162C7.69578 12.8946 8.05918 13.1498 8.43155 13.3808L7.52019 15.8985C6.9442 15.5392 6.42745 15.1609 5.96666 14.7655C4.29658 13.565 3.068 13.0384 2.4129 13.1106C2.06356 13.149 1.85337 13.2698 1.59006 13.614C1.32675 13.958 1.03234 14.5822 0.763815 15.5674C0.316644 17.207 0.24151 18.5482 0.58279 19.2783C0.854271 19.8593 1.54341 20.4847 3.17548 20.7003C3.58292 20.7113 4.0167 20.7331 4.49122 20.7609V20.7795C4.53662 20.7795 4.5793 20.7801 4.62594 20.7795L4.64365 23.5675C4.15653 23.5735 3.70141 23.5511 3.27104 23.5068C1.91295 23.4959 1.08932 23.6402 0.749401 23.8657C0.536484 24.007 0.455903 24.1141 0.337981 24.43C0.219946 24.7456 0.108493 25.2967 0.0326786 26.1083C-0.0371209 26.8592 0.00952573 27.4111 0.128582 27.7911C0.247752 28.1715 0.419357 28.4505 0.841332 28.747C1.68574 29.34 3.60176 29.7167 6.8071 29.3579L6.98789 32.1365C4.53333 32.411 2.69618 32.3653 1.27761 31.9033C1.1808 32.4608 1.20134 32.8966 1.28101 33.2646C1.29463 33.3261 1.31018 33.3869 1.3272 33.4466C1.32857 33.4511 1.32947 33.4559 1.33084 33.4605C1.52608 33.9428 1.79109 34.3704 2.111 34.7193C2.11305 34.7213 2.116 34.7219 2.11804 34.7238C2.91818 35.5025 4.23155 35.9453 5.00876 35.9453H16.7907C18.1651 35.9453 19.358 34.6152 19.8199 32.202L20.7347 27.4186L21.8628 32.1274C22.4548 34.6042 23.6886 35.9455 24.9094 35.9455H36.6913C37.4018 35.9455 38.7762 35.3568 39.5962 34.4163C39.696 34.3024 39.7908 34.1811 39.8799 34.0529C39.8961 34.0295 39.9106 34.0067 39.926 33.9828C39.9283 33.9795 39.9312 33.9771 39.9333 33.9738C40.1035 33.6881 40.2415 33.3771 40.3589 33.0414C40.3732 32.9898 40.39 32.9391 40.4015 32.8873C40.4709 32.573 40.4968 32.2437 40.4509 31.8618C39.0157 32.3638 37.1414 32.4198 34.6131 32.1369L34.7938 29.3583C37.9992 29.717 39.9116 29.3404 40.7559 28.7476C41.1781 28.4513 41.3497 28.1721 41.4687 27.792C41.5878 27.4119 41.638 26.8599 41.5681 26.1092C41.4924 25.2973 41.3774 24.7464 41.2594 24.4309C41.1416 24.1149 41.061 24.0079 40.8481 23.8666C40.5081 23.6409 39.6845 23.4967 38.3262 23.5075C37.8961 23.5517 37.4409 23.5742 36.9538 23.5681L36.975 20.7803C37.0218 20.7809 37.0644 20.7803 37.1101 20.7803V20.7616C37.5845 20.734 38.0181 20.7121 38.4257 20.7011C40.0578 20.4855 40.7469 19.8601 41.0184 19.2793C41.3597 18.5487 41.2846 17.2079 40.8375 15.5682C40.569 14.5828 40.2709 13.9587 40.0076 13.6147C39.7443 13.2705 39.5341 13.1497 39.1848 13.1112C38.5297 13.0389 37.3042 13.5655 35.6347 14.7661C35.1732 15.1621 34.6545 15.5389 34.0775 15.8989L33.1695 13.3814C33.5419 13.1505 33.9053 12.8954 34.2584 12.617L34.2442 12.5891C34.3787 12.4882 34.5101 12.3956 34.6415 12.2996C35.9489 11.1449 36.3261 10.0923 36.3543 9.27863C36.3913 8.21717 35.7659 6.96267 34.7654 5.99206C34.1164 5.3625 33.5208 4.92807 33.0453 4.738C32.5697 4.54794 32.2519 4.56465 31.928 4.75188C31.7033 4.88197 31.4407 5.16139 31.1619 5.6285C31.1095 5.78885 31.054 5.94739 30.9953 6.10395L30.9279 6.06218C30.4692 6.98862 29.9818 8.4408 29.5553 10.6213L27.5017 9.92684C28.0074 7.34145 28.5973 5.40293 29.3602 4.06189C29.7953 2.55765 29.5966 1.77487 29.2183 1.19484C28.7772 0.518129 27.7766 0.010598 26.5937 0.010598H26.5415C25.5019 -0.0580276 24.8034 0.271077 24.2255 0.840519C23.6476 1.40981 23.1832 2.27688 22.8316 3.36251C22.1285 5.53376 21.9308 8.49152 21.9308 10.6586V10.6681L21.9092 15.7449V15.7591H19.7885V15.7449L19.7671 10.6681V10.6586C19.7671 8.49167 19.573 5.53406 18.8698 3.36266C18.5182 2.27703 18.0538 1.40981 17.4761 0.840519C16.9342 0.306434 16.2871 -0.0177475 15.3516 0.000751615Z" fill="white"/>
<path d="M18.5744 27.2083H22.9589C22.9589 27.2083 21.1252 54.0458 21.9308 62.5H18.5744C19.3799 53.0312 18.5744 27.2083 18.5744 27.2083Z" fill="white"/>
</svg>
