<svg width="93" height="233" viewBox="0 0 93 233" fill="none" xmlns="http://www.w3.org/2000/svg">
<path d="M60.9772 0L45.3911 80.531L35.8207 151.201L29.5316 165.992L15.5861 175.032L0 192.562L1.91408 197.219L17.7736 187.632L7.92976 221.323L12.3048 225.432L24.3362 203.793L23.2424 232.554H29.5316L34.4535 206.258L37.1879 232.554H42.9301L44.0239 206.258L48.6724 222.967L53.5943 221.323V179.962L54.6881 159.145L58.2428 151.201C58.2428 151.201 71.4954 110.467 77.9305 83.8179C80.6048 72.7434 81.3379 66.3531 84.2197 55.3308C87.1893 43.9724 92.9698 26.5697 92.9698 26.5697L60.9772 0Z" fill="white"/>
</svg>
