<svg width="397" height="110" viewBox="0 0 397 110" fill="none" xmlns="http://www.w3.org/2000/svg">
<path d="M188.581 68.9473H183.199C183.199 68.9473 177.711 69.7309 176.47 65.2537C175.512 61.7963 176.17 58.8472 177.143 55.4041C177.996 52.3843 179.065 51.3924 180.507 49.2481C183.062 45.4484 186.72 47.4795 187.909 41.8609C188.572 38.722 187.859 36.6069 187.909 33.2425C188 26.9757 189.224 23.3946 188.581 17.2368C187.787 9.62156 183.199 0 183.199 0H188.581C188.581 0 193.57 7.83158 194.637 14.7744C195.784 22.2378 193.915 26.8051 193.292 34.4737C192.821 40.2594 194.063 44.865 191.946 49.2481C189.624 54.0549 184.987 47.4243 183.199 52.9417C182.251 55.8659 181.996 58.3015 182.526 61.5601C183.336 66.5449 188.581 68.9473 188.581 68.9473Z" fill="#1E1E1E"/>
<path d="M141.243 14.3045L143.598 19.5435C143.598 19.5435 147.573 24.0559 139.127 29.9988C132.604 34.588 126.395 37.0671 119.056 39.7615C112.619 42.1247 110.16 42.1336 105.224 42.9982C96.4767 44.5303 98.954 38.8216 87.1529 43.6079C80.5601 46.2818 76.6256 49.2128 69.8488 52.7233C57.226 59.2621 49.5005 61.8587 37.4181 68.9971C22.4758 77.8251 5.16535 92.4669 5.16535 92.4669L2.80979 87.228C2.80979 87.228 16.3511 74.0895 29.824 65.7077C44.307 56.6975 54.2955 53.6865 69.9652 46.1821C81.7877 40.5203 90.4916 34.441 100.218 31.8654C110.885 29.0408 99.6018 40.5671 111.462 36.4721C117.748 34.3018 122.75 31.9739 129.061 28.0116C138.714 21.9503 141.243 14.3045 141.243 14.3045Z" fill="#1E1E1E"/>
<path d="M255.611 24.3045L253.255 29.5435C253.255 29.5435 249.28 34.0559 257.727 39.9988C264.249 44.588 270.458 47.0671 277.797 49.7615C284.234 52.1247 286.693 52.1336 291.63 52.9982C300.377 54.5303 297.9 48.8216 309.701 53.6079C316.293 56.2818 320.228 59.2128 327.005 62.7233C339.627 69.2621 347.353 71.8587 359.435 78.9971C374.378 87.8251 391.688 102.467 391.688 102.467L394.044 97.228C394.044 97.228 380.502 84.0895 367.03 75.7077C352.547 66.6975 342.558 63.6865 326.888 56.1821C315.066 50.5203 306.362 44.441 296.635 41.8654C285.968 39.0408 297.252 50.5671 285.391 46.4721C279.105 44.3018 274.104 41.9739 267.793 38.0116C258.139 31.9503 255.611 24.3045 255.611 24.3045Z" fill="#1E1E1E"/>
</svg>
