<svg width="150" height="350" viewBox="0 0 15 35" fill="none" xmlns="http://www.w3.org/2000/svg">
<path d="M5.06878 34.9733H9.31843C9.31843 34.9733 13.6511 35.3708 14.6305 33.0997C15.3868 31.3459 14.8677 29.85 14.0993 28.1035C13.4254 26.5717 12.5816 26.0686 11.4433 24.9809C9.42611 23.0535 6.53799 24.0838 5.59999 21.2338C5.07597 19.6416 5.63892 18.5687 5.59999 16.8621C5.52747 13.6833 4.56141 11.8668 5.06878 8.74332C5.69625 4.8805 9.31843 -8.5091e-08 9.31843 -8.5091e-08H5.06878C5.06878 -8.5091e-08 1.13042 3.97254 0.287931 7.49427C-0.617716 11.28 0.858388 13.5968 1.35034 17.4866C1.72151 20.4214 0.741551 22.7576 2.41276 24.9809C4.24553 27.4192 7.90651 24.0558 9.31843 26.8545C10.0667 28.3378 10.268 29.5732 9.84964 31.2261C9.20962 33.7546 5.06878 34.9733 5.06878 34.9733Z" fill="#1E1E1E"/>
</svg>
