<svg width="598" height="180" viewBox="0 0 598 100" fill="none" xmlns="http://www.w3.org/2000/svg">
<path d="M299.833 110.563H305.215C305.215 110.563 310.703 111.449 311.944 106.388C312.902 102.48 312.244 99.146 311.271 95.2538C310.418 91.84 309.349 90.7188 307.907 88.2948C305.352 83.9995 301.694 86.2955 300.505 79.944C299.842 76.3957 300.555 74.0048 300.505 70.2015C300.414 63.1173 299.19 59.0691 299.833 52.1082C300.627 43.4996 305.215 32.623 305.215 32.623H299.833C299.833 32.623 294.844 41.4761 293.777 49.3246C292.63 57.7614 294.499 62.9244 295.123 71.5933C295.593 78.1337 294.351 83.34 296.468 88.2948C298.79 93.7286 303.427 86.2332 305.215 92.4702C306.163 95.7758 306.418 98.529 305.888 102.213C305.078 107.848 299.833 110.563 299.833 110.563Z" fill="#1E1E1E"/>
<path d="M291.806 41.6424L294.161 46.8814C294.161 46.8814 298.013 51.4588 290.271 57.0305C284.292 61.3332 278.548 63.5679 271.75 65.9769C265.789 68.0898 263.485 68.0164 258.887 68.7033C250.737 69.9205 252.895 64.3801 241.978 68.7007C235.879 71.1144 232.277 73.8701 226.03 77.1018C214.393 83.1211 207.231 85.4209 196.118 92.0489C182.374 100.246 166.577 114.09 166.577 114.09L164.221 108.851C164.221 108.851 176.53 96.3617 188.911 88.5554C202.22 80.1638 211.489 77.5314 225.953 70.6626C236.865 65.4804 244.844 59.7828 253.881 57.5705C263.792 55.1444 253.551 66.121 264.544 62.4834C270.37 60.5555 274.988 58.4294 280.786 54.7372C289.655 49.0891 291.806 41.6424 291.806 41.6424Z" fill="#1E1E1E"/>
<path d="M348 63.1368L366.501 70.6927L390.42 65.2446C390.42 65.2446 402.976 58.7033 417 52.8541C421.727 50.883 433.059 52.209 439.558 54.0284C450.189 57.0045 451.228 56.9759 461.501 57.962C471.2 58.8932 476.581 62.9787 493.94 70.6927C503.637 75.0023 520.896 84.3922 531.001 89.6559C549.822 99.4602 536.239 103.276 554.413 113.623C576.888 126.419 575.913 134.924 575.913 134.924L588.913 134.924C588.913 134.924 581.753 122.123 561.412 110.123C539.547 97.224 550.256 90.8733 527 79.373C509.455 70.6964 487.629 59.9606 473.567 55.101C458.145 49.7717 454.758 47.8754 442.983 45.8708C431.693 43.9487 424.662 42.6931 415.269 44.8516C406.258 46.9225 404.022 48.5799 395.5 52.8541C375 63.1368 348 63.1368 348 63.1368Z" fill="#1E1E1E"/>
<path d="M249.263 63.1368L230.762 70.6927L206.843 65.2446C206.843 65.2446 194.287 58.7033 180.262 52.8541C175.536 50.883 164.203 52.209 157.705 54.0284C147.074 57.0045 146.035 56.9759 135.762 57.962C126.063 58.8932 120.682 62.9787 103.323 70.6927C93.6252 75.0023 76.3671 84.3922 66.2622 89.6559C47.4405 99.4602 61.0236 103.276 42.8501 113.623C20.3751 126.419 21.3501 134.924 21.3501 134.924L8.35014 134.924C8.35014 134.924 15.5097 122.123 35.8503 110.123C57.7158 97.224 47.0072 90.8733 70.2625 79.373C87.8081 70.6964 109.633 59.9606 123.696 55.101C139.118 49.7717 142.504 47.8754 154.28 45.8708C165.57 43.9487 172.6 42.6931 181.993 44.8516C191.005 46.9225 193.241 48.5799 201.762 52.8541C222.262 63.1368 249.263 63.1368 249.263 63.1368Z" fill="#1E1E1E"/>
<path d="M305.014 42.7249L302.659 47.9639C302.659 47.9639 298.807 52.5413 306.549 58.1131C312.528 62.4157 318.273 64.6504 325.07 67.0594C331.032 69.1723 333.335 69.099 337.934 69.7858C346.083 71.003 343.925 65.4626 354.842 69.7832C360.941 72.1969 364.543 74.9526 370.791 78.1843C382.427 84.2036 389.589 86.5034 400.703 93.1314C414.447 101.328 430.243 115.173 430.243 115.173L432.599 109.934C432.599 109.934 420.29 97.4443 407.909 89.6379C394.601 81.2463 385.331 78.6139 370.868 71.7452C359.956 66.5629 351.976 60.8654 342.939 58.6531C333.029 56.2269 343.269 67.2035 332.277 63.5659C326.451 61.638 321.832 59.512 316.034 55.8197C307.165 50.1716 305.014 42.7249 305.014 42.7249Z" fill="#1E1E1E"/>
</svg>
