<svg width="234" height="66" viewBox="0 0 234 66" fill="none" xmlns="http://www.w3.org/2000/svg">
<g clip-path="url(#clip0_471_3)">
<path d="M62.378 67.9034L65.5687 65.0965C65.5687 65.0965 69.5784 63.095 65.9908 57.5338C63.2204 53.2394 59.9831 50.3454 56.0817 47.0737C52.6599 44.2042 51.0687 43.6728 48.1435 42.0711C42.9602 39.2328 42.7529 43.3698 36.6235 37.8223C33.1993 34.7231 31.5798 32.0298 28.302 28.3627C22.1966 21.5321 18.0136 18.2396 12.4489 11.1457C5.56708 2.37264 -1.00337 -10.5805 -1.00337 -10.5805L-4.19413 -7.7736C-4.19413 -7.7736 0.410607 3.42367 6.48171 11.6006C13.0079 20.3906 18.5262 24.4288 26.3 32.5209C32.1651 38.6262 35.8763 44.3286 41.3631 48.0357C47.3805 52.1012 43.7271 42.4053 50.1145 47.5287C53.4998 50.244 56.0026 52.7844 58.8349 56.6374C63.1674 62.5315 62.378 67.9034 62.378 67.9034Z" fill="#1E1E1E"/>
<path d="M181.138 68.1669L177.674 65.7052C177.674 65.7052 173.482 64.1245 176.456 58.2487C178.753 53.7113 181.661 50.5155 185.189 46.8783C188.282 43.6882 189.806 43.001 192.54 41.118C197.386 37.7814 198.029 41.8626 203.528 35.7443C206.6 32.3262 207.923 29.4925 210.79 25.5259C216.129 18.1377 219.934 14.4515 224.709 6.85666C230.614 -2.53582 235.768 -16.0418 235.768 -16.0418L239.232 -13.5801C239.232 -13.5801 235.844 -2.01322 230.68 6.70656C225.13 16.08 220.079 20.6402 213.216 29.4474C208.039 36.0922 204.957 42.1205 199.902 46.3492C194.357 50.9867 196.96 41.0045 191.16 46.7282C188.086 49.7618 185.87 52.5329 183.466 56.6389C179.787 62.9198 181.138 68.1669 181.138 68.1669Z" fill="#1E1E1E"/>
<path d="M124.37 61.0557L120.122 61.1592C120.122 61.1592 115.816 62.2868 114.694 56.4707C113.828 51.9794 114.254 48.1201 114.912 43.6103C115.49 39.655 116.302 38.3407 117.372 35.516C119.268 30.5107 122.22 33.0897 122.979 25.7381C123.403 21.6311 122.773 18.886 122.705 14.4966C122.578 6.32063 123.43 1.6261 122.728 -6.39351C121.858 -16.3113 117.932 -28.7731 117.932 -28.7731L122.18 -28.8766C122.18 -28.8766 126.366 -18.7573 127.429 -9.72179C128.571 -0.00894844 127.241 5.98442 126.993 15.999C126.805 23.5548 127.931 29.5383 126.4 35.2961C124.72 41.6106 120.85 33.051 119.614 40.2821C118.958 44.1145 118.835 47.2963 119.356 51.5365C120.155 58.0229 124.37 61.0557 124.37 61.0557Z" fill="#1E1E1E"/>
</g>
<defs>
<clipPath id="clip0_471_3">
<rect width="234" height="66" fill="white"/>
</clipPath>
</defs>
</svg>
