<svg width="104" height="52" viewBox="0 0 104 52" fill="none" xmlns="http://www.w3.org/2000/svg">
<path d="M2 26C2 13.2975 12.2975 3 25 3H79C91.7025 3 102 13.2975 102 26V26C102 38.7025 91.7025 49 79 49H25C12.2975 49 2 38.7025 2 26V26Z" fill="white"/>
<path d="M64.0156 0.761719L64.5781 0.84375L65.1406 0.914062C65.7537 0.996428 66.3279 1.22478 66.8516 1.54688L67.4141 1.89844L67.6836 2.07422L68.0117 1.83984L68.5742 1.44141L69.1367 1.125C69.5333 0.955816 69.9669 0.883001 70.4141 0.925781L71.0938 1.07812L72.2188 1.5C72.5207 1.61268 72.8172 1.69747 73.1094 1.75781L74.2344 1.99219C74.3974 2.02567 74.5604 2.03011 74.7266 1.99219L75.8516 1.73438C76.4588 1.59509 77.076 1.5943 77.6797 1.74609L78.8047 2.02734C78.8305 2.03383 78.8669 2.04814 78.9688 2.00391L79.543 1.75781L80.1172 1.5C80.7211 1.23533 81.3706 1.1281 82.0391 1.20703L82.6133 1.26562L83.1875 1.33594C83.8617 1.41653 84.4699 1.6855 84.9922 2.09766L85.4844 2.48438L85.9648 2.87109C86.0258 2.91927 86.0533 2.91844 86.0938 2.91797H86.6914L87.2891 2.90625C87.842 2.89823 88.3921 2.97647 88.918 3.14062L89.4688 3.30469L90.0195 3.48047C90.7678 3.71405 91.3493 4.20339 91.7422 4.83984L92.0703 5.37891L92.4102 5.92969C92.5007 6.07569 92.5804 6.12569 92.6328 6.15234L93.1367 6.41016L93.6523 6.65625C94.2475 6.94983 94.7248 7.39539 95.0703 7.95703L95.6797 8.94141C95.6951 8.96538 95.7226 8.9968 95.8203 9.03516L96.4062 9.26953L96.9805 9.49219C97.3901 9.65108 97.7815 9.91041 98.082 10.3008C98.2323 10.4969 98.3521 10.7083 98.4336 10.9219L98.5859 11.5664L98.668 12.1992L98.7383 12.8203L99.1836 13.1484L99.6641 13.5C100.113 13.8289 100.507 14.2288 100.824 14.6836L101.48 15.6211C101.819 16.1057 102.046 16.6466 102.16 17.2266L102.277 17.7891L102.383 18.3633C102.465 18.7836 102.529 19.2071 102.57 19.6289L102.629 20.1914L102.676 20.7539C102.693 20.9272 102.753 21.1025 102.852 21.293L103.121 21.832L103.402 22.3594C103.81 23.1468 103.801 24.0013 103.449 24.7734L103.18 25.3477L102.98 25.7812L103.262 26.2734L103.602 26.8477C103.836 27.2455 104 27.7447 103.953 28.3008C103.905 28.8556 103.667 29.3195 103.367 29.6719L102.5 30.6797L102.57 31.1953L102.652 31.793C102.727 32.342 102.72 32.8912 102.617 33.4336L102.512 33.9961L102.406 34.5703C102.267 35.3074 101.879 35.9249 101.328 36.3984L100.859 36.7969L100.391 37.207C100.256 37.3229 100.19 37.4224 100.156 37.5117L99.957 38.0508L99.7695 38.5781C99.5921 39.0616 99.3469 39.5109 99.043 39.9258L98.7148 40.3828L98.375 40.8281C98.1027 41.1991 97.8046 41.5526 97.4727 41.8711L97.0625 42.2578L96.6641 42.6445C96.5134 42.7891 96.3752 42.9722 96.2539 43.1953L95.9727 43.7109L95.6797 44.2383C95.4049 44.7437 95.0511 45.19 94.6133 45.5625L94.168 45.9375L93.7344 46.3125C93.3372 46.65 92.8954 46.9262 92.4219 47.1445L91.3672 47.6367C90.9882 47.8113 90.6046 47.9696 90.2188 48.1172L89.6797 48.3164L89.1523 48.5273C88.835 48.6487 88.522 48.7802 88.2148 48.9258L87.6875 49.1719L87.1719 49.418C86.7906 49.5988 86.3981 49.7723 86 49.9219L84.9219 50.3203C84.2299 50.5803 83.5097 50.5822 82.8242 50.3789L81.6289 50.0273C81.5426 50.0018 81.5169 50.0154 81.4883 50.0273L80.9375 50.25L80.3867 50.4844C79.9544 50.6643 79.5119 50.8064 79.0625 50.918L77.9375 51.1992C77.4518 51.3197 76.9568 51.3831 76.4609 51.3867H75.8984L75.3359 51.3984C74.6075 51.4032 73.9401 51.1573 73.3672 50.7773L72.8047 50.4023L72.5 50.2031L72.207 50.4023L71.6445 50.7656C71.0133 51.1792 70.2548 51.3956 69.4414 51.2578L68.3164 51.0703C67.8687 50.9942 67.4206 50.8849 66.9805 50.7422L66.418 50.5664L65.8555 50.3789C65.5112 50.2673 65.1668 50.1617 64.8242 50.0742L63.6992 49.793C63.4773 49.7364 63.2626 49.7189 63.0547 49.7344L62.4922 49.7695L61.9297 49.8164C61.8549 49.8226 61.7193 49.8486 61.5195 49.9805L60.3945 50.7305C59.6626 51.2119 58.773 51.369 57.8867 51.0117L57.3242 50.7773L56.7617 50.5547C56.5691 50.4769 56.4033 50.4549 56.2578 50.4609L55.1328 50.5078C54.6332 50.5284 54.1366 50.4815 53.6445 50.3789L52.5195 50.1445C52.4692 50.134 52.4056 50.1331 52.2969 50.1797L51.1719 50.6719C50.3547 51.026 49.493 50.9642 48.7344 50.5547L47.6094 49.9453C47.4162 49.8407 47.2709 49.8078 47.1641 49.8047L46.6016 49.793L46.0391 49.7695C45.8101 49.764 45.5672 49.7992 45.3242 49.8633L44.7617 50.0039L44.1992 50.1562C43.8681 50.2438 43.5374 50.3532 43.2031 50.4727L42.0781 50.8711C41.4675 51.0892 40.8247 51.1523 40.1797 51.0352L39.0547 50.8242C38.7916 50.7763 38.5274 50.7643 38.2695 50.7773L37.707 50.8008L37.1445 50.8359C36.7128 50.8576 36.2753 50.8524 35.8438 50.8242L34.7188 50.7539C34.3437 50.7294 33.9688 50.6991 33.5938 50.6719L33.0312 50.625L32.4688 50.5898C32.1118 50.5639 31.7474 50.5442 31.3906 50.5312L30.2656 50.4844C30.0646 50.4773 29.8552 50.5105 29.6328 50.5781L29.0703 50.7422L28.5078 50.918C27.6986 51.1639 26.9037 51.0291 26.2109 50.6367L25.6484 50.3203L25.168 50.0508L24.7109 50.25L24.1367 50.4961C23.5113 50.7649 22.8334 50.8637 22.1445 50.7422L21.582 50.6367L21.0195 50.543C20.5702 50.4637 20.1272 50.3483 19.6953 50.2031L19.1562 50.0273L18.6172 49.8398C18.0391 49.6456 17.5242 49.3292 17.082 48.9141L16.6367 48.5039L16.2031 48.082C16.1888 48.0686 16.1736 48.0624 16.168 48.0586H16.1562V48.0469C16.1524 48.046 16.1371 48.0475 16.1211 48.0469L14.9258 48C14.2781 47.9728 13.662 47.7848 13.1094 47.4258L12.6289 47.1211L12.1602 46.8164C11.927 46.6648 11.6738 46.5321 11.3984 46.418L10.3203 45.9727C9.64832 45.6948 9.11 45.2136 8.75 44.5898L8.45703 44.0742L8.15234 43.5586C8.12867 43.5184 8.10396 43.4793 8.01172 43.4414L7.4375 43.207L6.85156 42.9727C6.42606 42.7978 6.02868 42.5046 5.73828 42.082C5.45503 41.6683 5.33552 41.2108 5.30469 40.7812L5.25781 40.1016L5.21094 39.4336L4.80078 39.1406L4.33203 38.7773C3.65984 38.2726 3.2707 37.5485 3.21875 36.7148L3.18359 36.1172L3.13672 35.5195C3.12395 35.3139 3.08267 35.1578 3.01953 35.0391L2.76172 34.5586L2.50391 34.0664C2.37392 33.822 2.21111 33.5667 2.01172 33.3047L1.63672 32.8242L1.27344 32.332C0.867259 31.7988 0.606062 31.1841 0.546875 30.5039L0.5 29.9297L0.453125 29.3672C0.420843 28.9962 0.386349 28.6227 0.347656 28.2539L0.289062 27.6914L0.230469 27.1172C0.157118 26.4138 0.305297 25.7412 0.628906 25.1367L0.921875 24.5859L1.21484 24.0469C1.32534 23.8405 1.36793 23.6713 1.37891 23.543L1.42578 22.9922L1.47266 22.4531C1.50064 22.1005 1.52136 21.7371 1.54297 21.375L1.57812 20.8242L1.61328 20.2617C1.64061 19.8049 1.70782 19.3486 1.8125 18.9023L1.94141 18.3633L2.05859 17.8125C2.20435 17.1921 2.51248 16.6396 2.9375 16.1719L3.32422 15.75L3.71094 15.3164C3.72942 15.2961 3.75034 15.2707 3.75781 15.1758L3.85156 13.9336L3.98047 13.2656C4.19418 12.6334 4.64519 12.129 5.26953 11.8125L5.83203 11.5312L6.30078 11.2734L6.41797 10.7461L6.53516 10.125C6.67061 9.45639 6.97623 8.83426 7.47266 8.33203L7.88281 7.92188L8.28125 7.51172C8.54941 7.24132 8.81759 6.96656 9.08984 6.69141L9.91016 5.87109C10.2496 5.52806 10.6254 5.21837 11.0234 4.94531L11.5039 4.60547L11.9844 4.27734C12.5848 3.86639 13.2732 3.69386 13.9766 3.70312H14.6094L15.2539 3.71484C15.6061 3.71947 15.9176 3.69934 16.1914 3.65625L16.7539 3.5625L17.3047 3.48047C17.5939 3.43464 17.8732 3.36928 18.1367 3.28125L19.168 2.92969C19.3556 2.86691 19.5678 2.76588 19.8008 2.60156L20.3047 2.23828L20.8086 1.88672C21.347 1.5064 21.9662 1.26124 22.6367 1.20703L23.2109 1.16016L23.7734 1.11328C24.0017 1.09482 24.2525 1.09268 24.4883 1.11328C24.6128 1.12435 24.9236 1.18999 25.2617 1.37109L25.7188 1.24219L26.2812 1.07812C27.002 0.874787 27.7283 0.942221 28.4023 1.23047L28.9648 1.46484L29.5273 1.71094C29.7776 1.81777 30.0122 1.87292 30.2305 1.89844L30.793 1.96875L31.3555 2.02734C31.432 2.03615 31.5362 2.0358 31.6836 1.96875L32.2461 1.69922L32.8086 1.44141L33.4414 1.24219C33.8686 1.15929 34.2967 1.18738 34.707 1.3125L35.3047 1.57031L35.8672 1.89844L36.2305 2.10938L36.6055 1.88672L37.168 1.54688L37.7656 1.27734C38.378 1.07919 39.0374 1.10803 39.6758 1.39453L40.2383 1.64062L40.707 1.86328L41.1992 1.60547L41.7617 1.32422L42.3594 1.08984C42.7727 0.985717 43.1978 0.980646 43.6133 1.07812L44.2344 1.30078L44.7969 1.58203L45.2305 1.80469L45.6875 1.57031L46.25 1.27734L46.8242 1.05469C47.2136 0.946177 47.6164 0.928429 48.0195 0.996094L48.6289 1.16016L49.1914 1.39453L49.7539 1.61719C49.7874 1.63055 49.805 1.63994 49.8125 1.64062C49.8158 1.64077 49.8315 1.63775 49.8594 1.62891L50.9844 1.27734L51.5703 1.14844C52.1463 1.0877 52.7129 1.20262 53.2344 1.46484L53.7969 1.74609L54.3594 2.03906C54.4936 2.10676 54.5716 2.10295 54.6172 2.09766L55.7422 1.95703C56.046 1.91801 56.3584 1.85431 56.668 1.76953L57.793 1.46484C58.3191 1.3208 58.8555 1.25692 59.3984 1.28906L60.5234 1.35938C60.7068 1.37039 60.9013 1.34277 61.1094 1.27734L62.2344 0.925781C62.8104 0.744253 63.4142 0.681668 64.0156 0.761719ZM63.1367 3.78516L62.0117 4.13672C61.4703 4.30732 60.9139 4.38165 60.3477 4.34766L59.7852 4.3125L59.2227 4.28906C59.0171 4.27672 58.8005 4.29846 58.5781 4.35938L57.4531 4.66406C57.0146 4.78389 56.5732 4.87654 56.1289 4.93359L55.0039 5.07422C54.2991 5.16474 53.6234 5.01958 53.0117 4.71094L51.8633 4.13672L51.3242 4.3125L50.7617 4.48828C50.0455 4.71445 49.3158 4.67225 48.6289 4.39453L48.0664 4.17188L47.5742 3.96094L47.0586 4.24219L46.4961 4.52344C45.7017 4.93266 44.8292 4.94623 44.0234 4.54688L43.4609 4.26562L43.0039 4.04297L42.5586 4.27734L41.9961 4.57031C41.2277 4.96212 40.3712 4.98837 39.5703 4.62891L39.0078 4.38281L38.5859 4.18359L38.1406 4.46484L37.5781 4.79297C36.7431 5.28823 35.7904 5.30328 34.9414 4.81641L34.3789 4.5L33.9219 4.23047L33.5 4.42969L32.9375 4.6875C32.3374 4.9632 31.6881 5.093 31.0156 5.01562L29.8906 4.875C29.3608 4.81389 28.8411 4.67754 28.3438 4.46484L27.7812 4.21875L27.2188 3.98438C27.1731 3.96518 27.1447 3.96151 27.1367 3.96094C27.1298 3.96082 27.1184 3.95664 27.1016 3.96094L25.9766 4.28906C25.7474 4.35388 25.4774 4.41066 25.2148 4.42969C25.0597 4.44093 24.5039 4.47155 23.9961 4.10156L23.4453 4.14844L22.8828 4.19531C22.7923 4.20263 22.68 4.23914 22.543 4.33594L22.0391 4.6875L21.5352 5.05078C21.0938 5.36253 20.6186 5.60983 20.1172 5.77734L19.6016 5.95312L19.0859 6.11719C18.6609 6.25918 18.2217 6.37434 17.7734 6.44531L17.2109 6.52734L16.6602 6.62109C16.1983 6.69391 15.7163 6.72117 15.2188 6.71484L14.5742 6.70312H13.9297C13.7886 6.70177 13.7234 6.72362 13.6836 6.75L13.2031 7.08984L12.7227 7.41797C12.4805 7.58404 12.2493 7.77196 12.043 7.98047L11.2227 8.80078C10.9504 9.07591 10.6822 9.35067 10.4141 9.62109L10.0039 10.0312L9.60547 10.4414C9.56668 10.4808 9.50994 10.5491 9.47656 10.7109L9.35938 11.3438L9.23047 11.9648C9.05666 12.8228 8.53578 13.5216 7.74219 13.9219L7.17969 14.2031L6.81641 14.3789L6.79297 14.7656L6.75781 15.3867C6.70596 16.108 6.43705 16.781 5.9375 17.332L5.53906 17.7656L5.15234 18.1875C5.05748 18.2919 5.0133 18.3973 4.98828 18.5039L4.85938 19.043L4.73047 19.5938C4.6651 19.8728 4.61873 20.1533 4.60156 20.4375L4.56641 21L4.54297 21.5508C4.52022 21.932 4.49051 22.3149 4.46094 22.6875L4.41406 23.2266L4.36719 23.7773C4.31967 24.3711 4.14166 24.9321 3.86328 25.4531L3.27734 26.5547C3.20938 26.6816 3.20162 26.761 3.20703 26.8125L3.32422 27.9375C3.3648 28.3242 3.40757 28.7205 3.44141 29.1094L3.48828 29.6719L3.53516 30.2461C3.54222 30.3244 3.57066 30.4076 3.65234 30.5156L4.02734 30.9961L4.39062 31.4883C4.67955 31.8676 4.93851 32.2581 5.15234 32.6602L5.41016 33.1406L5.66797 33.6328C5.94934 34.1625 6.09987 34.7385 6.13672 35.332L6.17188 35.9297L6.19531 36.4219L6.60547 36.7383L7.08594 37.0898C7.79939 37.6258 8.14201 38.4042 8.19922 39.2227L8.24609 39.8906L8.26953 40.3008L8.57422 40.4297L9.14844 40.6641C9.82417 40.9414 10.3808 41.4133 10.7539 42.0586L11.0586 42.5742L11.3516 43.0898C11.3888 43.1543 11.422 43.176 11.4688 43.1953L12.5469 43.6406C12.9869 43.8229 13.4073 44.041 13.8008 44.2969L14.2695 44.6016L14.7383 44.918C14.813 44.9666 14.9094 44.9941 15.0547 45L16.25 45.0469C17.013 45.0787 17.7018 45.3839 18.2539 45.9023L18.6992 46.3125L19.1328 46.7227C19.2788 46.8598 19.4248 46.9437 19.5664 46.9922L20.1172 47.1797L20.6562 47.3555C20.9455 47.4526 21.2448 47.5365 21.5469 47.5898L22.1094 47.6836L22.6719 47.7891C22.7344 47.7996 22.8187 47.8 22.9531 47.7422L23.5273 47.4961L24.0898 47.25L24.7227 47.0625C25.142 46.9886 25.562 47.0104 25.9648 47.1328L26.5625 47.3906L27.125 47.707L27.6758 48.0234L28.2031 47.8828L28.7656 47.707C29.2894 47.5483 29.8261 47.4769 30.3711 47.4961L30.9336 47.5078L31.4961 47.5312C31.889 47.5455 32.2869 47.573 32.6797 47.6016L33.2422 47.6367L33.8047 47.6836C34.1754 47.7106 34.5473 47.7297 34.918 47.7539L36.043 47.8242C36.359 47.8448 36.6764 47.8517 36.9922 47.8359L37.5547 47.8125L38.1172 47.7773C38.6093 47.7525 39.1069 47.7824 39.5938 47.8711L40.7188 48.082C40.8221 48.1004 40.9329 48.096 41.0703 48.0469L42.1953 47.6484C42.608 47.5011 43.0216 47.3715 43.4375 47.2617L44.5625 46.957C45.0695 46.8233 45.5883 46.7686 46.1094 46.7812L47.2344 46.8047C47.8768 46.8204 48.4846 46.9966 49.0391 47.2969L49.6016 47.6016L50.082 47.8594L50.5391 47.6719L51.1016 47.4258C51.7406 47.1492 52.4302 47.0687 53.1289 47.2148L54.2539 47.4492C54.5098 47.5027 54.7673 47.5181 55.0156 47.5078L56.1406 47.4609C56.7431 47.4368 57.3311 47.5528 57.8867 47.7773L58.4492 48L58.8359 48.1523L59.3047 47.8477L59.8672 47.4844C60.4131 47.124 61.0328 46.879 61.707 46.8281L62.832 46.7344C63.3721 46.6943 63.9113 46.7528 64.4375 46.8867L65.5625 47.168C65.9673 47.2714 66.3781 47.3889 66.7812 47.5195L67.9062 47.8945C68.2138 47.9943 68.5204 48.0663 68.8203 48.1172L69.3828 48.2109L69.9102 48.293C69.9235 48.2879 69.9599 48.2866 70.0039 48.2578L70.5664 47.8828L71.1289 47.5195L71.7617 47.2148C71.9943 47.1386 72.2443 47.0853 72.5117 47.0859C72.7776 47.087 73.031 47.1381 73.2617 47.2148L73.9062 47.5312L74.4688 47.9062L75.0312 48.2695C75.2075 48.3863 75.2913 48.3986 75.3125 48.3984L75.875 48.3867H76.4375C76.6894 48.385 76.9473 48.3582 77.2109 48.293L78.3359 48.0117C78.6365 47.9371 78.9414 47.8307 79.2383 47.707L79.7891 47.4844L80.3281 47.25C81.0296 46.9578 81.7731 46.9453 82.4844 47.1562L83.6797 47.5078C83.7912 47.5409 83.8381 47.5304 83.8672 47.5195L84.4062 47.3086L84.9453 47.1094C85.2672 46.9884 85.5885 46.8561 85.8945 46.7109L86.9258 46.2188C87.3044 46.0392 87.6947 45.8762 88.0859 45.7266L88.6133 45.5156L89.1523 45.3164C89.475 45.1929 89.7941 45.0533 90.1133 44.9062L90.6406 44.6602L91.168 44.4258C91.3946 44.3213 91.6001 44.1879 91.7891 44.0273L92.2344 43.6523L92.668 43.2773C92.8147 43.1526 92.9384 43.0002 93.043 42.8086L93.3359 42.2812L93.6172 41.7539C93.876 41.2783 94.2024 40.8482 94.5898 40.4766L94.9883 40.0898L95.3984 39.7031C95.6046 39.5052 95.7916 39.2894 95.9609 39.0586L96.2891 38.6016L96.6172 38.1562C96.7533 37.9708 96.864 37.7674 96.9453 37.5469L97.1445 37.0078L97.3438 36.4805C97.5697 35.8669 97.9476 35.3514 98.4336 34.9336L98.9023 34.5234L99.3711 34.125C99.4449 34.0617 99.4495 34.0272 99.4531 34.0078L99.5586 33.4453L99.6641 32.8711C99.7035 32.6594 99.7076 32.4399 99.6758 32.2031L99.6055 31.6055L99.5234 31.0078C99.4067 30.1404 99.6867 29.3546 100.215 28.7344L100.648 28.2305L100.812 28.0195L100.684 27.7969L100.344 27.2109C99.8875 26.4357 99.8 25.5393 100.191 24.6797L100.449 24.1055L100.672 23.625L100.461 23.2148L100.191 22.6758C99.9258 22.1642 99.7558 21.6208 99.6992 21.0469L99.582 19.9219C99.5503 19.5965 99.5053 19.2656 99.4414 18.9375L99.3242 18.3633L99.2188 17.8008C99.1853 17.6322 99.1184 17.4854 99.0195 17.3438L98.6914 16.875L98.3633 16.3945C98.2421 16.2216 98.0871 16.0668 97.8945 15.9258L96.9336 15.2227C96.2537 14.7247 95.8732 14.0069 95.7734 13.207L95.6914 12.5742L95.6328 12.1758L95.3164 12.0586L94.7422 11.8359C94.0781 11.5783 93.512 11.1383 93.125 10.5117L92.5156 9.52734C92.4609 9.43862 92.404 9.38975 92.3281 9.35156L91.8125 9.09375L91.3086 8.84766C90.6877 8.54143 90.2063 8.06911 89.8555 7.5L89.5273 6.96094L89.1875 6.42188C89.1638 6.38346 89.1481 6.35882 89.1406 6.35156H89.1289L88.5781 6.17578L88.0156 6C87.8038 5.93446 87.5792 5.90272 87.3359 5.90625L86.7383 5.91797H86.1406C85.3844 5.92894 84.6858 5.68866 84.1016 5.22656L83.6211 4.83984L83.1289 4.45312C83.0101 4.35997 82.9186 4.32303 82.8359 4.3125L82.2617 4.25391L81.6875 4.18359C81.5954 4.17274 81.4838 4.18395 81.3242 4.25391L80.1758 4.74609C79.5145 5.03589 78.7904 5.12738 78.0664 4.94531L76.9414 4.66406C76.7966 4.62823 76.661 4.61989 76.5195 4.65234L75.3945 4.91016C74.8124 5.0433 74.222 5.05367 73.6367 4.93359L72.5117 4.69922C72.0579 4.606 71.6079 4.47836 71.1641 4.3125L70.6016 4.10156L70.2148 3.94922L69.7344 4.30078L69.1719 4.6875C68.8028 4.94747 68.3434 5.15576 67.8125 5.17969C67.2791 5.20255 66.8026 5.0361 66.4062 4.79297L65.8438 4.45312L65.2812 4.10156C65.0577 3.96408 64.877 3.90897 64.7422 3.89062L64.1797 3.82031L63.6172 3.73828C63.4686 3.7185 63.3107 3.73035 63.1367 3.78516Z" fill="#1E1E1E"/>
</svg>
