<svg width="30" height="33" viewBox="0 0 30 33" fill="none" xmlns="http://www.w3.org/2000/svg">
<path d="M4.37648 21.6457L10.5407 13.9234L15.9732 20.016L10.117 26.991C10.117 26.991 10.096 34.6498 6.54188 30.8649C4.50803 28.6989 5.50414 26.6873 5.50414 26.6873C5.50414 26.6873 3.30931 27.1324 1.3349 25.7805C-2.0814 23.4414 4.37648 21.6457 4.37648 21.6457Z" fill="white"/>
<path d="M10.856 6.74651C12.5863 2.27684 14.8318 2.36804 18.9317 1.12929C21.8431 0.24965 28.8496 -0.149872 27.4678 10.9746C26.8539 15.9167 16 20 16 20L10.5 14C10.5 14 9.81156 9.44433 10.856 6.74651Z" fill="#F1BA7D"/>
</svg>
